<svg width="43" height="44" viewBox="0 0 43 44" fill="none" xmlns="http://www.w3.org/2000/svg">
<path d="M14.5558 14.8892L15.4649 15.8645L16.195 15.184L15.7478 14.2917L14.5558 14.8892ZM9.20882 4.22251L10.4008 3.625C10.2195 3.2634 9.88388 3.00363 9.48838 2.91881C9.09288 2.83399 8.68026 2.93332 8.36666 3.18882L9.20882 4.22251ZM28.7775 29.1116L29.375 27.9196L28.4827 27.4723L27.8022 28.2024L28.7775 29.1116ZM39.4441 34.4586L40.4779 35.3007C40.7334 34.9871 40.8328 34.5745 40.748 34.179C40.6632 33.7836 40.4033 33.4479 40.0417 33.2666L39.4441 34.4586ZM2.73837 14.3903C3.25688 16.9597 4.12082 19.4952 5.87997 22.5614L8.19298 21.2344C6.58002 18.423 5.81567 16.1587 5.35243 13.8632L2.73837 14.3903ZM7.94559 22.8732L15.4649 15.8645L13.6467 13.9138L6.12737 20.9226L7.94559 22.8732ZM15.7478 14.2917L10.4008 3.625L8.01686 4.82002L13.3638 15.4867L15.7478 14.2917ZM8.36666 3.18882C5.67837 5.37899 1.64308 8.95321 2.73837 14.3903L5.35243 13.8632C4.60609 10.1583 7.23462 7.55074 10.051 5.2562L8.36666 3.18882ZM5.87997 22.5614C7.65051 25.6474 9.91896 28.5692 12.5098 31.1582L14.3954 29.2725C11.9599 26.8387 9.83839 24.1023 8.19298 21.2344L5.87997 22.5614ZM29.8034 38.315C27.508 37.8517 25.2438 37.0874 22.4324 35.4744L21.1053 37.7875C24.1714 39.5466 26.7065 40.4104 29.276 40.929L29.8034 38.315ZM22.7442 37.54L29.7529 30.0207L27.8022 28.2024L20.7935 35.7219L22.7442 37.54ZM28.18 30.3036L38.8466 35.6506L40.0417 33.2666L29.375 27.9196L28.18 30.3036ZM38.4105 33.6165C36.116 36.4328 33.5083 39.0613 29.8034 38.315L29.276 40.929C34.7129 42.0243 38.2877 37.9891 40.4779 35.3007L38.4105 33.6165ZM22.4324 35.4744C19.5645 33.8291 16.8293 31.708 14.3954 29.2725L12.5098 31.1582C15.0987 33.7489 18.0192 36.0168 21.1053 37.7875L22.4324 35.4744Z" fill="#01785E"/>
</svg>
