<svg width="64" height="64" viewBox="0 0 64 64" fill="none" xmlns="http://www.w3.org/2000/svg">
<mask id="mask0_173_697" style="mask-type:alpha" maskUnits="userSpaceOnUse" x="8" y="8" width="48" height="48">
<rect x="8" y="8" width="48" height="48" fill="#D9D9D9"/>
</mask>
<g mask="url(#mask0_173_697)">
<path d="M26.3846 44.9999C25.6923 44.9999 25.0416 44.8435 24.4326 44.5307C23.8237 44.2178 23.3231 43.7819 22.9308 43.223L15 32L22.9308 20.8154C23.3231 20.2564 23.8205 19.8141 24.4231 19.4885C25.0256 19.1628 25.6795 19 26.3846 19H45.3845C46.3819 19 47.2339 19.3532 47.9403 20.0596C48.6467 20.766 48.9999 21.618 48.9999 22.6154V41.3845C48.9999 42.3819 48.6467 43.2339 47.9403 43.9403C47.2339 44.6467 46.3819 44.9999 45.3845 44.9999H26.3846ZM26.3846 42H45.3845C45.5384 42 45.6794 41.9359 45.8076 41.8077C45.9359 41.6794 46 41.5384 46 41.3845V22.6154C46 22.4615 45.9359 22.3205 45.8076 22.1923C45.6794 22.0641 45.5384 22 45.3845 22H26.3846C26.1923 22 26.0096 22.048 25.8365 22.1442C25.6634 22.2404 25.5256 22.359 25.423 22.5L18.6692 32L25.423 41.4999C25.5256 41.6409 25.6634 41.7595 25.8365 41.8557C26.0096 41.9519 26.1923 42 26.3846 42ZM30.4538 39.3076L35.6538 34.1076L40.8538 39.3076L42.9614 37.2L37.7614 32L42.9614 26.8L40.8538 24.6923L35.6538 29.8923L30.4538 24.6923L28.3462 26.8L33.5462 32L28.3462 37.2L30.4538 39.3076Z" fill="#F84A03"/>
</g>
<rect x="1.5" y="1.5" width="61" height="61" rx="14.5" stroke="#FF8F81" stroke-width="3"/>
</svg>
