<svg width="294" height="196" viewBox="0 0 294 196" fill="none" xmlns="http://www.w3.org/2000/svg">
<path d="M18.4072 65.4311C18.7347 67.6055 20.7607 69.1015 22.9328 68.774C23.0953 68.7504 23.2508 68.7127 23.4063 68.6703C24.0353 70.1898 24.881 71.5845 25.9035 72.8189C25.7927 72.9344 25.6891 73.0569 25.5901 73.1888C24.285 74.958 24.6596 77.4481 26.4264 78.7533C28.1933 80.0584 30.6858 79.6838 31.9886 77.9146C32.0851 77.7827 32.17 77.646 32.2501 77.507C33.7295 78.1219 35.3126 78.52 36.9499 78.6732C36.9546 78.8334 36.9664 78.9936 36.99 79.1561C37.3174 81.3305 39.3434 82.8265 41.5155 82.499C43.6876 82.1716 45.1835 80.1456 44.8561 77.9711C44.8325 77.8086 44.7948 77.6531 44.7524 77.4976C46.2719 76.8686 47.6666 76.0205 48.901 74.9981C49.0165 75.1088 49.139 75.2125 49.2709 75.3114C51.0378 76.6165 53.5302 76.242 54.833 74.4727C56.1381 72.7035 55.7636 70.2134 53.9967 68.9083C53.8648 68.8117 53.7281 68.7269 53.5891 68.6468C54.204 67.165 54.6021 65.5842 54.7553 63.9445C54.9155 63.9398 55.0756 63.9281 55.2382 63.9045C57.4103 63.577 58.9062 61.551 58.5788 59.3766C58.2513 57.2022 56.2253 55.7062 54.0532 56.0337C53.8907 56.0572 53.7352 56.0949 53.5797 56.1373C52.9507 54.6178 52.1026 53.2232 51.0825 51.9887C51.1932 51.8733 51.2969 51.7508 51.3959 51.6189C52.701 49.8496 52.3264 47.3595 50.5595 46.0544C48.7927 44.7493 46.3002 45.1239 44.9974 46.8931C44.9008 47.025 44.816 47.1616 44.7359 47.3006C43.2565 46.6858 41.6734 46.2876 40.0361 46.1345C40.0313 45.9743 40.0196 45.8141 39.996 45.6516C39.6685 43.4771 37.6425 41.9812 35.4705 42.3086C33.2984 42.6361 31.8024 44.6621 32.1299 46.8365C32.1535 46.9991 32.1912 47.1546 32.2336 47.3101C30.7141 47.9391 29.3194 48.7872 28.085 49.8096C27.9695 49.6989 27.847 49.5952 27.7151 49.4963C25.9482 48.1911 23.4558 48.5657 22.153 50.3349C20.8479 52.1042 21.2224 54.5943 22.9893 55.8994C23.1212 55.996 23.2579 56.0808 23.3969 56.1609C22.7843 57.6427 22.3839 59.2235 22.2307 60.8631C22.0705 60.8678 21.9103 60.8796 21.7478 60.9032C19.5757 61.2306 18.0798 63.2566 18.4072 65.4311ZM31.1899 63.504C30.5821 59.4685 33.362 55.7039 37.3952 55.0961C41.4307 54.4883 45.193 57.2658 45.8008 61.3037C46.4086 65.3416 43.6287 69.1038 39.5955 69.7116C35.56 70.3194 31.7977 67.5419 31.1899 63.504Z" fill="url(#paint0_linear_167_1504)"/>
<path d="M40.9172 82.7784C40.0243 82.7784 39.155 82.4934 38.4247 81.9539C37.5201 81.2849 36.9287 80.3048 36.7615 79.1905C36.7473 79.0963 36.7356 78.995 36.7285 78.8866C35.2255 78.7264 33.7554 78.3613 32.3537 77.8006C32.2972 77.8925 32.2406 77.9749 32.1841 78.0527C31.5151 78.9597 30.535 79.551 29.4207 79.7182C28.3088 79.8855 27.1968 79.6099 26.2898 78.9408C24.4217 77.5603 24.0235 74.9171 25.4017 73.0465C25.4582 72.9688 25.5218 72.891 25.5925 72.8086C24.6431 71.633 23.8633 70.3373 23.2673 68.945C23.1636 68.9686 23.0647 68.9898 22.9681 69.0039C21.8562 69.1712 20.7442 68.8956 19.8372 68.2265C18.9326 67.5574 18.3413 66.5774 18.174 65.4631C17.8277 63.1638 19.4155 61.013 21.7148 60.6667C21.8114 60.6525 21.9103 60.6407 22.0187 60.6337C22.1789 59.1307 22.5441 57.6583 23.1048 56.2566C23.0129 56.2 22.9304 56.1435 22.8527 56.0869C20.9845 54.7064 20.5864 52.0632 21.9669 50.1927C22.6359 49.2857 23.616 48.6944 24.7303 48.5271C25.8446 48.3598 26.9542 48.6355 27.8612 49.3045C27.9389 49.3634 28.019 49.4247 28.0991 49.4953C29.2747 48.5459 30.5704 47.7638 31.9603 47.1678C31.9367 47.0641 31.9155 46.9628 31.9014 46.8686C31.5551 44.5693 33.1429 42.4184 35.4399 42.0721C36.5542 41.9049 37.6638 42.1805 38.5708 42.8496C39.4754 43.5186 40.0667 44.4986 40.234 45.6129C40.2481 45.7072 40.2599 45.8085 40.2669 45.9168C41.77 46.077 43.24 46.4422 44.6417 47.0029C44.6983 46.911 44.7548 46.8285 44.8113 46.7508C45.4804 45.8438 46.4604 45.2525 47.5747 45.0852C48.6867 44.918 49.7986 45.1936 50.7056 45.8627C52.5738 47.2432 52.9719 49.8864 51.5938 51.7569C51.5372 51.8347 51.4736 51.9124 51.4029 51.9949C52.3523 53.1704 53.1321 54.4685 53.7281 55.8584C53.8318 55.8349 53.9307 55.8137 54.0273 55.7995C55.1393 55.6323 56.2512 55.9079 57.1582 56.577C58.0629 57.246 58.6542 58.226 58.8214 59.3403C59.1677 61.6396 57.5799 63.7905 55.283 64.1368C55.1864 64.1509 55.0874 64.1627 54.9791 64.1698C54.8189 65.6752 54.4537 67.1452 53.893 68.5469C53.9849 68.6034 54.0674 68.66 54.1451 68.7165C56.0133 70.097 56.4114 72.7403 55.0333 74.6108C54.3642 75.5178 53.3842 76.1091 52.2699 76.2764C51.1579 76.4436 50.046 76.168 49.139 75.4989C49.0612 75.44 48.9811 75.3788 48.901 75.3081C47.7255 76.2575 46.4298 77.0396 45.0398 77.6357C45.0634 77.7393 45.0846 77.8383 45.0987 77.9349C45.445 80.2342 43.8572 82.385 41.5603 82.7313C41.3483 82.7643 41.1339 82.7784 40.9242 82.7784H40.9172ZM32.2524 77.2705C32.283 77.2705 32.3137 77.2752 32.3419 77.2894C33.819 77.9019 35.3786 78.2882 36.9735 78.439C37.0913 78.4508 37.1832 78.5474 37.1879 78.6675C37.1926 78.8395 37.2044 78.9856 37.2256 79.1222C37.374 80.1116 37.8993 80.9833 38.7027 81.577C39.506 82.1706 40.4955 82.4156 41.4826 82.2672C43.5227 81.9586 44.9338 80.048 44.6252 78.0079C44.604 77.8713 44.5734 77.7252 44.5286 77.5626C44.498 77.4472 44.5545 77.3271 44.6653 77.2823C46.1447 76.6698 47.5205 75.8405 48.7526 74.8181C48.8445 74.7427 48.9788 74.7474 49.066 74.8275C49.1885 74.943 49.3015 75.0396 49.4123 75.122C50.218 75.7157 51.205 75.9607 52.1921 75.8123C53.1816 75.6638 54.0509 75.1385 54.6446 74.3328C55.8696 72.672 55.5162 70.3232 53.8577 69.0982C53.747 69.0157 53.6221 68.9356 53.4737 68.8532C53.37 68.7943 53.3276 68.667 53.3724 68.5587C53.9849 67.0816 54.3713 65.522 54.522 63.9248C54.5338 63.807 54.6304 63.7151 54.7506 63.7104C54.9202 63.7057 55.0686 63.6939 55.2052 63.6727C57.2454 63.3641 58.6565 61.4535 58.3479 59.4134C58.1995 58.4239 57.6741 57.5523 56.8708 56.9586C56.0675 56.3649 55.0804 56.1199 54.0909 56.2683C53.9543 56.2895 53.8106 56.3202 53.6457 56.3649C53.5326 56.3979 53.4101 56.339 53.3653 56.2283C52.7528 54.7488 51.9236 53.373 50.9035 52.1386C50.8281 52.0467 50.8328 51.9124 50.9129 51.8276C51.0284 51.7051 51.1249 51.5897 51.2074 51.4789C52.4324 49.8181 52.0791 47.4693 50.4206 46.2443C49.6172 45.6506 48.6278 45.4056 47.6407 45.554C46.6512 45.7025 45.7796 46.2278 45.1859 47.0335C45.1035 47.1442 45.0234 47.2691 44.9409 47.4175C44.882 47.5212 44.7548 47.5636 44.6464 47.5188C43.1693 46.9063 41.6098 46.5199 40.0149 46.3692C39.8971 46.3574 39.8052 46.2608 39.8005 46.1406C39.7958 45.9687 39.784 45.8226 39.7628 45.686C39.6144 44.6965 39.089 43.8249 38.2857 43.2312C37.4824 42.6375 36.4953 42.3925 35.5058 42.5409C33.4657 42.8496 32.0545 44.7601 32.3631 46.8003C32.3843 46.9369 32.415 47.0806 32.4597 47.2455C32.4904 47.361 32.4338 47.4811 32.3231 47.5259C30.8436 48.1384 29.4678 48.9676 28.2357 49.9901C28.1439 50.0654 28.0096 50.0607 27.9248 49.9806C27.8023 49.8652 27.6892 49.7686 27.5761 49.6862C26.7728 49.0925 25.7857 48.8475 24.7962 48.9959C23.8068 49.1443 22.9375 49.6697 22.3438 50.4754C21.1188 52.1362 21.4722 54.485 23.1307 55.71C23.2414 55.7925 23.3662 55.8726 23.5147 55.955C23.6183 56.0139 23.6607 56.1411 23.616 56.2495C23.0035 57.7289 22.6171 59.2861 22.4663 60.8834C22.4545 61.0012 22.358 61.0931 22.2378 61.0978C22.0682 61.1025 21.9198 61.1143 21.7831 61.1355C19.743 61.4441 18.3318 63.3547 18.6405 65.3948C18.7889 66.3843 19.3142 67.2559 20.1176 67.8496C20.9209 68.4432 21.9103 68.6882 22.8974 68.5398C23.0341 68.5186 23.1801 68.488 23.3427 68.4409C23.4605 68.4103 23.5783 68.4668 23.623 68.5775C24.2355 70.0593 25.0648 71.4351 26.0849 72.6672C26.1603 72.7591 26.1555 72.8934 26.0754 72.9782C25.96 73.1007 25.8634 73.2161 25.781 73.3269C24.5559 74.9877 24.9093 77.3365 26.5678 78.5615C27.3712 79.1552 28.3582 79.4002 29.3477 79.2518C30.3371 79.1034 31.2088 78.578 31.8025 77.7723C31.8849 77.6616 31.965 77.5367 32.0475 77.3883C32.0899 77.3129 32.17 77.2682 32.2524 77.2682V77.2705ZM38.4765 70.0311C36.8604 70.0311 35.2914 69.5175 33.9651 68.5398C32.3278 67.3313 31.2583 65.555 30.9544 63.5408C30.3277 59.3827 33.2018 55.4909 37.3575 54.8643C39.3717 54.5604 41.3813 55.0598 43.0209 56.2707C44.6582 57.4792 45.7277 59.2555 46.0317 61.2698C46.6583 65.4278 43.7842 69.3196 39.6285 69.9463C39.2445 70.0052 38.8582 70.0334 38.4765 70.0334V70.0311ZM38.5095 55.2483C38.1514 55.2483 37.791 55.2742 37.4282 55.3307C33.5293 55.9197 30.8342 59.5712 31.4208 63.4724C31.7059 65.3618 32.7071 67.0274 34.2455 68.1629C35.7815 69.2984 37.6708 69.7649 39.5578 69.4822C43.4567 68.8956 46.1518 65.2417 45.5652 61.3404C45.2801 59.4511 44.2789 57.7855 42.7406 56.65C41.4967 55.7312 40.0243 55.2506 38.5095 55.2506V55.2483Z" fill="#002F23"/>
<path d="M4.91541 26.8793C3.84115 27.7486 3.67624 29.3223 4.54554 30.3965C4.60915 30.4766 4.67982 30.5497 4.75285 30.6203C4.12856 31.4449 3.64326 32.3495 3.29931 33.2965C3.20036 33.273 3.10142 33.2565 3.00012 33.2447C1.62667 33.101 0.396931 34.0975 0.25087 35.471C0.107164 36.8444 1.10132 38.0765 2.47477 38.2202C2.57607 38.232 2.67737 38.2344 2.77867 38.232C2.91766 39.2309 3.20508 40.2132 3.6409 41.1509C3.55609 41.2051 3.47128 41.2616 3.39354 41.3252C2.31928 42.1945 2.15438 43.7682 3.02368 44.8425C3.89298 45.9167 5.46667 46.0816 6.53857 45.2123C6.61867 45.1464 6.6917 45.078 6.76237 45.005C7.58691 45.6293 8.48919 46.1146 9.43623 46.4585C9.41268 46.5575 9.39619 46.6564 9.38441 46.7577C9.2407 48.1312 10.2349 49.3633 11.6083 49.507C12.9818 49.6507 14.2115 48.6542 14.3576 47.2807C14.3693 47.1794 14.3717 47.0781 14.3693 46.9768C15.3658 46.8378 16.3506 46.5504 17.2882 46.1122C17.3424 46.1971 17.3989 46.2819 17.4625 46.362C18.3318 47.4362 19.9055 47.6011 20.9774 46.7318C22.0517 45.8625 22.2166 44.2888 21.3473 43.2146C21.2837 43.1345 21.213 43.0614 21.14 42.9908C21.7643 42.1662 22.2496 41.2616 22.5935 40.3146C22.6925 40.3381 22.7914 40.3546 22.8927 40.3664C24.2662 40.5101 25.4959 39.5136 25.6396 38.1401C25.7833 36.7667 24.7892 35.5346 23.4157 35.3909C23.3144 35.3791 23.2131 35.3767 23.1118 35.3791C22.9728 34.3802 22.6854 33.3978 22.2472 32.4602C22.332 32.406 22.4168 32.3495 22.4946 32.2859C23.5688 31.4166 23.7337 29.8429 22.8644 28.7686C21.9951 27.6944 20.4215 27.5295 19.3496 28.3988C19.2695 28.4624 19.1964 28.5331 19.1257 28.6061C18.3012 27.9818 17.3989 27.4965 16.4519 27.1526C16.4754 27.0536 16.4919 26.9547 16.5037 26.8534C16.6474 25.4799 15.6533 24.2478 14.2798 24.1041C12.9064 23.9604 11.6766 24.9569 11.5306 26.3304C11.5188 26.4317 11.5164 26.533 11.5188 26.6343C10.5223 26.7733 9.53753 27.0607 8.59992 27.4989C8.54573 27.414 8.48919 27.3292 8.42558 27.2491C7.55628 26.1749 5.98259 26.01 4.91069 26.8793H4.91541ZM10.0252 33.1976C12.0182 31.5839 14.9418 31.8925 16.5555 33.8855C18.1693 35.8785 17.8607 38.8045 15.8676 40.4182C13.8746 42.032 10.951 41.7233 9.33729 39.7303C7.72355 37.7373 8.03216 34.8113 10.0252 33.1976Z" fill="url(#paint1_linear_167_1504)"/>
<path d="M11.8746 49.7601C11.778 49.7601 11.6814 49.7554 11.5825 49.746C10.8569 49.6683 10.202 49.3149 9.74257 48.7471C9.28318 48.1794 9.07116 47.4656 9.1489 46.7376C9.15362 46.6976 9.15833 46.6552 9.16539 46.6127C8.3173 46.2853 7.51867 45.8518 6.7813 45.317C6.74832 45.3453 6.71769 45.3736 6.68707 45.3995C6.11931 45.8589 5.4055 46.0709 4.6799 45.9932C3.95431 45.9154 3.29939 45.5621 2.84 44.9943C1.8906 43.8211 2.072 42.0943 3.2452 41.1449C3.27583 41.119 3.30881 41.093 3.34415 41.0695C2.97428 40.2379 2.71514 39.3639 2.57379 38.4663C2.53139 38.4663 2.48898 38.4616 2.44894 38.4569C0.948274 38.299 -0.142473 36.9492 0.015367 35.4485C0.0907534 34.7205 0.446483 34.068 1.01424 33.6086C1.58199 33.1492 2.29581 32.9372 3.0214 33.0149C3.06145 33.0196 3.10385 33.0243 3.14626 33.0314C3.47136 32.1833 3.90719 31.3823 4.44196 30.6473C4.41369 30.6143 4.38542 30.5837 4.35951 30.5531C3.41011 29.3799 3.59387 27.6531 4.76471 26.7037C5.33247 26.2443 6.04628 26.0323 6.77188 26.11C7.49747 26.1877 8.15239 26.5411 8.61177 27.1089C8.63769 27.1395 8.6636 27.1725 8.68716 27.2078C9.51877 26.8379 10.3928 26.5788 11.288 26.4375C11.288 26.3951 11.2927 26.3526 11.2974 26.3126C11.3728 25.5846 11.7285 24.9321 12.2963 24.4727C12.864 24.0133 13.5779 23.8013 14.3034 23.879C15.029 23.9544 15.684 24.3101 16.1434 24.8779C16.6027 25.4457 16.8148 26.1595 16.737 26.8874C16.7323 26.9275 16.7276 26.9699 16.7205 27.0123C17.5686 27.3397 18.3672 27.7732 19.1046 28.308C19.1376 28.2797 19.1682 28.2514 19.1989 28.2255C19.7666 27.7661 20.4828 27.5541 21.206 27.6319C21.9316 27.7096 22.5865 28.063 23.0459 28.6307C23.9953 29.8039 23.8116 31.5308 22.6407 32.4801C22.6101 32.5061 22.5771 32.532 22.5418 32.5555C22.9116 33.3871 23.1708 34.2612 23.3121 35.1587C23.3545 35.1587 23.3969 35.1634 23.437 35.1681C24.9376 35.326 26.0284 36.6759 25.8706 38.1765C25.7952 38.9045 25.4394 39.5571 24.8717 40.0164C24.3039 40.4758 23.5901 40.6878 22.8645 40.6101C22.8245 40.6054 22.7821 40.6007 22.7397 40.5936C22.4146 41.4417 21.9787 42.2427 21.444 42.9777C21.4722 43.0107 21.5005 43.0413 21.5264 43.0719C22.4758 44.2451 22.2921 45.972 21.1212 46.9214C20.5535 47.3807 19.8396 47.5928 19.114 47.515C18.3885 47.4373 17.7335 47.0839 17.2741 46.5162C17.2482 46.4855 17.2223 46.4526 17.1988 46.4172C16.3672 46.7871 15.4931 47.0462 14.5979 47.1876C14.5979 47.23 14.5932 47.2724 14.5885 47.3124C14.5108 48.0404 14.1574 48.6929 13.5896 49.1523C13.0973 49.5505 12.4965 49.7625 11.8746 49.7625V49.7601ZM6.76245 44.7728C6.81192 44.7728 6.8614 44.7893 6.9038 44.82C7.70007 45.4231 8.57879 45.8989 9.51641 46.2405C9.62949 46.2806 9.6931 46.3984 9.66483 46.5138C9.64127 46.6151 9.62714 46.7023 9.61771 46.7847C9.55411 47.3855 9.72844 47.9768 10.1101 48.4479C10.4917 48.9191 11.0312 49.2112 11.6319 49.2748C12.2327 49.3384 12.824 49.1641 13.2928 48.7825C13.764 48.4008 14.0561 47.8613 14.1197 47.2582C14.1291 47.1758 14.1315 47.0863 14.1291 46.9826C14.1291 46.8625 14.2139 46.7612 14.3317 46.7447C15.3188 46.608 16.2776 46.323 17.1823 45.9013C17.2906 45.8495 17.4179 45.8895 17.4815 45.9908C17.5356 46.078 17.5875 46.151 17.6393 46.217C18.0186 46.6881 18.5604 46.9803 19.1612 47.0439C19.7619 47.1075 20.3532 46.9331 20.822 46.5515C21.7926 45.7647 21.9434 44.337 21.1565 43.3641C21.1047 43.2981 21.0435 43.2345 20.9681 43.1615C20.8833 43.079 20.8715 42.9447 20.9445 42.8505C21.5453 42.0542 22.0235 41.1755 22.3627 40.2379C22.4028 40.1248 22.5229 40.0612 22.6384 40.0895C22.7397 40.113 22.8268 40.1272 22.9093 40.1366C23.5124 40.2002 24.1013 40.0259 24.5701 39.6442C25.0413 39.2626 25.3334 38.7231 25.397 38.12C25.5266 36.8785 24.6243 35.7595 23.3828 35.6299C23.3003 35.6205 23.2108 35.6181 23.1072 35.6205C22.9988 35.6228 22.8857 35.5357 22.8692 35.4179C22.7326 34.4308 22.4475 33.472 22.0258 32.565C21.9764 32.4566 22.0141 32.3294 22.113 32.2658C22.2002 32.2116 22.2732 32.1598 22.3392 32.1079C23.3098 31.3211 23.4605 29.8935 22.6737 28.9205C22.2921 28.4493 21.7526 28.1572 21.1518 28.0936C20.5511 28.03 19.9598 28.2043 19.491 28.586C19.4274 28.6378 19.3614 28.699 19.2884 28.7744C19.2059 28.8592 19.0716 28.871 18.9774 28.798C18.1811 28.1949 17.3024 27.719 16.3672 27.3774C16.2564 27.3374 16.1905 27.2196 16.2187 27.1042C16.2423 27.0005 16.2564 26.9157 16.2659 26.8332C16.3295 26.2325 16.1551 25.6412 15.7735 25.17C15.3918 24.6989 14.8524 24.4067 14.2516 24.3431C13.6509 24.2795 13.0596 24.4538 12.5908 24.8355C12.1196 25.2171 11.8275 25.7566 11.7639 26.3597C11.7544 26.4422 11.7521 26.5317 11.7544 26.6353C11.7544 26.7555 11.6696 26.8568 11.5518 26.8733C10.5648 27.0099 9.60593 27.295 8.7013 27.7167C8.59293 27.7685 8.46336 27.7284 8.40211 27.6271C8.34557 27.5376 8.29609 27.467 8.24427 27.401C7.86262 26.9298 7.32314 26.6377 6.7224 26.5741C6.12167 26.5105 5.53035 26.6848 5.06155 27.0665C4.09095 27.8533 3.94017 29.2809 4.72702 30.2539C4.77885 30.3175 4.8401 30.3858 4.91548 30.4565C5.00029 30.5389 5.01207 30.6732 4.93904 30.7675C4.33831 31.5637 3.86007 32.4425 3.52084 33.3801C3.48079 33.4932 3.36064 33.5544 3.24756 33.5285C3.14626 33.5049 3.05909 33.4908 2.97664 33.4814C2.3759 33.4178 1.78459 33.5921 1.31578 33.9737C0.844618 34.3554 0.552495 34.8949 0.488888 35.498C0.359318 36.7395 1.2616 37.8585 2.50312 37.9881C2.58557 37.9975 2.67509 37.9998 2.77875 37.9975C2.89419 38.0069 3.0002 38.0823 3.01669 38.2001C3.15333 39.1872 3.43838 40.146 3.86007 41.053C3.90955 41.1614 3.87185 41.2886 3.77291 41.3522C3.68339 41.4087 3.61271 41.4582 3.54675 41.51C2.57615 42.2969 2.42538 43.7245 3.21222 44.6975C3.59387 45.1686 4.13335 45.4608 4.73409 45.5244C5.33482 45.588 5.92613 45.4136 6.39494 45.032C6.45855 44.9802 6.52451 44.9189 6.59754 44.8435C6.6423 44.7964 6.70591 44.7728 6.76716 44.7728H6.76245ZM12.9559 41.6891C12.7839 41.6891 12.6096 41.6796 12.4353 41.6608C11.1396 41.5242 9.97344 40.8904 9.15361 39.8774C7.46213 37.7855 7.78488 34.7064 9.87685 33.0126C10.8899 32.1927 12.1596 31.8158 13.4577 31.9524C14.7534 32.0891 15.9195 32.7228 16.7394 33.7358C18.4309 35.8278 18.1081 38.9068 16.0161 40.6007C15.1398 41.3098 14.0679 41.6891 12.9559 41.6891ZM10.1737 33.3801C8.28432 34.909 7.99219 37.6912 9.52112 39.583C10.2609 40.4994 11.3139 41.0695 12.4848 41.1943C13.658 41.3169 14.8029 40.9776 15.7193 40.2355C17.6087 38.7066 17.9008 35.9244 16.3719 34.0326C15.6321 33.1162 14.5791 32.5461 13.4082 32.4213C12.235 32.2964 11.0877 32.638 10.1737 33.3801Z" fill="#002F23"/>
<path d="M39.7657 109.826V3.81856C39.7657 1.83967 41.3701 0.235352 43.3466 0.235352H250.9C252.878 0.235352 254.48 1.83967 254.48 3.81856V106.097C254.48 108.156 252.813 109.826 250.754 109.826H39.7657Z" fill="url(#paint2_linear_167_1504)"/>
<path d="M250.753 110.062H39.7656C39.636 110.062 39.53 109.956 39.53 109.827V3.81928C39.53 1.71317 41.2427 0.000488281 43.3465 0.000488281H250.899C253.003 0.000488281 254.716 1.71317 254.716 3.81928V106.097C254.716 108.284 252.937 110.062 250.753 110.062ZM40.0012 109.591H250.753C252.678 109.591 254.245 108.025 254.245 106.097V3.81928C254.245 1.97231 252.744 0.471653 250.899 0.471653H43.3465C41.5019 0.471653 40.0012 1.97467 40.0012 3.81928V109.591Z" fill="#7FFFD6"/>
<path d="M168.467 118.14C168.405 118.14 168.347 118.116 168.299 118.071L157.915 107.694C157.87 107.649 157.847 107.59 157.847 107.527V4.71605C157.847 4.58648 157.953 4.48047 158.082 4.48047C158.212 4.48047 158.318 4.58648 158.318 4.71605V107.428L168.634 117.737C168.726 117.829 168.726 117.977 168.634 118.069C168.587 118.116 168.528 118.137 168.467 118.137V118.14Z" fill="#7FFFD6"/>
<path d="M149.434 130.032C149.304 130.032 149.198 129.926 149.198 129.797V9.99584C149.198 9.86627 149.304 9.76025 149.434 9.76025C149.563 9.76025 149.669 9.86627 149.669 9.99584V129.797C149.669 129.926 149.563 130.032 149.434 130.032Z" fill="#7FFFD6"/>
<path d="M132.139 104.476C132.01 104.476 131.904 104.37 131.904 104.24V20.5354C131.904 20.4058 132.01 20.2998 132.139 20.2998C132.269 20.2998 132.375 20.4058 132.375 20.5354V104.24C132.375 104.37 132.269 104.476 132.139 104.476Z" fill="#7FFFD6"/>
<path d="M166.728 91.3472C166.599 91.3472 166.492 91.2412 166.492 91.1116V9.99584C166.492 9.86627 166.599 9.76025 166.728 9.76025C166.858 9.76025 166.964 9.86627 166.964 9.99584V91.1116C166.964 91.2412 166.858 91.3472 166.728 91.3472Z" fill="#7FFFD6"/>
<path d="M175.376 106.664C175.247 106.664 175.141 106.558 175.141 106.429V20.5354C175.141 20.4058 175.247 20.2998 175.376 20.2998C175.506 20.2998 175.612 20.4058 175.612 20.5354V106.429C175.612 106.558 175.506 106.664 175.376 106.664Z" fill="#7FFFD6"/>
<path d="M140.788 91.3469C140.658 91.3469 140.552 91.2409 140.552 91.1113V15.0865L130.561 7.72922C130.455 7.65148 130.434 7.50541 130.512 7.3994C130.59 7.29339 130.736 7.27219 130.842 7.34993L140.929 14.7778C140.991 14.8226 141.026 14.8933 141.026 14.9687V91.1113C141.026 91.2409 140.92 91.3469 140.79 91.3469H140.788Z" fill="#7FFFD6"/>
<path d="M141.031 92.2984C142.351 92.2984 143.422 91.2279 143.422 89.9073C143.422 88.5867 142.351 87.5161 141.031 87.5161C139.71 87.5161 138.64 88.5867 138.64 89.9073C138.64 91.2279 139.71 92.2984 141.031 92.2984Z" fill="#01A17F"/>
<path d="M169.13 120.979C170.451 120.977 171.519 119.904 171.517 118.583C171.514 117.263 170.441 116.194 169.12 116.197C167.8 116.2 166.732 117.273 166.734 118.593C166.737 119.914 167.81 120.982 169.13 120.979Z" fill="url(#paint3_linear_167_1504)"/>
<path d="M169.12 121.224C167.672 121.224 166.494 120.046 166.494 118.597C166.494 117.148 167.672 115.97 169.12 115.97C170.569 115.97 171.747 117.148 171.747 118.597C171.747 120.046 170.569 121.224 169.12 121.224ZM169.12 116.441C167.931 116.441 166.965 117.407 166.965 118.597C166.965 119.787 167.933 120.753 169.12 120.753C170.308 120.753 171.276 119.787 171.276 118.597C171.276 117.407 170.308 116.441 169.12 116.441Z" fill="#00523F"/>
<path d="M129.748 104.747C129.748 106.066 130.82 107.138 132.139 107.138C133.458 107.138 134.53 106.068 134.53 104.747C134.53 103.425 133.458 102.355 132.139 102.355C130.82 102.355 129.748 103.425 129.748 104.747Z" fill="url(#paint4_linear_167_1504)"/>
<path d="M132.138 107.374C130.69 107.374 129.512 106.196 129.512 104.747C129.512 103.298 130.69 102.12 132.138 102.12C133.587 102.12 134.765 103.298 134.765 104.747C134.765 106.196 133.587 107.374 132.138 107.374ZM132.138 102.591C130.949 102.591 129.983 103.557 129.983 104.747C129.983 105.937 130.951 106.902 132.138 106.902C133.326 106.902 134.294 105.937 134.294 104.747C134.294 103.557 133.326 102.591 132.138 102.591Z" fill="#00523F"/>
<path d="M158.082 7.64951C159.402 7.64951 160.473 6.57895 160.473 5.25835C160.473 3.93775 159.402 2.86719 158.082 2.86719C156.761 2.86719 155.69 3.93775 155.69 5.25835C155.69 6.57895 156.761 7.64951 158.082 7.64951Z" fill="url(#paint5_linear_167_1504)"/>
<path d="M158.081 7.8824C156.633 7.8824 155.455 6.70448 155.455 5.25565C155.455 3.80682 156.633 2.62891 158.081 2.62891C159.53 2.62891 160.708 3.80682 160.708 5.25565C160.708 6.70448 159.53 7.8824 158.081 7.8824ZM158.081 3.10007C156.892 3.10007 155.926 4.06596 155.926 5.25565C155.926 6.44534 156.894 7.41123 158.081 7.41123C159.269 7.41123 160.237 6.44534 160.237 5.25565C160.237 4.06596 159.269 3.10007 158.081 3.10007Z" fill="#7FFFD6"/>
<path d="M130.706 9.69186C132.027 9.68909 133.095 8.61629 133.092 7.29569C133.089 5.97509 132.016 4.90678 130.696 4.90954C129.375 4.91231 128.307 5.98511 128.31 7.30571C128.313 8.62631 129.385 9.69462 130.706 9.69186Z" fill="url(#paint6_linear_167_1504)"/>
<path d="M130.7 9.9322C129.251 9.9322 128.073 8.75429 128.073 7.30546C128.073 5.85662 129.251 4.67871 130.7 4.67871C132.149 4.67871 133.327 5.85662 133.327 7.30546C133.327 8.75429 132.149 9.9322 130.7 9.9322ZM130.7 5.14988C129.51 5.14988 128.544 6.11576 128.544 7.30546C128.544 8.49515 129.513 9.46104 130.7 9.46104C131.887 9.46104 132.856 8.49515 132.856 7.30546C132.856 6.11576 131.887 5.14988 130.7 5.14988Z" fill="#7FFFD6"/>
<path d="M91.9911 81.596C91.9299 81.596 91.871 81.5725 91.8239 81.5277C91.732 81.4359 91.732 81.2874 91.8239 81.1956L104.404 68.6225C104.449 68.5778 104.508 68.5542 104.571 68.5542H195.579C195.709 68.5542 195.815 68.6602 195.815 68.7898C195.815 68.9194 195.709 69.0254 195.579 69.0254H104.668L92.156 81.5301C92.1089 81.5748 92.05 81.5984 91.9888 81.5984L91.9911 81.596Z" fill="#7FFFD6"/>
<path d="M107.164 98.3458H93.1376C93.0081 98.3458 92.902 98.2398 92.902 98.1102C92.902 97.9807 93.0081 97.8747 93.1376 97.8747H107.068L127.705 77.2612C127.749 77.2164 127.808 77.1929 127.872 77.1929H189.307C189.368 77.1929 189.43 77.2188 189.474 77.2612L204.983 92.7602C205.075 92.852 205.075 93.0005 204.983 93.0923C204.891 93.1842 204.743 93.1842 204.651 93.0923L189.213 77.6617H127.973L107.336 98.2752C107.291 98.3199 107.233 98.3435 107.169 98.3435L107.164 98.3458Z" fill="#7FFFD6"/>
<path d="M229.814 43.0964H79.0037C78.926 43.0964 78.8553 43.0588 78.8105 42.9975L65.8205 24.5655C65.7451 24.4595 65.771 24.3111 65.8771 24.2381C65.9831 24.1627 66.1315 24.1886 66.2045 24.2946L79.1239 42.6253H229.715L247.547 24.8035C247.638 24.7116 247.787 24.7116 247.879 24.8035C247.971 24.8953 247.971 25.0438 247.879 25.1356L229.977 43.0258C229.932 43.0705 229.873 43.0941 229.81 43.0941L229.814 43.0964Z" fill="#7FFFD6"/>
<path d="M77.7714 71.0508H64.2536C64.1241 71.0508 64.0181 70.9448 64.0181 70.8152C64.0181 70.6857 64.1241 70.5797 64.2536 70.5797H77.6724L96.8771 51.3114C96.9219 51.2666 96.9808 51.243 97.0444 51.243H126.266L181.178 51.7378H231.546L242.012 41.2779C242.104 41.186 242.253 41.186 242.345 41.2779C242.437 41.3698 242.437 41.5182 242.345 41.6101L231.809 52.1383C231.765 52.183 231.706 52.2066 231.642 52.2066H181.176L126.264 51.7118H97.141L77.9363 70.9801C77.8915 71.0249 77.8326 71.0485 77.769 71.0485L77.7714 71.0508Z" fill="#7FFFD6"/>
<path d="M229.201 86.5003C229.14 86.5003 229.081 86.4767 229.034 86.432L202.966 60.3789H118.446C118.317 60.3789 118.211 60.2729 118.211 60.1433C118.211 60.0137 118.317 59.9077 118.446 59.9077H203.063C203.124 59.9077 203.186 59.9336 203.23 59.976L229.368 86.0974C229.46 86.1893 229.46 86.3377 229.368 86.4296C229.321 86.4767 229.262 86.4979 229.201 86.4979V86.5003Z" fill="#7FFFD6"/>
<path d="M195.579 34.4535H118.446C118.317 34.4535 118.211 34.3475 118.211 34.2179C118.211 34.0883 118.317 33.9823 118.446 33.9823H195.477L204.222 24.8064C204.312 24.7121 204.46 24.7098 204.554 24.7993C204.648 24.8888 204.653 25.0372 204.561 25.1315L195.748 34.3805C195.703 34.4276 195.642 34.4535 195.579 34.4535Z" fill="#7FFFD6"/>
<path d="M204.767 26.8209C206.088 26.8209 207.159 25.7503 207.159 24.4297C207.159 23.1091 206.088 22.0386 204.767 22.0386C203.447 22.0386 202.376 23.1091 202.376 24.4297C202.376 25.7503 203.447 26.8209 204.767 26.8209Z" fill="url(#paint7_linear_167_1504)"/>
<path d="M204.767 27.0562C203.319 27.0562 202.141 25.8783 202.141 24.4295C202.141 22.9806 203.319 21.8027 204.767 21.8027C206.216 21.8027 207.394 22.9806 207.394 24.4295C207.394 25.8783 206.216 27.0562 204.767 27.0562ZM204.767 22.2739C203.578 22.2739 202.612 23.2398 202.612 24.4295C202.612 25.6192 203.58 26.5851 204.767 26.5851C205.955 26.5851 206.923 25.6192 206.923 24.4295C206.923 23.2398 205.955 22.2739 204.767 22.2739Z" fill="#7FFFD6"/>
<path d="M247.982 27.3629C249.303 27.3629 250.374 26.2923 250.374 24.9717C250.374 23.6511 249.303 22.5806 247.982 22.5806C246.662 22.5806 245.591 23.6511 245.591 24.9717C245.591 26.2923 246.662 27.3629 247.982 27.3629Z" fill="url(#paint8_linear_167_1504)"/>
<path d="M247.982 27.5953C246.534 27.5953 245.356 26.4174 245.356 24.9685C245.356 23.5197 246.534 22.3418 247.982 22.3418C249.431 22.3418 250.609 23.5197 250.609 24.9685C250.609 26.4174 249.431 27.5953 247.982 27.5953ZM247.982 22.813C246.793 22.813 245.827 23.7789 245.827 24.9685C245.827 26.1582 246.795 27.1241 247.982 27.1241C249.17 27.1241 250.138 26.1582 250.138 24.9685C250.138 23.7789 249.17 22.813 247.982 22.813Z" fill="#00523F"/>
<path d="M242.539 43.8305C243.86 43.8278 244.928 42.755 244.925 41.4344C244.922 40.1138 243.85 39.0454 242.529 39.0482C241.208 39.051 240.14 40.1238 240.143 41.4444C240.146 42.765 241.218 43.8333 242.539 43.8305Z" fill="url(#paint9_linear_167_1504)"/>
<path d="M242.533 44.0699C241.084 44.0699 239.906 42.892 239.906 41.4432C239.906 39.9943 241.084 38.8164 242.533 38.8164C243.982 38.8164 245.16 39.9943 245.16 41.4432C245.16 42.892 243.982 44.0699 242.533 44.0699ZM242.533 39.2876C241.343 39.2876 240.377 40.2535 240.377 41.4432C240.377 42.6328 241.346 43.5987 242.533 43.5987C243.72 43.5987 244.689 42.6328 244.689 41.4432C244.689 40.2535 243.72 39.2876 242.533 39.2876Z" fill="#00523F"/>
<path d="M231.608 86.0105C231.611 84.6899 230.542 83.6171 229.222 83.6143C227.901 83.6115 226.828 84.6799 226.825 86.0005C226.823 87.3211 227.891 88.3938 229.212 88.3966C230.532 88.3994 231.605 87.3311 231.608 86.0105Z" fill="url(#paint10_linear_167_1504)"/>
<path d="M229.201 88.6261C227.752 88.6261 226.574 87.4481 226.574 85.9993C226.574 84.5505 227.752 83.3726 229.201 83.3726C230.65 83.3726 231.828 84.5505 231.828 85.9993C231.828 87.4481 230.65 88.6261 229.201 88.6261ZM229.201 83.8437C228.011 83.8437 227.045 84.8096 227.045 85.9993C227.045 87.189 228.013 88.1549 229.201 88.1549C230.388 88.1549 231.356 87.189 231.356 85.9993C231.356 84.8096 230.388 83.8437 229.201 83.8437Z" fill="#7FFFD6"/>
<path d="M93.1484 100.497C94.469 100.494 95.5373 99.4215 95.5345 98.1009C95.5317 96.7803 94.4589 95.712 93.1383 95.7147C91.8177 95.7175 90.7494 96.7903 90.7522 98.1109C90.755 99.4315 91.8278 100.5 93.1484 100.497Z" fill="url(#paint11_linear_167_1504)"/>
<path d="M93.1385 100.737C91.6896 100.737 90.5117 99.5595 90.5117 98.1106C90.5117 96.6618 91.6896 95.4839 93.1385 95.4839C94.5873 95.4839 95.7652 96.6618 95.7652 98.1106C95.7652 99.5595 94.5873 100.737 93.1385 100.737ZM93.1385 95.9551C91.9488 95.9551 90.9829 96.9209 90.9829 98.1106C90.9829 99.3003 91.9511 100.266 93.1385 100.266C94.3258 100.266 95.294 99.3003 95.294 98.1106C95.294 96.9209 94.3258 95.9551 93.1385 95.9551Z" fill="#00523F"/>
<path d="M94.3862 81.3693C94.389 80.0487 93.3206 78.9759 92 78.9732C90.6794 78.9704 89.6067 80.0387 89.6039 81.3593C89.6011 82.6799 90.6694 83.7527 91.99 83.7555C93.3106 83.7583 94.3834 82.6899 94.3862 81.3693Z" fill="url(#paint12_linear_167_1504)"/>
<path d="M91.9914 83.9844C90.5426 83.9844 89.3647 82.8065 89.3647 81.3577C89.3647 79.9089 90.5426 78.731 91.9914 78.731C93.4403 78.731 94.6182 79.9089 94.6182 81.3577C94.6182 82.8065 93.4403 83.9844 91.9914 83.9844ZM91.9914 79.2021C90.8017 79.2021 89.8359 80.168 89.8359 81.3577C89.8359 82.5474 90.8041 83.5133 91.9914 83.5133C93.1788 83.5133 94.147 82.5474 94.147 81.3577C94.147 80.168 93.1788 79.2021 91.9914 79.2021Z" fill="#7FFFD6"/>
<path d="M153.802 88.8948L149.637 86.6144C128.722 75.1603 124.038 54.0144 122.041 30.2913L123.588 30.0486C137.709 29.0639 144.621 26.6986 153.804 16.373C164.763 26.3052 175.23 29.9285 185.495 29.9285L185.596 29.9497C183.702 53.8613 178.934 75.2027 157.837 86.6968L153.807 88.8924L153.802 88.8948Z" fill="#7FFFD6"/>
<path d="M145.057 77.921C144.981 77.921 144.903 77.8975 144.84 77.8456C138.896 73.2235 134.634 67.0701 131.807 59.032C128.966 50.9515 127.918 41.7944 127.322 34.7223C127.305 34.5385 127.437 34.3712 127.619 34.343L128.893 34.1451C128.893 34.1451 128.912 34.1427 128.924 34.1427C139.996 33.37 145.865 31.6526 153.556 23.002C153.62 22.9313 153.707 22.8889 153.801 22.8842C153.898 22.8795 153.987 22.9125 154.058 22.9761C162.278 30.4229 170.733 34.0438 179.906 34.0438C179.93 34.0438 179.953 34.0461 179.979 34.0508L180.062 34.0673C180.253 34.1074 180.375 34.2935 180.335 34.4843C180.295 34.6751 180.109 34.7976 179.918 34.7576L179.871 34.7482C170.627 34.7387 162.11 31.1343 153.848 23.7347C146.112 32.3358 140.14 34.065 128.99 34.8424L128.057 34.9885C129.652 53.5924 133.219 67.9088 145.276 77.285C145.429 77.4051 145.457 77.6266 145.337 77.782C145.266 77.8716 145.163 77.9187 145.057 77.9187V77.921Z" fill="url(#paint13_linear_167_1504)"/>
<path d="M153.821 83.2851C153.696 83.2851 153.573 83.2191 153.51 83.1013C153.416 82.9293 153.479 82.715 153.651 82.6207L156.971 80.8138C169.056 74.2293 175.671 63.2747 178.423 45.288C178.451 45.0948 178.635 44.9628 178.826 44.9911C179.019 45.0217 179.151 45.2008 179.122 45.394C176.335 63.6186 169.607 74.7334 157.31 81.4334L153.99 83.2403C153.936 83.2686 153.88 83.2827 153.821 83.2827V83.2851Z" fill="url(#paint14_linear_167_1504)"/>
<path d="M163.967 49.6875H143.665C142.901 49.6875 142.284 50.3047 142.284 51.0657V57.1437C142.284 62.3336 146.501 66.5411 151.705 66.5411H155.927C161.131 66.5411 165.348 62.3336 165.348 57.1437V51.0657C165.348 50.3047 164.728 49.6875 163.967 49.6875Z" fill="url(#paint15_linear_167_1504)"/>
<path d="M162.047 48.0775C161.578 48.0775 161.199 47.6982 161.199 47.2317V44.3765C161.199 41.0336 158.471 38.3126 155.121 38.3126H152.513C149.161 38.3126 146.435 41.0336 146.435 44.3765V47.2317C146.435 47.6982 146.056 48.0775 145.587 48.0775C145.118 48.0775 144.739 47.6982 144.739 47.2317V44.3765C144.739 40.1006 148.225 36.6211 152.513 36.6211H155.121C159.408 36.6211 162.895 40.1006 162.895 44.3765V47.2317C162.895 47.6982 162.516 48.0775 162.047 48.0775Z" fill="url(#paint16_linear_167_1504)"/>
<path d="M155.899 55.345C155.899 54.1977 154.968 53.2695 153.819 53.2695C152.669 53.2695 151.738 54.1977 151.738 55.345C151.738 56.1295 152.177 56.8151 152.822 57.1661V61.1663C152.822 61.7152 153.27 62.1628 153.821 62.1628C154.372 62.1628 154.82 61.7175 154.82 61.1663V57.1661C155.465 56.8127 155.904 56.1295 155.904 55.345H155.899Z" fill="#7FFFD6"/>
<path d="M240.503 21.2422C241.91 20.2127 243.469 20.4294 243.787 20.4813C243.742 20.2622 243.686 19.9394 243.665 19.5484C243.462 15.9746 246.334 12.5398 249.312 10.8813C250.384 10.2829 253.415 8.83407 257.128 9.70572C262.919 11.065 265.013 16.8109 265.159 17.2349C265.612 17.1289 266.083 17.0724 266.568 17.0724C269.972 17.0724 272.733 19.8334 272.733 23.2376C272.733 26.6418 269.972 29.4028 266.568 29.4028H243.236C240.682 28.9505 238.864 27.021 238.758 24.9244C238.696 23.6876 239.217 22.1798 240.501 21.2422H240.503Z" fill="#7FFFD6"/>
<path d="M65.8865 35.458C71.9496 33.0575 74.9187 26.1963 72.5182 20.1332C70.1176 14.0701 63.2564 11.101 57.1933 13.5016C51.1302 15.9021 48.1611 22.7633 50.5617 28.8264C52.9622 34.8895 59.8234 37.8586 65.8865 35.458Z" fill="#7FFFD6"/>
<path d="M61.5303 36.5274C59.7681 36.5274 58.013 36.1363 56.3734 35.3566C53.4686 33.9761 51.273 31.5496 50.194 28.5176C47.9654 22.2629 51.2424 15.3603 57.4971 13.1317C60.5267 12.0527 63.7966 12.2176 66.7013 13.5958C69.606 14.9763 71.8017 17.4028 72.8806 20.4348C73.9596 23.4644 73.7947 26.7342 72.4165 29.639C71.036 32.5461 68.6095 34.7393 65.5776 35.8183C64.256 36.2895 62.8896 36.5227 61.5279 36.5227L61.5303 36.5274ZM61.5279 12.9079C60.2416 12.9079 58.9342 13.1246 57.6549 13.5793C51.6452 15.7208 48.4955 22.3524 50.6369 28.3621C52.3213 33.0926 56.7904 36.0515 61.5491 36.0515C62.8354 36.0515 64.1429 35.8348 65.4221 35.3801C68.3339 34.3436 70.6662 32.2351 71.9925 29.4411C73.3188 26.6494 73.4767 23.5068 72.4401 20.5973C70.7557 15.8668 66.2867 12.9079 61.5279 12.9079Z" fill="#7FFFD6"/>
<path d="M52.6298 32.0272C52.4932 32.0272 52.3566 32.0178 52.2246 31.9966C52.0974 31.9754 52.0079 31.8552 52.0291 31.7257C52.0503 31.5985 52.1705 31.5089 52.3 31.5301C53.2612 31.6856 54.3355 31.1226 54.6535 30.5171C54.9833 29.8905 54.8655 29.0801 54.3732 28.5924C54.2624 28.4817 54.1305 28.3828 53.9915 28.2767C53.6829 28.0412 53.3625 27.7985 53.2235 27.4074C52.9762 26.7195 53.4638 25.968 54.074 25.5817C54.4368 25.3508 54.8396 25.2071 55.2283 25.0705C55.4403 24.9951 55.6594 24.9173 55.8668 24.8278C57.7891 23.9821 58.9505 21.6828 58.5123 19.5932C58.1024 17.6402 56.4628 15.9558 54.3355 15.2961C54.2106 15.2585 54.1423 15.1265 54.18 15.0017C54.2177 14.8768 54.3496 14.8061 54.4745 14.8462C56.762 15.5553 58.5288 17.3787 58.9741 19.4966C59.457 21.7959 58.1755 24.326 56.0576 25.2589C55.8361 25.3555 55.61 25.438 55.3885 25.5157C55.0069 25.65 54.6464 25.7796 54.3284 25.9822C53.8879 26.2625 53.5086 26.802 53.6688 27.252C53.763 27.5135 54.0127 27.7043 54.2789 27.9045C54.4226 28.0153 54.5734 28.1283 54.7053 28.2603C55.3438 28.8893 55.4969 29.9329 55.0705 30.7386C54.6723 31.4924 53.6193 32.0272 52.6298 32.0272Z" fill="#00523F"/>
<path d="M68.1524 34.4094C68.1524 34.4094 68.1312 34.4094 68.1195 34.4094C65.7707 34.0819 63.1628 32.9252 61.3088 31.3892C60.1945 30.4657 59.6456 29.5234 59.6715 28.5905C59.6997 27.6552 60.3382 26.7482 61.3017 26.2818C62.0509 25.919 62.9885 25.8012 64.0886 25.9331C64.6305 25.9967 65.1676 26.1121 65.6882 26.2229C66.0416 26.2982 66.4068 26.376 66.7672 26.4372C67.1606 26.5032 67.6483 26.5456 67.9404 26.2912C68.2891 25.9849 68.2184 25.363 67.9922 24.8824C67.9216 24.7316 67.8391 24.5832 67.752 24.4277C67.5329 24.0319 67.3067 23.6244 67.2596 23.1485C67.1489 22.0083 68.1289 21.0966 69.1066 20.8209C70.0065 20.5665 71.493 20.8539 72.4777 21.0471L72.751 21.0989C72.8782 21.1225 72.963 21.2474 72.9395 21.3746C72.9159 21.5018 72.7934 21.5866 72.6639 21.563L72.3882 21.5089C71.4482 21.3251 70.0277 21.0495 69.2361 21.2733C68.4304 21.5018 67.6459 22.2486 67.7284 23.1037C67.7661 23.483 67.9593 23.8317 68.1642 24.2016C68.2514 24.357 68.3409 24.5196 68.4187 24.6845C68.6966 25.2782 68.8215 26.1475 68.2514 26.6469C67.8108 27.0333 67.1866 26.9861 66.6895 26.9037C66.3196 26.8424 65.9498 26.7623 65.5917 26.687C65.0828 26.5786 64.5551 26.4655 64.0345 26.4043C63.0238 26.2841 62.1757 26.3878 61.509 26.7105C60.7151 27.0945 60.1662 27.8578 60.145 28.607C60.1214 29.3891 60.6162 30.2042 61.6127 31.0287C63.4031 32.5129 65.9215 33.6319 68.1878 33.9453C68.3174 33.9641 68.4069 34.0819 68.388 34.2115C68.3715 34.3293 68.2702 34.4141 68.1548 34.4141L68.1524 34.4094Z" fill="#00523F"/>
<path d="M66.9585 18.1682C66.1693 18.1682 65.3801 17.7748 64.9442 17.1057C64.7652 16.8324 64.6474 16.5285 64.532 16.2341C64.3623 15.8029 64.2021 15.3954 63.8794 15.1409C63.5684 14.8983 63.1326 14.8253 62.7062 14.7852L62.5601 14.7711C62.1314 14.731 61.6885 14.691 61.2809 14.4907C60.7438 14.2269 60.2373 13.8028 60.5671 12.6673C60.6024 12.5425 60.732 12.4718 60.8592 12.5071C60.9841 12.5425 61.0571 12.6744 61.0194 12.7993C60.7556 13.7063 61.1631 13.9065 61.4906 14.0667C61.8204 14.2292 62.202 14.2646 62.6049 14.3023L62.751 14.3164C63.248 14.3659 63.764 14.453 64.1692 14.7711C64.5932 15.1033 64.784 15.5909 64.9701 16.0621C65.0809 16.3471 65.1869 16.6157 65.34 16.8466C65.7947 17.5415 66.7676 17.8714 67.5521 17.5981C68.3413 17.3224 68.9656 16.3566 68.8902 15.5297C68.8785 15.4001 68.9727 15.2847 69.1023 15.2729C69.2318 15.2611 69.3473 15.3553 69.359 15.4849C69.4556 16.5238 68.6994 17.6947 67.7076 18.0433C67.4673 18.1281 67.2129 18.1682 66.9608 18.1682H66.9585Z" fill="#7FFFD6"/>
<path d="M149.434 145.962C155.99 145.962 161.305 140.647 161.305 134.091C161.305 127.535 155.99 122.22 149.434 122.22C142.877 122.22 137.562 127.535 137.562 134.091C137.562 140.647 142.877 145.962 149.434 145.962Z" fill="#7FFFD6"/>
<path d="M149.434 146.198C142.758 146.198 137.327 140.765 137.327 134.091C137.327 127.417 142.76 121.984 149.434 121.984C156.108 121.984 161.541 127.417 161.541 134.091C161.541 140.765 156.108 146.198 149.434 146.198ZM149.434 122.453C143.017 122.453 137.799 127.674 137.799 134.089C137.799 140.504 143.019 145.724 149.434 145.724C155.849 145.724 161.069 140.504 161.069 134.089C161.069 127.674 155.849 122.453 149.434 122.453Z" fill="#00523F"/>
<path d="M149.081 142.424C149.048 142.424 149.013 142.424 148.98 142.421C147.976 142.367 147.203 141.505 147.26 140.501C147.26 140.497 147.26 140.492 147.26 140.487C146.749 140.313 146.263 140.08 145.809 139.79C145.806 139.792 145.802 139.797 145.799 139.799C145.437 140.124 144.97 140.289 144.482 140.261C143.997 140.235 143.55 140.021 143.224 139.658C142.553 138.909 142.617 137.754 143.366 137.083C143.37 137.081 143.373 137.076 143.378 137.074C143.14 136.591 142.961 136.082 142.843 135.554C142.838 135.554 142.833 135.554 142.829 135.554C141.825 135.5 141.052 134.638 141.109 133.634C141.135 133.149 141.349 132.701 141.712 132.376C142.075 132.051 142.541 131.886 143.029 131.914C143.034 131.914 143.038 131.914 143.043 131.914C143.215 131.403 143.451 130.918 143.74 130.463C143.738 130.458 143.733 130.456 143.731 130.451C143.059 129.702 143.123 128.548 143.872 127.876C144.235 127.551 144.702 127.386 145.189 127.415C145.674 127.441 146.122 127.655 146.447 128.018C146.45 128.022 146.454 128.025 146.457 128.03C146.94 127.792 147.448 127.613 147.974 127.495C147.974 127.49 147.974 127.485 147.974 127.481C148.028 126.477 148.883 125.704 149.894 125.759C150.379 125.784 150.827 125.999 151.152 126.362C151.477 126.724 151.642 127.191 151.614 127.679C151.614 127.683 151.614 127.688 151.614 127.693C152.125 127.867 152.61 128.1 153.065 128.39C153.069 128.388 153.072 128.383 153.076 128.381C153.439 128.055 153.906 127.891 154.393 127.919C154.879 127.945 155.326 128.159 155.651 128.522C156.323 129.271 156.259 130.425 155.51 131.097C155.505 131.099 155.503 131.104 155.498 131.106C155.736 131.589 155.915 132.098 156.031 132.626C156.035 132.626 156.04 132.626 156.045 132.626C157.048 132.68 157.819 133.542 157.765 134.546C157.71 135.549 156.848 136.322 155.845 136.268C155.84 136.268 155.835 136.268 155.83 136.268C155.656 136.779 155.423 137.264 155.135 137.719C155.138 137.721 155.143 137.726 155.145 137.728C155.816 138.478 155.753 139.632 155.004 140.303C154.641 140.629 154.172 140.793 153.687 140.765C153.201 140.739 152.754 140.525 152.429 140.162C152.426 140.157 152.422 140.155 152.419 140.15C151.936 140.388 151.427 140.567 150.902 140.685C150.902 140.69 150.902 140.694 150.902 140.699C150.876 141.184 150.662 141.632 150.299 141.957C149.962 142.259 149.533 142.424 149.083 142.424H149.081ZM145.776 139.25C145.821 139.25 145.868 139.264 145.908 139.29C146.424 139.641 146.989 139.912 147.585 140.096C147.698 140.131 147.769 140.247 147.748 140.362C147.738 140.416 147.731 140.471 147.726 140.525C147.686 141.269 148.259 141.908 149.003 141.948C149.361 141.967 149.71 141.846 149.979 141.604C150.247 141.364 150.407 141.031 150.426 140.671C150.429 140.614 150.426 140.56 150.426 140.506C150.419 140.388 150.499 140.28 150.617 140.259C151.232 140.141 151.821 139.934 152.374 139.641C152.48 139.585 152.61 139.618 152.678 139.714C152.709 139.759 152.742 139.804 152.78 139.844C153.02 140.113 153.352 140.273 153.713 140.292C154.071 140.31 154.419 140.19 154.688 139.948C155.244 139.451 155.291 138.593 154.792 138.039C154.754 137.997 154.714 137.959 154.674 137.924C154.584 137.846 154.568 137.712 154.634 137.615C154.985 137.099 155.256 136.534 155.439 135.936C155.475 135.823 155.59 135.752 155.706 135.773C155.76 135.783 155.814 135.79 155.868 135.794C156.613 135.837 157.251 135.262 157.291 134.518C157.331 133.773 156.759 133.135 156.014 133.095C155.958 133.092 155.903 133.095 155.849 133.095C155.739 133.104 155.625 133.022 155.602 132.904C155.484 132.289 155.277 131.7 154.985 131.146C154.928 131.04 154.961 130.911 155.058 130.842C155.102 130.812 155.145 130.779 155.187 130.741C155.743 130.244 155.79 129.387 155.291 128.831C155.051 128.562 154.718 128.402 154.358 128.383C154.002 128.364 153.651 128.484 153.383 128.727C153.34 128.765 153.303 128.805 153.267 128.845C153.19 128.934 153.055 128.951 152.956 128.885C152.44 128.534 151.875 128.263 151.279 128.079C151.166 128.044 151.095 127.931 151.116 127.813C151.126 127.759 151.133 127.704 151.135 127.65C151.154 127.29 151.034 126.944 150.794 126.673C150.553 126.404 150.221 126.244 149.861 126.225C149.107 126.185 148.478 126.757 148.438 127.502C148.436 127.558 148.438 127.613 148.438 127.667C148.445 127.785 148.365 127.891 148.247 127.914C147.632 128.032 147.041 128.239 146.49 128.531C146.384 128.588 146.254 128.555 146.186 128.458C146.155 128.414 146.122 128.369 146.084 128.329C145.844 128.06 145.512 127.9 145.151 127.881C144.789 127.862 144.445 127.982 144.176 128.225C143.62 128.722 143.575 129.58 144.073 130.133C144.11 130.176 144.15 130.213 144.19 130.249C144.28 130.326 144.296 130.461 144.23 130.557C143.879 131.073 143.608 131.639 143.425 132.237C143.389 132.35 143.274 132.421 143.158 132.4C143.104 132.39 143.05 132.383 142.996 132.378C142.633 132.36 142.289 132.48 142.021 132.722C141.752 132.963 141.592 133.295 141.573 133.655C141.533 134.4 142.105 135.038 142.85 135.078C142.906 135.081 142.961 135.078 143.015 135.078C143.133 135.071 143.239 135.151 143.262 135.269C143.38 135.884 143.587 136.475 143.879 137.026C143.936 137.132 143.903 137.262 143.806 137.33C143.762 137.361 143.717 137.394 143.677 137.432C143.123 137.929 143.076 138.786 143.573 139.34C143.813 139.608 144.146 139.769 144.506 139.787C144.869 139.809 145.213 139.686 145.481 139.444C145.521 139.406 145.559 139.366 145.597 139.326C145.644 139.274 145.707 139.246 145.773 139.246L145.776 139.25ZM149.437 137.274C149.378 137.274 149.319 137.274 149.26 137.269C148.412 137.222 147.632 136.847 147.064 136.214C146.497 135.58 146.209 134.765 146.256 133.914C146.303 133.066 146.678 132.284 147.309 131.716C147.943 131.149 148.758 130.864 149.609 130.908C151.361 131.005 152.709 132.508 152.612 134.261C152.52 135.955 151.112 137.271 149.437 137.271V137.274ZM149.432 131.377C148.763 131.377 148.127 131.62 147.625 132.07C147.086 132.553 146.768 133.219 146.728 133.943C146.687 134.666 146.932 135.361 147.415 135.9C147.898 136.44 148.563 136.758 149.286 136.798C150.775 136.878 152.061 135.731 152.141 134.237C152.224 132.744 151.074 131.462 149.58 131.38C149.531 131.377 149.479 131.375 149.43 131.375L149.432 131.377Z" fill="#00523F"/>
<path d="M175.377 126.895C181.835 126.895 187.071 121.659 187.071 115.2C187.071 108.742 181.835 103.506 175.377 103.506C168.918 103.506 163.682 108.742 163.682 115.2C163.682 121.659 168.918 126.895 175.377 126.895Z" fill="#7FFFD6"/>
<path d="M175.377 127.131C168.799 127.131 163.447 121.778 163.447 115.201C163.447 108.623 168.799 103.271 175.377 103.271C181.954 103.271 187.307 108.623 187.307 115.201C187.307 121.778 181.954 127.131 175.377 127.131ZM175.377 103.742C169.058 103.742 163.918 108.883 163.918 115.201C163.918 121.519 169.058 126.66 175.377 126.66C181.695 126.66 186.835 121.519 186.835 115.201C186.835 108.883 181.695 103.742 175.377 103.742Z" fill="#00523F"/>
<path d="M168.886 119.881C168.825 119.881 168.764 119.858 168.721 119.813C168.677 119.768 168.653 119.71 168.651 119.646L168.62 110.814C168.62 110.684 168.724 110.578 168.856 110.578L181.867 110.517C181.937 110.522 181.989 110.541 182.034 110.585C182.079 110.63 182.102 110.689 182.105 110.753L182.135 119.585C182.135 119.714 182.032 119.82 181.9 119.82L168.889 119.881H168.886ZM169.091 111.047L169.119 119.408L181.659 119.349L181.631 110.988L169.091 111.047Z" fill="#00523F"/>
<path d="M175.388 116.319C175.336 116.319 175.284 116.303 175.242 116.27L169.185 111.497C169.084 111.417 169.065 111.269 169.145 111.167C169.225 111.066 169.373 111.047 169.475 111.127L175.383 115.782L181.169 111.031C181.27 110.948 181.419 110.962 181.501 111.064C181.584 111.165 181.569 111.313 181.468 111.396L175.536 116.268C175.494 116.303 175.44 116.322 175.388 116.322V116.319Z" fill="#00523F"/>
<path d="M181.296 119.203C181.228 119.203 181.16 119.175 181.115 119.116L177.371 114.562C177.289 114.461 177.303 114.312 177.404 114.23C177.506 114.147 177.654 114.161 177.737 114.263L181.48 118.817C181.562 118.918 181.548 119.066 181.447 119.149C181.402 119.184 181.35 119.203 181.299 119.203H181.296Z" fill="#00523F"/>
<path d="M169.411 119.203C169.359 119.203 169.305 119.186 169.263 119.149C169.161 119.066 169.147 118.918 169.23 118.817L172.973 114.263C173.056 114.161 173.204 114.147 173.305 114.23C173.407 114.312 173.421 114.461 173.338 114.562L169.595 119.116C169.548 119.172 169.482 119.203 169.413 119.203H169.411Z" fill="#00523F"/>
<path d="M58.4964 82.4911C64.955 82.4911 70.1907 77.2638 70.1907 70.8156C70.1907 64.3674 64.955 59.1401 58.4964 59.1401C52.0378 59.1401 46.8021 64.3674 46.8021 70.8156C46.8021 77.2638 52.0378 82.4911 58.4964 82.4911Z" fill="#7FFFD6"/>
<path d="M58.4966 82.7269C51.9191 82.7269 46.5667 77.3839 46.5667 70.8158C46.5667 64.2478 51.9191 58.9048 58.4966 58.9048C65.0741 58.9048 70.4265 64.2478 70.4265 70.8158C70.4265 77.3839 65.0741 82.7269 58.4966 82.7269ZM58.4966 59.3736C52.1783 59.3736 47.0379 64.5069 47.0379 70.8135C47.0379 77.12 52.1783 82.2534 58.4966 82.2534C64.8149 82.2534 69.9554 77.12 69.9554 70.8135C69.9554 64.5069 64.8149 59.3736 58.4966 59.3736Z" fill="#7FFFD6"/>
<path d="M58.5833 69.6827C60.6116 69.6827 62.256 68.0405 62.256 66.0147C62.256 63.9889 60.6116 62.3467 58.5833 62.3467C56.5549 62.3467 54.9105 63.9889 54.9105 66.0147C54.9105 68.0405 56.5549 69.6827 58.5833 69.6827Z" fill="#01A17F"/>
<path d="M58.5839 70.7149C55.0172 70.7149 51.9852 70.656 50.8544 73.8317C51.9852 77.005 55.0172 79.2783 58.5839 79.2783C62.1506 79.2783 65.1826 77.005 66.3134 73.8317C65.1826 70.6584 62.1506 70.7149 58.5839 70.7149Z" fill="#01A17F"/>
<path d="M207.158 106.067L205.787 105.313C198.898 101.527 197.355 94.5348 196.695 86.6922L197.204 86.6121C201.855 86.287 204.133 85.5049 207.158 82.0913C210.767 85.3753 214.216 86.5721 217.596 86.5721L217.629 86.5792C217.005 94.483 215.434 101.539 208.486 105.339L207.158 106.064V106.067Z" fill="#7FFFD6"/>
<path d="M207.158 106.302C207.118 106.302 207.08 106.293 207.045 106.274L205.673 105.52C199.032 101.871 197.188 95.3615 196.462 86.7133C196.453 86.5908 196.538 86.4801 196.66 86.4612L197.169 86.3811C201.593 86.0702 203.925 85.3846 206.981 81.9357C207.023 81.8886 207.082 81.8603 207.143 81.8556C207.207 81.8509 207.268 81.8744 207.315 81.9168C210.585 84.8922 213.949 86.3364 217.596 86.3364C217.613 86.3364 217.629 86.3364 217.643 86.3411L217.676 86.3481C217.792 86.3717 217.872 86.4801 217.862 86.5979C217.175 95.305 215.337 101.861 208.597 105.546L207.268 106.271C207.233 106.29 207.195 106.3 207.155 106.3L207.158 106.302ZM196.95 86.8923C197.675 95.2814 199.499 101.588 205.9 105.108L207.158 105.8L208.373 105.136C214.863 101.588 216.685 95.2437 217.375 86.8099C213.756 86.7533 210.416 85.3186 207.176 82.428C204.088 85.8463 201.685 86.539 197.223 86.8499L196.95 86.8923Z" fill="#7FFFD6"/>
<path d="M204.276 102.559C204.227 102.559 204.175 102.542 204.132 102.509C200.036 99.3123 198.846 94.464 198.316 88.1692C198.306 88.0467 198.391 87.936 198.514 87.9172L198.933 87.8512C202.566 87.5968 204.479 87.0337 206.985 84.2067C207.028 84.1596 207.087 84.1314 207.148 84.1266C207.209 84.1243 207.273 84.1455 207.32 84.1879C210.003 86.6285 212.762 87.8159 215.754 87.8159C215.77 87.8159 215.784 87.8159 215.801 87.8206L215.829 87.8253C215.956 87.8512 216.039 87.9761 216.013 88.1033C215.987 88.2305 215.862 88.3129 215.735 88.287H215.73C212.691 88.28 209.892 87.1044 207.181 84.6944C204.641 87.4931 202.658 88.0609 198.987 88.3177L198.804 88.3459C199.331 94.4122 200.507 99.0814 204.42 102.135C204.524 102.215 204.54 102.363 204.46 102.464C204.413 102.523 204.344 102.554 204.274 102.554L204.276 102.559Z" fill="#00523F"/>
<path d="M207.162 104.332C207.079 104.332 206.997 104.288 206.954 104.21C206.891 104.097 206.933 103.953 207.049 103.89L208.142 103.291C212.085 101.133 214.248 97.5382 215.148 91.6345C215.167 91.505 215.287 91.4178 215.416 91.4366C215.546 91.4555 215.633 91.5756 215.614 91.7052C214.992 95.7878 213.607 100.841 208.37 103.706L207.277 104.304C207.242 104.323 207.202 104.332 207.164 104.332H207.162Z" fill="#00523F"/>
<path d="M207.186 99.4067C207.113 99.4067 207.042 99.3714 206.997 99.3125L203.132 94.2263C203.054 94.1226 203.073 93.9742 203.176 93.8965C203.28 93.8187 203.428 93.8376 203.506 93.9412L207.167 98.7565L212.925 89.6371C212.995 89.5264 213.139 89.4934 213.25 89.5641C213.361 89.6324 213.394 89.7785 213.323 89.8892L207.384 99.296C207.344 99.362 207.273 99.402 207.195 99.4067C207.193 99.4067 207.188 99.4067 207.186 99.4067Z" fill="#00523F"/>
<path d="M125.643 125.42C125.923 125.617 126.208 125.811 126.493 126.004C133.252 116.225 137.584 106.931 137.584 106.931C142.977 104.137 140.428 101.88 140.428 101.88C141.641 98.9543 139.215 98.3182 139.215 98.3182C139.033 94.5465 134.402 96.8411 134.402 96.8411C137.648 93.3215 141.052 85.8464 132.109 92.709C126.879 96.7209 119.791 104.512 113.395 111.506C116.182 117.096 120.559 121.829 125.64 125.42H125.643Z" fill="#7FFFD6"/>
<path d="M126.493 126.239C126.448 126.239 126.401 126.225 126.361 126.199C126.073 126.006 125.788 125.81 125.506 125.613C120.113 121.801 115.851 116.96 113.185 111.612C113.142 111.525 113.156 111.419 113.222 111.348L113.668 110.86C119.842 104.109 126.841 96.4545 131.968 92.5227C135.216 90.0302 137.134 89.1868 137.831 89.9501C138.698 90.8995 136.974 94.0916 135.214 96.2637C136.107 95.9645 137.461 95.6771 138.409 96.2331C139.019 96.5912 139.365 97.2343 139.443 98.1484C139.749 98.2662 140.406 98.5913 140.767 99.3122C141.106 99.9953 141.085 100.841 140.705 101.828C140.925 102.076 141.358 102.688 141.25 103.548C141.097 104.775 139.926 105.972 137.765 107.105C137.341 107.998 133.068 116.91 126.688 126.14C126.644 126.206 126.568 126.242 126.495 126.242L126.493 126.239ZM113.679 111.544C116.316 116.764 120.497 121.495 125.779 125.226C125.996 125.379 126.212 125.528 126.431 125.676C133.025 116.095 137.33 106.921 137.372 106.83C137.393 106.782 137.431 106.745 137.478 106.721C139.509 105.668 140.651 104.552 140.783 103.487C140.892 102.613 140.281 102.059 140.274 102.054C140.199 101.988 140.175 101.88 140.213 101.788C140.592 100.872 140.637 100.108 140.345 99.5195C139.97 98.7656 139.167 98.5489 139.16 98.5465C139.061 98.5206 138.99 98.4334 138.983 98.3298C138.943 97.4982 138.67 96.9304 138.173 96.6359C136.901 95.8868 134.536 97.0388 134.512 97.0506C134.411 97.1024 134.288 97.0718 134.22 96.9799C134.152 96.888 134.159 96.7632 134.236 96.6783C136.375 94.3602 138.107 90.9419 137.487 90.2634C137.313 90.0726 136.423 89.698 132.26 92.8925C127.169 96.7985 120.184 104.436 114.021 111.176L113.684 111.544H113.679Z" fill="#00523F"/>
<path d="M127.498 107.935C127.291 107.935 127.077 107.902 126.867 107.831C126.744 107.789 126.678 107.657 126.718 107.532C126.761 107.41 126.893 107.344 127.018 107.384C127.828 107.659 128.676 107.169 129.154 106.665C129.619 106.177 129.932 105.579 130.264 104.948C130.346 104.79 130.429 104.632 130.514 104.477C130.905 103.76 131.47 102.882 132.361 102.443C132.785 102.236 133.242 102.144 133.682 102.057C133.878 102.019 134.078 101.979 134.269 101.93C134.764 101.803 135.402 101.539 135.635 100.992C135.934 100.3 135.379 99.4398 134.684 99.1359C133.925 98.8037 133.032 98.905 132.179 99.0652C129.814 99.5057 127.786 100.276 126.153 101.353C126.045 101.426 125.899 101.395 125.826 101.287C125.755 101.178 125.783 101.032 125.892 100.959C127.576 99.8473 129.663 99.0558 132.09 98.6034C133.018 98.4315 133.996 98.3231 134.87 98.7071C135.77 99.1005 136.483 100.215 136.066 101.181C135.755 101.902 134.98 102.234 134.382 102.387C134.179 102.439 133.972 102.479 133.772 102.519C133.341 102.604 132.933 102.684 132.566 102.865C131.793 103.244 131.282 104.045 130.924 104.7C130.839 104.853 130.759 105.009 130.676 105.164C130.344 105.798 130 106.453 129.489 106.988C129.034 107.466 128.29 107.93 127.491 107.93L127.498 107.935Z" fill="#00523F"/>
<path d="M133.633 104.237C133.48 104.237 133.324 104.22 133.169 104.178C132.58 104.017 132.05 103.412 132.201 102.762C132.231 102.635 132.359 102.557 132.483 102.585C132.611 102.616 132.688 102.741 132.66 102.868C132.573 103.235 132.922 103.619 133.291 103.721C133.65 103.817 134.074 103.754 134.63 103.52C136.573 102.701 138.055 100.91 138.493 98.8464C138.521 98.7192 138.646 98.6391 138.773 98.665C138.901 98.6909 138.981 98.8181 138.955 98.9454C138.484 101.157 136.898 103.077 134.813 103.956C134.505 104.086 134.081 104.237 133.633 104.237Z" fill="#00523F"/>
<path d="M135.966 105.018C135.766 105.018 135.582 104.99 135.408 104.936C134.885 104.768 134.505 104.316 134.489 103.836C134.484 103.706 134.585 103.595 134.715 103.593C134.845 103.588 134.953 103.689 134.958 103.819C134.969 104.139 135.264 104.396 135.547 104.488C135.836 104.58 136.183 104.568 136.637 104.448C137.914 104.111 139.033 103.27 139.709 102.137C139.775 102.026 139.919 101.989 140.032 102.055C140.143 102.12 140.181 102.267 140.115 102.377C139.377 103.614 138.152 104.535 136.76 104.903C136.463 104.98 136.202 105.021 135.964 105.021L135.966 105.018Z" fill="#00523F"/>
<path d="M137.492 106.499C137.134 106.499 136.774 106.356 136.524 106.097C136.19 105.746 136.07 105.204 136.23 104.748C136.272 104.625 136.406 104.559 136.529 104.604C136.651 104.646 136.717 104.78 136.672 104.903C136.569 105.197 136.644 105.546 136.861 105.772C137.077 105.998 137.424 106.087 137.72 105.998C137.845 105.96 137.977 106.031 138.015 106.156C138.052 106.28 137.982 106.412 137.857 106.45C137.737 106.485 137.612 106.504 137.487 106.504L137.492 106.499Z" fill="#00523F"/>
<path d="M35.3764 182.784C41.5628 183.05 54.7648 185.053 64.3907 184.888C70.523 184.782 74.5231 183.142 75.3194 177.062C76.2641 169.839 78.2501 159.48 82.4222 147.831C88.6605 149.301 103.222 149.861 113.088 141.812C119.486 136.591 126.792 128.197 132.003 117.344C126.851 116.392 121.92 113.014 117.192 107.365C117.192 107.365 107.462 116.932 101.589 122.133C99.4054 124.068 96.5242 125.019 93.6195 124.774C86.5308 124.178 73.2557 123.069 70.6195 122.908C63.5497 122.482 51.1109 122.145 40.1681 123.987C36.3847 124.624 33.1666 127.095 31.5717 130.581C28.6505 136.963 23.7315 147.953 20.4004 156.665C18.1671 162.508 19.5735 168.072 27.9838 172.414C27.9838 172.414 31.289 174.044 31.6683 179.168C31.9345 182.765 31.7743 182.626 35.3787 182.782L35.3764 182.784Z" fill="#02CCA1"/>
<path d="M63.2478 185.133C57.2899 185.133 50.1212 184.398 44.2928 183.802C40.6978 183.434 37.5905 183.116 35.3666 183.02L34.9968 183.003C31.7905 182.869 31.6915 182.775 31.463 179.604L31.4324 179.189C31.0696 174.273 27.9104 172.645 27.8774 172.628C20.2116 168.67 17.6202 163.271 20.1786 156.585C23.5639 147.727 28.6337 136.433 31.3546 130.487C32.9849 126.925 36.2642 124.409 40.1254 123.759C51.2567 121.886 64.0158 122.277 70.631 122.678C73.2342 122.835 86.1629 123.914 93.638 124.543C96.4697 124.784 99.3108 123.841 101.433 121.961C107.233 116.823 116.93 107.296 117.029 107.2C117.076 107.153 117.14 107.129 117.206 107.132C117.272 107.134 117.333 107.164 117.375 107.216C122.096 112.859 127.034 116.19 132.05 117.115C132.123 117.13 132.184 117.174 132.217 117.24C132.25 117.306 132.25 117.382 132.217 117.45C125.993 130.414 117.656 138.393 113.238 141.998C108.908 145.531 103.094 147.824 96.4249 148.627C89.5695 149.454 84.3113 148.5 82.575 148.109C78.3628 159.93 76.431 170.388 75.5523 177.095C75.1636 180.073 73.9951 182.141 71.9809 183.415C70.2352 184.523 67.8228 185.065 64.3927 185.123C64.0158 185.131 63.6342 185.133 63.2478 185.133ZM59.7023 122.817C53.669 122.817 46.6581 123.137 40.2008 124.225C36.4927 124.85 33.3453 127.264 31.7787 130.685C29.0601 136.624 23.995 147.911 20.6144 156.755C18.122 163.271 20.5673 168.326 28.0871 172.211C28.2238 172.277 31.5148 173.959 31.8988 179.156L31.9295 179.573C32.0355 181.038 32.0873 181.773 32.436 182.108C32.7846 182.445 33.5291 182.476 35.0132 182.537L35.3855 182.553C37.6259 182.65 40.7379 182.968 44.34 183.338C50.5358 183.971 58.2488 184.763 64.3857 184.657C71.293 184.539 74.3932 182.332 75.0858 177.036C75.9716 170.268 77.9246 159.695 82.2004 147.755C82.2405 147.642 82.3606 147.579 82.4761 147.605C89.6943 149.305 103.766 149.117 112.939 141.633C117.293 138.08 125.489 130.24 131.656 117.521C126.693 116.51 121.823 113.212 117.173 107.713C115.809 109.049 107.111 117.556 101.742 122.312C99.5252 124.277 96.5568 125.262 93.5956 125.012C86.1229 124.383 73.1988 123.304 70.6003 123.149C67.8464 122.982 64.0252 122.817 59.7023 122.817Z" fill="#02CCA1"/>
<path d="M72.9617 133.191L72.3492 125.412L53.9714 121.457L20.5682 195.703L52.9443 195.651L72.9617 133.191Z" fill="#00523F"/>
<path d="M50.5533 121.457C36.2723 121.457 23.2234 124.741 15.9062 137.95C10.7658 147.227 4.8079 158.672 0.312988 167.659V195.567H24.9431L55.2579 121.721C54.9587 121.643 50.8572 121.457 50.551 121.457H50.5533Z" fill="#02CCA1"/>
<path d="M24.9429 195.802C24.9123 195.802 24.8817 195.797 24.8534 195.783C24.7333 195.734 24.6767 195.597 24.7262 195.474L54.9255 121.914C53.9549 121.831 50.8806 121.69 50.5555 121.69C33.2472 121.69 22.3021 126.892 16.1133 138.061C11.3946 146.577 5.56392 157.685 0.517738 167.775C0.458843 167.89 0.317493 167.94 0.202058 167.881C0.0866222 167.822 0.0395057 167.68 0.0960455 167.565C5.14694 157.47 10.98 146.356 15.701 137.834C19.1641 131.584 24.0148 127.233 30.5286 124.533C35.9022 122.305 42.4538 121.221 50.5531 121.221C50.7864 121.221 54.9797 121.403 55.319 121.492C55.3849 121.509 55.4391 121.553 55.4697 121.615C55.5004 121.676 55.5027 121.747 55.4768 121.81L25.162 195.656C25.1243 195.748 25.0372 195.802 24.9453 195.802H24.9429Z" fill="#00523F"/>
<path d="M60.94 170.117C63.5597 170.854 66.177 171.592 68.7967 172.329C68.9451 169.04 69.0417 165.671 69.0841 162.227C69.1689 155.174 69.0087 148.42 68.6624 141.995C69.56 140.568 70.4552 139.138 71.3527 137.71C69.8356 135.368 68.3208 133.027 66.8036 130.685L60.9329 136.292C61.953 138.266 62.9754 140.243 63.9955 142.217C63.4937 150.834 62.542 160.182 60.94 170.119V170.117Z" fill="url(#paint17_linear_167_1504)"/>
<path d="M29.202 195.703L83.1033 165.443H185.44L242.35 195.652L29.202 195.703Z" fill="url(#paint18_linear_167_1504)"/>
<path d="M29.2017 195.939C29.1193 195.939 29.0392 195.897 28.9968 195.819C28.9332 195.706 28.9732 195.562 29.0863 195.499L82.9876 165.238C83.0229 165.219 83.063 165.208 83.103 165.208H185.438C185.475 165.208 185.513 165.217 185.548 165.236L242.46 195.445C242.576 195.506 242.618 195.647 242.557 195.763C242.496 195.878 242.355 195.92 242.239 195.859L185.379 165.679H83.1643L29.3172 195.911C29.2818 195.932 29.2418 195.942 29.2017 195.942V195.939Z" fill="#00523F"/>
<path d="M207.75 180.704H155.865L134.663 169.153H186.548L207.75 180.704Z" fill="#7FFFD6"/>
<path d="M207.75 180.939H155.865C155.825 180.939 155.787 180.93 155.752 180.911L134.55 169.36C134.455 169.309 134.408 169.2 134.434 169.097C134.46 168.993 134.554 168.92 134.663 168.92H186.547C186.588 168.92 186.625 168.929 186.661 168.948L207.863 180.499C207.957 180.551 208.004 180.659 207.978 180.763C207.952 180.866 207.858 180.939 207.75 180.939ZM155.926 180.468H206.824L186.486 169.389H135.589L155.926 180.468Z" fill="#00523F"/>
<path d="M13.632 152.999L6.26537 171.808C3.33473 179.288 8.81202 187.385 16.8407 187.442C28.5491 187.522 43.1129 187.609 54.1758 187.597C55.3514 179.778 58.8333 172.247 60.9347 168.162C44.7902 167.928 29.4255 167.431 29.4255 167.431L38.5261 145.133L13.632 153.002V152.999Z" fill="#02CCA1"/>
<path d="M52.1149 187.835C40.9035 187.835 26.745 187.746 16.8364 187.677C12.9328 187.651 9.43909 185.781 7.25052 182.546C5.05725 179.309 4.61907 175.363 6.04434 171.721L13.411 152.912C13.4581 152.79 13.5971 152.731 13.7149 152.778C13.8351 152.825 13.8963 152.962 13.8492 153.084L6.48253 171.893C5.11379 175.387 5.53548 179.175 7.63924 182.283C9.74063 185.385 13.093 187.18 16.8387 187.206C27.301 187.279 42.5055 187.373 53.9689 187.362C55.0809 180.207 58.1175 173.163 60.5487 168.39C44.7247 168.157 29.5673 167.669 29.4141 167.665C29.3364 167.662 29.2657 167.622 29.2233 167.556C29.1809 167.493 29.1738 167.41 29.2021 167.34L38.3027 145.042C38.3521 144.921 38.4888 144.863 38.6089 144.912C38.7291 144.962 38.788 145.098 38.7385 145.218L29.7652 167.203C32.1139 167.276 46.2866 167.712 60.9304 167.924C61.0128 167.924 61.0859 167.969 61.1283 168.039C61.1707 168.11 61.173 168.195 61.1353 168.268C58.6711 173.055 55.5002 180.301 54.4 187.63C54.3835 187.746 54.2846 187.831 54.1668 187.831C53.493 187.831 52.8051 187.831 52.1078 187.831L52.1149 187.835Z" fill="#00523F"/>
<path d="M23.8493 168.035C23.7244 168.035 23.6184 167.936 23.6137 167.809C23.609 167.679 23.7103 167.568 23.8398 167.564L27.8047 167.408C27.9319 167.401 28.045 167.505 28.0497 167.634C28.0544 167.764 27.9531 167.875 27.8235 167.879L23.8587 168.035C23.8587 168.035 23.8516 168.035 23.8493 168.035Z" fill="#00523F"/>
<path d="M53.8247 187.6C53.8247 187.6 53.5231 180.026 53.5985 175.5C53.6716 170.977 56.4137 168.157 56.4137 168.157H60.5506C68.8713 168.157 75.5855 174.958 75.4771 183.279L75.1661 187.572L53.8247 187.6Z" fill="#7FFFD6"/>
<path d="M52.4119 187.835C52.2823 187.835 52.1763 187.729 52.1763 187.6C52.1763 187.47 52.2823 187.364 52.4119 187.364L74.9477 187.336L75.2422 183.263C75.2916 179.317 73.7886 175.583 71.0064 172.765C68.2242 169.948 64.5114 168.395 60.5512 168.395L55.9197 168.32C55.7901 168.32 55.6865 168.211 55.6888 168.08C55.6888 167.95 55.7972 167.849 55.9244 167.849H55.9291L60.5559 167.924C64.6386 167.924 68.4715 169.526 71.3433 172.435C74.215 175.345 75.7675 179.197 75.7157 183.284L75.4024 187.59C75.3929 187.713 75.2916 187.81 75.1668 187.81L52.4142 187.838L52.4119 187.835Z" fill="#00523F"/>
<path d="M64.2926 185.658C64.2926 185.658 64.2691 185.658 64.2573 185.656C64.1277 185.637 64.0406 185.517 64.0594 185.389C64.2149 184.32 63.9628 183.13 63.3503 182.039C62.8344 181.121 62.0687 180.254 61.0133 179.389C60.8154 179.226 60.601 179.059 60.3655 178.956C60.2453 178.904 60.1911 178.765 60.243 178.645C60.2948 178.524 60.4338 178.47 60.5539 178.522C60.8461 178.649 61.0887 178.838 61.3101 179.022C62.4127 179.924 63.2137 180.835 63.7602 181.806C64.4246 182.989 64.6955 184.284 64.5235 185.455C64.507 185.573 64.4057 185.658 64.2903 185.658H64.2926Z" fill="#00523F"/>
<path d="M69.1771 185.379C69.0617 185.379 68.9604 185.294 68.9439 185.176C68.7601 183.888 68.4986 182.382 67.9379 180.976C67.3584 179.527 66.5103 178.344 65.4855 177.555C65.3819 177.475 65.363 177.329 65.4431 177.225C65.5208 177.122 65.6693 177.103 65.7729 177.183C66.866 178.022 67.7659 179.275 68.3761 180.801C68.9556 182.253 69.2242 183.793 69.4127 185.11C69.4315 185.24 69.342 185.358 69.2124 185.376C69.2006 185.376 69.1912 185.376 69.1794 185.376L69.1771 185.379Z" fill="#00523F"/>
<path d="M73.0929 185.378C73.0929 185.378 73.074 185.378 73.0646 185.378C72.935 185.361 72.8432 185.246 72.8596 185.116C73.5146 179.634 69.929 176.228 69.8913 176.195C69.7947 176.105 69.79 175.957 69.8795 175.863C69.969 175.768 70.1175 175.761 70.2117 175.851C70.2494 175.886 74.0093 179.458 73.3261 185.173C73.312 185.293 73.2107 185.38 73.0929 185.38V185.378Z" fill="#00523F"/>
<path d="M51.8461 186.586C51.7377 186.586 51.6388 186.511 51.6152 186.398C51.0239 183.554 51.0286 180.553 51.627 177.721C52.2795 174.64 53.6436 171.688 55.5753 169.186C55.6554 169.083 55.8015 169.064 55.9052 169.144C56.0088 169.224 56.0277 169.372 55.9476 169.474C54.0582 171.921 52.7248 174.807 52.0864 177.818C51.4998 180.586 51.495 183.519 52.0746 186.301C52.1005 186.429 52.018 186.553 51.8908 186.579C51.8743 186.582 51.8578 186.584 51.8437 186.584L51.8461 186.586Z" fill="#00523F"/>
<path d="M116.926 191.06H55.7407C55.3779 191.06 55.0151 190.969 54.7183 190.761C54.0186 190.281 53.776 189.421 54.0516 188.681C54.7725 187.169 56.2637 186.636 58.4688 186.636H120.941L120.13 188.839C119.631 190.175 118.354 191.06 116.926 191.06Z" fill="#00523F"/>
<path d="M117.272 191.06C118.495 191.06 119.595 190.316 120.05 189.178L130.882 162.006C131.169 161.285 131.08 160.467 130.644 159.826C130.208 159.183 129.483 158.799 128.705 158.799H91.1016C88.8353 158.799 86.8164 160.227 86.0601 162.361L75.8924 191.06H117.272Z" fill="#7FFFD6"/>
<path d="M118.151 187.138H80.8702C80.7406 187.138 80.6346 187.032 80.6346 186.902C80.6346 186.773 80.7406 186.667 80.8702 186.667H118.151C118.281 186.667 118.387 186.773 118.387 186.902C118.387 187.032 118.281 187.138 118.151 187.138Z" fill="url(#paint19_linear_167_1504)"/>
<path d="M71.6595 140.933L66.6039 132.89L61.4682 141.637L50.1202 126.937L55.2606 121.721L69.2919 122.805L73.5701 128.355L71.6595 140.933Z" fill="url(#paint20_linear_167_1504)"/>
<path d="M61.4677 141.873C61.3947 141.873 61.3264 141.84 61.2816 141.781L49.9336 127.08C49.8605 126.986 49.87 126.854 49.9524 126.772L55.0905 121.556C55.14 121.507 55.2059 121.481 55.2766 121.485L69.3103 122.569C69.3762 122.574 69.4375 122.607 69.4775 122.661L73.7557 128.209C73.7957 128.261 73.8122 128.324 73.8028 128.388L71.8922 140.968C71.8781 141.065 71.8051 141.142 71.7085 141.164C71.6095 141.185 71.5129 141.142 71.4611 141.058L70.295 139.201C70.2267 139.091 70.2596 138.947 70.368 138.876C70.4787 138.808 70.6224 138.841 70.6931 138.949L71.5224 140.268L73.3222 128.416L69.1689 123.031L55.3496 121.964L50.433 126.956L61.4418 141.218L62.4501 139.498C62.516 139.385 62.6598 139.347 62.7728 139.413C62.8859 139.479 62.9236 139.623 62.8576 139.736L61.6727 141.757C61.6326 141.826 61.5619 141.868 61.4842 141.873C61.4795 141.873 61.4748 141.873 61.4701 141.873H61.4677Z" fill="#00523F"/>
<path d="M72.4364 118.286L66.8036 130.684L57.3544 121.885L62.6833 110.573C62.6833 110.573 69.3856 113.558 72.4364 118.288V118.286Z" fill="#7FFFD6"/>
<path d="M66.8027 130.918C66.7438 130.918 66.6849 130.896 66.6425 130.854L57.1909 122.055C57.1155 121.984 57.0943 121.876 57.1391 121.782L62.468 110.469C62.5222 110.354 62.6588 110.302 62.7766 110.354C62.8449 110.384 69.5779 113.423 72.6334 118.156C72.6758 118.224 72.6829 118.309 72.6499 118.382L67.0171 130.781C66.9865 130.849 66.9229 130.899 66.8498 130.915C66.8333 130.918 66.8192 130.92 66.8027 130.92V130.918ZM57.6385 121.826L66.7226 130.286L72.1669 118.305C69.4601 114.21 63.9357 111.426 62.7931 110.881L57.6385 121.826Z" fill="#7FFFD6"/>
<path d="M56.9633 105.93C55.9903 104.3 55.1187 102.502 55.1776 100.603C55.2365 98.7047 56.5157 96.7258 58.4003 96.4737C57.8821 94.2875 58.7561 91.8351 60.5394 90.4664C62.3228 89.1 64.9189 88.8927 66.8954 89.9598C69.0581 87.4792 72.9193 86.796 75.9324 88.1176C78.9455 89.4392 81.0092 92.5418 81.3767 95.8117C81.5345 97.2158 81.3932 98.6976 80.6935 99.9274C79.7158 101.649 77.7699 102.641 75.8146 102.948C74.7003 103.122 73.4352 103.164 72.679 104.001C72.2102 104.519 72.0476 105.237 71.8238 105.899C71.0323 108.243 69.2206 110.225 66.9543 111.221C65.1097 112.032 61.9247 112.515 60.0989 111.344C59.3921 110.891 59.2602 110.027 58.9163 109.299C58.3603 108.123 57.6323 107.04 56.968 105.928L56.9633 105.93Z" fill="url(#paint21_linear_167_1504)"/>
<path d="M78.6958 107.216C79.5934 110.317 79.9114 113.855 78.2176 116.602C76.7428 118.995 73.7839 120.378 71.0017 119.975C68.2194 119.573 65.7741 117.408 65.0367 114.694C62.4005 114.668 59.8869 112.793 59.1118 110.272C58.8197 109.325 58.8362 108.126 59.6325 107.539C60.5442 106.868 61.8092 107.4 62.8552 107.841C63.8988 108.281 64.6857 109.061 65.2393 108.071C64.8459 105.574 62.9283 101.329 66.5986 100.092C67.965 99.6306 75.6026 98.3184 75.6026 98.3184C75.6026 98.3184 78.2152 105.546 78.6981 107.216H78.6958Z" fill="#7FFFD6"/>
<path d="M71.9624 120.279C71.6302 120.279 71.2957 120.255 70.9659 120.208C68.1577 119.801 65.67 117.64 64.8572 114.924C62.1716 114.818 59.6791 112.914 58.8875 110.342C58.5789 109.338 58.5766 108.026 59.4953 107.35C60.5154 106.598 61.863 107.166 62.9466 107.623C63.1916 107.727 63.4131 107.842 63.6298 107.955C64.4143 108.365 64.7135 108.471 64.9938 108.026C64.9208 107.593 64.8054 107.107 64.6805 106.594C64.1104 104.212 63.3283 100.949 66.5228 99.8702C67.8892 99.4085 75.2488 98.1411 75.5621 98.0892C75.6728 98.0704 75.7859 98.134 75.8236 98.2424C75.9296 98.5368 78.4433 105.496 78.9238 107.154C80.0688 111.108 79.8992 114.33 78.4197 116.729C77.0745 118.91 74.5208 120.283 71.9647 120.283L71.9624 120.279ZM60.6733 107.454C60.3458 107.454 60.0395 107.531 59.7733 107.727C59.0525 108.259 59.0878 109.392 59.3375 110.203C60.089 112.644 62.4873 114.432 65.0386 114.458C65.1446 114.458 65.2365 114.531 65.2624 114.632C65.9739 117.252 68.3462 119.353 71.0342 119.742C73.7198 120.13 76.5916 118.788 78.0169 116.476C79.4233 114.194 79.5764 111.1 78.4715 107.279C78.0381 105.783 75.8589 99.7242 75.449 98.5816C74.2499 98.7889 67.8868 99.9032 66.6736 100.313C63.8866 101.253 64.5533 104.031 65.1399 106.481C65.2742 107.037 65.399 107.562 65.4721 108.033C65.4815 108.085 65.4721 108.139 65.4438 108.186C64.902 109.152 64.1081 108.738 63.4084 108.372C63.2011 108.264 62.9867 108.153 62.7629 108.057C62.0773 107.769 61.3329 107.454 60.6733 107.454Z" fill="#7FFFD6"/>
<path d="M63.9971 111.577C63.9311 111.577 63.8651 111.549 63.818 111.497C63.2503 110.842 62.3574 110.481 61.4975 110.557C61.3585 110.571 61.2525 110.472 61.2431 110.342C61.2313 110.213 61.3279 110.097 61.4575 110.088C62.4705 109.998 63.5118 110.423 64.1761 111.188C64.2609 111.287 64.2515 111.436 64.1525 111.52C64.1078 111.558 64.0536 111.577 63.9971 111.577Z" fill="#002F23"/>
<path d="M78.1186 109.236C76.903 109.236 75.7745 108.223 75.4942 106.793C75.1785 105.198 76.0337 103.683 77.4001 103.412C78.0691 103.28 78.757 103.462 79.3342 103.926C79.9019 104.378 80.2954 105.049 80.4485 105.815C80.7642 107.41 79.909 108.925 78.5426 109.196C78.4013 109.224 78.2599 109.238 78.1209 109.238L78.1186 109.236ZM77.8241 103.843C77.7134 103.843 77.6003 103.855 77.4896 103.876C76.38 104.095 75.6897 105.363 75.9559 106.703C76.2198 108.041 77.3365 108.953 78.4508 108.734C79.5604 108.515 80.2506 107.247 79.9844 105.907C79.8548 105.252 79.5203 104.68 79.0397 104.296C78.6699 103.999 78.2482 103.846 77.8241 103.846V103.843Z" fill="#002F23"/>
<path d="M71.0826 110.618C69.7845 110.618 68.6019 109.624 68.3239 108.208C68.0082 106.613 68.9576 105.079 70.4371 104.787C71.9165 104.495 73.3771 105.555 73.6905 107.148C73.8412 107.916 73.7093 108.696 73.3135 109.339C72.9154 109.989 72.2982 110.427 71.5773 110.568C71.4124 110.601 71.2475 110.618 71.0826 110.618ZM70.9294 105.211C70.7952 105.211 70.6609 105.223 70.5266 105.251C69.3016 105.494 68.5218 106.78 68.7856 108.118C69.0495 109.456 70.2604 110.349 71.4854 110.109C72.0744 109.994 72.5809 109.633 72.9107 109.096C73.2429 108.552 73.3559 107.895 73.2264 107.242C72.9908 106.05 72.0061 105.214 70.9294 105.214V105.211Z" fill="#002F23"/>
<path d="M73.4557 107.431C73.4133 107.431 73.3733 107.419 73.3332 107.398C73.2225 107.33 73.1872 107.186 73.2531 107.075C73.6089 106.486 74.0376 106.156 74.5324 106.093C75.2744 105.996 75.861 106.557 75.8846 106.58C75.9788 106.672 75.9788 106.821 75.8893 106.913C75.7998 107.004 75.649 107.007 75.5571 106.917C75.5477 106.908 75.1025 106.491 74.5889 106.559C74.2449 106.604 73.9316 106.861 73.656 107.318C73.6112 107.391 73.5335 107.431 73.4534 107.431H73.4557Z" fill="#002F23"/>
<path d="M68.554 108.399C68.554 108.399 68.5375 108.399 68.5281 108.399L63.9766 107.906C63.8471 107.892 63.7528 107.777 63.767 107.647C63.7811 107.518 63.8989 107.423 64.0261 107.437L68.5776 107.93C68.7071 107.944 68.8014 108.059 68.7872 108.189C68.7731 108.309 68.6718 108.399 68.554 108.399Z" fill="#002F23"/>
<path d="M236.758 66.8824C237.14 64.6703 240.803 63.0306 242.73 61.8739C247.032 59.2872 250.37 56.9691 255.384 57.2777C261.13 57.6334 266.02 62.0011 268.56 67.1557C270.239 70.5669 271.092 74.4658 270.449 78.2139C270.353 78.7722 270.218 79.3235 270.051 79.8677C270.944 79.9666 271.83 80.1316 272.687 80.3412C274.287 80.7299 275.872 81.2435 277.392 81.8749C279.01 82.5463 280.596 83.425 281.818 84.6995C282.829 85.7526 283.526 87.0388 283.856 88.4594C284.162 89.7834 284.158 91.1662 283.939 92.5044C283.463 95.4326 282.047 98.2502 280.11 100.488C279.067 101.697 277.813 102.743 276.367 103.44C274.984 104.107 273.45 104.404 271.917 104.354C268.696 104.251 265.723 102.691 263.469 100.455C262.218 99.2138 261.162 97.7838 260.288 96.2548C259.516 94.9002 258.884 93.4514 258.515 91.9342C258.237 90.7917 258.123 89.5926 258.206 88.4146C256.328 88.3063 254.458 87.8045 252.773 86.9729C249.313 85.2625 247.362 82.5392 245.002 79.6604C242.862 77.0501 242.559 76.6284 239.602 74.6802C238.092 73.686 236.186 70.1829 236.756 66.8847L236.758 66.8824Z" fill="url(#paint22_linear_167_1504)"/>
<path d="M221.266 195.769L230.541 155.675L271.304 163.949C277.938 172.703 281.7 186.089 283.78 195.769H221.268H221.266Z" fill="url(#paint23_linear_167_1504)"/>
<path d="M283.801 196C283.693 196 283.594 195.925 283.57 195.814C280.538 181.703 276.366 171.054 271.167 164.163L230.715 155.953L221.445 195.812C221.416 195.939 221.287 196.017 221.162 195.988C221.035 195.96 220.957 195.833 220.985 195.706L230.307 155.624C230.335 155.499 230.46 155.421 230.583 155.447L271.346 163.721C271.402 163.732 271.452 163.763 271.487 163.81C276.75 170.755 280.972 181.491 284.027 195.717C284.055 195.845 283.973 195.969 283.846 195.998C283.829 196.002 283.813 196.002 283.796 196.002L283.801 196Z" fill="#00523F"/>
<path d="M257.509 82.0396L267.563 102.351C267.563 102.351 256.795 145.732 248.114 145.173C239.432 144.615 240.297 105.598 246.766 102.554L251.402 101.845L247.619 86.0021L257.511 82.0419L257.509 82.0396Z" fill="#7FFFD6"/>
<path d="M249.683 102.394C249.572 102.394 249.473 102.314 249.452 102.201C249.428 102.074 249.513 101.951 249.64 101.928L251.113 101.657L247.386 86.0566C247.355 85.9294 247.433 85.8022 247.56 85.7715C247.687 85.7433 247.814 85.8187 247.845 85.9459L251.628 101.789C251.643 101.852 251.631 101.918 251.598 101.973C251.563 102.027 251.506 102.064 251.442 102.076L249.725 102.392C249.711 102.394 249.697 102.397 249.683 102.397V102.394Z" fill="#00523F"/>
<path d="M239.429 75.5312C238.991 77.9106 238.979 80.4149 239.785 82.6953C240.591 84.9757 242.287 87.0088 244.551 87.8734C246.513 88.6226 248.761 88.4435 250.7 87.6331C252.638 86.8251 254.29 85.4281 255.637 83.819C257.708 84.554 260.231 83.6965 261.423 81.8543C262.111 80.7918 262.354 79.3783 261.791 78.2451C261.228 77.112 259.751 76.4335 258.603 76.973C257.951 77.2816 257.484 77.9083 256.82 78.191C256.078 78.5043 255.192 78.3182 254.523 77.8706C253.854 77.423 253.373 76.7445 252.992 76.0377C251.786 73.8115 251.425 71.14 252 68.6758C251.946 68.909 250.704 69.26 250.483 69.3354C249.927 69.5239 249.354 69.6605 248.772 69.7524C247.628 69.9291 246.454 69.9173 245.314 69.7194C244.735 69.6181 244.164 69.472 243.611 69.2742C243.17 69.1187 242.6 68.704 242.131 68.6993C241.151 68.6876 240.859 70.4709 240.624 71.1588C240.131 72.5888 239.698 74.0423 239.422 75.5312H239.429Z" fill="#7FFFD6"/>
<path d="M247.22 88.5821C246.257 88.5821 245.321 88.4195 244.466 88.0944C242.278 87.2581 240.442 85.2698 239.561 82.775C238.817 80.6665 238.694 78.2164 239.196 75.4884C239.434 74.188 239.82 72.7886 240.405 71.0807C240.445 70.9652 240.487 70.8144 240.532 70.6495C240.777 69.7779 241.144 68.4633 242.124 68.4633H242.136C242.497 68.468 242.864 68.6541 243.22 68.8332C243.392 68.9204 243.552 69.0028 243.691 69.0523C244.226 69.2407 244.787 69.3868 245.357 69.4858C246.48 69.6813 247.618 69.6907 248.74 69.5164C249.31 69.4269 249.873 69.2902 250.41 69.1088C250.443 69.097 250.495 69.0806 250.563 69.0594C251.435 68.7884 251.71 68.6494 251.786 68.5788C251.83 68.4751 251.944 68.4162 252.057 68.4421C252.184 68.4728 252.262 68.5976 252.233 68.7248C251.673 71.1278 252.026 73.7498 253.202 75.9219C253.651 76.7511 254.113 77.3071 254.657 77.6723C255.319 78.1152 256.116 78.2306 256.731 77.9714C257.044 77.8395 257.315 77.6181 257.602 77.3825C257.88 77.154 258.165 76.9207 258.507 76.7582C259.722 76.1857 261.357 76.8289 262.005 78.1387C262.568 79.2766 262.422 80.749 261.624 81.9811C260.41 83.8539 257.842 84.7609 255.715 84.0919C254.219 85.847 252.563 87.112 250.792 87.8494C249.625 88.3347 248.403 88.5797 247.22 88.5797V88.5821ZM239.66 75.5732C239.175 78.2188 239.29 80.5888 240.007 82.6171C240.843 84.9847 242.572 86.867 244.633 87.6539C246.429 88.3371 248.605 88.2523 250.608 87.4183C252.349 86.6927 253.981 85.4323 255.456 83.6702C255.52 83.5948 255.623 83.5665 255.715 83.5995C257.675 84.2945 260.097 83.4723 261.225 81.729C261.923 80.65 262.064 79.326 261.581 78.3507C261.051 77.2812 259.68 76.7276 258.705 77.187C258.417 77.3236 258.165 77.5285 257.899 77.7476C257.6 77.9926 257.289 78.2494 256.912 78.4073C256.151 78.7277 255.185 78.5981 254.394 78.0657C253.783 77.6558 253.272 77.048 252.785 76.148C251.644 74.0443 251.244 71.5353 251.656 69.1771C251.428 69.2737 251.117 69.3797 250.7 69.5093C250.636 69.5282 250.587 69.5447 250.558 69.5541C249.995 69.7449 249.406 69.8862 248.81 69.9805C247.639 70.1619 246.45 70.1501 245.274 69.9475C244.678 69.8438 244.092 69.6907 243.533 69.4928C243.366 69.4339 243.189 69.3444 243.006 69.2502C242.699 69.0947 242.381 68.9321 242.132 68.9298H242.124C241.5 68.9298 241.189 70.0394 240.984 70.772C240.935 70.9487 240.89 71.1066 240.848 71.2291C240.27 72.9135 239.891 74.2916 239.656 75.5685L239.66 75.5732Z" fill="#00523F"/>
<path d="M256.332 81.8845C256.299 81.8845 256.264 81.8775 256.233 81.861C256.115 81.8068 256.066 81.6654 256.12 81.5476C256.652 80.4168 257.898 79.6677 259.149 79.7313C259.279 79.7384 259.38 79.8491 259.373 79.9787C259.366 80.1082 259.251 80.2072 259.126 80.2025C258.068 80.1506 257.001 80.7844 256.546 81.7479C256.506 81.8327 256.421 81.8822 256.332 81.8822V81.8845Z" fill="#00523F"/>
<path d="M240.27 142.568H271.216V105.504H240.27V142.568Z" fill="url(#paint24_linear_167_1504)"/>
<path d="M277.274 168.54C281.522 166.33 284.205 162 286.24 157.672C291.02 147.504 293.339 136.234 293.303 125.004C293.284 119.435 293.124 111.065 289.861 106.546C286.33 101.655 268.021 100.468 266.605 101.25C263.839 102.779 245.063 151.476 243.977 150.793C243.251 150.336 251.037 103.639 251.037 101.573C246.323 101.639 237.732 102.32 234.36 104.308C230.74 106.442 223.25 125.126 221.177 137.092C220.621 140.296 220.546 153.764 223.253 156.261C224.129 157.069 224.961 157.792 225.689 158.4C227.069 159.557 228.878 160.04 230.664 159.795C240.495 158.445 264.275 166.137 266.287 167.765C269.316 170.215 273.889 170.302 277.277 168.542L277.274 168.54Z" fill="#02CCA1"/>
<path d="M241.808 136.249C241.7 136.249 241.601 136.174 241.577 136.063L238.468 121.375C238.447 121.278 238.489 121.177 238.574 121.125L245.102 117.104L240.564 113.709C240.47 113.638 240.442 113.509 240.498 113.407L246.555 102.441C246.619 102.328 246.76 102.285 246.876 102.349C246.989 102.413 247.031 102.556 246.968 102.669L241.01 113.457L245.66 116.936C245.724 116.983 245.757 117.059 245.754 117.137C245.752 117.214 245.71 117.285 245.644 117.327L238.962 121.443L242.039 135.969C242.065 136.096 241.985 136.221 241.858 136.249C241.841 136.252 241.825 136.254 241.808 136.254V136.249Z" fill="#00523F"/>
<path d="M257.084 137.674C257.042 137.674 257 137.662 256.962 137.638C256.851 137.57 256.816 137.426 256.884 137.313L264.59 124.752L259.739 119.277C259.685 119.216 259.666 119.131 259.69 119.051C259.714 118.973 259.777 118.912 259.857 118.893L268.456 116.735V103.809C268.456 103.679 268.562 103.573 268.692 103.573C268.821 103.573 268.927 103.679 268.927 103.809V116.919C268.927 117.027 268.854 117.122 268.748 117.148L260.347 119.256L265.057 124.571C265.125 124.648 265.134 124.762 265.08 124.851L257.282 137.563C257.238 137.636 257.16 137.676 257.082 137.676L257.084 137.674Z" fill="#00523F"/>
<path d="M268.241 144.832C268.217 144.832 268.194 144.827 268.17 144.82C268.045 144.78 267.977 144.648 268.017 144.523C269.602 139.557 272.682 127.227 273.711 119.954C273.73 119.825 273.848 119.735 273.977 119.754C274.107 119.773 274.196 119.891 274.177 120.02C273.146 127.314 270.057 139.684 268.465 144.664C268.434 144.763 268.34 144.829 268.241 144.829V144.832Z" fill="#00523F"/>
<path d="M231.707 134.845C231.61 134.845 231.518 134.784 231.485 134.687C229.561 129.189 231.061 125.565 234.107 121.502C234.185 121.398 234.333 121.377 234.437 121.455C234.541 121.532 234.562 121.681 234.484 121.784C231.532 125.723 230.074 129.231 231.931 134.532C231.973 134.654 231.909 134.789 231.787 134.831C231.761 134.84 231.735 134.845 231.709 134.845H231.707Z" fill="#00523F"/>
<path d="M265.972 164.28C265.807 164.818 265.571 165.425 265.037 165.602C264.615 165.741 264.101 165.644 263.757 165.364C256.36 159.343 250.459 155.463 241.697 151.7C240.583 151.222 242.343 156.075 236.006 151.743C235.007 151.06 235.841 149.019 237.038 148.819C236.048 148.68 235.205 147.827 235.08 146.84C234.953 145.851 235.556 144.814 236.479 144.435C235.523 144.614 234.63 143.662 234.585 142.689C234.54 141.716 235.115 140.819 235.808 140.138C233.158 141.422 229.442 145.163 227.341 142.64C226.778 140.084 228.571 138.724 230.557 137.019C232.543 135.313 235.134 134.465 237.711 133.982C243.441 132.906 249.408 133.443 255.008 135.061C259.936 136.486 264.627 138.724 268.978 141.422C270.047 142.084 270.406 142.228 270.42 143.46C270.436 144.779 270.05 146.232 269.843 147.535C269.414 150.247 268.893 152.942 268.283 155.618C267.619 158.532 266.848 161.425 265.972 164.283V164.28Z" fill="#7FFFD6"/>
<path d="M241.539 151.837C241.515 151.837 241.492 151.832 241.468 151.825L238.936 151.02C238.811 150.979 238.742 150.848 238.783 150.723C238.823 150.598 238.954 150.53 239.079 150.57L241.612 151.375C241.737 151.415 241.805 151.547 241.765 151.672C241.732 151.773 241.64 151.837 241.541 151.837H241.539Z" fill="#00523F"/>
<path d="M251.7 134.327C251.677 134.327 251.653 134.322 251.63 134.315C250.751 134.034 247.938 133.519 246.24 133.519C246.11 133.519 246.004 133.413 246.004 133.283C246.004 133.153 246.11 133.047 246.24 133.047C247.983 133.047 250.871 133.577 251.773 133.865C251.898 133.905 251.967 134.037 251.927 134.162C251.894 134.263 251.802 134.327 251.703 134.327H251.7Z" fill="#00523F"/>
<path d="M279.487 148.014C279.436 148.014 279.381 147.998 279.339 147.96C276.825 145.901 274.06 144.16 271.117 142.779C270.999 142.725 270.95 142.584 271.004 142.466C271.058 142.348 271.2 142.296 271.317 142.353C274.295 143.748 277.094 145.512 279.638 147.595C279.739 147.677 279.754 147.826 279.671 147.927C279.624 147.983 279.558 148.014 279.49 148.014H279.487Z" fill="#00523F"/>
<path d="M233.691 154.092C233.651 155.759 233.172 157.545 231.853 158.57C230.157 159.889 227.723 159.515 225.657 158.921C215.848 156.106 206.999 150.678 201.913 141.848C201.703 141.483 199.837 137.019 200.601 136.013C201.319 135.066 203.105 136.866 204.271 137.111C209.322 138.169 214.307 139.544 219.188 141.222C221.697 142.084 224.178 143.029 226.623 144.051C228.494 144.833 230.086 145.043 231.337 146.737C232.892 148.843 233.754 151.472 233.691 154.092Z" fill="#7FFFD6"/>
<path d="M225.66 159.157C225.639 159.157 225.618 159.154 225.594 159.147C214.632 156.002 206.373 150.061 201.711 141.966C201.685 141.921 199.487 137.092 200.415 135.869C200.493 135.766 200.641 135.745 200.745 135.825C200.848 135.902 200.87 136.051 200.79 136.154C200.154 136.993 201.819 141.212 202.118 141.731C206.719 149.717 214.882 155.583 225.724 158.695C225.849 158.73 225.922 158.862 225.886 158.987C225.856 159.091 225.761 159.157 225.66 159.157Z" fill="#00523F"/>
<path d="M195.373 127.476H213.409C213.793 127.476 214.156 127.652 214.394 127.954L228.934 146.409C229.58 147.229 228.995 148.433 227.949 148.433H210.537C210.163 148.433 209.807 148.266 209.569 147.976L194.407 129.52C193.736 128.705 194.318 127.478 195.375 127.478L195.373 127.476Z" fill="#00523F"/>
<path d="M203.041 129.851C203.258 129.653 203.567 129.458 203.826 129.597C204.052 129.717 204.092 130.018 204.109 130.273C204.252 132.772 204.396 135.27 204.54 137.769C204.509 135.533 205.091 133.222 206.542 131.519C206.9 131.1 207.529 130.704 207.953 131.06C208.208 131.272 208.226 131.651 208.212 131.981C208.087 134.787 206.964 137.684 207.951 140.313C208.128 138.643 208.526 136.994 209.131 135.427C209.381 134.784 209.687 134.125 210.25 133.726C210.813 133.326 211.697 133.302 212.118 133.849C212.566 134.428 212.288 135.255 212.043 135.943C211.331 137.939 211.03 140.08 211.162 142.196C211.435 140.544 211.774 138.761 213.011 137.628C213.374 137.296 213.819 137.027 214.309 136.987C214.799 136.947 215.332 137.178 215.544 137.621C215.777 138.108 215.584 138.678 215.428 139.197C214.825 141.19 214.839 143.355 215.424 145.35C215.862 146.846 217.742 148.86 215.753 150.029C215.07 150.429 214.229 150.46 213.447 150.349C211.233 150.033 209.308 148.7 207.579 147.287C205.812 145.842 204.134 144.259 202.846 142.377C201.557 140.497 200.669 138.294 200.603 136.016C200.537 133.738 201.359 131.392 203.041 129.851Z" fill="#7FFFD6"/>
<path d="M250.811 99.3099L255.621 103.341L266.02 97.854L270.204 103.341L258.795 113.148L255.621 108.003L250.811 111.841L248.976 104.702L250.811 99.3099Z" fill="url(#paint25_linear_167_1504)"/>
<path d="M258.795 113.383C258.783 113.383 258.771 113.383 258.759 113.381C258.691 113.372 258.632 113.332 258.594 113.273L255.563 108.351L250.959 112.024C250.898 112.074 250.813 112.088 250.738 112.064C250.662 112.038 250.604 111.977 250.585 111.899L249.866 109.103C249.833 108.978 249.909 108.848 250.036 108.815C250.161 108.782 250.29 108.858 250.323 108.985L250.952 111.43L255.48 107.819C255.532 107.776 255.6 107.76 255.669 107.772C255.735 107.784 255.793 107.824 255.829 107.88L258.856 112.792L261.457 110.556C261.556 110.472 261.704 110.483 261.789 110.582C261.874 110.681 261.862 110.83 261.763 110.914L258.953 113.329C258.91 113.367 258.854 113.386 258.799 113.386L258.795 113.383Z" fill="#00523F"/>
<path d="M255.621 103.577C255.567 103.577 255.513 103.558 255.47 103.522L250.923 99.7131L250.257 101.673C250.214 101.796 250.082 101.862 249.958 101.819C249.835 101.777 249.769 101.643 249.811 101.52L250.589 99.2349C250.615 99.1618 250.674 99.1053 250.749 99.0841C250.824 99.0629 250.905 99.0794 250.963 99.1312L255.654 103.061L265.911 97.647C266.012 97.5929 266.14 97.6211 266.208 97.713L268.632 100.891C268.71 100.995 268.691 101.143 268.587 101.221C268.484 101.301 268.335 101.28 268.258 101.176L265.954 98.1583L255.734 103.551C255.699 103.57 255.661 103.579 255.623 103.579L255.621 103.577Z" fill="#00523F"/>
<defs>
<linearGradient id="paint0_linear_167_1504" x1="38.493" y1="54.0947" x2="38.493" y2="82.544" gradientUnits="userSpaceOnUse">
<stop stop-color="#01785E"/>
<stop offset="1" stop-color="#02CCA1"/>
</linearGradient>
<linearGradient id="paint1_linear_167_1504" x1="12.9452" y1="31.5597" x2="12.9452" y2="49.5208" gradientUnits="userSpaceOnUse">
<stop stop-color="#01785E"/>
<stop offset="1" stop-color="#02CCA1"/>
</linearGradient>
<linearGradient id="paint2_linear_167_1504" x1="147.123" y1="32.4239" x2="147.123" y2="109.826" gradientUnits="userSpaceOnUse">
<stop stop-color="#01785E"/>
<stop offset="1" stop-color="#02CCA1"/>
</linearGradient>
<linearGradient id="paint3_linear_167_1504" x1="169.123" y1="117.602" x2="169.13" y2="120.979" gradientUnits="userSpaceOnUse">
<stop stop-color="#01785E"/>
<stop offset="1" stop-color="#02CCA1"/>
</linearGradient>
<linearGradient id="paint4_linear_167_1504" x1="132.139" y1="103.76" x2="132.139" y2="107.138" gradientUnits="userSpaceOnUse">
<stop stop-color="#01785E"/>
<stop offset="1" stop-color="#02CCA1"/>
</linearGradient>
<linearGradient id="paint5_linear_167_1504" x1="158.082" y1="4.27184" x2="158.082" y2="7.64951" gradientUnits="userSpaceOnUse">
<stop stop-color="#01785E"/>
<stop offset="1" stop-color="#02CCA1"/>
</linearGradient>
<linearGradient id="paint6_linear_167_1504" x1="130.699" y1="6.31419" x2="130.706" y2="9.69186" gradientUnits="userSpaceOnUse">
<stop stop-color="#01785E"/>
<stop offset="1" stop-color="#02CCA1"/>
</linearGradient>
<linearGradient id="paint7_linear_167_1504" x1="204.767" y1="23.4432" x2="204.767" y2="26.8209" gradientUnits="userSpaceOnUse">
<stop stop-color="#01785E"/>
<stop offset="1" stop-color="#02CCA1"/>
</linearGradient>
<linearGradient id="paint8_linear_167_1504" x1="247.982" y1="23.9852" x2="247.982" y2="27.3629" gradientUnits="userSpaceOnUse">
<stop stop-color="#01785E"/>
<stop offset="1" stop-color="#02CCA1"/>
</linearGradient>
<linearGradient id="paint9_linear_167_1504" x1="242.532" y1="40.4529" x2="242.539" y2="43.8305" gradientUnits="userSpaceOnUse">
<stop stop-color="#01785E"/>
<stop offset="1" stop-color="#02CCA1"/>
</linearGradient>
<linearGradient id="paint10_linear_167_1504" x1="228.23" y1="86.0034" x2="231.608" y2="86.0105" gradientUnits="userSpaceOnUse">
<stop stop-color="#01785E"/>
<stop offset="1" stop-color="#02CCA1"/>
</linearGradient>
<linearGradient id="paint11_linear_167_1504" x1="93.1413" y1="97.1194" x2="93.1484" y2="100.497" gradientUnits="userSpaceOnUse">
<stop stop-color="#01785E"/>
<stop offset="1" stop-color="#02CCA1"/>
</linearGradient>
<linearGradient id="paint12_linear_167_1504" x1="91.0085" y1="81.3623" x2="94.3862" y2="81.3693" gradientUnits="userSpaceOnUse">
<stop stop-color="#01785E"/>
<stop offset="1" stop-color="#02CCA1"/>
</linearGradient>
<linearGradient id="paint13_linear_167_1504" x1="153.832" y1="39.0491" x2="153.832" y2="77.921" gradientUnits="userSpaceOnUse">
<stop stop-color="#01785E"/>
<stop offset="1" stop-color="#02CCA1"/>
</linearGradient>
<linearGradient id="paint14_linear_167_1504" x1="166.296" y1="56.236" x2="166.296" y2="83.2851" gradientUnits="userSpaceOnUse">
<stop stop-color="#01785E"/>
<stop offset="1" stop-color="#02CCA1"/>
</linearGradient>
<linearGradient id="paint15_linear_167_1504" x1="153.816" y1="54.6377" x2="153.816" y2="66.5411" gradientUnits="userSpaceOnUse">
<stop stop-color="#01785E"/>
<stop offset="1" stop-color="#02CCA1"/>
</linearGradient>
<linearGradient id="paint16_linear_167_1504" x1="153.817" y1="39.986" x2="153.817" y2="48.0775" gradientUnits="userSpaceOnUse">
<stop stop-color="#01785E"/>
<stop offset="1" stop-color="#02CCA1"/>
</linearGradient>
<linearGradient id="paint17_linear_167_1504" x1="66.1428" y1="142.917" x2="66.1428" y2="172.329" gradientUnits="userSpaceOnUse">
<stop stop-color="#01785E"/>
<stop offset="1" stop-color="#02CCA1"/>
</linearGradient>
<linearGradient id="paint18_linear_167_1504" x1="135.776" y1="174.331" x2="135.776" y2="195.703" gradientUnits="userSpaceOnUse">
<stop stop-color="#01785E"/>
<stop offset="1" stop-color="#02CCA1"/>
</linearGradient>
<linearGradient id="paint19_linear_167_1504" x1="99.5106" y1="186.805" x2="99.5106" y2="187.138" gradientUnits="userSpaceOnUse">
<stop stop-color="#01785E"/>
<stop offset="1" stop-color="#02CCA1"/>
</linearGradient>
<linearGradient id="paint20_linear_167_1504" x1="61.8451" y1="127.571" x2="61.8451" y2="141.637" gradientUnits="userSpaceOnUse">
<stop stop-color="#01785E"/>
<stop offset="1" stop-color="#02CCA1"/>
</linearGradient>
<linearGradient id="paint21_linear_167_1504" x1="68.3049" y1="94.6778" x2="68.3049" y2="112.042" gradientUnits="userSpaceOnUse">
<stop stop-color="#01785E"/>
<stop offset="1" stop-color="#02CCA1"/>
</linearGradient>
<linearGradient id="paint22_linear_167_1504" x1="260.374" y1="71.0868" x2="260.374" y2="104.359" gradientUnits="userSpaceOnUse">
<stop stop-color="#01785E"/>
<stop offset="1" stop-color="#02CCA1"/>
</linearGradient>
<linearGradient id="paint23_linear_167_1504" x1="252.523" y1="167.452" x2="252.523" y2="195.769" gradientUnits="userSpaceOnUse">
<stop stop-color="#01785E"/>
<stop offset="1" stop-color="#02CCA1"/>
</linearGradient>
<linearGradient id="paint24_linear_167_1504" x1="255.743" y1="131.682" x2="255.743" y2="105.504" gradientUnits="userSpaceOnUse">
<stop stop-color="#01785E"/>
<stop offset="1" stop-color="#02CCA1"/>
</linearGradient>
<linearGradient id="paint25_linear_167_1504" x1="259.59" y1="102.346" x2="259.59" y2="113.148" gradientUnits="userSpaceOnUse">
<stop stop-color="#01785E"/>
<stop offset="1" stop-color="#02CCA1"/>
</linearGradient>
</defs>
</svg>
