<svg width="335" height="197" viewBox="0 0 335 197" fill="none" xmlns="http://www.w3.org/2000/svg">
<path d="M246.565 42.2949H42.0032C36.8561 42.2949 32.6836 46.46 32.6836 51.598V162.075C32.6836 167.213 36.8561 171.378 42.0032 171.378H246.565C251.712 171.378 255.885 167.213 255.885 162.075V51.598C255.885 46.46 251.712 42.2949 246.565 42.2949Z" fill="#00CC9C"/>
<path d="M246.565 171.646H42.0036C36.7166 171.646 32.4155 167.353 32.4155 162.075V51.5979C32.4155 46.3203 36.7166 42.0269 42.0036 42.0269H246.565C251.852 42.0269 256.153 46.3203 256.153 51.5979V162.075C256.153 167.353 251.852 171.646 246.565 171.646ZM42.0036 42.5628C37.0131 42.5628 32.9524 46.6163 32.9524 51.5979V162.075C32.9524 167.057 37.0131 171.11 42.0036 171.11H246.565C251.556 171.11 255.617 167.057 255.617 162.075V51.5979C255.617 46.6163 251.556 42.5628 246.565 42.5628H42.0036Z" fill="#002F23"/>
<path d="M244.352 164.188H44.2167C41.7008 164.188 39.6533 162.144 39.6533 159.632V54.0416C39.6533 51.5301 41.7008 49.4863 44.2167 49.4863H244.352C246.868 49.4863 248.915 51.5301 248.915 54.0416V159.631C248.915 162.142 246.868 164.186 244.352 164.186V164.188ZM44.2167 50.0222C41.996 50.0222 40.1902 51.8261 40.1902 54.0416V159.631C40.1902 161.848 41.996 163.65 44.2167 163.65H244.352C246.572 163.65 248.378 161.847 248.378 159.631V54.0416C248.378 51.8249 246.572 50.0222 244.352 50.0222H44.2167Z" fill="#002F23"/>
<path d="M269.964 196.152H18.6036C12.4211 196.152 6.80219 194.387 4.21667 191.633L0.602539 187.783H287.965L284.351 191.633C281.765 194.387 276.146 196.152 269.964 196.152Z" fill="#01A17F"/>
<path d="M269.964 196.42H18.6039C12.3713 196.42 6.64627 194.613 4.02048 191.816L0.40635 187.966C0.33314 187.888 0.313617 187.775 0.356323 187.676C0.399029 187.579 0.495422 187.516 0.602796 187.516H287.965C288.072 187.516 288.169 187.579 288.211 187.676C288.254 187.774 288.235 187.888 288.161 187.966L284.547 191.816C281.921 194.613 276.198 196.42 269.965 196.42H269.964ZM1.22264 188.052L4.41337 191.45C6.94277 194.144 12.5128 195.884 18.6051 195.884H269.964C276.056 195.884 281.626 194.144 284.156 191.45L287.346 188.052H1.22264Z" fill="#002F23"/>
<path d="M287.955 187.826H0.612793L42.5157 171.159H246.052L287.955 187.826Z" fill="#00523F"/>
<path d="M287.956 188.094H0.613137C0.48502 188.094 0.373985 188.003 0.349581 187.877C0.325178 187.751 0.394727 187.625 0.514304 187.578L42.416 170.911C42.4477 170.898 42.4806 170.891 42.5148 170.891H246.053C246.087 170.891 246.121 170.897 246.152 170.911L288.055 187.578C288.174 187.625 288.242 187.751 288.219 187.877C288.195 188.004 288.084 188.094 287.956 188.094ZM2.01267 187.558H286.556L246.002 171.427H42.5673L2.01267 187.558Z" fill="#002F23"/>
<path d="M203.997 185.457H84.5708L101.986 178.53H186.581L203.997 185.457Z" fill="#7FFFD6"/>
<path d="M205.893 119.352C218.934 111.406 223.06 94.4248 215.11 81.4228C207.159 68.4207 190.142 64.322 177.102 72.2679C164.061 80.2138 159.934 97.1955 167.885 110.198C175.836 123.2 192.852 127.298 205.893 119.352Z" fill="#7FFFD6"/>
<path d="M191.518 123.675C189.32 123.675 187.106 123.415 184.916 122.887C177.667 121.141 171.538 116.683 167.656 110.333C159.642 97.2264 163.816 80.0454 176.962 72.0358C190.108 64.0263 207.323 68.1736 215.338 81.2804C219.221 87.6299 220.391 95.1108 218.633 102.344C216.875 109.578 212.4 115.699 206.032 119.578C201.588 122.286 196.594 123.675 191.52 123.675H191.518ZM191.48 68.4903C186.616 68.4903 181.691 69.7813 177.241 72.4926C164.348 80.3487 160.253 97.1984 168.113 110.053C171.921 116.281 177.933 120.653 185.042 122.366C192.15 124.078 199.506 122.926 205.752 119.12C211.998 115.315 216.386 109.311 218.111 102.218C219.835 95.123 218.686 87.787 214.88 81.5594C209.732 73.1406 200.713 68.4903 191.48 68.4903Z" fill="#002F23"/>
<path d="M191.578 127.655C205.969 127.731 219.066 117.976 222.639 103.409L191.584 95.9087C191.584 95.9087 191.635 122.376 191.578 127.655Z" fill="#01A17F"/>
<path d="M161.589 101.498C160.039 93.6314 161.793 85.5792 166.176 79.1348C172.198 83.2577 190.726 95.9833 190.726 95.9833C190.726 95.9833 166.424 100.53 161.589 101.498Z" fill="#7FFFD6"/>
<path d="M161.588 101.767C161.535 101.767 161.483 101.751 161.439 101.721C161.379 101.682 161.339 101.62 161.324 101.551C159.794 93.785 161.48 85.5599 165.952 78.9851C165.993 78.9267 166.055 78.8853 166.124 78.8719C166.194 78.8585 166.267 78.8743 166.326 78.9145C172.28 82.9911 190.691 95.6364 190.877 95.763C190.966 95.8239 191.01 95.9335 190.988 96.0395C190.966 96.1455 190.882 96.2271 190.774 96.2478C190.531 96.2929 166.419 100.806 161.64 101.762C161.623 101.765 161.605 101.767 161.588 101.767ZM166.246 79.5089C162.017 85.8534 160.404 93.7217 161.8 101.183C166.647 100.222 186.25 96.5486 190.041 95.8385C187.003 93.7521 171.821 83.3261 166.246 79.5089Z" fill="#002F23"/>
<path d="M214.917 149.414C216.67 149.414 218.092 147.996 218.092 146.246C218.092 144.496 216.67 143.078 214.917 143.078C213.164 143.078 211.742 144.496 211.742 146.246C211.742 147.996 213.164 149.414 214.917 149.414Z" fill="#7FFFD6"/>
<path d="M205.651 149.414C207.404 149.414 208.826 147.996 208.826 146.246C208.826 144.496 207.404 143.078 205.651 143.078C203.897 143.078 202.476 144.496 202.476 146.246C202.476 147.996 203.897 149.414 205.651 149.414Z" fill="#7FFFD6"/>
<path d="M196.387 149.414C198.14 149.414 199.562 147.996 199.562 146.246C199.562 144.496 198.14 143.078 196.387 143.078C194.633 143.078 193.212 144.496 193.212 146.246C193.212 147.996 194.633 149.414 196.387 149.414Z" fill="#7FFFD6"/>
<path d="M188.506 146.505H161.033C160.936 146.505 160.847 146.454 160.8 146.369C160.752 146.285 160.753 146.183 160.802 146.1L178.483 116.265C178.559 116.139 178.724 116.096 178.851 116.172C178.979 116.247 179.02 116.412 178.945 116.538L161.502 145.969H188.505C188.652 145.969 188.773 146.088 188.773 146.237C188.773 146.385 188.654 146.505 188.505 146.505H188.506Z" fill="#002F23"/>
<path d="M70.6485 69.7163H61.9097V112.011H70.6485V69.7163Z" fill="#7FFFD6"/>
<path d="M85.2994 69.7163H76.5605V112.011H85.2994V69.7163Z" fill="#7FFFD6"/>
<path d="M99.9483 69.7163H91.2095V112.011H99.9483V69.7163Z" fill="#7FFFD6"/>
<path d="M114.6 69.7163H105.861V112.011H114.6V69.7163Z" fill="#7FFFD6"/>
<path d="M129.25 69.7163H120.511V112.011H129.25V69.7163Z" fill="#7FFFD6"/>
<path d="M143.901 69.7163H135.162V112.011H143.901V69.7163Z" fill="#7FFFD6"/>
<path d="M70.6485 88.6855H61.9097V106.401H70.6485V88.6855Z" fill="#03F8C5"/>
<path d="M85.2994 83.3062H76.5605V106.402H85.2994V83.3062Z" fill="#03F8C5"/>
<path d="M99.9483 75.3257H91.2095V106.402H99.9483V75.3257Z" fill="#03F8C5"/>
<path d="M114.6 88.6855H105.861V106.401H114.6V88.6855Z" fill="#03F8C5"/>
<path d="M129.25 82.127H120.511V106.403H129.25V82.127Z" fill="#03F8C5"/>
<path d="M143.901 87.3823H135.162V106.403H143.901V87.3823Z" fill="#03F8C5"/>
<path d="M334.734 62.1145V0.688477L226.451 0.688477V62.1145L334.734 62.1145Z" fill="#7FFFD6"/>
<path d="M334.733 62.3823H226.449C226.301 62.3823 226.181 62.263 226.181 62.1144V0.688369C226.181 0.540992 226.3 0.42041 226.449 0.42041H334.733C334.88 0.42041 335.001 0.539774 335.001 0.688369V62.1144C335.001 62.2617 334.881 62.3823 334.733 62.3823ZM226.718 61.8464H334.464V0.956329H226.718V61.8464Z" fill="#002F23"/>
<path d="M274.879 48.8231C284.373 39.3456 284.373 23.9796 274.879 14.5021C265.384 5.02466 249.991 5.02466 240.497 14.5021C231.002 23.9796 231.002 39.3456 240.497 48.8231C249.991 58.3005 265.384 58.3006 274.879 48.8231Z" fill="#7FFFD6"/>
<path d="M261.904 6.62744C270.584 8.09026 278.154 14.179 281.029 23.0777L257.75 30.572L261.904 6.62744Z" fill="#00CC9C"/>
<path d="M265.944 39.7555C270.504 35.2039 270.504 27.8244 265.944 23.2728C261.385 18.7212 253.992 18.7213 249.432 23.2728C244.873 27.8244 244.873 35.2039 249.432 39.7555C253.992 44.3071 261.385 44.3071 265.944 39.7555Z" fill="#7FFFD6"/>
<path d="M294.149 26.373H288.571V55.6281H294.149V26.373Z" fill="#7FFFD6"/>
<path d="M302.626 39.062H297.049V55.628H302.626V39.062Z" fill="#7FFFD6"/>
<path d="M311.105 18.5996H305.527V55.6279H311.105V18.5996Z" fill="#7FFFD6"/>
<path d="M319.583 26.373H314.006V55.6281H319.583V26.373Z" fill="#7FFFD6"/>
<path d="M328.06 12.9785H322.483V55.6267H328.06V12.9785Z" fill="#7FFFD6"/>
<path d="M294.922 29.9639H203.62C201.712 29.9639 200.166 31.5083 200.166 33.412V88.0197C200.166 89.9246 201.713 91.4678 203.62 91.4678H294.922C296.83 91.4678 298.376 89.9234 298.376 88.0197V33.4132C298.376 31.5083 296.829 29.9651 294.922 29.9651V29.9639Z" fill="#7FFFD6"/>
<path d="M294.922 91.7379H203.621C201.567 91.7379 199.897 90.0704 199.897 88.0218V33.4129C199.897 31.363 201.567 29.6968 203.621 29.6968H294.922C296.976 29.6968 298.646 31.3642 298.646 33.4129V88.0205C298.646 90.0704 296.976 91.7367 294.922 91.7367V91.7379ZM203.621 30.2315C201.864 30.2315 200.434 31.659 200.434 33.4129V88.0205C200.434 89.7745 201.864 91.202 203.621 91.202H294.922C296.679 91.202 298.109 89.7745 298.109 88.0205V33.4129C298.109 31.659 296.679 30.2315 294.922 30.2315H203.621Z" fill="#002F23"/>
<path d="M298.377 40.4392H200.166C200.018 40.4392 199.897 40.3196 199.897 40.1708C199.897 40.0219 200.017 39.9023 200.166 39.9023H298.377C298.525 39.9023 298.645 40.0219 298.645 40.1708C298.645 40.3196 298.526 40.4392 298.377 40.4392Z" fill="#002F23"/>
<path d="M209.289 37.6635C208.067 37.6635 207.073 36.6708 207.073 35.4516C207.073 34.2324 208.067 33.2397 209.289 33.2397C210.51 33.2397 211.504 34.2324 211.504 35.4516C211.504 36.6708 210.51 37.6635 209.289 37.6635ZM209.289 33.7757C208.362 33.7757 207.61 34.5272 207.61 35.4516C207.61 36.3761 208.362 37.1276 209.289 37.1276C210.215 37.1276 210.968 36.3761 210.968 35.4516C210.968 34.5272 210.215 33.7757 209.289 33.7757Z" fill="#002F23"/>
<path d="M214.971 37.664C213.749 37.664 212.755 36.6713 212.755 35.4521C212.755 34.2329 213.749 33.2402 214.971 33.2402C216.192 33.2402 217.187 34.2329 217.187 35.4521C217.187 36.6713 216.192 37.664 214.971 37.664ZM214.971 33.7762C214.045 33.7762 213.292 34.5277 213.292 35.4521C213.292 36.3766 214.045 37.1281 214.971 37.1281C215.897 37.1281 216.65 36.3766 216.65 35.4521C216.65 34.5277 215.897 33.7762 214.971 33.7762Z" fill="#002F23"/>
<path d="M222.031 36.8267C222.792 36.0676 222.792 34.8367 222.031 34.0776C221.271 33.3184 220.038 33.3184 219.277 34.0776C218.517 34.8367 218.517 36.0676 219.277 36.8267C220.038 37.5859 221.271 37.5858 222.031 36.8267Z" fill="#00CC9C"/>
<path d="M288.806 44.4189H216.209V83.066H288.806V44.4189Z" fill="#7FFFD6"/>
<path d="M287.599 88.2568H209.736C209.588 88.2568 209.467 88.1375 209.467 87.9889V50.8363C209.467 50.6889 209.587 50.5684 209.736 50.5684C209.885 50.5684 210.004 50.6877 210.004 50.8363V87.7209H287.599C287.747 87.7209 287.868 87.8403 287.868 87.9889C287.868 88.1375 287.748 88.2568 287.599 88.2568Z" fill="#002F23"/>
<path d="M219.861 86.1106H212.972C212.824 86.1106 212.703 85.9912 212.703 85.8426V60.8773C212.703 60.73 212.823 60.6094 212.972 60.6094H219.861C220.008 60.6094 220.129 60.7287 220.129 60.8773V85.8426C220.129 85.99 220.009 86.1106 219.861 86.1106ZM213.24 85.5746H219.592V61.1453H213.24V85.5746Z" fill="#002F23"/>
<path d="M230.703 86.1104H223.815C223.667 86.1104 223.546 85.991 223.546 85.8424V72.4286C223.546 72.2812 223.666 72.1606 223.815 72.1606H230.703C230.85 72.1606 230.971 72.28 230.971 72.4286V85.8424C230.971 85.9898 230.852 86.1104 230.703 86.1104ZM224.082 85.5744H230.434V72.6966H224.082V85.5744Z" fill="#002F23"/>
<path d="M241.547 86.11H234.659C234.511 86.11 234.391 85.9906 234.391 85.842V67.2079C234.391 67.0605 234.51 66.9399 234.659 66.9399H241.547C241.695 66.9399 241.815 67.0593 241.815 67.2079V85.842C241.815 85.9894 241.696 86.11 241.547 86.11ZM234.926 85.5741H241.278V67.4759H234.926V85.5741Z" fill="#002F23"/>
<path d="M252.389 86.1111H245.501C245.354 86.1111 245.233 85.9918 245.233 85.8432V59.0448C245.233 58.8974 245.352 58.7769 245.501 58.7769H252.389C252.537 58.7769 252.658 58.8962 252.658 59.0448V85.8432C252.658 85.9906 252.538 86.1111 252.389 86.1111ZM245.769 85.5752H252.121V59.3128H245.769V85.5752Z" fill="#002F23"/>
<path d="M263.057 86.1109H256.516C256.368 86.1109 256.248 85.9915 256.248 85.8429V53.4369C256.248 53.2895 256.367 53.1689 256.516 53.1689H263.057C263.205 53.1689 263.326 53.2883 263.326 53.4369V85.8417C263.326 85.9891 263.206 86.1097 263.057 86.1097V86.1109ZM256.784 85.575H262.789V53.7049H256.784V85.5737V85.575Z" fill="#002F23"/>
<path d="M274.075 86.1114H267.186C267.039 86.1114 266.918 85.9921 266.918 85.8435V51.7177C266.918 51.5703 267.038 51.4497 267.186 51.4497H274.075C274.223 51.4497 274.344 51.5691 274.344 51.7177V85.8435C274.344 85.9909 274.224 86.1114 274.075 86.1114ZM267.455 85.5755H273.807V51.9856H267.455V85.5755Z" fill="#002F23"/>
<path d="M284.919 86.1106H278.03C277.882 86.1106 277.761 85.9913 277.761 85.8427V55.9677C277.761 55.8203 277.881 55.6997 278.03 55.6997H284.919C285.066 55.6997 285.187 55.8191 285.187 55.9677V85.8427C285.187 85.9901 285.068 86.1106 284.919 86.1106ZM278.298 85.5747H284.65V56.2356H278.298V85.5747Z" fill="#002F23"/>
</svg>
