<svg width="180" height="80" viewBox="0 0 180 80" fill="none" xmlns="http://www.w3.org/2000/svg">
<g clip-path="url(#clip0_62_11520)">
<path d="M6.53511 92.9927L11.4665 99.3448L16.4173 92.9927H17.6361V106.558H16.2421V95.3623L11.4859 101.401L11.43 101.384L6.66892 95.316V106.558H5.2749V92.9927H6.53511Z" fill="#00D3A4"/>
<path d="M24.9518 106.558H23.4604L29.0389 92.9927H30.5473L36.1453 106.558H34.598L33.3159 103.386H26.2363L24.9493 106.558H24.9518ZM29.8077 94.6932H29.7688L26.7667 102.089H32.7928L29.8053 94.6932H29.8077Z" fill="#00D3A4"/>
<path d="M48.2438 102.337V92.9951H49.6378V102.301C49.6378 103.675 49.2486 104.772 48.4725 105.587C47.6964 106.402 46.6308 106.811 45.2806 106.811C43.9304 106.811 42.8867 106.422 42.1082 105.646C41.3321 104.87 40.9429 103.819 40.9429 102.493L40.9818 101.651H42.3953C42.3685 101.868 42.3564 102.147 42.3564 102.493C42.3564 103.398 42.6118 104.133 43.1203 104.699C43.6287 105.266 44.3488 105.549 45.2782 105.549C46.2075 105.549 46.9496 105.269 47.4653 104.707C47.9811 104.147 48.239 103.357 48.239 102.337H48.2438Z" fill="#00D3A4"/>
<path d="M56.3448 106.558H54.8535L60.432 92.9927H61.9404L67.5383 106.558H65.991L64.7089 103.386H57.6294L56.3424 106.558H56.3448ZM61.2008 94.6932H61.1619L58.1597 102.089H64.1883L61.2008 94.6932Z" fill="#00D3A4"/>
<path d="M74.7612 95.2431V106.558H73.3672V92.9927H74.8245L82.7482 104.361V92.9927H84.1422V106.558H82.6704L74.7612 95.2431Z" fill="#00D3A4"/>
<path d="M100.058 92.9927H103.116L97.9752 106.558H95.1093L89.9688 92.9927H93.1022L96.5593 102.851H96.5982L100.055 92.9927H100.058Z" fill="#00F9CA"/>
<path d="M111.234 92.9927V106.558H108.444V92.9927H111.234Z" fill="#00F9CA"/>
<path d="M122.547 104.342C123.299 104.342 123.885 104.206 124.306 103.931C124.727 103.656 124.936 103.271 124.936 102.775C124.936 102.417 124.803 102.126 124.535 101.897C124.267 101.668 123.92 101.493 123.491 101.374C123.063 101.255 122.594 101.123 122.085 100.982C121.577 100.841 121.061 100.697 120.54 100.551C120.02 100.406 119.545 100.196 119.12 99.9214C118.694 99.6465 118.346 99.2523 118.078 98.7366C117.811 98.2208 117.677 97.6053 117.677 96.8925C117.677 95.7077 118.122 94.7151 119.015 93.9123C119.905 93.1094 121.11 92.708 122.625 92.708C124.141 92.708 125.367 93.1411 126.265 94.0071C127.163 94.8732 127.632 95.9485 127.669 97.2355H124.936C124.91 96.6249 124.691 96.131 124.277 95.7539C123.864 95.3793 123.299 95.1895 122.586 95.1895C121.937 95.1895 121.414 95.3306 121.02 95.6104C120.625 95.8902 120.428 96.2478 120.428 96.6833C120.428 97.0433 120.565 97.3353 120.837 97.5591C121.11 97.7829 121.462 97.9556 121.893 98.0748C122.324 98.1941 122.798 98.3279 123.316 98.4714C123.834 98.6149 124.357 98.7609 124.885 98.9093C125.416 99.0577 125.895 99.2694 126.323 99.5491C126.751 99.8289 127.099 100.235 127.364 100.768C127.63 101.301 127.761 101.938 127.761 102.678C127.761 103.901 127.267 104.897 126.279 105.668C125.292 106.439 123.997 106.823 122.392 106.823C121.487 106.823 120.691 106.692 120.003 106.432C119.314 106.171 118.774 105.816 118.378 105.371C117.983 104.926 117.687 104.442 117.49 103.919C117.292 103.395 117.181 102.843 117.156 102.257H119.908C119.947 102.855 120.188 103.352 120.633 103.748C121.078 104.142 121.715 104.339 122.543 104.339L122.547 104.342Z" fill="#00F9CA"/>
<path d="M136.666 92.9927V106.558H133.876V92.9927H136.666Z" fill="#00F9CA"/>
<path d="M154.837 94.7127C156.161 96.0507 156.825 97.7391 156.825 99.7754C156.825 101.812 156.163 103.5 154.837 104.838C153.511 106.176 151.825 106.845 149.774 106.845C147.724 106.845 146.035 106.176 144.712 104.838C143.386 103.5 142.724 101.814 142.724 99.7754C142.724 97.7367 143.386 96.0507 144.712 94.7127C146.035 93.3746 147.724 92.7056 149.774 92.7056C151.825 92.7056 153.514 93.3746 154.837 94.7127ZM152.735 102.977C153.499 102.169 153.881 101.101 153.881 99.7778C153.881 98.4544 153.499 97.3863 152.735 96.5786C151.971 95.7709 150.984 95.3647 149.774 95.3647C148.565 95.3647 147.578 95.7685 146.814 96.5786C146.05 97.3888 145.668 98.4544 145.668 99.7778C145.668 101.101 146.05 102.169 146.814 102.977C147.578 103.787 148.565 104.191 149.774 104.191C150.984 104.191 151.971 103.787 152.735 102.977Z" fill="#00F9CA"/>
<path d="M165.593 97.598V106.558H162.88V92.9927H165.665L171.611 101.989V92.9927H174.324V106.558H171.516L165.593 97.598Z" fill="#00F9CA"/>
<path d="M85.3393 10.1499H81.2716L77.7002 16.3196L81.7728 16.322L85.3393 10.1499Z" fill="#03F8C5"/>
<path d="M63.0618 49.8781L66.8886 56.4517L93.4041 10.1499H89.3316L66.8059 49.2967L60.7068 38.7357L77.2988 10.1499H73.1143L56.6196 38.7187L59.8212 44.2656" fill="#03F8C5"/>
<path d="M116.606 28.3427L96.0218 63.6626H91.9371L99.9898 49.8879L94.421 40.2441L92.5526 43.6087L96.017 49.6105L87.957 63.7113L75.1505 63.6821L106.14 10.1499H102.145L71.168 63.918L73.1142 67.2875H106.104L113.181 55.1136L115.448 51.1602L122.596 38.7187L116.604 28.3427H116.606ZM87.8451 66.5698L88.9447 64.21H90.9688L91.8665 66.5698H87.8475H87.8451ZM103.994 63.665H99.8073L116.331 35.1497L118.375 38.7211L103.994 63.665Z" fill="#03F8C5"/>
<path d="M178.011 37.5971C172.062 32.4686 165.983 27.7976 159.942 23.7153C154.157 19.8033 148.252 16.3268 142.392 13.383C131.468 7.89212 120.301 4.04338 109.203 1.94384C102.349 0.647135 95.4816 0 88.6185 0C76.7317 0 64.8619 1.94384 53.1502 5.81935C45.9052 8.21813 38.704 11.3686 31.7485 15.1906C26.1871 18.2438 20.7691 21.7301 15.6431 25.5472C6.89465 32.0648 2.07763 37.2443 1.87814 37.4633L-0.00244141 39.3682L1.87814 41.2755C2.07763 41.492 6.89465 46.6716 15.6431 53.1916C20.7691 57.0111 26.1871 60.4949 31.7485 63.5481C38.704 67.3677 45.9052 70.5207 53.1502 72.9194C64.8619 76.795 76.7293 78.7388 88.6185 78.7388C95.4816 78.7388 102.352 78.0917 109.203 76.795C120.301 74.6954 131.468 70.8467 142.392 65.3558C148.25 62.412 154.154 58.9355 159.942 55.0235C165.983 50.9412 172.06 46.2701 178.011 41.1417L179.736 39.3706L178.011 37.5995V37.5971ZM54.4591 69.4454C38.524 64.1953 25.827 56.1402 17.9787 50.3062C11.1521 45.2313 6.71219 40.913 5.18923 39.3682C6.70003 37.8331 11.084 33.5659 17.8595 28.5202C25.6981 22.6789 38.3853 14.6116 54.3155 9.33966C58.6435 7.90672 62.9716 6.74383 67.2971 5.84854L48.1556 39.0033L67.7764 72.9876C63.3389 72.0898 58.8965 70.9099 54.4566 69.4478L54.4591 69.4454ZM108.025 72.3307L107.329 73.496C101.204 74.5835 95.0631 75.1285 88.9153 75.1285C83.5217 75.1285 78.1208 74.71 72.7151 73.8707L71.6811 72.3331L52.4374 39.0033L71.6811 5.67094L72.0679 4.96785C84.0083 3.04105 95.9268 3.16269 107.799 5.32305L108.028 5.67094L127.271 39.0008L108.028 72.3307H108.025ZM112.198 72.5156L131.548 39.0008L112.684 6.33024C133.458 11.0986 154.074 22.1242 174.378 39.3682C153.916 56.7484 133.137 67.8105 112.198 72.5156Z" fill="#00F9CA"/>
<path d="M139.74 61.4167C139.74 61.4167 139.755 61.4216 139.755 61.4289V61.5579C139.755 61.6187 139.718 61.6698 139.594 61.6698C139.47 61.6698 139.434 61.6163 139.434 61.5579V61.2755C139.434 61.2147 139.47 61.1636 139.594 61.1636C139.718 61.1636 139.755 61.2171 139.755 61.2755V61.3072C139.755 61.3072 139.752 61.3218 139.743 61.3218H139.701C139.701 61.3218 139.687 61.3169 139.687 61.3072V61.2877C139.687 61.2488 139.66 61.2244 139.594 61.2244C139.529 61.2244 139.504 61.2488 139.504 61.2877V61.5481C139.504 61.5871 139.529 61.6114 139.594 61.6114C139.66 61.6114 139.687 61.5871 139.687 61.5481V61.4775H139.599C139.599 61.4775 139.584 61.4751 139.584 61.4629V61.4289C139.584 61.4289 139.589 61.4167 139.599 61.4167H139.743H139.74Z" fill="black"/>
<path d="M140.125 61.4848C140.125 61.4848 140.12 61.4969 140.112 61.4969H139.913V61.5651C139.913 61.5943 139.927 61.6138 139.986 61.6138C140.044 61.6138 140.059 61.5943 140.059 61.5651V61.5578C140.059 61.5578 140.061 61.5432 140.074 61.5432H140.11C140.11 61.5432 140.125 61.548 140.125 61.5578V61.57C140.125 61.6308 140.088 61.6697 139.986 61.6697C139.884 61.6697 139.847 61.6308 139.847 61.57V61.3971C139.847 61.3363 139.884 61.2974 139.988 61.2974C140.093 61.2974 140.127 61.3387 140.127 61.3971V61.4872L140.125 61.4848ZM139.913 61.4458H140.059V61.3996C140.059 61.3704 140.042 61.3509 139.986 61.3509C139.93 61.3509 139.913 61.3704 139.913 61.3996V61.4458Z" fill="black"/>
<path d="M140.209 61.3971C140.209 61.3363 140.253 61.2974 140.355 61.2974C140.458 61.2974 140.502 61.3387 140.502 61.3971V61.57C140.502 61.6308 140.458 61.6697 140.355 61.6697C140.253 61.6697 140.209 61.6308 140.209 61.57V61.3971ZM140.433 61.402C140.433 61.3704 140.411 61.3533 140.355 61.3533C140.3 61.3533 140.28 61.3704 140.28 61.402V61.5651C140.28 61.5967 140.302 61.6138 140.355 61.6138C140.409 61.6138 140.433 61.5967 140.433 61.5651V61.402Z" fill="black"/>
<path d="M140.592 61.5704V61.3952C140.592 61.3344 140.623 61.2954 140.694 61.2954C140.755 61.2954 140.794 61.3222 140.816 61.3392V61.3149C140.816 61.3149 140.821 61.3003 140.83 61.3003H140.869C140.869 61.3003 140.884 61.3051 140.884 61.3149V61.7116C140.884 61.7724 140.842 61.8114 140.74 61.8114H140.64C140.64 61.8114 140.626 61.8089 140.626 61.7968V61.7651C140.626 61.7651 140.631 61.7505 140.64 61.7505H140.74C140.794 61.7505 140.816 61.7335 140.816 61.7019V61.624C140.794 61.641 140.755 61.6654 140.696 61.6654C140.626 61.6654 140.594 61.6264 140.594 61.5656L140.592 61.5704ZM140.662 61.5607C140.662 61.585 140.675 61.6069 140.716 61.6069C140.762 61.6069 140.799 61.5802 140.816 61.5704V61.3976C140.799 61.3855 140.762 61.3587 140.716 61.3587C140.675 61.3587 140.662 61.3806 140.662 61.4049V61.5583V61.5607Z" fill="black"/>
<path d="M141.18 61.3095V61.3436C141.18 61.3436 141.175 61.3582 141.165 61.3582C141.112 61.3606 141.068 61.3898 141.051 61.4044V61.6503C141.051 61.6503 141.049 61.6649 141.039 61.6649H140.998C140.998 61.6649 140.983 61.66 140.983 61.6503V61.3168C140.983 61.3168 140.988 61.3022 140.998 61.3022H141.036C141.036 61.3022 141.049 61.3071 141.051 61.3168V61.3485C141.073 61.329 141.114 61.2974 141.168 61.2974C141.178 61.2974 141.182 61.3022 141.182 61.312L141.18 61.3095Z" fill="black"/>
<path d="M141.231 61.3971C141.231 61.3363 141.275 61.2974 141.377 61.2974C141.48 61.2974 141.523 61.3387 141.523 61.3971V61.57C141.523 61.6308 141.48 61.6697 141.377 61.6697C141.275 61.6697 141.231 61.6308 141.231 61.57V61.3971ZM141.455 61.402C141.455 61.3704 141.433 61.3533 141.377 61.3533C141.321 61.3533 141.302 61.3704 141.302 61.402V61.5651C141.302 61.5967 141.324 61.6138 141.377 61.6138C141.431 61.6138 141.455 61.5967 141.455 61.5651V61.402Z" fill="black"/>
<path d="M141.782 61.3049C141.782 61.3049 141.796 61.3098 141.796 61.3171V61.3463C141.796 61.3463 141.791 61.3609 141.782 61.3609H141.706V61.558C141.706 61.5921 141.723 61.6067 141.779 61.6067H141.794C141.794 61.6067 141.808 61.6116 141.808 61.6213V61.6529C141.808 61.6529 141.804 61.6675 141.794 61.6675H141.769C141.667 61.6675 141.636 61.631 141.636 61.5678V61.3633H141.597C141.597 61.3633 141.582 61.3584 141.582 61.3487V61.3219C141.582 61.3219 141.587 61.3098 141.597 61.3073H141.633L141.638 61.3049V61.2319C141.638 61.2319 141.643 61.2173 141.653 61.2173H141.696C141.696 61.2173 141.709 61.2222 141.709 61.2319V61.3049H141.784H141.782Z" fill="black"/>
<path d="M142.146 61.4848C142.146 61.4848 142.141 61.4969 142.134 61.4969H141.934V61.5651C141.934 61.5943 141.949 61.6138 142.007 61.6138C142.066 61.6138 142.08 61.5943 142.08 61.5651V61.5578C142.08 61.5578 142.083 61.5432 142.095 61.5432H142.131C142.131 61.5432 142.146 61.548 142.146 61.5578V61.57C142.146 61.6308 142.11 61.6697 142.007 61.6697C141.905 61.6697 141.869 61.6308 141.869 61.57V61.3971C141.869 61.3363 141.905 61.2974 142.01 61.2974C142.114 61.2974 142.149 61.3387 142.149 61.3971V61.4872L142.146 61.4848ZM141.934 61.4458H142.08V61.3996C142.08 61.3704 142.063 61.3509 142.007 61.3509C141.951 61.3509 141.934 61.3704 141.934 61.3996V61.4458Z" fill="black"/>
<path d="M142.426 61.3874C142.426 61.3607 142.402 61.3485 142.356 61.3485C142.309 61.3485 142.287 61.3607 142.287 61.3874V61.3996C142.287 61.4191 142.304 61.4288 142.319 61.4337L142.429 61.4726C142.467 61.4872 142.494 61.5091 142.494 61.5432V61.5846C142.494 61.6308 142.455 61.6722 142.356 61.6722C142.256 61.6722 142.217 61.6308 142.217 61.5846V61.5675C142.217 61.5675 142.219 61.5554 142.229 61.5554H142.268C142.268 61.5554 142.28 61.5602 142.28 61.5675V61.5821C142.28 61.6089 142.307 61.6211 142.356 61.6211C142.404 61.6211 142.431 61.6089 142.431 61.5821V61.5627C142.431 61.5456 142.416 61.5359 142.392 61.5286L142.283 61.4896C142.256 61.4799 142.227 61.4531 142.227 61.4166V61.3899C142.227 61.3436 142.261 61.2998 142.358 61.2998C142.455 61.2998 142.489 61.3436 142.489 61.3899V61.4069C142.489 61.4069 142.487 61.4191 142.477 61.4191H142.438C142.438 61.4191 142.426 61.4142 142.426 61.4069V61.3899V61.3874Z" fill="black"/>
<path d="M142.801 61.3173C142.801 61.3173 142.805 61.3027 142.815 61.3027H142.854C142.854 61.3027 142.869 61.3076 142.869 61.3173V61.7992C142.869 61.7992 142.866 61.8138 142.854 61.8138H142.813C142.813 61.8138 142.801 61.809 142.801 61.7992V61.6288C142.779 61.6459 142.74 61.6702 142.681 61.6702C142.611 61.6702 142.579 61.6313 142.579 61.5704V61.3952C142.579 61.3344 142.611 61.2954 142.681 61.2954C142.742 61.2954 142.781 61.3222 142.803 61.3392V61.3173H142.801ZM142.645 61.5607C142.645 61.585 142.657 61.6069 142.698 61.6069C142.745 61.6069 142.781 61.5802 142.798 61.5704V61.3976C142.781 61.3855 142.745 61.3587 142.698 61.3587C142.657 61.3587 142.645 61.3806 142.645 61.4049V61.5583V61.5607Z" fill="black"/>
<path d="M143.187 61.6289C143.168 61.6459 143.131 61.6702 143.07 61.6702C143.002 61.6702 142.968 61.6313 142.968 61.5778V61.3173C142.968 61.3173 142.971 61.3027 142.98 61.3027H143.022C143.022 61.3027 143.036 61.3076 143.036 61.3173V61.5607C143.036 61.5924 143.051 61.6094 143.09 61.6094C143.136 61.6094 143.17 61.5851 143.185 61.5729V61.3173C143.185 61.3173 143.187 61.3027 143.197 61.3027H143.241C143.241 61.3027 143.253 61.3076 143.253 61.3173V61.6508C143.253 61.6508 143.248 61.6654 143.241 61.6654H143.202C143.202 61.6654 143.19 61.6605 143.187 61.6508V61.6289Z" fill="black"/>
<path d="M143.628 61.4848C143.628 61.4848 143.623 61.4969 143.616 61.4969H143.416V61.5651C143.416 61.5943 143.431 61.6138 143.489 61.6138C143.548 61.6138 143.562 61.5943 143.562 61.5651V61.5578C143.562 61.5578 143.565 61.5432 143.577 61.5432H143.613C143.613 61.5432 143.628 61.548 143.628 61.5578V61.57C143.628 61.6308 143.592 61.6697 143.489 61.6697C143.387 61.6697 143.351 61.6308 143.351 61.57V61.3971C143.351 61.3363 143.387 61.2974 143.492 61.2974C143.596 61.2974 143.63 61.3387 143.63 61.3971V61.4872L143.628 61.4848ZM143.416 61.4458H143.562V61.3996C143.562 61.3704 143.545 61.3509 143.489 61.3509C143.433 61.3509 143.416 61.3704 143.416 61.3996V61.4458Z" fill="black"/>
</g>
<defs>
<clipPath id="clip0_62_11520">
<rect width="179.733" height="106.845" fill="white"/>
</clipPath>
</defs>
</svg>
