<svg width="676" height="820" viewBox="0 0 676 820" fill="none" xmlns="http://www.w3.org/2000/svg">
<g opacity="0.75" filter="url(#filter0_b_219_402)">
<rect x="106.613" y="306.677" width="93.451" height="52.6485" rx="10.6667" fill="#03F8C5"/>
<path d="M173.363 342.601H172.083C171.87 342.601 171.763 342.495 171.763 342.281V341.215C171.763 341.001 171.87 340.895 172.083 340.895H173.363C174.537 340.895 175.177 340.255 175.177 339.081V326.921C175.177 325.748 174.537 325.108 173.363 325.108H172.083C171.87 325.108 171.763 325.001 171.763 324.788V323.721C171.763 323.508 171.87 323.401 172.083 323.401H173.363C175.817 323.401 177.097 324.681 177.097 327.135V338.868C177.097 341.321 175.817 342.601 173.363 342.601Z" fill="#00150E"/>
<path d="M158.445 324.148H170.285C170.499 324.148 170.605 324.255 170.605 324.468V325.748C170.605 325.961 170.499 326.068 170.285 326.068H165.379V338.761C165.379 338.975 165.272 339.081 165.059 339.081H163.672C163.459 339.081 163.352 338.975 163.352 338.761V326.068H158.445C158.232 326.068 158.125 325.961 158.125 325.748V324.468C158.125 324.255 158.232 324.148 158.445 324.148Z" fill="#00150E"/>
<path d="M153.244 339.188H150.257C148.017 339.188 146.95 338.121 146.95 335.881V331.401C146.95 329.161 148.017 328.095 150.257 328.095H153.244C155.484 328.095 156.55 329.161 156.55 331.401V335.881C156.55 338.121 155.484 339.188 153.244 339.188ZM150.47 337.481H153.03C154.225 337.481 154.63 337.076 154.63 335.881V331.401C154.63 330.207 154.225 329.801 153.03 329.801H150.47C149.276 329.801 148.87 330.207 148.87 331.401V335.881C148.87 337.076 149.276 337.481 150.47 337.481Z" fill="#00150E"/>
<path d="M144.607 325.961H141.513V337.268H144.607C144.82 337.268 144.927 337.375 144.927 337.588V338.761C144.927 338.975 144.82 339.081 144.607 339.081H136.393C136.18 339.081 136.073 338.975 136.073 338.761V337.588C136.073 337.375 136.18 337.268 136.393 337.268H139.487V325.961H136.393C136.18 325.961 136.073 325.855 136.073 325.641V324.468C136.073 324.255 136.18 324.148 136.393 324.148H144.607C144.82 324.148 144.927 324.255 144.927 324.468V325.641C144.927 325.855 144.82 325.961 144.607 325.961Z" fill="#00150E"/>
<path d="M134.594 342.601H133.314C130.86 342.601 129.58 341.321 129.58 338.868V327.135C129.58 324.681 130.86 323.401 133.314 323.401H134.594C134.807 323.401 134.914 323.508 134.914 323.721V324.788C134.914 325.001 134.807 325.108 134.594 325.108H133.314C132.14 325.108 131.5 325.748 131.5 326.921V339.081C131.5 340.255 132.14 340.895 133.314 340.895H134.594C134.807 340.895 134.914 341.001 134.914 341.215V342.281C134.914 342.495 134.807 342.601 134.594 342.601Z" fill="#00150E"/>
</g>
<g opacity="0.75" filter="url(#filter1_b_219_402)">
<rect x="15.7944" y="467.255" width="171.107" height="52.6485" rx="10.6667" fill="#03F8C5"/>
<path d="M159.55 498.433H157.217C155.257 498.433 154.417 497.593 154.417 495.819V495.446C154.417 495.259 154.51 495.166 154.697 495.166H155.817C156.004 495.166 156.097 495.259 156.097 495.446V495.633C156.097 496.51 156.526 496.939 157.404 496.939H159.457C160.297 496.939 160.67 496.566 160.67 495.913V495.259C160.67 494.699 160.297 494.326 159.457 494.326H157.31C155.388 494.326 154.51 493.542 154.51 491.899V491.153C154.51 489.566 155.35 488.726 157.31 488.726H159.457C161.417 488.726 162.257 489.566 162.257 491.339V491.526C162.257 491.713 162.164 491.806 161.977 491.806H160.857C160.67 491.806 160.577 491.713 160.577 491.526V491.339C160.577 490.555 160.148 490.219 159.308 490.219H157.404C156.564 490.219 156.19 490.593 156.19 491.246V491.806C156.19 492.459 156.564 492.833 157.404 492.833H159.644C161.566 492.833 162.35 493.617 162.35 495.166V496.006C162.35 497.593 161.51 498.433 159.55 498.433Z" fill="#00150E"/>
<path d="M149.586 498.433H147.439C145.479 498.433 144.546 497.499 144.546 495.539V491.619C144.546 489.659 145.479 488.726 147.439 488.726H149.586C151.546 488.726 152.479 489.659 152.479 491.619V491.993C152.479 492.179 152.386 492.273 152.199 492.273H151.079C150.893 492.273 150.799 492.179 150.799 491.993V491.619C150.799 490.574 150.445 490.219 149.399 490.219H147.626C146.581 490.219 146.226 490.574 146.226 491.619V495.539C146.226 496.585 146.581 496.939 147.626 496.939H149.399C150.445 496.939 150.799 496.585 150.799 495.539V495.166C150.799 494.979 150.893 494.886 151.079 494.886H152.199C152.386 494.886 152.479 494.979 152.479 495.166V495.539C152.479 497.499 151.546 498.433 149.586 498.433Z" fill="#00150E"/>
<path d="M141.676 487.699H140.369C140.182 487.699 140.089 487.606 140.089 487.419V486.206C140.089 486.019 140.182 485.926 140.369 485.926H141.676C141.862 485.926 141.956 486.019 141.956 486.206V487.419C141.956 487.606 141.862 487.699 141.676 487.699ZM141.582 498.339H140.462C140.276 498.339 140.182 498.246 140.182 498.059V489.099C140.182 488.913 140.276 488.819 140.462 488.819H141.582C141.769 488.819 141.862 488.913 141.862 489.099V498.059C141.862 498.246 141.769 498.339 141.582 498.339Z" fill="#00150E"/>
<path d="M137.781 490.313H135.261V495.446C135.261 496.491 135.616 496.846 136.661 496.846H137.781C137.968 496.846 138.061 496.939 138.061 497.126V498.059C138.061 498.246 137.968 498.339 137.781 498.339H136.474C134.514 498.339 133.581 497.406 133.581 495.446V490.313H132.088C131.901 490.313 131.808 490.219 131.808 490.033V489.099C131.808 488.913 131.901 488.819 132.088 488.819H133.581V487.326C133.581 487.139 133.674 487.046 133.861 487.046H134.981C135.168 487.046 135.261 487.139 135.261 487.326V488.819H137.781C137.968 488.819 138.061 488.913 138.061 489.099V490.033C138.061 490.219 137.968 490.313 137.781 490.313Z" fill="#00150E"/>
<path d="M124.781 501.886H124.127C123.941 501.886 123.847 501.793 123.847 501.606V500.579C123.847 500.393 123.941 500.299 124.127 500.299H124.799C125.509 500.299 125.789 500.038 126.106 499.179L126.423 498.339L122.951 489.193C122.858 488.95 123.007 488.819 123.269 488.819H124.258C124.482 488.819 124.594 488.894 124.669 489.099L126.255 493.355L127.245 495.969H127.338L129.933 489.099C130.007 488.894 130.119 488.819 130.343 488.819H131.389C131.631 488.819 131.706 488.969 131.613 489.23L127.842 499.179C127.077 501.195 126.461 501.886 124.781 501.886Z" fill="#00150E"/>
<path d="M121.089 498.339H119.969C119.782 498.339 119.689 498.246 119.689 498.059V485.553C119.689 485.366 119.782 485.273 119.969 485.273H121.089C121.276 485.273 121.369 485.366 121.369 485.553V498.059C121.369 498.246 121.276 498.339 121.089 498.339Z" fill="#00150E"/>
<path d="M111.682 488.726H113.922C115.882 488.726 116.815 489.659 116.815 491.619V498.059C116.815 498.246 116.722 498.339 116.535 498.339H115.415C115.228 498.339 115.135 498.246 115.135 498.059V497.406H115.042C114.799 497.854 114.164 498.433 112.988 498.433H111.122C109.516 498.433 108.695 497.611 108.695 496.006V495.353C108.695 493.747 109.516 492.926 111.122 492.926H115.135V491.619C115.135 490.574 114.78 490.219 113.735 490.219H111.775C110.898 490.219 110.562 490.555 110.562 491.433V491.713C110.562 491.899 110.468 491.993 110.282 491.993H109.162C108.975 491.993 108.882 491.899 108.882 491.713V491.358C108.882 489.566 109.722 488.726 111.682 488.726ZM111.402 496.939H113.735C114.78 496.939 115.135 496.585 115.135 495.539V494.419H111.402C110.655 494.419 110.375 494.699 110.375 495.446V495.913C110.375 496.659 110.655 496.939 111.402 496.939Z" fill="#00150E"/>
<path d="M99.4786 498.339H98.3586C98.1719 498.339 98.0786 498.246 98.0786 498.059V489.099C98.0786 488.913 98.1719 488.819 98.3586 488.819H99.4786C99.6653 488.819 99.7586 488.913 99.7586 489.099V489.753H99.8519C100.095 489.286 100.748 488.726 101.905 488.726H103.212C105.172 488.726 106.105 489.659 106.105 491.619V498.059C106.105 498.246 106.012 498.339 105.825 498.339H104.705C104.519 498.339 104.425 498.246 104.425 498.059V491.713C104.425 490.667 104.071 490.313 103.025 490.313H101.159C100.113 490.313 99.7586 490.667 99.7586 491.713V498.059C99.7586 498.246 99.6653 498.339 99.4786 498.339Z" fill="#00150E"/>
<path d="M92.6191 485.553L95.9978 497.929C96.0724 498.171 96.0164 498.339 95.7737 498.339H94.5977C94.3737 498.339 94.2431 498.265 94.1871 498.059L93.4404 495.166H87.0938L86.3471 498.059C86.2911 498.265 86.1604 498.339 85.9364 498.339H84.7604C84.5177 498.339 84.4617 498.171 84.5364 497.929L87.9151 485.553C87.9711 485.366 88.1017 485.273 88.3257 485.273H92.2084C92.4324 485.273 92.5631 485.366 92.6191 485.553ZM89.1658 487.046L87.9711 491.769L87.5044 493.579H93.0297L92.5631 491.769L91.3684 487.046H89.1658Z" fill="#00150E"/>
<path d="M73.8023 488.726H76.0423C78.0023 488.726 78.9357 489.659 78.9357 491.619V498.059C78.9357 498.246 78.8423 498.339 78.6557 498.339H77.5357C77.349 498.339 77.2557 498.246 77.2557 498.059V497.406H77.1623C76.9197 497.854 76.285 498.433 75.109 498.433H73.2423C71.637 498.433 70.8157 497.611 70.8157 496.006V495.353C70.8157 493.747 71.637 492.926 73.2423 492.926H77.2557V491.619C77.2557 490.574 76.901 490.219 75.8557 490.219H73.8957C73.0183 490.219 72.6823 490.555 72.6823 491.433V491.713C72.6823 491.899 72.589 491.993 72.4023 491.993H71.2823C71.0957 491.993 71.0023 491.899 71.0023 491.713V491.358C71.0023 489.566 71.8423 488.726 73.8023 488.726ZM73.5223 496.939H75.8557C76.901 496.939 77.2557 496.585 77.2557 495.539V494.419H73.5223C72.7757 494.419 72.4957 494.699 72.4957 495.446V495.913C72.4957 496.659 72.7757 496.939 73.5223 496.939Z" fill="#00150E"/>
<path d="M68.8767 490.313H66.3567V495.446C66.3567 496.491 66.7113 496.846 67.7567 496.846H68.8767C69.0633 496.846 69.1567 496.939 69.1567 497.126V498.059C69.1567 498.246 69.0633 498.339 68.8767 498.339H67.57C65.61 498.339 64.6767 497.406 64.6767 495.446V490.313H63.1833C62.9967 490.313 62.9033 490.219 62.9033 490.033V489.099C62.9033 488.913 62.9967 488.819 63.1833 488.819H64.6767V487.326C64.6767 487.139 64.77 487.046 64.9567 487.046H66.0767C66.2633 487.046 66.3567 487.139 66.3567 487.326V488.819H68.8767C69.0633 488.819 69.1567 488.913 69.1567 489.099V490.033C69.1567 490.219 69.0633 490.313 68.8767 490.313Z" fill="#00150E"/>
<path d="M56.3851 488.726H58.6251C60.5851 488.726 61.5184 489.659 61.5184 491.619V498.059C61.5184 498.246 61.4251 498.339 61.2384 498.339H60.1184C59.9318 498.339 59.8384 498.246 59.8384 498.059V497.406H59.7451C59.5024 497.854 58.8678 498.433 57.6918 498.433H55.8251C54.2198 498.433 53.3984 497.611 53.3984 496.006V495.353C53.3984 493.747 54.2198 492.926 55.8251 492.926H59.8384V491.619C59.8384 490.574 59.4838 490.219 58.4384 490.219H56.4784C55.6011 490.219 55.2651 490.555 55.2651 491.433V491.713C55.2651 491.899 55.1718 491.993 54.9851 491.993H53.8651C53.6784 491.993 53.5851 491.899 53.5851 491.713V491.358C53.5851 489.566 54.4251 488.726 56.3851 488.726ZM56.1051 496.939H58.4384C59.4838 496.939 59.8384 496.585 59.8384 495.539V494.419H56.1051C55.3584 494.419 55.0784 494.699 55.0784 495.446V495.913C55.0784 496.659 55.3584 496.939 56.1051 496.939Z" fill="#00150E"/>
<path d="M47.7193 498.339H40.6259C40.4393 498.339 40.3459 498.246 40.3459 498.059V485.553C40.3459 485.366 40.4393 485.273 40.6259 485.273H47.7193C49.8659 485.273 50.9859 486.393 50.9859 488.539V495.073C50.9859 497.219 49.8659 498.339 47.7193 498.339ZM42.1193 486.859V496.753H47.6259C48.6526 496.753 49.2126 496.193 49.2126 495.166V488.446C49.2126 487.419 48.6526 486.859 47.6259 486.859H42.1193Z" fill="#00150E"/>
</g>
<g clip-path="url(#clip0_219_402)">
<path opacity="0.5" d="M499.93 618.961L352.55 533.751L205.171 618.961L352.55 704.049L499.93 618.961Z" fill="url(#paint0_linear_219_402)"/>
<path opacity="0.8" d="M588.666 386.229C579.932 386.128 572.799 390.039 572.739 394.943C572.698 398.55 576.487 401.691 581.959 403.15L559.952 473.81L97.9139 740.95L97.0628 741.436L79.7574 802.167C71.0237 802.066 63.8908 805.977 63.83 810.88C63.7692 815.805 70.8008 819.878 79.5548 819.979C88.2886 820.08 95.4215 816.169 95.4823 811.265C95.5228 807.294 90.9431 803.93 84.6005 802.694L101.156 744.617L563.154 477.518L563.964 477.052L586.761 403.92C587.329 403.96 587.896 404.021 588.484 404.041C597.217 404.143 604.35 400.232 604.411 395.328C604.472 390.404 597.44 386.331 588.686 386.229H588.666Z" fill="url(#paint1_linear_219_402)"/>
<path d="M588.626 389.756C593.915 389.817 598.19 392.289 598.15 395.268C598.109 398.246 593.793 400.617 588.504 400.556C583.215 400.496 578.94 398.023 578.98 395.045C579.021 392.066 583.337 389.695 588.626 389.756Z" fill="#F4F7F6"/>
<path d="M79.7377 805.694C85.0266 805.754 89.3023 808.227 89.2618 811.205C89.2212 814.184 84.905 816.555 79.6161 816.494C74.3272 816.433 70.0516 813.961 70.0921 810.982C70.1326 808.004 74.4488 805.633 79.7377 805.694Z" fill="#F4F7F6"/>
<path opacity="0.8" d="M649.134 450.487C641.799 450.406 635.638 453.162 633.815 456.951H613.794L154.674 722.388L137.794 781.64C129.303 781.701 122.434 785.51 122.373 790.333C122.312 795.257 129.344 799.33 138.098 799.432C146.832 799.533 153.965 795.622 154.025 790.718C154.066 786.665 149.243 783.221 142.657 782.065L158.747 725.59L615.071 461.774H633.916C635.821 465.462 641.778 468.238 648.932 468.319C657.665 468.42 664.798 464.509 664.859 459.605C664.92 454.681 657.888 450.608 649.134 450.507V450.487Z" fill="url(#paint2_linear_219_402)"/>
<path d="M649.093 453.992C654.382 454.053 658.658 456.525 658.617 459.504C658.576 462.483 654.26 464.853 648.971 464.793C643.682 464.732 639.407 462.26 639.447 459.281C639.488 456.302 643.804 453.931 649.093 453.992Z" fill="#F4F7F6"/>
<path d="M138.261 785.126C143.55 785.186 147.825 787.659 147.785 790.637C147.744 793.616 143.428 795.987 138.139 795.926C132.85 795.866 128.575 793.393 128.615 790.415C128.656 787.436 132.972 785.065 138.261 785.126Z" fill="#F4F7F6"/>
<path opacity="0.8" d="M572.739 423.333C572.8 418.409 565.768 414.336 557.014 414.234C548.28 414.133 541.147 418.044 541.087 422.948C541.046 427.021 545.869 430.466 552.475 431.601L548.929 442.523L178.18 656.875H61.5609C60.0613 652.842 53.7795 649.782 46.2008 649.681C37.467 649.58 30.3341 653.491 30.2733 658.395C30.2125 663.319 37.2441 667.392 45.9982 667.493C52.9284 667.574 58.7644 665.122 60.9529 661.677H179.456L552.151 446.211L552.982 445.725L556.994 432.046C565.646 432.087 572.678 428.217 572.719 423.333H572.739Z" fill="url(#paint3_linear_219_402)"/>
<path d="M46.1606 653.207C51.4495 653.268 55.7251 655.74 55.6846 658.719C55.6441 661.698 51.3279 664.069 46.039 664.008C40.7501 663.947 36.4744 661.475 36.5149 658.496C36.5555 655.517 40.8717 653.146 46.1606 653.207Z" fill="#F4F7F6"/>
<path d="M556.993 417.76C562.282 417.821 566.558 420.293 566.517 423.272C566.477 426.251 562.16 428.622 556.871 428.561C551.583 428.5 547.307 426.028 547.347 423.049C547.388 420.071 551.704 417.7 556.993 417.76Z" fill="#F4F7F6"/>
<path opacity="0.8" d="M649.134 514.46C641.231 514.358 634.706 517.56 633.47 521.815H595.171L275.811 706.379L274.96 706.866L259.053 764.699L206.124 795.297C203.449 794.082 200.105 793.312 196.438 793.251C187.704 793.15 180.571 797.06 180.51 801.964C180.449 806.888 187.481 810.961 196.235 811.063C204.969 811.164 212.102 807.253 212.162 802.349C212.162 801.113 211.737 799.938 210.947 798.844L263.167 767.86L279.074 710.027L596.468 526.598H634.402C636.753 529.86 642.366 532.191 648.951 532.272C657.685 532.373 664.818 528.462 664.879 523.558C664.94 518.634 657.908 514.561 649.154 514.46H649.134Z" fill="url(#paint4_linear_219_402)"/>
<path d="M196.397 796.777C201.686 796.838 205.961 799.31 205.921 802.289C205.88 805.267 201.564 807.638 196.275 807.577C190.986 807.517 186.71 805.044 186.751 802.066C186.792 799.087 191.108 796.716 196.397 796.777Z" fill="#F4F7F6"/>
<path d="M649.093 517.986C654.382 518.047 658.658 520.519 658.617 523.498C658.577 526.476 654.261 528.847 648.972 528.786C643.683 528.726 639.407 526.253 639.448 523.275C639.488 520.296 643.804 517.925 649.093 517.986Z" fill="#F4F7F6"/>
<path opacity="0.8" d="M144.704 684.535C139.415 684.474 135.079 686.845 135.059 689.824C135.059 690.898 135.606 691.891 136.538 692.742L83.73 723.259C81.2983 722.368 78.4411 721.8 75.3204 721.78C66.5867 721.679 59.4538 725.59 59.393 730.493C59.3322 735.418 66.3638 739.491 75.1178 739.592C83.8515 739.693 90.9844 735.782 91.0452 730.879C91.0655 729.095 90.1334 727.434 88.5528 726.015L142.029 695.092C142.84 695.234 143.671 695.336 144.562 695.336C149.851 695.396 154.188 693.025 154.208 690.047C154.248 687.068 149.973 684.596 144.684 684.535H144.704Z" fill="url(#paint5_linear_219_402)"/>
<path d="M75.3007 725.266C80.5896 725.326 84.8653 727.799 84.8248 730.777C84.7842 733.756 80.468 736.127 75.1791 736.066C69.8902 736.005 65.6145 733.533 65.6551 730.554C65.6956 727.576 70.0118 725.205 75.3007 725.266Z" fill="#F4F7F6"/>
<path d="M478.531 617.726L351.212 691.243V656.511L478.531 582.993V617.726Z" fill="url(#paint6_linear_219_402)"/>
<path d="M223.895 617.726L351.213 691.243V656.511L223.895 582.993V617.726Z" fill="url(#paint7_linear_219_402)"/>
<path d="M478.531 582.993L351.213 509.395L223.895 582.993L351.213 656.511L478.531 582.993Z" fill="url(#paint8_linear_219_402)"/>
<path d="M478.531 567.146L351.212 640.664V605.932L478.531 532.414V567.146Z" fill="url(#paint9_linear_219_402)"/>
<path d="M223.895 567.146L351.213 640.664V605.932L223.895 532.414V567.146Z" fill="url(#paint10_linear_219_402)"/>
<path d="M478.531 532.414L351.213 458.795L223.895 532.414L351.213 605.932L478.531 532.414Z" fill="url(#paint11_linear_219_402)"/>
<path d="M478.531 516.852L351.212 590.349V555.617L478.531 482.099V516.852Z" fill="url(#paint12_linear_219_402)"/>
<path d="M223.895 516.852L351.213 590.349V555.617L223.895 482.099V516.852Z" fill="url(#paint13_linear_219_402)"/>
<path d="M478.531 482.099L351.213 408.5L223.895 482.099L351.213 555.616L478.531 482.099Z" fill="url(#paint14_linear_219_402)"/>
<path d="M351.213 441.166C314.738 441.166 285.173 457.803 285.173 478.33C285.173 498.857 314.738 515.494 351.213 515.494C387.688 515.494 417.253 498.857 417.253 478.33C417.253 457.803 387.688 441.166 351.213 441.166Z" fill="url(#paint15_linear_219_402)"/>
<path opacity="0.85" d="M417.334 66.1615C416.828 86.3646 387.749 102.941 351.699 103.366C315.204 103.792 285.416 87.4792 285.173 66.9315C285.173 66.6681 285.173 66.4249 285.193 66.1615H285.173V284.85H285.213C285.213 285.255 285.173 470.569 285.173 478.755C285.173 499.303 315.873 515.616 352.368 515.19C388.661 514.764 417.253 498.209 417.354 477.823V477.54V66.1615H417.334Z" fill="url(#paint16_linear_219_402)"/>
<path opacity="0.75" d="M350.828 28.9567C314.778 29.3823 285.7 45.9582 285.193 66.1613C285.193 66.4248 285.173 66.6679 285.173 66.9314C285.416 87.479 315.204 103.791 351.699 103.366C387.749 102.94 416.828 86.3645 417.334 66.1613C417.334 65.8979 417.354 65.6345 417.354 65.3913C417.132 44.8437 387.344 28.5312 350.828 28.9567Z" fill="url(#paint17_linear_219_402)"/>
<g opacity="0.65">
<path d="M364.324 458.795C362.46 458.795 360.92 460.315 360.92 462.199V480.883C360.92 482.747 362.439 484.287 364.324 484.287C366.188 484.287 367.728 482.767 367.728 480.883V462.199C367.728 460.335 366.209 458.795 364.324 458.795Z" fill="url(#paint18_linear_219_402)"/>
<path d="M309.308 461.065C307.444 461.065 305.904 459.545 305.904 457.66V395.146C305.904 393.282 307.423 391.742 309.308 391.742C311.172 391.742 312.712 393.262 312.712 395.146V457.66C312.712 459.525 311.192 461.065 309.308 461.065Z" fill="url(#paint19_linear_219_402)"/>
<path d="M323.107 400.739C321.243 400.739 319.703 399.219 319.703 397.334V361.69C319.703 359.826 321.223 358.286 323.107 358.286C324.972 358.286 326.512 359.806 326.512 361.69V397.334C326.512 399.199 324.992 400.739 323.107 400.739Z" fill="url(#paint20_linear_219_402)"/>
<path d="M309.308 333.99C307.444 333.99 305.904 335.51 305.904 337.394V352.491C305.904 354.355 307.423 355.895 309.308 355.895C311.172 355.895 312.712 354.375 312.712 352.491V337.394C312.712 335.53 311.192 333.99 309.308 333.99Z" fill="url(#paint21_linear_219_402)"/>
<path d="M323.107 348.438C321.243 348.438 319.703 346.918 319.703 345.033V282.519C319.703 280.655 321.223 279.115 323.107 279.115C324.972 279.115 326.512 280.635 326.512 282.519V345.033C326.512 346.898 324.992 348.438 323.107 348.438Z" fill="url(#paint22_linear_219_402)"/>
<path d="M336.907 447.063C335.043 447.063 333.503 445.543 333.503 443.658V381.144C333.503 379.28 335.022 377.74 336.907 377.74C338.771 377.74 340.311 379.26 340.311 381.144V443.658C340.311 445.523 338.792 447.063 336.907 447.063Z" fill="url(#paint23_linear_219_402)"/>
<path d="M336.907 294.981C335.043 294.981 333.503 293.462 333.503 291.577V255.933C333.503 254.069 335.022 252.528 336.907 252.528C338.771 252.528 340.311 254.048 340.311 255.933V291.577C340.311 293.441 338.792 294.981 336.907 294.981Z" fill="url(#paint24_linear_219_402)"/>
<path d="M323.107 270.422C321.243 270.422 319.703 268.902 319.703 267.017V231.373C319.703 229.509 321.223 227.969 323.107 227.969C324.972 227.969 326.512 229.489 326.512 231.373V267.017C326.512 268.882 324.992 270.422 323.107 270.422Z" fill="url(#paint25_linear_219_402)"/>
<path d="M350.626 92.0385C348.762 92.0385 347.222 90.5187 347.222 88.6342V53.0102C347.222 51.1459 348.742 49.6058 350.626 49.6058C352.491 49.6058 354.031 51.1256 354.031 53.0102V88.6342C354.031 90.4985 352.511 92.0385 350.626 92.0385Z" fill="url(#paint26_linear_219_402)"/>
<path d="M309.308 130.925C307.444 130.925 305.904 129.405 305.904 127.521V91.8967C305.904 90.0324 307.423 88.4923 309.308 88.4923C311.172 88.4923 312.712 90.0121 312.712 91.8967V127.541C312.712 129.405 311.192 130.945 309.308 130.945V130.925Z" fill="url(#paint27_linear_219_402)"/>
<path d="M323.107 73.2538C321.243 73.2538 319.703 74.7736 319.703 76.6581V91.7548C319.703 93.619 321.223 95.1591 323.107 95.1591C324.972 95.1591 326.512 93.6393 326.512 91.7548V76.6581C326.512 74.7938 324.992 73.2538 323.107 73.2538Z" fill="url(#paint28_linear_219_402)"/>
<path d="M350.524 276.764C348.66 276.764 347.12 278.284 347.12 280.169V295.265C347.12 297.13 348.64 298.67 350.524 298.67C352.388 298.67 353.929 297.15 353.929 295.265V280.169C353.929 278.304 352.409 276.764 350.524 276.764Z" fill="url(#paint29_linear_219_402)"/>
<path d="M336.907 314.881C335.043 314.881 333.503 316.401 333.503 318.285V333.382C333.503 335.246 335.022 336.786 336.907 336.786C338.771 336.786 340.311 335.266 340.311 333.382V318.285C340.311 316.421 338.792 314.881 336.907 314.881Z" fill="url(#paint30_linear_219_402)"/>
<path d="M309.308 292.509C307.444 292.509 305.904 294.029 305.904 295.913V304.201C305.904 306.066 307.423 307.606 309.308 307.606C311.172 307.606 312.712 306.086 312.712 304.201V295.913C312.712 294.049 311.192 292.509 309.308 292.509Z" fill="url(#paint31_linear_219_402)"/>
<path d="M391.923 457.275C393.788 457.275 395.328 455.756 395.328 453.871V391.357C395.328 389.493 393.808 387.953 391.923 387.953C390.059 387.953 388.519 389.472 388.519 391.357V453.871C388.519 455.735 390.039 457.275 391.923 457.275Z" fill="url(#paint32_linear_219_402)"/>
<path d="M391.923 340.575C393.788 340.575 395.328 342.095 395.328 343.98V359.076C395.328 360.941 393.808 362.481 391.923 362.481C390.059 362.481 388.519 360.961 388.519 359.076V343.98C388.519 342.115 390.039 340.575 391.923 340.575Z" fill="url(#paint33_linear_219_402)"/>
<path d="M378.124 415.471C379.988 415.471 381.528 416.991 381.528 418.875V465.219C381.528 467.083 380.008 468.623 378.124 468.623C376.259 468.623 374.719 467.103 374.719 465.219V418.875C374.719 417.011 376.239 415.471 378.124 415.471Z" fill="url(#paint34_linear_219_402)"/>
<path d="M378.124 351.518C379.988 351.518 381.528 349.998 381.528 348.113V285.599C381.528 283.735 380.008 282.195 378.124 282.195C376.259 282.195 374.719 283.715 374.719 285.599V348.113C374.719 349.978 376.239 351.518 378.124 351.518Z" fill="url(#paint35_linear_219_402)"/>
<path d="M391.923 134.005C393.788 134.005 395.328 132.485 395.328 130.601V94.9563C395.328 93.0921 393.808 91.552 391.923 91.552C390.059 91.552 388.519 93.0718 388.519 94.9563V130.601C388.519 132.465 390.039 134.005 391.923 134.005Z" fill="url(#paint36_linear_219_402)"/>
<path d="M378.124 76.334C379.988 76.334 381.528 77.8538 381.528 79.7383V94.835C381.528 96.6992 380.008 98.2393 378.124 98.2393C376.259 98.2393 374.719 96.7195 374.719 94.835V79.7383C374.719 77.874 376.239 76.334 378.124 76.334Z" fill="url(#paint37_linear_219_402)"/>
<path d="M391.923 317.941C393.788 317.941 395.328 319.46 395.328 321.345V329.633C395.328 331.497 393.808 333.037 391.923 333.037C390.059 333.037 388.519 331.518 388.519 329.633V321.345C388.519 319.481 390.039 317.941 391.923 317.941Z" fill="url(#paint38_linear_219_402)"/>
<path d="M350.626 307.343C348.762 307.343 347.222 308.862 347.222 310.747V319.035C347.222 320.899 348.742 322.439 350.626 322.439C352.491 322.439 354.031 320.919 354.031 319.035V310.747C354.031 308.883 352.511 307.343 350.626 307.343Z" fill="url(#paint39_linear_219_402)"/>
<path d="M378.124 212.933C376.259 212.933 374.719 214.453 374.719 216.337V224.625C374.719 226.489 376.239 228.029 378.124 228.029C379.988 228.029 381.528 226.51 381.528 224.625V216.337C381.528 214.473 380.008 212.933 378.124 212.933Z" fill="url(#paint40_linear_219_402)"/>
<path d="M336.907 58.1772C335.043 58.1772 333.503 59.697 333.503 61.5816V69.8695C333.503 71.7338 335.022 73.2739 336.907 73.2739C338.771 73.2739 340.311 71.7541 340.311 69.8695V61.5816C340.311 59.7173 338.792 58.1772 336.907 58.1772Z" fill="url(#paint41_linear_219_402)"/>
<path d="M364.324 65.7156C362.46 65.7156 360.92 67.2354 360.92 69.1199V77.4079C360.92 79.2721 362.439 80.8122 364.324 80.8122C366.188 80.8122 367.728 79.2924 367.728 77.4079V69.1199C367.728 67.2556 366.209 65.7156 364.324 65.7156Z" fill="url(#paint42_linear_219_402)"/>
<path d="M364.324 428.582C362.46 428.582 360.92 427.062 360.92 425.177V389.533C360.92 387.669 362.439 386.129 364.324 386.129C366.188 386.129 367.728 387.648 367.728 389.533V425.177C367.728 427.042 366.209 428.582 364.324 428.582Z" fill="url(#paint43_linear_219_402)"/>
<path d="M350.524 480.701C348.66 480.701 347.12 482.22 347.12 484.105V499.202C347.12 501.066 348.64 502.606 350.524 502.606C352.388 502.606 353.929 501.086 353.929 499.202V484.105C353.929 482.241 352.409 480.701 350.524 480.701Z" fill="url(#paint44_linear_219_402)"/>
<path d="M378.124 251.657C376.259 251.657 374.719 253.177 374.719 255.062V270.158C374.719 272.022 376.239 273.563 378.124 273.563C379.988 273.563 381.528 272.043 381.528 270.158V255.062C381.528 253.197 380.008 251.657 378.124 251.657Z" fill="url(#paint45_linear_219_402)"/>
<path d="M391.923 198.566C390.059 198.566 388.519 200.085 388.519 201.97V217.067C388.519 218.931 390.039 220.471 391.923 220.471C393.788 220.471 395.328 218.951 395.328 217.067V201.97C395.328 200.106 393.808 198.566 391.923 198.566Z" fill="url(#paint46_linear_219_402)"/>
<path d="M364.324 373.849C362.46 373.849 360.92 372.329 360.92 370.444V307.93C360.92 306.066 362.439 304.526 364.324 304.526C366.188 304.526 367.728 306.046 367.728 307.93V370.444C367.728 372.309 366.209 373.849 364.324 373.849Z" fill="url(#paint47_linear_219_402)"/>
<path d="M350.524 387.365C348.66 387.365 347.12 385.845 347.12 383.961V348.337C347.12 346.472 348.64 344.932 350.524 344.932C352.388 344.932 353.929 346.452 353.929 348.337V383.961C353.929 385.825 352.409 387.365 350.524 387.365Z" fill="url(#paint48_linear_219_402)"/>
<path d="M364.324 233.42C362.46 233.42 360.92 234.94 360.92 236.824V251.921C360.92 253.785 362.439 255.325 364.324 255.325C366.188 255.325 367.728 253.805 367.728 251.921V236.824C367.728 234.96 366.209 233.42 364.324 233.42Z" fill="url(#paint49_linear_219_402)"/>
<path d="M336.907 209.529C335.043 209.529 333.503 211.048 333.503 212.933V221.221C333.503 223.085 335.022 224.625 336.907 224.625C338.771 224.625 340.311 223.105 340.311 221.221V212.933C340.311 211.069 338.792 209.529 336.907 209.529Z" fill="url(#paint50_linear_219_402)"/>
<path d="M309.308 269.226C307.444 269.226 305.904 270.746 305.904 272.631V280.919C305.904 282.783 307.423 284.323 309.308 284.323C311.172 284.323 312.712 282.803 312.712 280.919V272.631C312.712 270.766 311.192 269.226 309.308 269.226Z" fill="url(#paint51_linear_219_402)"/>
<path d="M391.923 269.226C390.059 269.226 388.519 270.746 388.519 272.631V280.919C388.519 282.783 390.039 284.323 391.923 284.323C393.788 284.323 395.328 282.803 395.328 280.919V272.631C395.328 270.766 393.808 269.226 391.923 269.226Z" fill="url(#paint52_linear_219_402)"/>
<path d="M323.107 212.244C321.243 212.244 319.703 210.724 319.703 208.84V146.325C319.703 144.461 321.223 142.921 323.107 142.921C324.972 142.921 326.512 144.441 326.512 146.325V208.84C326.512 210.704 324.992 212.244 323.107 212.244Z" fill="url(#paint53_linear_219_402)"/>
<path d="M336.907 140.631C335.043 140.631 333.503 139.111 333.503 137.227V101.582C333.503 99.718 335.022 98.178 336.907 98.178C338.771 98.178 340.311 99.6978 340.311 101.582V137.227C340.311 139.091 338.792 140.631 336.907 140.631Z" fill="url(#paint54_linear_219_402)"/>
<path d="M350.524 122.414C348.66 122.414 347.12 123.934 347.12 125.818V140.915C347.12 142.779 348.64 144.319 350.524 144.319C352.388 144.319 353.929 142.799 353.929 140.915V125.818C353.929 123.954 352.409 122.414 350.524 122.414Z" fill="url(#paint55_linear_219_402)"/>
<path d="M309.308 198.566C307.444 198.566 305.904 200.085 305.904 201.97V217.067C305.904 218.931 307.423 220.471 309.308 220.471C311.172 220.471 312.712 218.951 312.712 217.067V201.97C312.712 200.106 311.192 198.566 309.308 198.566Z" fill="url(#paint56_linear_219_402)"/>
<path d="M336.907 160.531C335.043 160.531 333.503 162.05 333.503 163.935V179.032C333.503 180.896 335.022 182.436 336.907 182.436C338.771 182.436 340.311 180.916 340.311 179.032V163.935C340.311 162.071 338.792 160.531 336.907 160.531Z" fill="url(#paint57_linear_219_402)"/>
<path d="M309.308 174.533C307.444 174.533 305.904 176.053 305.904 177.937V186.225C305.904 188.089 307.423 189.629 309.308 189.629C311.172 189.629 312.712 188.11 312.712 186.225V177.937C312.712 176.073 311.192 174.533 309.308 174.533Z" fill="url(#paint58_linear_219_402)"/>
<path d="M378.124 197.167C379.988 197.167 381.528 195.647 381.528 193.763V131.249C381.528 129.384 380.008 127.844 378.124 127.844C376.259 127.844 374.719 129.364 374.719 131.249V193.763C374.719 195.627 376.239 197.167 378.124 197.167Z" fill="url(#paint59_linear_219_402)"/>
<path d="M391.923 177.593C393.788 177.593 395.328 179.113 395.328 180.997V189.285C395.328 191.149 393.808 192.69 391.923 192.69C390.059 192.69 388.519 191.17 388.519 189.285V180.997C388.519 179.133 390.039 177.593 391.923 177.593Z" fill="url(#paint60_linear_219_402)"/>
<path d="M350.626 152.992C348.762 152.992 347.222 154.512 347.222 156.397V164.684C347.222 166.549 348.742 168.089 350.626 168.089C352.491 168.089 354.031 166.569 354.031 164.684V156.397C354.031 154.532 352.511 152.992 350.626 152.992Z" fill="url(#paint61_linear_219_402)"/>
<path d="M364.324 219.498C362.46 219.498 360.92 217.979 360.92 216.094V153.58C360.92 151.716 362.439 150.176 364.324 150.176C366.188 150.176 367.728 151.695 367.728 153.58V216.094C367.728 217.958 366.209 219.498 364.324 219.498Z" fill="url(#paint62_linear_219_402)"/>
<path d="M350.524 233.015C348.66 233.015 347.12 231.495 347.12 229.61V193.986C347.12 192.122 348.64 190.582 350.524 190.582C352.388 190.582 353.929 192.102 353.929 193.986V229.61C353.929 231.475 352.409 233.015 350.524 233.015Z" fill="url(#paint63_linear_219_402)"/>
<path d="M364.324 103.589C362.46 103.589 360.92 105.108 360.92 106.993V122.089C360.92 123.954 362.439 125.494 364.324 125.494C366.188 125.494 367.728 123.974 367.728 122.089V106.993C367.728 105.129 366.209 103.589 364.324 103.589Z" fill="url(#paint64_linear_219_402)"/>
<path d="M350.524 434.925C348.66 434.925 347.12 436.445 347.12 438.329V470.549C347.12 472.413 348.64 473.953 350.524 473.953C352.388 473.953 353.929 472.433 353.929 470.549V438.329C353.929 436.465 352.409 434.925 350.524 434.925Z" fill="url(#paint65_linear_219_402)"/>
<path d="M323.107 453.527C321.243 453.527 319.703 455.047 319.703 456.931V465.219C319.703 467.083 321.223 468.623 323.107 468.623C324.972 468.623 326.512 467.104 326.512 465.219V456.931C326.512 455.067 324.992 453.527 323.107 453.527Z" fill="url(#paint66_linear_219_402)"/>
<path d="M336.806 461.186C334.941 461.186 333.401 462.706 333.401 464.591V483.274C333.401 485.138 334.921 486.678 336.806 486.678C338.67 486.678 340.21 485.159 340.21 483.274V464.591C340.21 462.726 338.69 461.186 336.806 461.186Z" fill="url(#paint67_linear_219_402)"/>
</g>
<g opacity="0.5">
<path opacity="0.8" d="M349.451 302.297C279.965 302.297 223.51 269.955 223.024 229.509C222.537 188.555 279.662 154.552 350.342 153.722C384.082 153.418 415.997 160.388 440.172 173.621C465.239 187.339 479.16 206.124 479.403 226.489C479.889 267.443 422.765 301.446 352.085 302.276C351.213 302.276 350.322 302.276 349.451 302.276V302.297ZM350.464 163.509C285.173 164.279 232.406 193.824 232.832 229.387C233.237 264.484 285.295 292.509 349.41 292.509C350.281 292.509 351.132 292.509 352.004 292.509C417.294 291.739 470.061 262.174 469.656 226.611C469.454 209.913 457.336 194.148 435.511 182.213C412.796 169.771 382.643 163.124 350.504 163.509H350.464Z" fill="url(#paint68_linear_219_402)"/>
</g>
<g opacity="0.5">
<path opacity="0.8" d="M349.451 244.362C279.965 244.362 223.51 212.021 223.024 171.574C222.537 130.621 279.662 96.6179 350.342 95.7871C384.082 95.4832 415.997 102.454 440.172 115.686C465.239 129.405 479.16 148.19 479.403 168.555C479.889 209.508 422.765 243.511 352.085 244.342C351.213 244.342 350.322 244.342 349.451 244.342V244.362ZM350.464 105.575C285.173 106.345 232.406 135.889 232.832 171.453C233.237 206.55 285.295 234.575 349.41 234.575C350.281 234.575 351.132 234.575 352.004 234.575C417.294 233.805 470.061 204.24 469.656 168.676C469.454 151.979 457.336 136.214 435.511 124.278C412.796 111.836 382.643 105.19 350.504 105.575H350.464Z" fill="url(#paint69_linear_219_402)"/>
</g>
<g opacity="0.5">
<path opacity="0.8" d="M349.451 188.413C279.965 188.413 223.51 156.072 223.024 115.625C222.537 74.672 279.662 40.6691 350.342 39.8383C384.082 39.5343 415.997 46.5051 440.172 59.7375C465.239 73.4561 479.16 92.2408 479.403 112.606C479.889 153.559 422.765 187.562 352.085 188.393C351.213 188.393 350.322 188.393 349.451 188.393V188.413ZM350.464 49.6257C285.173 50.3958 232.406 79.9406 232.832 115.504C233.237 150.601 285.295 178.626 349.41 178.626C350.281 178.626 351.132 178.626 352.004 178.626C417.294 177.856 470.061 148.291 469.656 112.728C469.454 96.0302 457.336 80.2648 435.511 68.3294C412.796 55.8873 382.643 49.2407 350.504 49.6257H350.464Z" fill="url(#paint70_linear_219_402)"/>
</g>
</g>
<path d="M109.381 171.792C109.381 176.767 105.348 180.8 100.373 180.8C95.3979 180.8 91.365 176.767 91.365 171.792C91.365 166.817 95.3979 162.784 100.373 162.784C105.348 162.784 109.381 166.817 109.381 171.792Z" fill="#04F8C5"/>
<path d="M99.0859 179.513H101.66L99.0859 609.316V179.513Z" fill="url(#paint71_linear_219_402)"/>
<path d="M139.637 273.782C139.637 276.808 137.185 279.26 134.16 279.26C131.135 279.26 128.683 276.808 128.683 273.782C128.683 270.757 131.135 268.305 134.16 268.305C137.185 268.305 139.637 270.757 139.637 273.782Z" fill="#04F8C5"/>
<path d="M133.378 278.478H134.943L133.378 539.827V278.478Z" fill="url(#paint72_linear_219_402)"/>
<path d="M560.433 177.27C560.433 180.295 557.981 182.747 554.956 182.747C551.931 182.747 549.479 180.295 549.479 177.27C549.479 174.245 551.931 171.792 554.956 171.792C557.981 171.792 560.433 174.245 560.433 177.27Z" fill="#04F8C5"/>
<path d="M554.174 181.964H555.739L554.174 443.314V181.964Z" fill="url(#paint73_linear_219_402)"/>
<path d="M491.571 19.486C491.571 21.3641 493.094 22.8866 494.972 22.8866C496.85 22.8866 498.373 21.3641 498.373 19.486C498.373 17.6079 496.85 16.0853 494.972 16.0853C493.094 16.0853 491.571 17.6079 491.571 19.486Z" fill="#04F8C5"/>
<path d="M495.458 22.4011H494.486L495.458 184.661V22.4011Z" fill="url(#paint74_linear_219_402)"/>
<path d="M664.667 12.5549C664.667 19.4888 659.046 25.1098 652.112 25.1098C645.178 25.1098 639.557 19.4888 639.557 12.5549C639.557 5.62094 645.178 -0.00012207 652.112 -0.00012207C659.046 -0.00012207 664.667 5.62094 664.667 12.5549Z" fill="#04F8C5"/>
<path d="M650.208 23.6917H654.157L650.208 518.587V23.6917Z" fill="url(#paint75_linear_219_402)"/>
<path d="M30.8833 259.94C30.8833 265.271 26.5623 269.592 21.2321 269.592C15.9018 269.592 11.5808 265.271 11.5808 259.94C11.5808 254.61 15.9018 250.289 21.2321 250.289C26.5623 250.289 30.8833 254.61 30.8833 259.94Z" fill="#04F8C5"/>
<path d="M624.115 329.43C624.115 334.76 619.794 339.081 614.464 339.081C609.133 339.081 604.812 334.76 604.812 329.43C604.812 324.099 609.133 319.778 614.464 319.778C619.794 319.778 624.115 324.099 624.115 329.43Z" fill="#04F8C5"/>
<path d="M14.1552 231.63C14.1552 235.539 10.9864 238.708 7.07759 238.708C3.16875 238.708 0 235.539 0 231.63C0 227.721 3.16875 224.553 7.07759 224.553C10.9864 224.553 14.1552 227.721 14.1552 231.63Z" fill="#04F8C5"/>
<path d="M205.894 65.6285C205.894 69.5373 202.726 72.7061 198.817 72.7061C194.908 72.7061 191.739 69.5373 191.739 65.6285C191.739 61.7196 194.908 58.5509 198.817 58.5509C202.726 58.5509 205.894 61.7196 205.894 65.6285Z" fill="#04F8C5"/>
<path d="M29.5977 229.057C29.5977 230.833 28.1574 232.274 26.3807 232.274C24.6039 232.274 23.1636 230.833 23.1636 229.057C23.1636 227.28 24.6039 225.839 26.3807 225.839C28.1574 225.839 29.5977 227.28 29.5977 229.057Z" fill="#04F8C5"/>
<path d="M256.08 236.777C256.08 238.554 254.64 239.994 252.863 239.994C251.086 239.994 249.646 238.554 249.646 236.777C249.646 235.001 251.086 233.56 252.863 233.56C254.64 233.56 256.08 235.001 256.08 236.777Z" fill="#04F8C5"/>
<path d="M459.211 358.594C459.211 360.371 457.771 361.811 455.994 361.811C454.217 361.811 452.777 360.371 452.777 358.594C452.777 356.818 454.217 355.377 455.994 355.377C457.771 355.377 459.211 356.818 459.211 358.594Z" fill="#04F8C5"/>
<path d="M447.819 96.5125C447.819 98.2892 446.379 99.7296 444.602 99.7296C442.825 99.7296 441.385 98.2892 441.385 96.5125C441.385 94.7357 442.825 93.2954 444.602 93.2954C446.379 93.2954 447.819 94.7357 447.819 96.5125Z" fill="#04F8C5"/>
<g opacity="0.75" filter="url(#filter2_b_219_402)">
<rect x="504.109" y="354.061" width="171.107" height="52.6485" rx="10.6667" fill="#03F8C5"/>
<path d="M641.802 388.739H641.149C640.962 388.739 640.869 388.645 640.869 388.459V387.432C640.869 387.245 640.962 387.152 641.149 387.152H641.821C642.53 387.152 642.81 386.891 643.127 386.032L643.445 385.192L639.973 376.045C639.879 375.803 640.029 375.672 640.29 375.672H641.279C641.503 375.672 641.615 375.747 641.69 375.952L643.277 380.208L644.266 382.821H644.359L646.954 375.952C647.029 375.747 647.141 375.672 647.365 375.672H648.41C648.653 375.672 648.727 375.821 648.634 376.083L644.863 386.032C644.098 388.048 643.482 388.739 641.802 388.739Z" fill="#00150E"/>
<path d="M638.952 377.165H636.432V382.299C636.432 383.344 636.787 383.699 637.832 383.699H638.952C639.139 383.699 639.232 383.792 639.232 383.979V384.912C639.232 385.099 639.139 385.192 638.952 385.192H637.646C635.686 385.192 634.752 384.259 634.752 382.299V377.165H633.259C633.072 377.165 632.979 377.072 632.979 376.885V375.952C632.979 375.765 633.072 375.672 633.259 375.672H634.752V374.179C634.752 373.992 634.846 373.899 635.032 373.899H636.152C636.339 373.899 636.432 373.992 636.432 374.179V375.672H638.952C639.139 375.672 639.232 375.765 639.232 375.952V376.885C639.232 377.072 639.139 377.165 638.952 377.165Z" fill="#00150E"/>
<path d="M631.135 374.552H629.829C629.642 374.552 629.549 374.459 629.549 374.272V373.059C629.549 372.872 629.642 372.779 629.829 372.779H631.135C631.322 372.779 631.415 372.872 631.415 373.059V374.272C631.415 374.459 631.322 374.552 631.135 374.552ZM631.042 385.192H629.922C629.735 385.192 629.642 385.099 629.642 384.912V375.952C629.642 375.765 629.735 375.672 629.922 375.672H631.042C631.229 375.672 631.322 375.765 631.322 375.952V384.912C631.322 385.099 631.229 385.192 631.042 385.192Z" fill="#00150E"/>
<path d="M623.591 385.192H622.471C622.284 385.192 622.191 385.099 622.191 384.912V375.952C622.191 375.765 622.284 375.672 622.471 375.672H623.591C623.778 375.672 623.871 375.765 623.871 375.952V376.605H623.964C624.207 376.139 624.86 375.579 626.018 375.579H627.698C627.884 375.579 627.978 375.672 627.978 375.859V376.979C627.978 377.165 627.884 377.259 627.698 377.259H625.271C624.226 377.259 623.871 377.613 623.871 378.659V384.912C623.871 385.099 623.778 385.192 623.591 385.192Z" fill="#00150E"/>
<path d="M615.402 385.285H614.095C612.135 385.285 611.202 384.352 611.202 382.392V375.952C611.202 375.765 611.295 375.672 611.482 375.672H612.602C612.788 375.672 612.882 375.765 612.882 375.952V382.299C612.882 383.344 613.236 383.699 614.282 383.699H616.148C617.194 383.699 617.548 383.344 617.548 382.299V375.952C617.548 375.765 617.642 375.672 617.828 375.672H618.948C619.135 375.672 619.228 375.765 619.228 375.952V384.912C619.228 385.099 619.135 385.192 618.948 385.192H617.828C617.642 385.192 617.548 385.099 617.548 384.912V384.259H617.455C617.194 384.744 616.559 385.285 615.402 385.285Z" fill="#00150E"/>
<path d="M605.815 385.285H603.668C601.708 385.285 600.775 384.352 600.775 382.392V378.472C600.775 376.512 601.708 375.579 603.668 375.579H605.815C607.775 375.579 608.708 376.512 608.708 378.472V378.845C608.708 379.032 608.615 379.125 608.428 379.125H607.308C607.122 379.125 607.028 379.032 607.028 378.845V378.472C607.028 377.427 606.674 377.072 605.628 377.072H603.855C602.81 377.072 602.455 377.427 602.455 378.472V382.392C602.455 383.437 602.81 383.792 603.855 383.792H605.628C606.674 383.792 607.028 383.437 607.028 382.392V382.019C607.028 381.832 607.122 381.739 607.308 381.739H608.428C608.615 381.739 608.708 381.832 608.708 382.019V382.392C608.708 384.352 607.775 385.285 605.815 385.285Z" fill="#00150E"/>
<path d="M593.228 375.579H595.561C597.521 375.579 598.454 376.512 598.454 378.472V380.712C598.454 380.899 598.361 380.992 598.174 380.992H592.014V382.392C592.014 383.437 592.369 383.792 593.414 383.792H595.561C596.308 383.792 596.681 383.419 596.681 382.672V382.299C596.681 382.112 596.774 382.019 596.961 382.019H598.081C598.268 382.019 598.361 382.112 598.361 382.299V382.672C598.361 384.445 597.521 385.285 595.561 385.285H593.228C591.268 385.285 590.334 384.352 590.334 382.392V378.472C590.334 376.512 591.268 375.579 593.228 375.579ZM592.014 379.499H596.774V378.472C596.774 377.427 596.42 377.072 595.374 377.072H593.414C592.369 377.072 592.014 377.427 592.014 378.472V379.499Z" fill="#00150E"/>
<path d="M585.406 385.285H583.072C581.112 385.285 580.272 384.445 580.272 382.672V382.299C580.272 382.112 580.366 382.019 580.552 382.019H581.672C581.859 382.019 581.952 382.112 581.952 382.299V382.485C581.952 383.363 582.382 383.792 583.259 383.792H585.312C586.152 383.792 586.526 383.419 586.526 382.765V382.112C586.526 381.552 586.152 381.179 585.312 381.179H583.166C581.243 381.179 580.366 380.395 580.366 378.752V378.005C580.366 376.419 581.206 375.579 583.166 375.579H585.312C587.272 375.579 588.112 376.419 588.112 378.192V378.379C588.112 378.565 588.019 378.659 587.832 378.659H586.712C586.526 378.659 586.432 378.565 586.432 378.379V378.192C586.432 377.408 586.003 377.072 585.163 377.072H583.259C582.419 377.072 582.046 377.445 582.046 378.099V378.659C582.046 379.312 582.419 379.685 583.259 379.685H585.499C587.422 379.685 588.206 380.469 588.206 382.019V382.859C588.206 384.445 587.366 385.285 585.406 385.285Z" fill="#00150E"/>
<path d="M574.87 385.192H573.75C573.564 385.192 573.47 385.099 573.47 384.912V375.952C573.47 375.765 573.564 375.672 573.75 375.672H574.87C575.057 375.672 575.15 375.765 575.15 375.952V376.605H575.244C575.486 376.139 576.14 375.579 577.297 375.579H578.977C579.164 375.579 579.257 375.672 579.257 375.859V376.979C579.257 377.165 579.164 377.259 578.977 377.259H576.55C575.505 377.259 575.15 377.613 575.15 378.659V384.912C575.15 385.099 575.057 385.192 574.87 385.192Z" fill="#00150E"/>
<path d="M565.643 375.579H567.977C569.937 375.579 570.87 376.512 570.87 378.472V380.712C570.87 380.899 570.777 380.992 570.59 380.992H564.43V382.392C564.43 383.437 564.785 383.792 565.83 383.792H567.977C568.723 383.792 569.097 383.419 569.097 382.672V382.299C569.097 382.112 569.19 382.019 569.377 382.019H570.497C570.683 382.019 570.777 382.112 570.777 382.299V382.672C570.777 384.445 569.937 385.285 567.977 385.285H565.643C563.683 385.285 562.75 384.352 562.75 382.392V378.472C562.75 376.512 563.683 375.579 565.643 375.579ZM564.43 379.499H569.19V378.472C569.19 377.427 568.835 377.072 567.79 377.072H565.83C564.785 377.072 564.43 377.427 564.43 378.472V379.499Z" fill="#00150E"/>
<path d="M557.449 385.192H552.596C552.409 385.192 552.316 385.099 552.316 384.912V372.405C552.316 372.219 552.409 372.125 552.596 372.125H553.716C553.903 372.125 553.996 372.219 553.996 372.405V376.605H554.089C554.313 376.157 554.985 375.579 556.143 375.579H557.449C559.409 375.579 560.343 376.512 560.343 378.472V382.299C560.343 384.259 559.409 385.192 557.449 385.192ZM553.996 378.472V383.699H557.263C558.308 383.699 558.663 383.344 558.663 382.299V378.472C558.663 377.427 558.308 377.072 557.263 377.072H555.396C554.351 377.072 553.996 377.427 553.996 378.472Z" fill="#00150E"/>
<path d="M544.165 388.739H543.511C543.325 388.739 543.231 388.645 543.231 388.459V387.432C543.231 387.245 543.325 387.152 543.511 387.152H544.183C544.893 387.152 545.173 386.891 545.49 386.032L545.807 385.192L542.335 376.045C542.242 375.803 542.391 375.672 542.653 375.672H543.642C543.866 375.672 543.978 375.747 544.053 375.952L545.639 380.208L546.629 382.821H546.722L549.317 375.952C549.391 375.747 549.503 375.672 549.727 375.672H550.773C551.015 375.672 551.09 375.821 550.997 376.083L547.226 386.032C546.461 388.048 545.845 388.739 544.165 388.739Z" fill="#00150E"/>
<path d="M537.933 385.285H533.92C531.773 385.285 530.653 384.165 530.653 382.019V375.299C530.653 373.152 531.773 372.032 533.92 372.032H537.933C540.08 372.032 541.2 373.152 541.2 375.299V375.952C541.2 376.139 541.107 376.232 540.92 376.232H539.707C539.52 376.232 539.427 376.139 539.427 375.952V375.205C539.427 374.179 538.867 373.619 537.84 373.619H534.013C532.987 373.619 532.427 374.179 532.427 375.205V382.112C532.427 383.139 532.987 383.699 534.013 383.699H537.84C538.867 383.699 539.427 383.139 539.427 382.112V381.365C539.427 381.179 539.52 381.085 539.707 381.085H540.92C541.107 381.085 541.2 381.179 541.2 381.365V382.019C541.2 384.165 540.08 385.285 537.933 385.285Z" fill="#00150E"/>
</g>
<defs>
<filter id="filter0_b_219_402" x="-41.5203" y="158.544" width="389.718" height="348.915" filterUnits="userSpaceOnUse" color-interpolation-filters="sRGB">
<feFlood flood-opacity="0" result="BackgroundImageFix"/>
<feGaussianBlur in="BackgroundImageFix" stdDeviation="74.0667"/>
<feComposite in2="SourceAlpha" operator="in" result="effect1_backgroundBlur_219_402"/>
<feBlend mode="normal" in="SourceGraphic" in2="effect1_backgroundBlur_219_402" result="shape"/>
</filter>
<filter id="filter1_b_219_402" x="-132.339" y="319.122" width="467.374" height="348.915" filterUnits="userSpaceOnUse" color-interpolation-filters="sRGB">
<feFlood flood-opacity="0" result="BackgroundImageFix"/>
<feGaussianBlur in="BackgroundImageFix" stdDeviation="74.0667"/>
<feComposite in2="SourceAlpha" operator="in" result="effect1_backgroundBlur_219_402"/>
<feBlend mode="normal" in="SourceGraphic" in2="effect1_backgroundBlur_219_402" result="shape"/>
</filter>
<filter id="filter2_b_219_402" x="355.976" y="205.928" width="467.374" height="348.915" filterUnits="userSpaceOnUse" color-interpolation-filters="sRGB">
<feFlood flood-opacity="0" result="BackgroundImageFix"/>
<feGaussianBlur in="BackgroundImageFix" stdDeviation="74.0667"/>
<feComposite in2="SourceAlpha" operator="in" result="effect1_backgroundBlur_219_402"/>
<feBlend mode="normal" in="SourceGraphic" in2="effect1_backgroundBlur_219_402" result="shape"/>
</filter>
<linearGradient id="paint0_linear_219_402" x1="352.551" y1="704.049" x2="352.551" y2="533.751" gradientUnits="userSpaceOnUse">
<stop stop-color="#03F8C5"/>
<stop offset="0.9" stop-color="#03F8C5"/>
<stop offset="1" stop-color="#03F8C5"/>
</linearGradient>
<linearGradient id="paint1_linear_219_402" x1="63.8502" y1="603.114" x2="604.391" y2="603.114" gradientUnits="userSpaceOnUse">
<stop stop-color="#03F8C5"/>
<stop offset="1" stop-color="#03F8C5"/>
</linearGradient>
<linearGradient id="paint2_linear_219_402" x1="122.373" y1="624.959" x2="664.859" y2="624.959" gradientUnits="userSpaceOnUse">
<stop stop-color="#03F8C5"/>
<stop offset="1" stop-color="#03F8C5"/>
</linearGradient>
<linearGradient id="paint3_linear_219_402" x1="30.2733" y1="540.884" x2="572.739" y2="540.884" gradientUnits="userSpaceOnUse">
<stop stop-color="#03F8C5"/>
<stop offset="1" stop-color="#03F8C5"/>
</linearGradient>
<linearGradient id="paint4_linear_219_402" x1="180.51" y1="662.771" x2="664.859" y2="662.771" gradientUnits="userSpaceOnUse">
<stop stop-color="#03F8C5"/>
<stop offset="1" stop-color="#03F8C5"/>
</linearGradient>
<linearGradient id="paint5_linear_219_402" x1="59.4132" y1="712.053" x2="154.228" y2="712.053" gradientUnits="userSpaceOnUse">
<stop stop-color="#03F8C5"/>
<stop offset="1" stop-color="#03F8C5"/>
</linearGradient>
<linearGradient id="paint6_linear_219_402" x1="809.972" y1="442.706" x2="664.073" y2="459.552" gradientUnits="userSpaceOnUse">
<stop stop-color="#00523F"/>
<stop offset="0.14" stop-color="#006851"/>
<stop offset="0.33" stop-color="#008165"/>
<stop offset="0.53" stop-color="#009373"/>
<stop offset="0.75" stop-color="#009D7C"/>
<stop offset="1" stop-color="#01A17F"/>
</linearGradient>
<linearGradient id="paint7_linear_219_402" x1="155.263" y1="527.027" x2="9.36379" y2="510.181" gradientUnits="userSpaceOnUse">
<stop stop-color="#00523F"/>
<stop offset="1" stop-color="#01785E"/>
</linearGradient>
<linearGradient id="paint8_linear_219_402" x1="458.45" y1="629.377" x2="244.017" y2="536.528" gradientUnits="userSpaceOnUse">
<stop stop-color="#00523F"/>
<stop offset="1" stop-color="#03F8C5"/>
</linearGradient>
<linearGradient id="paint9_linear_219_402" x1="788.067" y1="404.764" x2="642.168" y2="421.611" gradientUnits="userSpaceOnUse">
<stop stop-color="#00523F"/>
<stop offset="0.14" stop-color="#006851"/>
<stop offset="0.33" stop-color="#008165"/>
<stop offset="0.53" stop-color="#009373"/>
<stop offset="0.75" stop-color="#009D7C"/>
<stop offset="1" stop-color="#01A17F"/>
</linearGradient>
<linearGradient id="paint10_linear_219_402" x1="177.158" y1="489.103" x2="31.259" y2="472.257" gradientUnits="userSpaceOnUse">
<stop stop-color="#00523F"/>
<stop offset="1" stop-color="#01785E"/>
</linearGradient>
<linearGradient id="paint11_linear_219_402" x1="458.45" y1="578.798" x2="244.017" y2="485.949" gradientUnits="userSpaceOnUse">
<stop stop-color="#00523F"/>
<stop offset="1" stop-color="#03F8C5"/>
</linearGradient>
<linearGradient id="paint12_linear_219_402" x1="766.283" y1="367.034" x2="620.384" y2="383.88" gradientUnits="userSpaceOnUse">
<stop stop-color="#00523F"/>
<stop offset="0.14" stop-color="#006851"/>
<stop offset="0.33" stop-color="#008165"/>
<stop offset="0.53" stop-color="#009373"/>
<stop offset="0.75" stop-color="#009D7C"/>
<stop offset="1" stop-color="#01A17F"/>
</linearGradient>
<linearGradient id="paint13_linear_219_402" x1="198.942" y1="451.373" x2="53.0427" y2="434.526" gradientUnits="userSpaceOnUse">
<stop stop-color="#00523F"/>
<stop offset="1" stop-color="#01785E"/>
</linearGradient>
<linearGradient id="paint14_linear_219_402" x1="458.45" y1="528.483" x2="244.017" y2="435.634" gradientUnits="userSpaceOnUse">
<stop stop-color="#00523F"/>
<stop offset="1" stop-color="#03F8C5"/>
</linearGradient>
<linearGradient id="paint15_linear_219_402" x1="351.213" y1="441.166" x2="351.213" y2="515.494" gradientUnits="userSpaceOnUse">
<stop stop-color="#00523F"/>
<stop offset="0.14" stop-color="#006851"/>
<stop offset="0.33" stop-color="#008165"/>
<stop offset="0.53" stop-color="#009373"/>
<stop offset="0.75" stop-color="#009D7C"/>
<stop offset="1" stop-color="#01A17F"/>
</linearGradient>
<linearGradient id="paint16_linear_219_402" x1="351.428" y1="100.69" x2="351.274" y2="515.19" gradientUnits="userSpaceOnUse">
<stop stop-color="#01A17F"/>
<stop offset="1" stop-color="#03F8C5"/>
</linearGradient>
<linearGradient id="paint17_linear_219_402" x1="351.274" y1="28.9567" x2="351.274" y2="541.574" gradientUnits="userSpaceOnUse">
<stop stop-color="#03F8C5"/>
<stop offset="1" stop-color="#03F8C5"/>
</linearGradient>
<linearGradient id="paint18_linear_219_402" x1="364.324" y1="458.795" x2="364.324" y2="484.287" gradientUnits="userSpaceOnUse">
<stop stop-color="white"/>
<stop offset="1" stop-color="#03F8C5" stop-opacity="0"/>
</linearGradient>
<linearGradient id="paint19_linear_219_402" x1="309.308" y1="391.742" x2="309.308" y2="461.065" gradientUnits="userSpaceOnUse">
<stop stop-color="white"/>
<stop offset="1" stop-color="#03F8C5" stop-opacity="0"/>
</linearGradient>
<linearGradient id="paint20_linear_219_402" x1="323.107" y1="358.286" x2="323.107" y2="400.739" gradientUnits="userSpaceOnUse">
<stop stop-color="white"/>
<stop offset="1" stop-color="#03F8C5" stop-opacity="0"/>
</linearGradient>
<linearGradient id="paint21_linear_219_402" x1="309.308" y1="333.99" x2="309.308" y2="355.895" gradientUnits="userSpaceOnUse">
<stop stop-color="white"/>
<stop offset="1" stop-color="#03F8C5" stop-opacity="0"/>
</linearGradient>
<linearGradient id="paint22_linear_219_402" x1="323.107" y1="279.115" x2="323.107" y2="348.438" gradientUnits="userSpaceOnUse">
<stop stop-color="white"/>
<stop offset="1" stop-color="#03F8C5" stop-opacity="0"/>
</linearGradient>
<linearGradient id="paint23_linear_219_402" x1="336.907" y1="377.74" x2="336.907" y2="447.063" gradientUnits="userSpaceOnUse">
<stop stop-color="white"/>
<stop offset="1" stop-color="#03F8C5" stop-opacity="0"/>
</linearGradient>
<linearGradient id="paint24_linear_219_402" x1="336.907" y1="252.528" x2="336.907" y2="294.981" gradientUnits="userSpaceOnUse">
<stop stop-color="white"/>
<stop offset="1" stop-color="#03F8C5" stop-opacity="0"/>
</linearGradient>
<linearGradient id="paint25_linear_219_402" x1="323.107" y1="227.969" x2="323.107" y2="270.422" gradientUnits="userSpaceOnUse">
<stop stop-color="white"/>
<stop offset="1" stop-color="#03F8C5" stop-opacity="0"/>
</linearGradient>
<linearGradient id="paint26_linear_219_402" x1="350.627" y1="49.6058" x2="350.627" y2="92.0385" gradientUnits="userSpaceOnUse">
<stop stop-color="white"/>
<stop offset="1" stop-color="#03F8C5" stop-opacity="0"/>
</linearGradient>
<linearGradient id="paint27_linear_219_402" x1="309.308" y1="88.4923" x2="309.308" y2="130.945" gradientUnits="userSpaceOnUse">
<stop stop-color="white"/>
<stop offset="1" stop-color="#03F8C5" stop-opacity="0"/>
</linearGradient>
<linearGradient id="paint28_linear_219_402" x1="323.107" y1="73.2538" x2="323.107" y2="95.1591" gradientUnits="userSpaceOnUse">
<stop stop-color="white"/>
<stop offset="1" stop-color="#03F8C5" stop-opacity="0"/>
</linearGradient>
<linearGradient id="paint29_linear_219_402" x1="350.524" y1="276.764" x2="350.524" y2="298.67" gradientUnits="userSpaceOnUse">
<stop stop-color="white"/>
<stop offset="1" stop-color="#03F8C5" stop-opacity="0"/>
</linearGradient>
<linearGradient id="paint30_linear_219_402" x1="336.907" y1="314.881" x2="336.907" y2="336.786" gradientUnits="userSpaceOnUse">
<stop stop-color="white"/>
<stop offset="1" stop-color="#03F8C5" stop-opacity="0"/>
</linearGradient>
<linearGradient id="paint31_linear_219_402" x1="309.308" y1="292.509" x2="309.308" y2="307.606" gradientUnits="userSpaceOnUse">
<stop stop-color="white"/>
<stop offset="1" stop-color="#03F8C5" stop-opacity="0"/>
</linearGradient>
<linearGradient id="paint32_linear_219_402" x1="391.923" y1="387.953" x2="391.923" y2="457.275" gradientUnits="userSpaceOnUse">
<stop stop-color="white"/>
<stop offset="1" stop-color="#03F8C5" stop-opacity="0"/>
</linearGradient>
<linearGradient id="paint33_linear_219_402" x1="391.923" y1="340.575" x2="391.923" y2="362.481" gradientUnits="userSpaceOnUse">
<stop stop-color="white"/>
<stop offset="1" stop-color="#03F8C5" stop-opacity="0"/>
</linearGradient>
<linearGradient id="paint34_linear_219_402" x1="378.124" y1="415.471" x2="378.124" y2="468.623" gradientUnits="userSpaceOnUse">
<stop stop-color="white"/>
<stop offset="1" stop-color="#03F8C5" stop-opacity="0"/>
</linearGradient>
<linearGradient id="paint35_linear_219_402" x1="378.124" y1="282.195" x2="378.124" y2="351.518" gradientUnits="userSpaceOnUse">
<stop stop-color="white"/>
<stop offset="1" stop-color="#03F8C5" stop-opacity="0"/>
</linearGradient>
<linearGradient id="paint36_linear_219_402" x1="391.923" y1="91.552" x2="391.923" y2="134.005" gradientUnits="userSpaceOnUse">
<stop stop-color="white"/>
<stop offset="1" stop-color="#03F8C5" stop-opacity="0"/>
</linearGradient>
<linearGradient id="paint37_linear_219_402" x1="378.124" y1="76.334" x2="378.124" y2="98.2393" gradientUnits="userSpaceOnUse">
<stop stop-color="white"/>
<stop offset="1" stop-color="#03F8C5" stop-opacity="0"/>
</linearGradient>
<linearGradient id="paint38_linear_219_402" x1="391.923" y1="317.941" x2="391.923" y2="333.037" gradientUnits="userSpaceOnUse">
<stop stop-color="white"/>
<stop offset="1" stop-color="#03F8C5" stop-opacity="0"/>
</linearGradient>
<linearGradient id="paint39_linear_219_402" x1="350.627" y1="307.343" x2="350.627" y2="322.439" gradientUnits="userSpaceOnUse">
<stop stop-color="white"/>
<stop offset="1" stop-color="#03F8C5" stop-opacity="0"/>
</linearGradient>
<linearGradient id="paint40_linear_219_402" x1="378.124" y1="212.933" x2="378.124" y2="228.029" gradientUnits="userSpaceOnUse">
<stop stop-color="white"/>
<stop offset="1" stop-color="#03F8C5" stop-opacity="0"/>
</linearGradient>
<linearGradient id="paint41_linear_219_402" x1="336.907" y1="58.1772" x2="336.907" y2="73.2739" gradientUnits="userSpaceOnUse">
<stop stop-color="white"/>
<stop offset="1" stop-color="#03F8C5" stop-opacity="0"/>
</linearGradient>
<linearGradient id="paint42_linear_219_402" x1="364.324" y1="65.7156" x2="364.324" y2="80.8122" gradientUnits="userSpaceOnUse">
<stop stop-color="white"/>
<stop offset="1" stop-color="#03F8C5" stop-opacity="0"/>
</linearGradient>
<linearGradient id="paint43_linear_219_402" x1="364.324" y1="386.129" x2="364.324" y2="428.582" gradientUnits="userSpaceOnUse">
<stop stop-color="white"/>
<stop offset="1" stop-color="#03F8C5" stop-opacity="0"/>
</linearGradient>
<linearGradient id="paint44_linear_219_402" x1="350.524" y1="480.701" x2="350.524" y2="502.606" gradientUnits="userSpaceOnUse">
<stop stop-color="white"/>
<stop offset="1" stop-color="#03F8C5" stop-opacity="0"/>
</linearGradient>
<linearGradient id="paint45_linear_219_402" x1="378.124" y1="251.657" x2="378.124" y2="273.563" gradientUnits="userSpaceOnUse">
<stop stop-color="white"/>
<stop offset="1" stop-color="#03F8C5" stop-opacity="0"/>
</linearGradient>
<linearGradient id="paint46_linear_219_402" x1="391.923" y1="198.566" x2="391.923" y2="220.471" gradientUnits="userSpaceOnUse">
<stop stop-color="white"/>
<stop offset="1" stop-color="#03F8C5" stop-opacity="0"/>
</linearGradient>
<linearGradient id="paint47_linear_219_402" x1="364.324" y1="304.526" x2="364.324" y2="373.849" gradientUnits="userSpaceOnUse">
<stop stop-color="white"/>
<stop offset="1" stop-color="#03F8C5" stop-opacity="0"/>
</linearGradient>
<linearGradient id="paint48_linear_219_402" x1="350.524" y1="344.932" x2="350.524" y2="387.365" gradientUnits="userSpaceOnUse">
<stop stop-color="white"/>
<stop offset="1" stop-color="#03F8C5" stop-opacity="0"/>
</linearGradient>
<linearGradient id="paint49_linear_219_402" x1="364.324" y1="233.42" x2="364.324" y2="255.325" gradientUnits="userSpaceOnUse">
<stop stop-color="white"/>
<stop offset="1" stop-color="#03F8C5" stop-opacity="0"/>
</linearGradient>
<linearGradient id="paint50_linear_219_402" x1="336.907" y1="209.529" x2="336.907" y2="224.625" gradientUnits="userSpaceOnUse">
<stop stop-color="white"/>
<stop offset="1" stop-color="#03F8C5" stop-opacity="0"/>
</linearGradient>
<linearGradient id="paint51_linear_219_402" x1="309.308" y1="269.226" x2="309.308" y2="284.323" gradientUnits="userSpaceOnUse">
<stop stop-color="white"/>
<stop offset="1" stop-color="#03F8C5" stop-opacity="0"/>
</linearGradient>
<linearGradient id="paint52_linear_219_402" x1="391.923" y1="269.226" x2="391.923" y2="284.323" gradientUnits="userSpaceOnUse">
<stop stop-color="white"/>
<stop offset="1" stop-color="#03F8C5" stop-opacity="0"/>
</linearGradient>
<linearGradient id="paint53_linear_219_402" x1="323.107" y1="142.921" x2="323.107" y2="212.244" gradientUnits="userSpaceOnUse">
<stop stop-color="white"/>
<stop offset="1" stop-color="#03F8C5" stop-opacity="0"/>
</linearGradient>
<linearGradient id="paint54_linear_219_402" x1="336.907" y1="98.178" x2="336.907" y2="140.631" gradientUnits="userSpaceOnUse">
<stop stop-color="white"/>
<stop offset="1" stop-color="#03F8C5" stop-opacity="0"/>
</linearGradient>
<linearGradient id="paint55_linear_219_402" x1="350.524" y1="122.414" x2="350.524" y2="144.319" gradientUnits="userSpaceOnUse">
<stop stop-color="white"/>
<stop offset="1" stop-color="#03F8C5" stop-opacity="0"/>
</linearGradient>
<linearGradient id="paint56_linear_219_402" x1="309.308" y1="198.566" x2="309.308" y2="220.471" gradientUnits="userSpaceOnUse">
<stop stop-color="white"/>
<stop offset="1" stop-color="#03F8C5" stop-opacity="0"/>
</linearGradient>
<linearGradient id="paint57_linear_219_402" x1="336.907" y1="160.531" x2="336.907" y2="182.436" gradientUnits="userSpaceOnUse">
<stop stop-color="white"/>
<stop offset="1" stop-color="#03F8C5" stop-opacity="0"/>
</linearGradient>
<linearGradient id="paint58_linear_219_402" x1="309.308" y1="174.533" x2="309.308" y2="189.629" gradientUnits="userSpaceOnUse">
<stop stop-color="white"/>
<stop offset="1" stop-color="#03F8C5" stop-opacity="0"/>
</linearGradient>
<linearGradient id="paint59_linear_219_402" x1="378.124" y1="127.844" x2="378.124" y2="197.167" gradientUnits="userSpaceOnUse">
<stop stop-color="white"/>
<stop offset="1" stop-color="#03F8C5" stop-opacity="0"/>
</linearGradient>
<linearGradient id="paint60_linear_219_402" x1="391.923" y1="177.593" x2="391.923" y2="192.69" gradientUnits="userSpaceOnUse">
<stop stop-color="white"/>
<stop offset="1" stop-color="#03F8C5" stop-opacity="0"/>
</linearGradient>
<linearGradient id="paint61_linear_219_402" x1="350.627" y1="152.992" x2="350.627" y2="168.089" gradientUnits="userSpaceOnUse">
<stop stop-color="white"/>
<stop offset="1" stop-color="#03F8C5" stop-opacity="0"/>
</linearGradient>
<linearGradient id="paint62_linear_219_402" x1="364.324" y1="150.176" x2="364.324" y2="219.498" gradientUnits="userSpaceOnUse">
<stop stop-color="white"/>
<stop offset="1" stop-color="#03F8C5" stop-opacity="0"/>
</linearGradient>
<linearGradient id="paint63_linear_219_402" x1="350.524" y1="190.582" x2="350.524" y2="233.015" gradientUnits="userSpaceOnUse">
<stop stop-color="white"/>
<stop offset="1" stop-color="#03F8C5" stop-opacity="0"/>
</linearGradient>
<linearGradient id="paint64_linear_219_402" x1="364.324" y1="103.589" x2="364.324" y2="125.494" gradientUnits="userSpaceOnUse">
<stop stop-color="white"/>
<stop offset="1" stop-color="#03F8C5" stop-opacity="0"/>
</linearGradient>
<linearGradient id="paint65_linear_219_402" x1="350.524" y1="434.925" x2="350.524" y2="473.953" gradientUnits="userSpaceOnUse">
<stop stop-color="white"/>
<stop offset="1" stop-color="#03F8C5" stop-opacity="0"/>
</linearGradient>
<linearGradient id="paint66_linear_219_402" x1="323.107" y1="453.527" x2="323.107" y2="468.623" gradientUnits="userSpaceOnUse">
<stop stop-color="white"/>
<stop offset="1" stop-color="#03F8C5" stop-opacity="0"/>
</linearGradient>
<linearGradient id="paint67_linear_219_402" x1="336.806" y1="461.186" x2="336.806" y2="486.678" gradientUnits="userSpaceOnUse">
<stop stop-color="white"/>
<stop offset="1" stop-color="#03F8C5" stop-opacity="0"/>
</linearGradient>
<linearGradient id="paint68_linear_219_402" x1="351.213" y1="302.297" x2="351.213" y2="153.701" gradientUnits="userSpaceOnUse">
<stop stop-color="#03F8C5"/>
<stop offset="1" stop-color="#03F8C5" stop-opacity="0.6"/>
</linearGradient>
<linearGradient id="paint69_linear_219_402" x1="351.213" y1="244.362" x2="351.213" y2="95.7871" gradientUnits="userSpaceOnUse">
<stop stop-color="#03F8C5"/>
<stop offset="1" stop-color="#03F8C5" stop-opacity="0.6"/>
</linearGradient>
<linearGradient id="paint70_linear_219_402" x1="351.213" y1="188.413" x2="351.213" y2="39.8383" gradientUnits="userSpaceOnUse">
<stop stop-color="#03F8C5"/>
<stop offset="1" stop-color="#03F8C5" stop-opacity="0.37"/>
</linearGradient>
<linearGradient id="paint71_linear_219_402" x1="100.373" y1="179.513" x2="100.373" y2="609.316" gradientUnits="userSpaceOnUse">
<stop stop-color="#03F8C5"/>
<stop offset="1" stop-color="#03F8C5" stop-opacity="0"/>
</linearGradient>
<linearGradient id="paint72_linear_219_402" x1="134.161" y1="278.478" x2="134.161" y2="539.827" gradientUnits="userSpaceOnUse">
<stop stop-color="#03F8C5"/>
<stop offset="1" stop-color="#03F8C5" stop-opacity="0"/>
</linearGradient>
<linearGradient id="paint73_linear_219_402" x1="554.956" y1="181.964" x2="554.956" y2="443.314" gradientUnits="userSpaceOnUse">
<stop stop-color="#03F8C5"/>
<stop offset="1" stop-color="#03F8C5" stop-opacity="0"/>
</linearGradient>
<linearGradient id="paint74_linear_219_402" x1="494.972" y1="22.4011" x2="494.972" y2="184.661" gradientUnits="userSpaceOnUse">
<stop stop-color="#03F8C5"/>
<stop offset="1" stop-color="#03F8C5" stop-opacity="0"/>
</linearGradient>
<linearGradient id="paint75_linear_219_402" x1="652.183" y1="23.6917" x2="652.183" y2="518.587" gradientUnits="userSpaceOnUse">
<stop stop-color="#03F8C5"/>
<stop offset="1" stop-color="#03F8C5" stop-opacity="0"/>
</linearGradient>
<clipPath id="clip0_219_402">
<rect width="634.585" height="791.043" fill="white" transform="translate(30.2729 28.9565)"/>
</clipPath>
</defs>
</svg>
