<svg width="705" height="468" viewBox="0 0 705 468" fill="none" xmlns="http://www.w3.org/2000/svg">
<g clip-path="url(#clip0_173_587)">
<path d="M163.594 208.401C163.017 208.401 162.453 208.449 161.894 208.518C160.48 202.916 158.246 197.638 155.317 192.825C155.758 192.477 156.189 192.112 156.597 191.702C162.055 186.23 162.029 177.385 156.538 171.943C151.046 166.504 142.169 166.53 136.71 172.002C136.302 172.409 135.936 172.841 135.592 173.283C130.747 170.391 125.437 168.197 119.807 166.821C119.873 166.264 119.917 165.701 119.914 165.126C119.891 157.408 113.597 151.174 105.853 151.194C98.1092 151.217 91.8506 157.49 91.8737 165.208C91.8737 165.783 91.9224 166.346 91.9917 166.903C86.3691 168.312 81.0724 170.537 76.245 173.457C75.8962 173.017 75.5268 172.588 75.119 172.181C69.6273 166.742 60.7497 166.768 55.2914 172.24C49.833 177.712 49.8587 186.557 55.3504 191.999C55.7608 192.403 56.1917 192.769 56.638 193.114C53.737 197.942 51.5336 203.233 50.1536 208.846C49.5945 208.779 49.0302 208.736 48.453 208.738C40.7093 208.761 34.4506 215.034 34.4737 222.752C34.4968 230.469 40.7913 236.703 48.5351 236.683C49.1123 236.683 49.6766 236.634 50.2357 236.565C51.6491 242.168 53.8832 247.446 56.8124 252.259C56.3713 252.606 55.9403 252.975 55.5325 253.381C50.0741 258.854 50.0998 267.699 55.5915 273.14C61.0832 278.579 69.9607 278.554 75.4191 273.082C75.8269 272.675 76.1937 272.243 76.5374 271.8C81.3827 274.693 86.6923 276.887 92.3225 278.262C92.2559 278.82 92.2122 279.382 92.2148 279.958C92.2379 287.673 98.5324 293.91 106.276 293.889C114.02 293.866 120.279 287.593 120.256 279.876C120.256 279.301 120.207 278.738 120.138 278.181C125.76 276.772 131.057 274.547 135.884 271.627C136.233 272.066 136.602 272.496 137.01 272.903C142.502 278.342 151.38 278.316 156.838 272.844C162.296 267.371 162.271 258.526 156.779 253.085C156.368 252.681 155.938 252.315 155.491 251.97C158.392 247.142 160.596 241.851 161.976 236.238C162.535 236.304 163.099 236.348 163.676 236.345C171.42 236.322 177.679 230.05 177.656 222.332C177.632 214.617 171.338 208.38 163.594 208.401ZM106.138 248.487C91.7582 248.528 80.0669 236.946 80.0233 222.616C79.9822 208.286 91.6043 196.635 105.984 196.594C120.363 196.553 132.055 208.135 132.098 222.465C132.142 236.795 120.517 248.446 106.138 248.487Z" fill="white"/>
<path d="M106.23 294.449C102.349 294.449 98.702 292.948 95.9471 290.222C93.1846 287.486 91.6559 283.839 91.6456 279.958C91.6456 279.559 91.6636 279.142 91.7046 278.689C86.4181 277.352 81.3625 275.283 76.6659 272.534C76.3761 272.884 76.0939 273.196 75.8143 273.478C70.1456 279.162 60.8911 279.188 55.1865 273.539C52.4239 270.803 50.8952 267.156 50.8849 263.275C50.8721 259.393 52.3803 255.736 55.1275 252.985C55.4096 252.703 55.72 252.42 56.0714 252.131C53.2858 247.466 51.1799 242.444 49.8076 237.181C49.3536 237.225 48.9329 237.248 48.5328 237.248H48.4892C44.6083 237.248 40.9609 235.747 38.2086 233.021C35.4461 230.285 33.9173 226.638 33.9071 222.756C33.8942 218.875 35.4025 215.22 38.1496 212.466C40.8967 209.712 44.5545 208.191 48.4507 208.178C48.8432 208.178 49.269 208.196 49.723 208.237C51.067 202.969 53.1421 197.931 55.8995 193.252C55.5481 192.963 55.2352 192.682 54.953 192.403C52.1905 189.667 50.6618 186.02 50.6515 182.138C50.6387 178.257 52.1469 174.602 54.894 171.848C60.5653 166.164 69.8173 166.136 75.5219 171.787C75.8066 172.068 76.0888 172.378 76.3812 172.726C81.0624 169.951 86.1026 167.852 91.3814 166.483C91.3378 166.031 91.3147 165.614 91.3147 165.215C91.2916 157.201 97.8145 150.66 105.858 150.637H105.902C113.925 150.637 120.464 157.129 120.487 165.128C120.487 165.53 120.469 165.941 120.428 166.397C125.714 167.734 130.77 169.803 135.466 172.552C135.756 172.201 136.036 171.892 136.318 171.608C141.987 165.923 151.241 165.895 156.946 171.547C159.708 174.283 161.237 177.929 161.247 181.811C161.26 185.693 159.752 189.347 157.005 192.101C156.723 192.382 156.412 192.666 156.063 192.955C158.849 197.619 160.955 202.644 162.327 207.904C162.784 207.861 163.202 207.838 163.599 207.838H163.643C167.524 207.838 171.171 209.339 173.926 212.065C176.689 214.801 178.218 218.448 178.228 222.329C178.251 230.344 171.728 236.885 163.684 236.908C163.294 236.908 162.866 236.89 162.409 236.849C161.065 242.119 158.99 247.154 156.233 251.834C156.584 252.123 156.897 252.402 157.182 252.683C159.944 255.419 161.473 259.066 161.483 262.947C161.496 266.829 159.988 270.483 157.241 273.237C151.57 278.922 142.318 278.95 136.613 273.299C136.331 273.017 136.046 272.708 135.754 272.36C131.073 275.135 126.032 277.234 120.753 278.602C120.797 279.055 120.82 279.474 120.82 279.871C120.833 283.752 119.325 287.407 116.578 290.161C113.83 292.915 110.173 294.436 106.276 294.449H106.233H106.23ZM76.5351 271.235C76.6351 271.235 76.7352 271.261 76.8249 271.314C81.6856 274.214 86.9439 276.367 92.4562 277.712C92.7332 277.779 92.9179 278.045 92.882 278.326C92.8101 278.927 92.7768 279.462 92.7768 279.955C92.787 283.535 94.1978 286.9 96.7449 289.424C99.2842 291.94 102.652 293.324 106.23 293.324H106.271C109.865 293.314 113.24 291.91 115.775 289.368C118.309 286.829 119.699 283.456 119.686 279.876C119.686 279.382 119.648 278.85 119.574 278.249C119.538 277.968 119.72 277.702 119.997 277.633C125.501 276.255 130.747 274.074 135.587 271.146C135.831 270.997 136.149 271.056 136.323 271.279C136.7 271.754 137.054 272.156 137.406 272.503C142.666 277.715 151.203 277.692 156.433 272.447C158.967 269.908 160.355 266.535 160.344 262.955C160.334 259.375 158.923 256.01 156.376 253.486C156.025 253.138 155.622 252.788 155.143 252.417C154.917 252.243 154.858 251.926 155.004 251.683C157.913 246.84 160.073 241.6 161.424 236.107C161.491 235.831 161.763 235.647 162.04 235.683C162.632 235.752 163.158 235.788 163.646 235.788H163.674C171.092 235.765 177.109 229.732 177.089 222.34C177.079 218.76 175.668 215.394 173.121 212.87C170.571 210.346 167.165 208.955 163.594 208.971C163.094 208.971 162.576 209.009 161.96 209.083C161.681 209.119 161.412 208.937 161.342 208.661C159.96 203.179 157.769 197.952 154.83 193.124C154.681 192.881 154.737 192.564 154.963 192.388C155.443 192.012 155.843 191.659 156.192 191.311C158.726 188.772 160.114 185.401 160.103 181.819C160.093 178.236 158.682 174.874 156.135 172.35C150.874 167.138 142.338 167.161 137.108 172.406C136.757 172.759 136.405 173.16 136.033 173.636C135.859 173.861 135.543 173.92 135.297 173.774C130.439 170.874 125.178 168.724 119.668 167.376C119.391 167.309 119.209 167.046 119.243 166.762C119.314 166.146 119.348 165.629 119.348 165.133C119.325 157.753 113.294 151.764 105.894 151.764H105.853C98.4352 151.787 92.4151 157.82 92.4382 165.213C92.4382 165.706 92.4767 166.238 92.5536 166.839C92.5895 167.123 92.4074 167.386 92.1304 167.455C86.6259 168.834 81.3804 171.017 76.5377 173.945C76.294 174.094 75.9759 174.035 75.8015 173.812C75.427 173.337 75.073 172.938 74.7191 172.587C69.4582 167.373 60.9218 167.399 55.6918 172.644C53.1575 175.183 51.7673 178.556 51.7801 182.136C51.7904 185.716 53.1986 189.081 55.7482 191.605C56.097 191.953 56.5023 192.301 56.982 192.674C57.2077 192.848 57.2667 193.165 57.1205 193.408C54.2117 198.251 52.052 203.491 50.7002 208.984C50.631 209.26 50.3668 209.444 50.0846 209.408C49.4716 209.336 48.9483 209.306 48.4507 209.303C44.8571 209.313 41.4816 210.717 38.9473 213.259C36.4131 215.801 35.0228 219.169 35.0357 222.751C35.0459 226.334 36.4567 229.697 39.0038 232.22C41.5534 234.747 44.9136 236.123 48.5302 236.12C49.0227 236.12 49.5588 236.082 50.1641 236.008C50.4412 235.972 50.7131 236.153 50.7823 236.43C52.1649 241.915 54.3554 247.142 57.2949 251.967C57.4437 252.21 57.3872 252.527 57.1615 252.703C56.6844 253.079 56.2817 253.43 55.9329 253.78C53.3986 256.319 52.0084 259.69 52.0212 263.272C52.0315 266.855 53.4422 270.217 55.9893 272.741C61.2502 277.953 69.7865 277.93 75.0166 272.685C75.3654 272.335 75.7169 271.933 76.0913 271.455C76.2016 271.314 76.3684 271.238 76.5377 271.238L76.5351 271.235ZM106.061 249.054C91.4276 249.054 79.5028 237.215 79.4592 222.623C79.4156 208.007 91.3147 196.078 105.984 196.034C106.01 196.034 106.038 196.034 106.064 196.034C113.14 196.034 119.797 198.77 124.816 203.744C129.857 208.735 132.642 215.387 132.663 222.467C132.683 229.548 129.936 236.215 124.927 241.237C119.917 246.259 113.246 249.036 106.138 249.057C106.112 249.057 106.084 249.057 106.058 249.057L106.061 249.054ZM106.064 197.162C106.038 197.162 106.012 197.162 105.987 197.162C91.9406 197.203 80.5494 208.623 80.5904 222.618C80.6314 236.588 92.0509 247.927 106.061 247.927C106.087 247.927 106.112 247.927 106.138 247.927C112.943 247.906 119.33 245.247 124.126 240.439C128.923 235.632 131.555 229.249 131.534 222.47C131.514 215.691 128.846 209.324 124.021 204.544C119.214 199.783 112.84 197.162 106.066 197.162H106.064Z" fill="#002F23"/>
<path d="M81.2086 329.608C80.8495 329.608 80.498 329.638 80.1518 329.682C79.272 326.196 77.8843 322.915 76.0606 319.921C76.335 319.706 76.6044 319.476 76.8557 319.223C80.2518 315.819 80.2339 310.316 76.8198 306.933C73.4032 303.55 67.8833 303.565 64.4872 306.969C64.2333 307.222 64.005 307.491 63.7921 307.767C60.7782 305.969 57.477 304.604 53.9732 303.749C54.0142 303.404 54.0425 303.051 54.0399 302.696C54.0245 297.896 50.1103 294.017 45.2932 294.032C40.4761 294.048 36.5849 297.947 36.5978 302.747C36.5978 303.105 36.6286 303.455 36.6722 303.801C33.1735 304.675 29.88 306.061 26.8789 307.877C26.6635 307.603 26.4326 307.335 26.1787 307.084C22.7621 303.701 17.2422 303.716 13.8461 307.12C10.45 310.523 10.4679 316.026 13.882 319.41C14.1359 319.663 14.4052 319.888 14.6823 320.103C12.8791 323.105 11.5068 326.396 10.6501 329.886C10.3038 329.845 9.94981 329.817 9.5907 329.82C4.7736 329.835 0.88247 333.735 0.895295 338.535C0.910685 343.334 4.8249 347.214 9.64201 347.198C10.0011 347.198 10.3525 347.168 10.6988 347.124C11.5786 350.61 12.9663 353.89 14.79 356.885C14.5155 357.1 14.2462 357.33 13.9948 357.583C10.5988 360.987 10.6167 366.49 14.0308 369.873C17.4474 373.256 22.9673 373.24 26.3634 369.837C26.6173 369.584 26.8456 369.315 27.0585 369.039C30.0724 370.837 33.3735 372.202 36.8774 373.056C36.8363 373.402 36.8081 373.754 36.8107 374.11C36.8261 378.91 40.7403 382.789 45.5574 382.774C50.3745 382.758 54.2656 378.859 54.2528 374.059C54.2528 373.701 54.222 373.35 54.1784 373.005C57.6771 372.131 60.9706 370.745 63.9716 368.929C64.1871 369.203 64.418 369.471 64.6719 369.722C68.0885 373.105 73.6084 373.09 77.0045 369.686C80.4006 366.282 80.3826 360.779 76.9686 357.396C76.7146 357.143 76.4453 356.918 76.1683 356.703C77.9741 353.701 79.3438 350.41 80.2005 346.92C80.5468 346.96 80.9008 346.989 81.2599 346.986C86.077 346.971 89.9681 343.071 89.9553 338.271C89.9399 333.471 86.0257 329.592 81.2086 329.608ZM45.4753 354.54C36.5311 354.565 29.2593 347.362 29.2336 338.45C29.208 329.539 36.4362 322.292 45.3804 322.266C54.3246 322.24 61.5964 329.444 61.6221 338.356C61.6477 347.267 54.4195 354.514 45.4753 354.54Z" fill="white"/>
<path d="M45.5317 383.34C43.0616 383.34 40.7377 382.386 38.9858 380.649C37.2262 378.908 36.2541 376.586 36.2464 374.113C36.2464 373.914 36.2541 373.704 36.2694 373.484C33.0837 372.661 30.0339 371.413 27.1918 369.769C27.0482 369.937 26.9071 370.091 26.7661 370.232C23.1571 373.85 17.2652 373.868 13.6357 370.27C11.8761 368.528 10.904 366.207 10.8963 363.734C10.8886 361.261 11.8479 358.937 13.5972 357.182C13.7383 357.042 13.8922 356.898 14.059 356.755C12.3917 353.932 11.122 350.902 10.2781 347.734C10.0473 347.751 9.83693 347.759 9.61891 347.759C4.51196 347.759 0.348932 343.627 0.333542 338.533C0.325847 336.06 1.28516 333.736 3.03451 331.981C4.78385 330.23 7.11288 329.258 9.59326 329.253C9.7882 329.253 10.0037 329.261 10.2243 329.276C11.0502 326.1 12.3019 323.062 13.9512 320.231C13.7845 320.088 13.6306 319.947 13.487 319.807C11.7274 318.065 10.7552 315.743 10.7475 313.271C10.7398 310.798 11.6991 308.473 13.4485 306.719C17.0575 303.101 22.9493 303.083 26.5814 306.681C26.7224 306.822 26.8661 306.975 27.0097 307.141C29.8415 305.482 32.8836 304.216 36.0642 303.372C36.0463 303.152 36.0386 302.945 36.036 302.743C36.0283 300.27 36.9876 297.946 38.737 296.191C40.4863 294.44 42.8154 293.468 45.2957 293.463H45.324C47.7941 293.463 50.118 294.417 51.8699 296.153C53.6295 297.894 54.6016 300.216 54.6093 302.689C54.6093 302.889 54.6016 303.096 54.5862 303.318C57.772 304.142 60.8218 305.39 63.6638 307.034C63.8075 306.865 63.9486 306.712 64.0896 306.571C67.7012 302.953 73.5905 302.935 77.22 306.533C78.9796 308.274 79.9517 310.596 79.9594 313.069C79.9671 315.541 79.0078 317.866 77.2584 319.62C77.1174 319.761 76.9635 319.904 76.7967 320.047C78.464 322.87 79.7337 325.901 80.5776 329.069C80.7982 329.051 81.0085 329.043 81.2086 329.041H81.2368C86.3437 329.041 90.5067 333.173 90.5221 338.267C90.5298 340.74 89.5705 343.064 87.8212 344.818C86.0718 346.57 83.7428 347.539 81.2624 347.547C81.0572 347.547 80.852 347.539 80.6314 347.524C79.8055 350.7 78.5538 353.738 76.9045 356.569C77.0712 356.712 77.2251 356.852 77.3687 356.993C79.1283 358.737 80.1005 361.056 80.1082 363.529C80.1159 366.002 79.1565 368.326 77.4072 370.081C73.7982 373.699 67.9064 373.717 64.2769 370.119C64.1358 369.978 63.9922 369.825 63.8485 369.659C61.0167 371.318 57.9746 372.584 54.794 373.428C54.812 373.648 54.8197 373.855 54.8222 374.057C54.8299 376.53 53.8706 378.854 52.1213 380.609C50.3719 382.36 48.0429 383.329 45.5625 383.337H45.5343L45.5317 383.34ZM27.0636 368.475C27.1636 368.475 27.2637 368.5 27.3534 368.554C30.3571 370.347 33.607 371.676 37.0159 372.51C37.2929 372.576 37.4776 372.842 37.4417 373.124C37.3981 373.489 37.3775 373.812 37.3775 374.111C37.3827 376.282 38.2368 378.32 39.7835 379.849C41.3277 381.378 43.3592 382.207 45.5574 382.212C47.7351 382.204 49.782 381.355 51.3158 379.816C52.8497 378.276 53.6936 376.233 53.6859 374.062C53.6859 373.766 53.6628 373.443 53.6167 373.075C53.5807 372.794 53.7629 372.528 54.0399 372.459C57.4437 371.607 60.6858 370.257 63.6767 368.447C63.9229 368.298 64.2384 368.357 64.4128 368.58C64.6437 368.869 64.8566 369.111 65.0695 369.321C68.2578 372.482 73.4289 372.466 76.6018 369.288C78.1382 367.749 78.9796 365.705 78.9719 363.534C78.9642 361.363 78.11 359.325 76.5659 357.796C76.353 357.584 76.1067 357.372 75.8169 357.149C75.5912 356.975 75.5322 356.658 75.6784 356.415C77.4765 353.421 78.8128 350.183 79.6465 346.787C79.7157 346.511 79.985 346.33 80.2621 346.363C80.6366 346.406 80.97 346.429 81.2522 346.427C83.4299 346.422 85.4768 345.57 87.0106 344.031C88.5471 342.491 89.3884 340.448 89.3807 338.277C89.3679 333.805 85.7127 330.176 81.2265 330.176H81.2034C80.9008 330.176 80.5878 330.199 80.2133 330.245C79.9286 330.281 79.6644 330.099 79.5952 329.823C78.741 326.435 77.3867 323.203 75.5706 320.219C75.4219 319.976 75.4783 319.658 75.704 319.482C75.9939 319.254 76.2375 319.04 76.4479 318.83C77.9843 317.291 78.8257 315.247 78.818 313.076C78.8128 310.905 77.9587 308.867 76.412 307.338C73.2237 304.18 68.05 304.193 64.8797 307.371C64.6693 307.581 64.4564 307.826 64.2281 308.118C64.0537 308.343 63.7382 308.402 63.492 308.256C60.4883 306.464 57.2385 305.134 53.8296 304.3C53.5525 304.234 53.3704 303.97 53.4038 303.686C53.4474 303.321 53.4679 302.996 53.4679 302.699C53.4628 300.528 52.6086 298.49 51.0619 296.961C49.5229 295.437 47.4811 294.598 45.3137 294.598H45.288C43.1103 294.606 41.0635 295.455 39.5296 296.994C37.9957 298.534 37.1518 300.577 37.1595 302.748C37.1595 303.045 37.1826 303.367 37.2288 303.735C37.2647 304.016 37.0826 304.282 36.8055 304.351C33.4043 305.203 30.1621 306.553 27.1688 308.363C26.9251 308.512 26.607 308.453 26.4326 308.231C26.2017 307.942 25.9889 307.699 25.776 307.486C22.5851 304.328 17.414 304.344 14.2436 307.52C12.7072 309.059 11.8659 311.102 11.8736 313.273C11.8813 315.444 12.7354 317.482 14.2795 319.012C14.4924 319.221 14.7361 319.433 15.0285 319.658C15.2543 319.832 15.3132 320.149 15.167 320.392C13.369 323.387 12.0326 326.624 11.199 330.02C11.1297 330.296 10.8732 330.48 10.5834 330.445C10.2089 330.401 9.86771 330.383 9.59326 330.381C7.41556 330.388 5.36867 331.237 3.83479 332.777C2.29835 334.316 1.45702 336.359 1.46472 338.53C1.47754 343.003 5.13269 346.631 9.61891 346.631H9.64199C9.94466 346.631 10.2576 346.608 10.6321 346.562C10.9194 346.529 11.181 346.708 11.2503 346.984C12.1044 350.375 13.4587 353.607 15.2748 356.589C15.4235 356.832 15.3671 357.149 15.1414 357.326C14.8515 357.553 14.6079 357.768 14.3975 357.978C12.8611 359.517 12.0198 361.56 12.0275 363.731C12.0352 365.902 12.8893 367.94 14.4334 369.469C17.6218 372.628 22.7954 372.615 25.9658 369.436C26.1761 369.224 26.389 368.981 26.6173 368.69C26.7276 368.549 26.8943 368.472 27.0636 368.472V368.475ZM45.4291 355.103C36.2104 355.103 28.6975 347.644 28.6719 338.451C28.659 333.991 30.3904 329.79 33.5454 326.627C36.7004 323.464 40.9044 321.714 45.3804 321.702C45.3983 321.702 45.4137 321.702 45.4317 321.702C49.8897 321.702 54.0835 323.425 57.2462 326.558C60.4217 329.703 62.1761 333.892 62.1889 338.354C62.2018 342.814 60.4704 347.015 57.3154 350.178C54.1604 353.341 49.9564 355.091 45.4804 355.103C45.465 355.103 45.4471 355.103 45.4291 355.103ZM45.4291 322.829H45.3804C41.2071 322.842 37.2852 324.474 34.3431 327.422C31.3985 330.373 29.7851 334.288 29.7979 338.449C29.8236 347.02 36.8286 353.976 45.424 353.976C45.4394 353.976 45.4548 353.976 45.4702 353.976C49.6434 353.963 53.5654 352.331 56.5074 349.383C59.4495 346.432 61.0655 342.517 61.0526 338.356C61.0398 334.196 59.4033 330.291 56.4433 327.358C53.4935 324.435 49.5819 322.829 45.4266 322.829H45.4291Z" fill="#002F23"/>
<path d="M319.827 467.396H124.749C114.438 467.396 106.063 459.049 106.063 448.767L106.063 64.3894C106.063 54.1096 114.436 45.7604 124.749 45.7604H319.827C330.138 45.7604 338.513 54.107 338.513 64.3894L338.513 448.769C338.513 459.049 330.141 467.398 319.827 467.398V467.396Z" fill="white"/>
<path d="M319.824 467.961H124.749C114.135 467.961 105.499 459.351 105.499 448.77V64.3922C105.499 53.8107 114.135 45.2007 124.749 45.2007H319.827C330.441 45.2007 339.077 53.8107 339.077 64.3922V448.77C339.077 459.351 330.441 467.961 319.827 467.961H319.824ZM124.749 46.3258C114.759 46.3258 106.63 54.4295 106.63 64.3896V448.77C106.63 458.73 114.759 466.834 124.749 466.834H319.827C329.818 466.834 337.946 458.73 337.946 448.77V64.3922C337.946 54.432 329.818 46.3284 319.827 46.3284H124.749V46.3258Z" fill="#002F23"/>
<path d="M131.626 454.012H312.95C320.769 454.012 327.109 447.692 327.109 439.896L327.109 72.0993C327.109 64.3035 320.769 57.9838 312.95 57.9838H131.626C123.806 57.9838 117.467 64.3035 117.467 72.0993L117.467 439.896C117.467 447.692 123.806 454.012 131.626 454.012Z" fill="white"/>
<path d="M312.947 454.578H131.626C123.508 454.578 116.903 447.993 116.903 439.897V72.1001C116.903 64.0067 123.508 57.4194 131.626 57.4194H312.95C321.068 57.4194 327.676 64.0041 327.676 72.1001V439.897C327.676 447.99 321.071 454.578 312.95 454.578H312.947ZM131.626 58.5497C124.131 58.5497 118.032 64.6281 118.032 72.1027V439.897C118.032 447.369 124.129 453.45 131.626 453.45H312.95C320.445 453.45 326.545 447.372 326.545 439.897V72.1001C326.545 64.6281 320.447 58.5471 312.95 58.5471H131.626V58.5497Z" fill="#002F23"/>
<path d="M244.069 70.4782H197.873C197.56 70.4782 197.309 70.225 197.309 69.9156C197.309 69.6062 197.563 69.353 197.873 69.353H244.069C244.382 69.353 244.633 69.6062 244.633 69.9156C244.633 70.225 244.379 70.4782 244.069 70.4782Z" fill="#002F23"/>
<path d="M283.755 301.38L263.007 275.734C260.188 272.42 253.388 270.003 244.377 273.069C235.91 275.949 222.341 280.408 203.46 247.725C184.584 215.063 194.418 204.489 201.954 199.666C203.093 198.937 211.916 191.353 208.967 182.211L199.751 158.278C191.791 139.665 175.224 150.701 174.267 151.315C147.301 168.553 147.445 216.587 174.952 264.173C202.459 311.77 244.023 335.922 272.448 321.205C273.459 320.681 290.727 310.772 283.757 301.38H283.755Z" fill="url(#paint0_linear_173_587)"/>
<path d="M440.177 467.399L233.144 467.261L233.052 327.471L333.96 241.448L440.082 327.609L440.177 467.399Z" fill="white"/>
<path d="M440.178 467.963L233.147 467.825C232.834 467.825 232.583 467.571 232.583 467.262L232.488 327.472C232.488 327.306 232.56 327.15 232.686 327.042L333.593 241.022C333.804 240.846 334.106 240.84 334.319 241.014L440.442 327.173C440.573 327.28 440.649 327.441 440.649 327.61L440.742 467.4C440.742 467.551 440.683 467.694 440.575 467.799C440.47 467.904 440.326 467.965 440.175 467.965L440.178 467.963ZM233.712 466.699L439.611 466.835L439.518 327.876L333.97 242.183L233.619 327.73L233.712 466.697V466.699Z" fill="#002F23"/>
<path d="M336.771 411.973C336.648 411.973 336.523 411.932 336.42 411.85L240.245 335.802C240.001 335.608 239.957 335.255 240.152 335.01C240.347 334.767 240.701 334.726 240.947 334.918L336.769 410.684L431.041 334.358C431.285 334.161 431.639 334.199 431.836 334.439C432.034 334.682 431.995 335.035 431.754 335.232L337.128 411.842C337.025 411.927 336.897 411.968 336.771 411.968V411.973Z" fill="#002F23"/>
<path d="M401.207 358.985L336.874 411.415L270.525 358.898L270.468 274.862L401.151 274.949L401.207 358.985Z" fill="white"/>
<path d="M336.874 411.979C336.751 411.979 336.625 411.938 336.522 411.856L270.173 359.342C270.037 359.235 269.96 359.074 269.96 358.9L269.904 274.864C269.904 274.713 269.963 274.57 270.071 274.465C270.178 274.36 270.319 274.299 270.471 274.299L401.156 274.386C401.469 274.386 401.72 274.639 401.72 274.948L401.777 358.984C401.777 359.153 401.7 359.314 401.569 359.422L337.233 411.851C337.13 411.936 337.002 411.979 336.874 411.979ZM271.089 358.629L336.869 410.693L400.643 358.721L400.586 275.513L271.032 275.427L271.089 358.626V358.629Z" fill="#002F23"/>
<path d="M314.467 324.064C315.499 317.882 311.287 312.032 305.059 310.999C298.83 309.965 292.945 314.139 291.912 320.322C290.88 326.505 295.092 332.354 301.321 333.388C307.549 334.421 313.435 330.247 314.467 324.064Z" fill="url(#paint1_linear_173_587)"/>
<path d="M347.82 324.088C348.852 317.905 344.64 312.055 338.412 311.022C332.184 309.988 326.298 314.163 325.266 320.345C324.234 326.528 328.446 332.378 334.674 333.411C340.902 334.445 346.788 330.271 347.82 324.088Z" fill="url(#paint2_linear_173_587)"/>
<path d="M381.188 324.125C382.221 317.942 378.009 312.093 371.78 311.059C365.552 310.026 359.666 314.2 358.634 320.382C357.602 326.565 361.814 332.415 368.042 333.448C374.27 334.482 380.156 330.308 381.188 324.125Z" fill="url(#paint3_linear_173_587)"/>
<path d="M695.469 59.3213C686.296 50.4812 671.935 48.8574 659.587 52.0564C646.731 55.3858 635.306 63.6071 627.742 74.452C620.988 84.136 614.681 97.914 620.375 109.429C624.018 116.794 631.33 121.954 639.256 124.181C647.182 126.408 655.672 125.938 663.711 124.145C678.137 120.928 692.08 112.94 699.46 100.169C706.839 87.399 706.096 69.5653 695.469 59.3213Z" fill="url(#paint4_linear_173_587)"/>
<path d="M610.312 55.6382C594.412 41.3692 569.862 37.5769 550.378 46.3838C541.152 50.552 532.785 57.7964 529.843 67.4599C526.901 77.1235 530.866 89.1345 540.151 93.1697C535.286 94.5019 533.954 101.501 536.84 105.626C539.726 109.75 545.146 111.318 550.186 111.507C555.244 111.694 560.484 110.814 565.255 112.502C568.757 113.742 571.632 116.246 574.525 118.573C582.769 125.203 592.411 130.98 603 131.317C632.708 132.266 632.038 92.6991 623.307 73.5127C620.236 66.7644 615.845 60.6016 610.312 55.6382Z" fill="url(#paint5_linear_173_587)"/>
<path d="M470.84 467.451L505.545 329.72L622.679 353.478C649.265 388.527 659.807 431.229 663.545 467.451H470.84Z" fill="white"/>
<path d="M663.011 464.032C662.724 464.032 662.478 463.815 662.45 463.523C660.11 439.752 654.472 416.41 646.146 396.022C641.919 385.671 636.874 375.731 631.151 366.474C629.694 364.121 628.173 361.774 626.626 359.498C626.334 359.068 626.034 358.575 625.716 358.051C624.595 356.204 623.2 353.906 621.525 353.563C615.635 352.353 609.518 351.111 602.818 349.763C589.929 347.17 576.814 344.574 564.13 342.066C552.282 339.721 540.029 337.299 527.984 334.88C521.746 333.627 515.507 332.367 509.272 331.088L506.72 330.564C506.555 330.53 506.414 330.497 506.294 330.469C506.214 330.451 506.13 330.431 506.063 330.418C506.009 330.518 505.935 330.676 505.868 330.819C505.483 331.651 505.288 332.727 505.099 333.768C505.001 334.307 504.909 334.816 504.791 335.302C504.044 338.363 503.293 341.421 502.534 344.477C499.286 357.565 495.993 370.366 493.199 381.165C492.007 385.781 490.809 390.396 489.611 395.009C484.568 414.439 479.356 434.528 474.524 454.359C473.782 457.397 473.049 460.44 472.323 463.48C472.251 463.784 471.946 463.971 471.643 463.897C471.34 463.825 471.151 463.521 471.225 463.219C471.951 460.174 472.684 457.133 473.426 454.09C478.261 434.252 483.475 414.157 488.518 394.726C489.716 390.112 490.914 385.497 492.107 380.881C494.9 370.085 498.191 357.286 501.438 344.204C502.197 341.148 502.949 338.092 503.695 335.031C503.806 334.578 503.896 334.085 503.99 333.563C504.191 332.453 504.398 331.303 504.845 330.341C505.304 329.352 505.529 329.127 506.553 329.364C506.663 329.39 506.794 329.421 506.948 329.451L509.498 329.976C515.731 331.252 521.966 332.512 528.204 333.765C540.247 336.184 552.498 338.606 564.345 340.951C577.029 343.459 590.144 346.055 603.036 348.648C609.736 349.996 615.856 351.238 621.748 352.451C623.905 352.893 625.442 355.424 626.678 357.46C626.988 357.971 627.281 358.455 627.558 358.859C629.112 361.147 630.643 363.508 632.108 365.876C637.864 375.184 642.937 385.18 647.188 395.59C655.555 416.078 661.221 439.53 663.57 463.408C663.601 463.718 663.373 463.994 663.063 464.025C663.045 464.025 663.024 464.027 663.006 464.027L663.011 464.032Z" fill="#002F23"/>
<path d="M553.465 464.033C553.447 464.033 553.431 464.033 553.413 464.033C553.103 464.004 552.872 463.731 552.9 463.419L553.031 462.012C553.408 457.967 553.801 453.783 553.536 449.679C552.595 435.016 539.814 429.002 528.781 425.401C528.484 425.304 528.322 424.987 528.42 424.691C528.517 424.394 528.835 424.233 529.133 424.33C540.504 428.04 553.68 434.267 554.665 449.608C554.934 453.801 554.539 458.028 554.157 462.117L554.026 463.521C553.998 463.813 553.752 464.033 553.465 464.033Z" fill="#002F23"/>
<path d="M594.581 117.241L611.926 176.603C611.926 176.603 578.819 217.282 553.869 215.679C528.922 214.076 533.57 185.921 552.158 177.181L570.303 171.941L564.891 125.408L594.579 117.238L594.581 117.241Z" fill="white"/>
<path d="M555.342 216.29C554.836 216.29 554.333 216.275 553.833 216.242C544.217 215.623 537.869 210.9 536.412 203.282C534.514 193.342 541.324 181.651 551.917 176.669C551.945 176.657 551.974 176.646 552.002 176.639L569.688 171.532L564.329 125.473C564.299 125.196 564.473 124.938 564.74 124.864L594.427 116.694C594.722 116.612 595.033 116.783 595.12 117.08L612.462 176.442C612.513 176.618 612.475 176.81 612.359 176.956C611.028 178.592 580.061 216.283 555.336 216.288L555.342 216.29ZM552.361 177.71C542.234 182.495 535.719 193.626 537.522 203.072C538.892 210.248 544.712 214.526 553.905 215.116C577.316 216.623 608.584 179.736 611.297 176.475L594.194 117.931L565.509 125.823L570.865 171.875C570.896 172.148 570.727 172.404 570.46 172.481L552.358 177.708L552.361 177.71Z" fill="#002F23"/>
<path d="M542.142 104.938C540.885 111.768 540.851 118.961 543.165 125.51C545.479 132.061 550.355 137.897 556.862 140.377C562.503 142.528 568.959 142.011 574.533 139.689C580.107 137.368 584.849 133.358 588.722 128.737C594.673 130.847 601.925 128.387 605.351 123.099C607.329 120.048 608.024 115.99 606.411 112.732C604.797 109.474 600.547 107.528 597.251 109.08C595.373 109.965 594.037 111.77 592.126 112.576C589.995 113.473 587.45 112.944 585.526 111.655C583.605 110.369 582.225 108.42 581.122 106.39C577.654 99.9972 576.623 92.3282 578.275 85.25C578.119 85.92 574.553 86.9275 573.917 87.1423C572.319 87.6819 570.672 88.0782 569.005 88.3365C565.717 88.8454 562.344 88.8121 559.063 88.2444C557.401 87.9555 555.759 87.531 554.169 86.9684C552.904 86.5209 551.265 85.3293 549.919 85.3139C547.105 85.2832 546.266 90.3976 545.586 92.3768C544.176 96.4862 542.924 100.659 542.137 104.935L542.142 104.938Z" fill="white"/>
<path d="M564.532 142.301C561.779 142.301 559.104 141.838 556.66 140.904C550.398 138.516 545.153 132.831 542.632 125.697C540.5 119.665 540.149 112.645 541.585 104.836C542.27 101.107 543.373 97.0899 545.056 92.1955C545.168 91.8682 545.286 91.4437 545.425 90.9527C546.117 88.4825 547.161 84.7516 549.896 84.7516C549.906 84.7516 549.919 84.7516 549.929 84.7516C550.937 84.7618 551.981 85.2937 552.992 85.8051C553.487 86.0557 553.954 86.2935 554.361 86.4367C555.906 86.9814 557.522 87.4034 559.163 87.6872C562.405 88.2472 565.689 88.2779 568.92 87.7793C570.567 87.5235 572.188 87.1297 573.738 86.6081C573.83 86.5774 573.981 86.5288 574.174 86.47C576.775 85.6594 577.559 85.2528 577.747 85.0508C577.844 84.7899 578.126 84.6365 578.403 84.703C578.709 84.7746 578.896 85.0763 578.827 85.3806C577.211 92.308 578.229 99.8695 581.622 106.124C582.923 108.523 584.264 110.131 585.842 111.19C587.776 112.487 590.1 112.819 591.906 112.06C592.821 111.673 593.606 111.032 594.435 110.351C595.225 109.702 596.043 109.032 597.01 108.577C600.452 106.955 605.082 108.784 606.919 112.489C608.519 115.719 608.101 119.902 605.829 123.411C602.356 128.768 594.994 131.348 588.91 129.4C584.608 134.455 579.847 138.094 574.753 140.214C571.419 141.602 567.918 142.303 564.534 142.303L564.532 142.301ZM549.898 85.8818C548.021 85.8818 547.115 89.1167 546.515 91.257C546.374 91.7633 546.251 92.2032 546.128 92.5612C544.463 97.4019 543.375 101.365 542.698 105.038C541.298 112.65 541.634 119.475 543.701 125.321C546.115 132.149 551.109 137.58 557.065 139.851C562.246 141.827 568.536 141.577 574.315 139.171C579.337 137.079 584.039 133.448 588.289 128.377C588.44 128.195 588.692 128.129 588.912 128.208C594.594 130.221 601.606 127.842 604.877 122.795C606.906 119.667 607.309 115.816 605.903 112.985C604.356 109.865 600.347 108.249 597.492 109.594C596.653 109.991 595.925 110.589 595.153 111.221C594.299 111.921 593.414 112.648 592.344 113.098C590.192 114.003 587.458 113.632 585.211 112.126C583.472 110.963 582.017 109.226 580.625 106.661C577.329 100.583 576.19 93.3155 577.434 86.5135C576.767 86.8101 575.823 87.14 574.507 87.5491C574.325 87.6054 574.184 87.6488 574.097 87.6795C572.486 88.2216 570.801 88.6334 569.09 88.8967C565.735 89.4158 562.328 89.3852 558.966 88.8021C557.26 88.508 555.582 88.0708 553.979 87.5031C553.502 87.3343 553.002 87.0812 552.476 86.8126C551.581 86.36 550.658 85.8895 549.914 85.8818C549.909 85.8818 549.901 85.8818 549.896 85.8818H549.898Z" fill="#002F23"/>
<path d="M598.775 117.678C595.456 117.511 592.129 119.503 590.718 122.503L598.775 117.678Z" fill="white"/>
<path d="M590.718 123.066C590.638 123.066 590.556 123.048 590.479 123.012C590.197 122.879 590.074 122.544 590.207 122.263C591.718 119.054 595.261 116.939 598.805 117.113C599.118 117.128 599.357 117.394 599.341 117.704C599.326 118.016 599.057 118.251 598.749 118.238C595.656 118.082 592.552 119.934 591.231 122.741C591.136 122.946 590.931 123.066 590.718 123.066Z" fill="#002F23"/>
<path d="M639.836 366.665C652.037 360.32 659.756 347.885 665.599 335.462C679.332 306.264 685.998 273.906 685.896 241.658C685.844 225.665 683.851 208.842 674.474 195.864C664.327 181.823 646.977 174.527 629.809 171.949C622.894 170.911 615.553 170.584 609.176 173.448C600.891 177.171 595.846 185.456 589.605 192.041C582.346 199.7 572.981 205.354 562.808 208.218C556.314 210.046 548.472 210.499 544.227 204.29C542.327 201.51 541.739 198.068 542.185 194.736C543.119 187.737 547.705 182.344 552.161 177.181C543.614 175.803 534.819 179.209 528.07 184.615C521.322 190.023 516.328 197.273 511.777 204.617C497.872 227.066 487.189 251.393 478.635 276.361C475.608 285.193 472.809 294.425 473.774 303.707C474.864 314.21 476.821 324.236 484.598 331.404C487.115 333.723 489.508 335.8 491.596 337.546C495.566 340.868 500.758 342.256 505.893 341.553C534.144 337.677 602.479 359.763 608.26 364.435C616.966 371.472 630.109 371.723 639.838 366.665H639.836Z" fill="url(#paint6_linear_173_587)"/>
<path d="M611.926 280.708C611.869 280.708 611.81 280.7 611.754 280.682C611.456 280.587 611.292 280.27 611.387 279.974L624.889 237.722C624.984 237.425 625.302 237.261 625.6 237.356C625.897 237.451 626.062 237.768 625.967 238.064L612.464 280.316C612.387 280.557 612.164 280.71 611.926 280.71V280.708Z" fill="#002F23"/>
<path d="M516.52 264.501C516.495 264.501 516.466 264.501 516.438 264.495C516.13 264.452 515.915 264.166 515.958 263.856C517.659 252.052 520.583 240.379 524.646 229.163C524.751 228.869 525.077 228.718 525.37 228.826C525.665 228.93 525.816 229.255 525.708 229.547C521.671 240.691 518.765 252.288 517.077 264.017C517.036 264.299 516.795 264.501 516.518 264.501H516.52Z" fill="#002F23"/>
<path d="M607.363 354.428C606.891 355.97 606.211 357.717 604.675 358.221C603.459 358.62 601.987 358.343 600.997 357.538C579.738 340.244 562.785 329.107 537.605 318.306C534.406 316.933 539.462 330.869 521.248 318.426C518.375 316.462 520.776 310.606 524.21 310.031C521.368 309.632 518.944 307.185 518.583 304.346C518.221 301.508 519.952 298.531 522.604 297.437C519.852 297.951 517.292 295.215 517.159 292.427C517.026 289.64 518.68 287.057 520.676 285.101C513.06 288.789 502.384 299.531 496.346 292.289C494.73 284.953 499.876 281.048 505.586 276.146C511.295 271.246 518.739 268.817 526.142 267.426C542.606 264.337 559.754 265.874 575.847 270.523C590.008 274.614 603.49 281.04 615.994 288.786C619.067 290.691 620.093 291.1 620.139 294.637C620.188 298.426 619.077 302.595 618.485 306.336C617.251 314.12 615.756 321.863 614.001 329.547C612.093 337.917 609.877 346.22 607.36 354.428H607.363Z" fill="white"/>
<path d="M537.151 318.588C537.094 318.588 537.035 318.58 536.979 318.562L529.699 316.245C529.402 316.151 529.238 315.834 529.333 315.537C529.427 315.24 529.748 315.077 530.043 315.171L537.323 317.488C537.62 317.583 537.784 317.9 537.689 318.196C537.612 318.437 537.389 318.588 537.151 318.588Z" fill="#002F23"/>
<path d="M646.202 307.608C646.077 307.608 645.949 307.567 645.843 307.48C638.615 301.565 630.658 296.556 622.194 292.59C621.912 292.457 621.789 292.122 621.922 291.84C622.055 291.559 622.394 291.436 622.674 291.569C631.223 295.574 639.259 300.632 646.559 306.608C646.8 306.805 646.836 307.16 646.636 307.401C646.526 307.536 646.362 307.608 646.197 307.608H646.202Z" fill="#002F23"/>
<path d="M514.602 325.172C514.486 329.961 513.114 335.091 509.323 338.034C504.447 341.821 497.46 340.747 491.519 339.044C463.327 330.961 437.905 315.378 423.287 290.021C422.684 288.975 417.321 276.156 419.516 273.264C421.584 270.54 426.714 275.711 430.064 276.412C444.579 279.45 458.905 283.398 472.928 288.218C480.136 290.696 487.264 293.406 494.297 296.342C499.673 298.587 504.249 299.193 507.84 304.052C512.311 310.1 514.784 317.648 514.602 325.169V325.172Z" fill="white"/>
<path d="M491.519 339.606C491.468 339.606 491.416 339.599 491.362 339.583C459.892 330.562 436.181 313.518 422.797 290.299C422.338 289.504 416.587 276.184 419.065 272.921C419.252 272.673 419.606 272.624 419.857 272.811C420.106 273 420.155 273.353 419.968 273.601C418.111 276.048 422.915 288.241 423.779 289.737C437.015 312.697 460.492 329.557 491.675 338.499C491.975 338.586 492.15 338.898 492.063 339.197C491.991 339.445 491.765 339.606 491.519 339.606Z" fill="#002F23"/>
<path d="M404.49 248.746H456.317C457.422 248.746 458.466 249.252 459.148 250.116L500.927 303.111C502.785 305.466 501.102 308.918 498.096 308.918H448.062C446.983 308.918 445.962 308.435 445.277 307.604L401.705 254.609C399.779 252.267 401.451 248.743 404.49 248.743V248.746Z" fill="#002F23"/>
<path d="M426.524 255.567C427.147 254.997 428.035 254.439 428.779 254.838C429.428 255.186 429.546 256.045 429.589 256.779C430.002 263.954 430.415 271.13 430.828 278.303C430.741 271.887 432.413 265.248 436.581 260.359C437.607 259.155 439.421 258.022 440.634 259.037C441.365 259.648 441.422 260.735 441.378 261.684C441.021 269.739 437.787 278.062 440.626 285.614C441.132 280.814 442.278 276.083 444.02 271.582C444.733 269.739 445.621 267.844 447.234 266.696C448.85 265.548 451.394 265.481 452.602 267.049C453.885 268.713 453.092 271.086 452.387 273.063C450.343 278.796 449.476 284.944 449.855 291.017C450.64 286.273 451.618 281.156 455.167 277.901C456.206 276.947 457.491 276.18 458.9 276.065C460.308 275.95 461.837 276.612 462.444 277.883C463.116 279.282 462.56 280.924 462.114 282.407C460.382 288.127 460.423 294.346 462.103 300.074C463.363 304.37 468.762 310.152 463.05 313.505C461.09 314.655 458.671 314.745 456.419 314.423C450.058 313.512 444.528 309.684 439.557 305.626C434.481 301.481 429.658 296.932 425.955 291.531C422.251 286.13 419.701 279.809 419.514 273.268C419.326 266.729 421.686 259.988 426.521 255.567H426.524Z" fill="white"/>
<path d="M461.293 17.7927C466.228 17.7927 470.229 13.8097 470.229 8.89637C470.229 3.98304 466.228 0 461.293 0C456.357 0 452.356 3.98304 452.356 8.89637C452.356 13.8097 456.357 17.7927 461.293 17.7927Z" fill="#E2EAFF"/>
<path d="M435.214 17.7927C440.149 17.7927 444.15 13.8097 444.15 8.89637C444.15 3.98304 440.149 0 435.214 0C430.278 0 426.277 3.98304 426.277 8.89637C426.277 13.8097 430.278 17.7927 435.214 17.7927Z" fill="url(#paint7_linear_173_587)"/>
<path d="M409.133 17.7927C414.068 17.7927 418.069 13.8097 418.069 8.89637C418.069 3.98304 414.068 0 409.133 0C404.197 0 400.196 3.98304 400.196 8.89637C400.196 13.8097 404.197 17.7927 409.133 17.7927Z" fill="#E2EAFF"/>
<path d="M222.287 28.2902C221.974 28.2902 221.723 28.037 221.723 27.7276V9.0782C221.723 8.76623 221.977 8.51562 222.287 8.51562H384.801C385.114 8.51562 385.366 8.76878 385.366 9.0782C385.366 9.38762 385.112 9.64078 384.801 9.64078H222.851V27.725C222.851 28.037 222.597 28.2876 222.287 28.2876V28.2902Z" fill="#002F23"/>
<path d="M461.293 233.759C460.98 233.759 460.728 233.506 460.728 233.196V29.0782C460.728 28.7662 460.982 28.5156 461.293 28.5156C461.603 28.5156 461.857 28.7688 461.857 29.0782V233.196C461.857 233.508 461.603 233.759 461.293 233.759Z" fill="#002F23"/>
</g>
<defs>
<linearGradient id="paint0_linear_173_587" x1="219.795" y1="199.788" x2="219.795" y2="325.495" gradientUnits="userSpaceOnUse">
<stop stop-color="#02CCA1"/>
<stop offset="1" stop-color="#01A17F"/>
</linearGradient>
<linearGradient id="paint1_linear_173_587" x1="298.537" y1="321.421" x2="314.464" y2="324.08" gradientUnits="userSpaceOnUse">
<stop stop-color="#02CCA1"/>
<stop offset="1" stop-color="#01A17F"/>
</linearGradient>
<linearGradient id="paint2_linear_173_587" x1="331.89" y1="321.445" x2="347.817" y2="324.104" gradientUnits="userSpaceOnUse">
<stop stop-color="#02CCA1"/>
<stop offset="1" stop-color="#01A17F"/>
</linearGradient>
<linearGradient id="paint3_linear_173_587" x1="365.259" y1="321.482" x2="381.186" y2="324.141" gradientUnits="userSpaceOnUse">
<stop stop-color="#02CCA1"/>
<stop offset="1" stop-color="#01A17F"/>
</linearGradient>
<linearGradient id="paint4_linear_173_587" x1="662.674" y1="57.9222" x2="654.874" y2="124.935" gradientUnits="userSpaceOnUse">
<stop stop-color="#02CCA1"/>
<stop offset="1" stop-color="#01785E"/>
</linearGradient>
<linearGradient id="paint5_linear_173_587" x1="580.374" y1="50.478" x2="570.78" y2="130.38" gradientUnits="userSpaceOnUse">
<stop stop-color="#02CCA1"/>
<stop offset="1" stop-color="#01785E"/>
</linearGradient>
<linearGradient id="paint6_linear_173_587" x1="579.739" y1="229.631" x2="579.739" y2="370.133" gradientUnits="userSpaceOnUse">
<stop stop-color="#02CCA1"/>
<stop offset="1" stop-color="#01A17F"/>
</linearGradient>
<linearGradient id="paint7_linear_173_587" x1="435.214" y1="5.22602" x2="435.214" y2="17.7927" gradientUnits="userSpaceOnUse">
<stop stop-color="#02CCA1"/>
<stop offset="1" stop-color="#01A17F"/>
</linearGradient>
<clipPath id="clip0_173_587">
<rect width="704" height="467.961" fill="white" transform="translate(0.333252)"/>
</clipPath>
</defs>
</svg>
