<svg width="295" height="202" viewBox="0 0 295 202" fill="none" xmlns="http://www.w3.org/2000/svg">
<path d="M252.641 169.358H127.241V102.872L252.641 136.116V169.358Z" fill="url(#paint0_linear_167_1707)"/>
<path d="M118.308 96.9104L261.575 134.89V129.076L118.308 91.0957V96.9104Z" fill="#7FFFD6"/>
<path d="M127.242 169.358H84.5029V140.547L127.242 127.25V169.358Z" fill="#7FFFD6"/>
<path d="M127.242 169.596H84.5028C84.3721 169.596 84.2661 169.49 84.2661 169.359V140.548C84.2661 140.444 84.3336 140.353 84.4321 140.322L127.171 127.024C127.243 127.002 127.321 127.014 127.381 127.059C127.441 127.104 127.477 127.175 127.477 127.25V169.359C127.477 169.49 127.371 169.596 127.24 169.596H127.242ZM84.7395 169.123H127.006V127.572L84.7395 140.723V169.123Z" fill="#002F23"/>
<path d="M185.678 169.713C185.482 169.713 185.324 169.554 185.324 169.358V118.363C185.324 118.167 185.482 118.008 185.678 118.008C185.874 118.008 186.033 118.167 186.033 118.363V169.358C186.033 169.554 185.874 169.713 185.678 169.713Z" fill="#7FFFD6"/>
<path d="M252.641 148.659H210.155C209.959 148.659 209.8 148.501 209.8 148.305C209.8 148.109 209.959 147.95 210.155 147.95H252.641C252.837 147.95 252.995 148.109 252.995 148.305C252.995 148.501 252.837 148.659 252.641 148.659Z" fill="#7FFFD6"/>
<path d="M205.964 161.612H189.871C189.675 161.612 189.516 161.453 189.516 161.257V134.607C189.516 134.411 189.675 134.253 189.871 134.253H205.964C206.16 134.253 206.319 134.411 206.319 134.607V161.257C206.319 161.453 206.16 161.612 205.964 161.612ZM190.225 160.903H205.61V134.962H190.225V160.903Z" fill="#7FFFD6"/>
<path d="M210.155 161.612H185.678C185.482 161.612 185.324 161.453 185.324 161.257C185.324 161.061 185.482 160.903 185.678 160.903H210.155C210.351 160.903 210.509 161.061 210.509 161.257C210.509 161.453 210.351 161.612 210.155 161.612Z" fill="#7FFFD6"/>
<path d="M210.155 164.378H185.678C185.482 164.378 185.324 164.22 185.324 164.024C185.324 163.828 185.482 163.669 185.678 163.669H210.155C210.351 163.669 210.509 163.828 210.509 164.024C210.509 164.22 210.351 164.378 210.155 164.378Z" fill="#7FFFD6"/>
<path d="M210.155 167.145H185.678C185.482 167.145 185.324 166.986 185.324 166.79C185.324 166.594 185.482 166.436 185.678 166.436H210.155C210.351 166.436 210.509 166.594 210.509 166.79C210.509 166.986 210.351 167.145 210.155 167.145Z" fill="#7FFFD6"/>
<path d="M241.118 146.488H219.039C218.843 146.488 218.684 146.329 218.684 146.133V136.781C218.684 136.585 218.843 136.426 219.039 136.426H241.118C241.314 136.426 241.473 136.585 241.473 136.781V146.133C241.473 146.329 241.314 146.488 241.118 146.488ZM219.393 145.779H240.764V137.134H219.393V145.779Z" fill="#7FFFD6"/>
<path d="M176.01 161.699H136.911C136.715 161.699 136.557 161.541 136.557 161.345V110.625C136.557 110.514 136.608 110.41 136.695 110.344C136.783 110.276 136.896 110.254 137.002 110.283L176.101 120.738C176.256 120.78 176.363 120.92 176.363 121.081V161.346C176.363 161.542 176.204 161.7 176.008 161.7L176.01 161.699ZM137.266 160.99H175.655V121.352L137.266 111.086V160.99Z" fill="#7FFFD6"/>
<path d="M156.461 160.57C156.265 160.57 156.106 160.412 156.106 160.216V117.539C156.106 117.343 156.265 117.185 156.461 117.185C156.657 117.185 156.815 117.343 156.815 117.539V160.216C156.815 160.412 156.657 160.57 156.461 160.57Z" fill="#7FFFD6"/>
<path d="M34.6274 196.256H114.002L114.002 107.045L34.6274 107.045L34.6274 196.256Z" fill="#7FFFD6"/>
<path d="M114.001 196.491H34.6267C34.496 196.491 34.39 196.385 34.39 196.254V107.044C34.39 106.914 34.496 106.808 34.6267 106.808H114.001C114.132 106.808 114.238 106.914 114.238 107.044V196.255C114.238 196.386 114.132 196.492 114.001 196.492V196.491ZM34.8623 196.019H113.765V107.281H34.8623V196.02V196.019Z" fill="#002F23"/>
<path d="M0.568954 196.256H79.9436L79.9436 107.045L0.568954 107.045L0.568954 196.256Z" fill="#02CCA1"/>
<path d="M79.9442 196.491H0.569585C0.438919 196.491 0.332886 196.385 0.332886 196.254V107.044C0.332886 106.914 0.438919 106.808 0.569585 106.808H79.9442C80.0749 106.808 80.1809 106.914 80.1809 107.044V196.255C80.1809 196.386 80.0749 196.492 79.9442 196.492V196.491ZM0.805214 196.019H79.7075V107.281H0.805214V196.02V196.019Z" fill="#002F23"/>
<path d="M6.85085 196.256H79.9438V138.769H6.85085V196.256Z" fill="url(#paint1_linear_167_1707)"/>
<path d="M79.9436 196.492H6.85059C6.71992 196.492 6.61389 196.386 6.61389 196.255V138.768C6.61389 138.637 6.71992 138.531 6.85059 138.531H79.9436C80.0743 138.531 80.1803 138.637 80.1803 138.768V196.255C80.1803 196.386 80.0743 196.492 79.9436 196.492ZM7.08729 196.019H79.7069V139.006H7.08729V196.019Z" fill="#002F23"/>
<path d="M35.1303 185.832C45.4996 185.832 53.9056 177.43 53.9056 167.066C53.9056 156.701 45.4996 148.299 35.1303 148.299C24.761 148.299 16.355 156.701 16.355 167.066C16.355 177.43 24.761 185.832 35.1303 185.832Z" fill="#7FFFD6"/>
<path d="M35.1299 186.068C24.6466 186.068 16.119 177.544 16.119 167.064C16.119 156.585 24.6477 148.061 35.1299 148.061C45.6122 148.061 54.1409 156.585 54.1409 167.064C54.1409 177.544 45.6122 186.068 35.1299 186.068ZM35.1299 148.534C24.908 148.534 16.5913 156.847 16.5913 167.066C16.5913 177.284 24.908 185.597 35.1299 185.597C45.3519 185.597 53.6685 177.284 53.6685 167.066C53.6685 156.847 45.3519 148.534 35.1299 148.534Z" fill="#002F23"/>
<path d="M42.3184 158.938C41.6811 161.684 35.2474 166.824 35.2474 166.824L31.5255 154.28C31.5255 154.28 35.7486 152.176 38.4958 152.812C41.243 153.448 42.9546 156.191 42.3173 158.937L42.3184 158.938Z" fill="#7FFFD6"/>
<path d="M28.1253 174.932C28.7625 172.186 35.1962 167.046 35.1962 167.046L38.6686 179.576C38.6686 179.576 34.695 181.695 31.9478 181.058C29.2006 180.422 27.4891 177.679 28.1263 174.932H28.1253Z" fill="#7FFFD6"/>
<path d="M27.2205 159.841C29.9677 160.478 35.1108 166.909 35.1108 166.909L22.5454 170.192C22.5454 170.192 20.4558 166.408 21.0931 163.662C21.7303 160.916 24.4733 159.205 27.2205 159.841Z" fill="#7FFFD6"/>
<path d="M43.2218 174.029C40.4745 173.392 35.3314 166.961 35.3314 166.961L47.0347 162.849C47.0347 162.849 49.9854 167.462 49.3492 170.208C48.7119 172.954 45.969 174.665 43.2218 174.029Z" fill="#7FFFD6"/>
<path d="M35.1028 169.337C36.371 169.337 37.3991 168.309 37.3991 167.041C37.3991 165.774 36.371 164.746 35.1028 164.746C33.8346 164.746 32.8065 165.774 32.8065 167.041C32.8065 168.309 33.8346 169.337 35.1028 169.337Z" fill="#7FFFD6"/>
<path d="M62.3221 183.688H75.0139V151.338H62.3221V183.688Z" fill="#7FFFD6"/>
<path d="M75.0125 183.924H62.3207C62.19 183.924 62.084 183.818 62.084 183.687V151.335C62.084 151.205 62.19 151.099 62.3207 151.099H75.0125C75.1432 151.099 75.2492 151.205 75.2492 151.335V183.687C75.2492 183.818 75.1432 183.924 75.0125 183.924ZM62.5574 183.451H74.7769V151.573H62.5574V183.451Z" fill="#002F23"/>
<path d="M64.3057 156.993H73.0293V154.307H64.3057V156.993Z" fill="#7FFFD6"/>
<path d="M64.3057 163.254H73.0293V160.568H64.3057V163.254Z" fill="#7FFFD6"/>
<path d="M64.3057 169.515H73.0293V166.829H64.3057V169.515Z" fill="#7FFFD6"/>
<path d="M7.06007 132.599H73.4537V121.97L7.06007 121.97V132.599Z" fill="#7FFFD6"/>
<path d="M73.4543 132.834H7.06067C6.93001 132.834 6.82397 132.728 6.82397 132.598V121.969C6.82397 121.838 6.93001 121.732 7.06067 121.732H73.4543C73.585 121.732 73.691 121.838 73.691 121.969V132.598C73.691 132.728 73.585 132.834 73.4543 132.834ZM7.2963 132.362H73.2176V122.205H7.2963V132.362Z" fill="#002F23"/>
<path d="M10.7757 129.487H38.3025V125.081H10.7757V129.487Z" fill="#7FFFD6"/>
<path d="M38.3022 129.723H10.7754C10.6447 129.723 10.5387 129.617 10.5387 129.486V125.08C10.5387 124.949 10.6447 124.843 10.7754 124.843H38.3022C38.4328 124.843 38.5389 124.949 38.5389 125.08V129.486C38.5389 129.617 38.4328 129.723 38.3022 129.723ZM11.0121 129.251H38.0665V125.317H11.0121V129.251Z" fill="#002F23"/>
<path d="M65.9048 130.137C67.48 130.137 68.757 128.859 68.757 127.283C68.757 125.706 67.48 124.428 65.9048 124.428C64.3296 124.428 63.0526 125.706 63.0526 127.283C63.0526 128.859 64.3296 130.137 65.9048 130.137Z" fill="#7FFFD6"/>
<path d="M57.5806 130.137C59.1558 130.137 60.4327 128.859 60.4327 127.283C60.4327 125.706 59.1558 124.428 57.5806 124.428C56.0054 124.428 54.7284 125.706 54.7284 127.283C54.7284 128.859 56.0054 130.137 57.5806 130.137Z" fill="#7FFFD6"/>
<path d="M49.2552 130.137C50.8305 130.137 52.1074 128.859 52.1074 127.283C52.1074 125.706 50.8305 124.428 49.2552 124.428C47.68 124.428 46.4031 125.706 46.4031 127.283C46.4031 128.859 47.68 130.137 49.2552 130.137Z" fill="#7FFFD6"/>
<path d="M149.184 102.886C149.053 102.886 148.947 102.78 148.947 102.649V46.5624C148.947 46.4317 149.053 46.3257 149.184 46.3257C149.314 46.3257 149.42 46.4317 149.42 46.5624V102.649C149.42 102.78 149.314 102.886 149.184 102.886Z" fill="#02CCA1"/>
<path d="M154.848 93.0519C154.717 93.0519 154.611 92.9458 154.611 92.8152V46.5624C154.611 46.4317 154.717 46.3257 154.848 46.3257C154.978 46.3257 155.084 46.4317 155.084 46.5624V92.8152C155.084 92.9458 154.978 93.0519 154.848 93.0519Z" fill="#02CCA1"/>
<path d="M160.511 93.0527C160.38 93.0527 160.274 92.9467 160.274 92.816V33.6561C160.274 33.5255 160.38 33.4194 160.511 33.4194C160.641 33.4194 160.747 33.5255 160.747 33.6561V92.816C160.747 92.9467 160.641 93.0527 160.511 93.0527Z" fill="#02CCA1"/>
<path d="M166.174 93.053C166.044 93.053 165.938 92.947 165.938 92.8163V40.827C165.938 40.6964 166.044 40.5903 166.174 40.5903C166.305 40.5903 166.411 40.6964 166.411 40.827V92.8163C166.411 92.947 166.305 93.053 166.174 93.053Z" fill="#02CCA1"/>
<path d="M171.839 93.0519C171.708 93.0519 171.602 92.9458 171.602 92.8152V46.5624C171.602 46.4317 171.708 46.3257 171.839 46.3257C171.969 46.3257 172.075 46.4317 172.075 46.5624V92.8152C172.075 92.9458 171.969 93.0519 171.839 93.0519Z" fill="#02CCA1"/>
<path d="M177.502 98.7112C177.371 98.7112 177.265 98.6052 177.265 98.4745V46.5624C177.265 46.4317 177.371 46.3257 177.502 46.3257C177.632 46.3257 177.738 46.4317 177.738 46.5624V98.4756C177.738 98.6063 177.632 98.7123 177.502 98.7123V98.7112Z" fill="#02CCA1"/>
<path d="M179.404 103.095C179.653 102.041 179 100.984 177.946 100.735C176.891 100.486 175.834 101.139 175.585 102.194C175.336 103.249 175.989 104.305 177.044 104.554C178.099 104.803 179.156 104.15 179.404 103.095Z" fill="#7FFFD6"/>
<path d="M197.918 135.583C197.787 135.583 197.681 135.477 197.681 135.346V96.4097L186.366 84.0842H140.218C140.087 84.0842 139.981 83.9782 139.981 83.8475C139.981 83.7169 140.087 83.6108 140.218 83.6108H186.47C186.537 83.6108 186.6 83.6387 186.645 83.688L198.092 96.1581C198.132 96.202 198.154 96.2587 198.154 96.3176V135.346C198.154 135.477 198.048 135.583 197.918 135.583Z" fill="#02CCA1"/>
<path d="M186.47 78.4207H140.218C140.087 78.4207 139.981 78.3146 139.981 78.184C139.981 78.0533 140.087 77.9473 140.218 77.9473H186.47C186.601 77.9473 186.707 78.0533 186.707 78.184C186.707 78.3146 186.601 78.4207 186.47 78.4207Z" fill="#02CCA1"/>
<path d="M186.47 72.7581H140.218C140.087 72.7581 139.981 72.652 139.981 72.5214C139.981 72.3907 140.087 72.2847 140.218 72.2847H186.47C186.601 72.2847 186.707 72.3907 186.707 72.5214C186.707 72.652 186.601 72.7581 186.47 72.7581Z" fill="#02CCA1"/>
<path d="M129.204 73.7745C129.165 73.7745 129.124 73.7648 129.087 73.7434C128.973 73.6781 128.934 73.5335 129 73.421L132.843 66.741C132.884 66.6681 132.963 66.6221 133.047 66.6221H186.471C186.601 66.6221 186.707 66.7281 186.707 66.8588C186.707 66.9894 186.601 67.0955 186.471 67.0955H133.184L129.41 73.6566C129.366 73.7327 129.287 73.7755 129.205 73.7755L129.204 73.7745Z" fill="#02CCA1"/>
<path d="M167.436 42.2527C168.203 41.4864 168.203 40.2441 167.436 39.4778C166.67 38.7115 165.428 38.7115 164.661 39.4778C163.895 40.244 163.895 41.4864 164.661 42.2527C165.428 43.0189 166.67 43.0189 167.436 42.2527Z" fill="#7FFFD6"/>
<path d="M166.05 43.0632C164.837 43.0632 163.851 42.0768 163.851 40.8644C163.851 39.652 164.837 38.6655 166.05 38.6655C167.262 38.6655 168.248 39.652 168.248 40.8644C168.248 42.0768 167.262 43.0632 166.05 43.0632ZM166.05 39.1389C165.097 39.1389 164.324 39.9133 164.324 40.8644C164.324 41.8155 165.098 42.5898 166.05 42.5898C167.001 42.5898 167.775 41.8155 167.775 40.8644C167.775 39.9133 167.001 39.1389 166.05 39.1389Z" fill="#02CCA1"/>
<path d="M129.561 76.2854C130.328 75.5191 130.328 74.2768 129.561 73.5105C128.795 72.7442 127.553 72.7442 126.786 73.5105C126.02 74.2768 126.02 75.5191 126.786 76.2854C127.553 77.0517 128.795 77.0517 129.561 76.2854Z" fill="#7FFFD6"/>
<path d="M128.174 77.0979C126.962 77.0979 125.976 76.1115 125.976 74.899C125.976 73.6866 126.962 72.7002 128.174 72.7002C129.387 72.7002 130.373 73.6866 130.373 74.899C130.373 76.1115 129.387 77.0979 128.174 77.0979ZM128.174 73.1736C127.222 73.1736 126.449 73.948 126.449 74.899C126.449 75.8501 127.223 76.6245 128.174 76.6245C129.126 76.6245 129.901 75.8501 129.901 74.899C129.901 73.948 129.127 73.1736 128.174 73.1736Z" fill="#02CCA1"/>
<path d="M149.191 105.401C150.274 105.401 151.153 104.522 151.153 103.439C151.153 102.355 150.274 101.477 149.191 101.477C148.107 101.477 147.229 102.355 147.229 103.439C147.229 104.522 148.107 105.401 149.191 105.401Z" fill="#7FFFD6"/>
<path d="M149.19 105.637C147.978 105.637 146.991 104.651 146.991 103.438C146.991 102.226 147.978 101.239 149.19 101.239C150.402 101.239 151.389 102.226 151.389 103.438C151.389 104.651 150.402 105.637 149.19 105.637ZM149.19 101.713C148.238 101.713 147.464 102.487 147.464 103.438C147.464 104.389 148.238 105.164 149.19 105.164C150.142 105.164 150.915 104.389 150.915 103.438C150.915 102.487 150.141 101.713 149.19 101.713Z" fill="#02CCA1"/>
<path d="M151.134 109.492C151.308 108.422 150.581 107.414 149.512 107.241C148.442 107.067 147.434 107.793 147.261 108.863C147.087 109.933 147.813 110.941 148.883 111.114C149.953 111.288 150.961 110.561 151.134 109.492Z" fill="#7FFFD6"/>
<path d="M149.19 111.37C147.978 111.37 146.992 110.383 146.992 109.171C146.992 107.959 147.978 106.972 149.19 106.972C150.403 106.972 151.389 107.959 151.389 109.171C151.389 110.383 150.403 111.37 149.19 111.37ZM149.19 107.446C148.238 107.446 147.464 108.22 147.464 109.171C147.464 110.122 148.238 110.896 149.19 110.896C150.143 110.896 150.916 110.122 150.916 109.171C150.916 108.22 150.142 107.446 149.19 107.446Z" fill="#02CCA1"/>
<path d="M151.133 115.041C151.306 113.971 150.58 112.963 149.51 112.789C148.441 112.616 147.433 113.342 147.259 114.412C147.085 115.482 147.812 116.489 148.881 116.663C149.951 116.837 150.959 116.11 151.133 115.041Z" fill="#7FFFD6"/>
<path d="M149.19 116.919C147.978 116.919 146.992 115.932 146.992 114.72C146.992 113.507 147.978 112.521 149.19 112.521C150.403 112.521 151.389 113.507 151.389 114.72C151.389 115.932 150.403 116.919 149.19 116.919ZM149.19 112.994C148.238 112.994 147.464 113.769 147.464 114.72C147.464 115.671 148.238 116.445 149.19 116.445C150.143 116.445 150.916 115.671 150.916 114.72C150.916 113.769 150.142 112.994 149.19 112.994Z" fill="#02CCA1"/>
<path d="M204.088 61.4299H118.307C118.177 61.4299 118.071 61.3239 118.071 61.1932C118.071 61.0626 118.177 60.9565 118.307 60.9565H204.088C204.219 60.9565 204.325 61.0626 204.325 61.1932C204.325 61.3239 204.219 61.4299 204.088 61.4299Z" fill="#02CCA1"/>
<path d="M100.166 63.4327C101.403 63.4327 102.405 62.43 102.405 61.1932C102.405 59.9563 101.403 58.9536 100.166 58.9536C98.9288 58.9536 97.9261 59.9563 97.9261 61.1932C97.9261 62.43 98.9288 63.4327 100.166 63.4327Z" fill="#7FFFD6"/>
<path d="M106.233 63.4327C107.47 63.4327 108.473 62.43 108.473 61.1932C108.473 59.9563 107.47 58.9536 106.233 58.9536C104.996 58.9536 103.994 59.9563 103.994 61.1932C103.994 62.43 104.996 63.4327 106.233 63.4327Z" fill="#7FFFD6"/>
<path d="M112.301 63.4327C113.538 63.4327 114.541 62.43 114.541 61.1932C114.541 59.9563 113.538 58.9536 112.301 58.9536C111.064 58.9536 110.062 59.9563 110.062 61.1932C110.062 62.43 111.064 63.4327 112.301 63.4327Z" fill="#7FFFD6"/>
<path d="M208.914 63.4327C210.151 63.4327 211.154 62.43 211.154 61.1932C211.154 59.9563 210.151 58.9536 208.914 58.9536C207.677 58.9536 206.675 59.9563 206.675 61.1932C206.675 62.43 207.677 63.4327 208.914 63.4327Z" fill="#7FFFD6"/>
<path d="M214.981 63.4327C216.218 63.4327 217.221 62.43 217.221 61.1932C217.221 59.9563 216.218 58.9536 214.981 58.9536C213.745 58.9536 212.742 59.9563 212.742 61.1932C212.742 62.43 213.745 63.4327 214.981 63.4327Z" fill="#7FFFD6"/>
<path d="M221.049 63.4327C222.286 63.4327 223.289 62.43 223.289 61.1932C223.289 59.9563 222.286 58.9536 221.049 58.9536C219.812 58.9536 218.81 59.9563 218.81 61.1932C218.81 62.43 219.812 63.4327 221.049 63.4327Z" fill="#7FFFD6"/>
<path d="M186.47 55.7664H140.218C140.087 55.7664 139.981 55.6603 139.981 55.5297C139.981 55.399 140.087 55.293 140.218 55.293H186.47C186.601 55.293 186.707 55.399 186.707 55.5297C186.707 55.6603 186.601 55.7664 186.47 55.7664Z" fill="#02CCA1"/>
<path d="M177.974 51.7295H148.713C146.874 51.7295 145.383 53.2203 145.383 55.0593V84.3201C145.383 86.1591 146.874 87.65 148.713 87.65H177.974C179.813 87.65 181.304 86.1591 181.304 84.3201V55.0593C181.304 53.2203 179.813 51.7295 177.974 51.7295Z" fill="url(#paint2_linear_167_1707)"/>
<path d="M177.974 87.8855H148.713C146.747 87.8855 145.148 86.2854 145.148 84.3189V55.0592C145.148 53.0928 146.748 51.4927 148.713 51.4927H177.974C179.94 51.4927 181.539 53.0928 181.539 55.0592V84.32C181.539 86.2864 179.939 87.8866 177.974 87.8866V87.8855ZM148.713 51.965C147.007 51.965 145.62 53.3531 145.62 55.0582V84.3189C145.62 86.0251 147.008 87.4121 148.713 87.4121H177.974C179.68 87.4121 181.067 86.024 181.067 84.3189V55.0592C181.067 53.3531 179.679 51.9661 177.974 51.9661H148.713V51.965Z" fill="#002F23"/>
<path d="M174.189 58.8433H152.498V80.5339H174.189V58.8433Z" fill="#7FFFD6"/>
<path d="M174.188 80.771H152.498C152.367 80.771 152.261 80.665 152.261 80.5343V58.8436C152.261 58.713 152.367 58.6069 152.498 58.6069H174.188C174.319 58.6069 174.425 58.713 174.425 58.8436V80.5343C174.425 80.665 174.319 80.771 174.188 80.771ZM152.734 80.2987H173.953V59.0803H152.734V80.2987Z" fill="#002F23"/>
<path d="M199.305 141.97C200.071 141.204 200.071 139.961 199.305 139.195C198.538 138.429 197.296 138.429 196.53 139.195C195.763 139.961 195.763 141.204 196.53 141.97C197.296 142.736 198.538 142.736 199.305 141.97Z" fill="#7FFFD6"/>
<path d="M197.917 142.781C196.704 142.781 195.718 141.795 195.718 140.583C195.718 139.37 196.704 138.384 197.917 138.384C199.129 138.384 200.115 139.37 200.115 140.583C200.115 141.795 199.129 142.781 197.917 142.781ZM197.917 138.857C196.964 138.857 196.191 139.632 196.191 140.583C196.191 141.534 196.966 142.308 197.917 142.308C198.868 142.308 199.642 141.534 199.642 140.583C199.642 139.632 198.868 138.857 197.917 138.857Z" fill="#002F23"/>
<path d="M199.819 146.757C200.068 145.702 199.415 144.645 198.36 144.397C197.305 144.148 196.248 144.801 195.999 145.855C195.751 146.91 196.404 147.967 197.458 148.216C198.513 148.465 199.57 147.812 199.819 146.757Z" fill="#7FFFD6"/>
<path d="M197.917 148.513C196.704 148.513 195.718 147.526 195.718 146.314C195.718 145.102 196.704 144.115 197.917 144.115C199.129 144.115 200.116 145.102 200.116 146.314C200.116 147.526 199.129 148.513 197.917 148.513ZM197.917 144.589C196.965 144.589 196.191 145.363 196.191 146.314C196.191 147.265 196.966 148.04 197.917 148.04C198.868 148.04 199.642 147.265 199.642 146.314C199.642 145.363 198.868 144.589 197.917 144.589Z" fill="#002F23"/>
<path d="M199.82 152.308C200.069 151.253 199.415 150.197 198.361 149.948C197.306 149.699 196.249 150.352 196 151.407C195.751 152.461 196.405 153.518 197.459 153.767C198.514 154.016 199.571 153.363 199.82 152.308Z" fill="#7FFFD6"/>
<path d="M197.916 154.064C196.704 154.064 195.718 153.078 195.718 151.865C195.718 150.653 196.704 149.667 197.916 149.667C199.129 149.667 200.115 150.653 200.115 151.865C200.115 153.078 199.129 154.064 197.916 154.064ZM197.916 150.14C196.964 150.14 196.191 150.914 196.191 151.865C196.191 152.816 196.965 153.591 197.916 153.591C198.867 153.591 199.642 152.816 199.642 151.865C199.642 150.914 198.867 150.14 197.916 150.14Z" fill="#002F23"/>
<path d="M233.267 129.487H287.856C291.424 129.487 294.317 126.594 294.317 123.026V12.9487C294.317 9.38008 291.424 6.48714 287.856 6.48714L233.267 6.48714C229.698 6.48714 226.805 9.38008 226.805 12.9487V123.026C226.805 126.594 229.698 129.487 233.267 129.487Z" fill="url(#paint3_linear_167_1707)"/>
<path d="M287.856 129.723H233.268C229.574 129.723 226.57 126.718 226.57 123.025V12.9492C226.57 9.25631 229.575 6.25098 233.268 6.25098H287.856C291.549 6.25098 294.554 9.25631 294.554 12.9492V123.025C294.554 126.718 291.549 129.723 287.856 129.723ZM233.268 6.7233C229.835 6.7233 227.042 9.51657 227.042 12.9492V123.025C227.042 126.458 229.835 129.251 233.268 129.251H287.856C291.288 129.251 294.082 126.458 294.082 123.025V12.9492C294.082 9.51657 291.288 6.7233 287.856 6.7233H233.268Z" fill="#002F23"/>
<path d="M235.014 125.583H286.108C288.812 125.583 291.005 123.391 291.005 120.687V14.9506C291.005 12.2462 288.812 10.0538 286.108 10.0538H235.014C232.31 10.0538 230.117 12.2462 230.117 14.9506V120.687C230.117 123.391 232.31 125.583 235.014 125.583Z" fill="#7FFFD6"/>
<path d="M286.109 125.819H235.015C232.184 125.819 229.881 123.516 229.881 120.686V14.9494C229.881 12.1187 232.184 9.81592 235.015 9.81592H286.109C288.939 9.81592 291.242 12.1187 291.242 14.9494V120.686C291.242 123.516 288.939 125.819 286.109 125.819ZM235.014 10.2893C232.444 10.2893 230.354 12.38 230.354 14.9494V120.686C230.354 123.255 232.444 125.346 235.014 125.346H286.108C288.677 125.346 290.768 123.255 290.768 120.686V14.9494C290.768 12.38 288.677 10.2893 286.108 10.2893H235.014Z" fill="#002F23"/>
<path d="M266.887 13.7688H253.471C253.34 13.7688 253.234 13.6628 253.234 13.5321C253.234 13.4014 253.34 13.2954 253.471 13.2954H266.887C267.018 13.2954 267.124 13.4014 267.124 13.5321C267.124 13.6628 267.018 13.7688 266.887 13.7688Z" fill="#002F23"/>
<path d="M275.617 119.2H244.743C244.612 119.2 244.506 119.094 244.506 118.964C244.506 118.833 244.612 118.727 244.743 118.727H275.617C275.747 118.727 275.853 118.833 275.853 118.964C275.853 119.094 275.747 119.2 275.617 119.2Z" fill="#002F23"/>
<path d="M247.224 25.0186H238.338C237.093 25.0186 236.083 26.0279 236.083 27.2731V36.1595C236.083 37.4046 237.093 38.414 238.338 38.414H247.224C248.469 38.414 249.479 37.4046 249.479 36.1595V27.2731C249.479 26.0279 248.469 25.0186 247.224 25.0186Z" fill="#02CCA1"/>
<path d="M265.004 25.0186H256.118C254.872 25.0186 253.863 26.0279 253.863 27.2731V36.1595C253.863 37.4046 254.872 38.414 256.118 38.414H265.004C266.249 38.414 267.259 37.4046 267.259 36.1595V27.2731C267.259 26.0279 266.249 25.0186 265.004 25.0186Z" fill="#02CCA1"/>
<path d="M282.785 25.0186H273.899C272.654 25.0186 271.644 26.0279 271.644 27.2731V36.1595C271.644 37.4046 272.654 38.414 273.899 38.414H282.785C284.03 38.414 285.04 37.4046 285.04 36.1595V27.2731C285.04 26.0279 284.03 25.0186 282.785 25.0186Z" fill="#02CCA1"/>
<path d="M247.224 43.1035H238.338C237.093 43.1035 236.083 44.1129 236.083 45.3581V54.2445C236.083 55.4896 237.093 56.499 238.338 56.499H247.224C248.469 56.499 249.479 55.4896 249.479 54.2445V45.3581C249.479 44.1129 248.469 43.1035 247.224 43.1035Z" fill="#02CCA1"/>
<path d="M265.004 43.1035H256.118C254.873 43.1035 253.863 44.1129 253.863 45.3581V54.2445C253.863 55.4896 254.873 56.499 256.118 56.499H265.004C266.249 56.499 267.259 55.4896 267.259 54.2445V45.3581C267.259 44.1129 266.249 43.1035 265.004 43.1035Z" fill="#02CCA1"/>
<path d="M282.785 43.1035H273.899C272.654 43.1035 271.644 44.1129 271.644 45.3581V54.2445C271.644 55.4896 272.654 56.499 273.899 56.499H282.785C284.03 56.499 285.04 55.4896 285.04 54.2445V45.3581C285.04 44.1129 284.03 43.1035 282.785 43.1035Z" fill="#02CCA1"/>
<path d="M247.224 61.1885H238.338C237.093 61.1885 236.083 62.1979 236.083 63.443V72.3294C236.083 73.5746 237.093 74.584 238.338 74.584H247.224C248.469 74.584 249.479 73.5746 249.479 72.3294V63.443C249.479 62.1979 248.469 61.1885 247.224 61.1885Z" fill="#02CCA1"/>
<path d="M265.004 61.1885H256.118C254.873 61.1885 253.863 62.1979 253.863 63.443V72.3294C253.863 73.5746 254.873 74.584 256.118 74.584H265.004C266.249 74.584 267.259 73.5746 267.259 72.3294V63.443C267.259 62.1979 266.249 61.1885 265.004 61.1885Z" fill="#02CCA1"/>
<path d="M282.785 61.1885H273.899C272.654 61.1885 271.644 62.1979 271.644 63.443V72.3294C271.644 73.5746 272.654 74.584 273.899 74.584H282.785C284.03 74.584 285.04 73.5746 285.04 72.3294V63.443C285.04 62.1979 284.03 61.1885 282.785 61.1885Z" fill="#02CCA1"/>
<path d="M247.224 79.2729H238.338C237.093 79.2729 236.083 80.2823 236.083 81.5275V90.4139C236.083 91.659 237.093 92.6684 238.338 92.6684H247.224C248.469 92.6684 249.479 91.659 249.479 90.4139V81.5275C249.479 80.2823 248.469 79.2729 247.224 79.2729Z" fill="#02CCA1"/>
<path d="M265.004 79.2729H256.118C254.873 79.2729 253.863 80.2823 253.863 81.5275V90.4139C253.863 91.659 254.873 92.6684 256.118 92.6684H265.004C266.249 92.6684 267.259 91.659 267.259 90.4139V81.5275C267.259 80.2823 266.249 79.2729 265.004 79.2729Z" fill="#02CCA1"/>
<path d="M282.785 79.2729H273.899C272.654 79.2729 271.644 80.2823 271.644 81.5275V90.4139C271.644 91.659 272.654 92.6684 273.899 92.6684H282.785C284.03 92.6684 285.04 91.659 285.04 90.4139V81.5275C285.04 80.2823 284.03 79.2729 282.785 79.2729Z" fill="#02CCA1"/>
<path d="M287.603 189.47H177.003C174.754 189.47 172.711 188.159 171.773 186.114C169.751 181.708 169.689 176.651 171.6 172.196L172.124 170.976C172.868 169.242 174.415 167.983 176.263 167.607L176.609 167.536C178.652 167.12 180.618 166.395 182.441 165.386L192.977 159.556C199.912 155.718 207.707 153.706 215.633 153.706H226.322C234.011 153.706 241.577 155.633 248.328 159.314L254.209 162.519C256.713 163.885 259.432 164.815 262.247 165.273L269.793 166.498C276.8 167.635 283.681 169.438 290.346 171.88L290.47 171.925C293.014 172.857 294.563 175.438 294.19 178.121L293.302 184.506C292.907 187.351 290.475 189.469 287.602 189.469L287.603 189.47Z" fill="url(#paint4_linear_167_1707)"/>
<path d="M287.603 189.707H177.003C174.668 189.707 172.531 188.336 171.558 186.213C169.513 181.754 169.449 176.611 171.383 172.103L171.907 170.883C172.681 169.079 174.292 167.768 176.217 167.376L176.563 167.305C178.584 166.893 180.524 166.178 182.328 165.18L192.864 159.349C199.816 155.502 207.689 153.469 215.634 153.469H226.324C234.029 153.469 241.679 155.419 248.445 159.106L254.326 162.312C256.813 163.668 259.492 164.586 262.288 165.04L269.833 166.265C276.838 167.402 283.767 169.217 290.43 171.659L290.555 171.704C293.184 172.668 294.812 175.381 294.426 178.153L293.538 184.539C293.129 187.484 290.578 189.705 287.605 189.705L287.603 189.707ZM215.633 153.943C207.769 153.943 199.974 155.955 193.091 159.764L182.555 165.594C180.709 166.616 178.724 167.348 176.656 167.77L176.31 167.84C174.538 168.201 173.053 169.41 172.341 171.072L171.817 172.292C169.935 176.678 169.997 181.68 171.986 186.018C172.883 187.973 174.851 189.236 177.002 189.236H287.602C290.34 189.236 292.69 187.19 293.067 184.477L293.955 178.091C294.311 175.536 292.81 173.037 290.389 172.15L290.264 172.105C283.629 169.674 276.73 167.866 269.755 166.734L262.21 165.509C259.361 165.046 256.63 164.111 254.096 162.729L248.215 159.524C241.519 155.874 233.948 153.945 226.321 153.945H215.631L215.633 153.943Z" fill="#002F23"/>
<path d="M291.432 177.54H171.185C171.055 177.54 170.949 177.434 170.949 177.304C170.949 177.173 171.055 177.067 171.185 177.067H291.431C291.562 177.067 291.668 177.173 291.668 177.304C291.668 177.434 291.562 177.54 291.431 177.54H291.432Z" fill="#002F23"/>
<path d="M204.928 192.726C209.753 187.901 209.753 180.078 204.928 175.253C200.103 170.428 192.28 170.428 187.455 175.253C182.63 180.078 182.63 187.901 187.455 192.726C192.28 197.552 200.103 197.552 204.928 192.726Z" fill="#02CCA1"/>
<path d="M196.191 196.581C189.249 196.581 183.6 190.932 183.6 183.99C183.6 177.047 189.249 171.398 196.191 171.398C203.133 171.398 208.782 177.047 208.782 183.99C208.782 190.932 203.133 196.581 196.191 196.581ZM196.191 171.871C189.509 171.871 184.072 177.307 184.072 183.99C184.072 190.672 189.509 196.108 196.191 196.108C202.873 196.108 208.31 190.672 208.31 183.99C208.31 177.307 202.873 171.871 196.191 171.871Z" fill="#002F23"/>
<path d="M196.192 192.182C200.716 192.182 204.384 188.514 204.384 183.99C204.384 179.465 200.716 175.797 196.192 175.797C191.667 175.797 188 179.465 188 183.99C188 188.514 191.667 192.182 196.192 192.182Z" fill="#7FFFD6"/>
<path d="M196.192 192.417C191.545 192.417 187.764 188.636 187.764 183.989C187.764 179.342 191.545 175.561 196.192 175.561C200.839 175.561 204.62 179.342 204.62 183.989C204.62 188.636 200.839 192.417 196.192 192.417ZM196.192 176.033C191.805 176.033 188.236 179.602 188.236 183.989C188.236 188.376 191.805 191.945 196.192 191.945C200.579 191.945 204.148 188.376 204.148 183.989C204.148 179.602 200.579 176.033 196.192 176.033Z" fill="#002F23"/>
<path d="M196.191 187.174C197.95 187.174 199.376 185.748 199.376 183.989C199.376 182.23 197.95 180.804 196.191 180.804C194.432 180.804 193.006 182.23 193.006 183.989C193.006 185.748 194.432 187.174 196.191 187.174Z" fill="#7FFFD6"/>
<path d="M196.191 187.41C194.305 187.41 192.77 185.875 192.77 183.989C192.77 182.103 194.305 180.568 196.191 180.568C198.077 180.568 199.613 182.103 199.613 183.989C199.613 185.875 198.078 187.41 196.191 187.41ZM196.191 181.039C194.565 181.039 193.243 182.362 193.243 183.988C193.243 185.614 194.565 186.936 196.191 186.936C197.817 186.936 199.14 185.614 199.14 183.988C199.14 182.362 197.817 181.039 196.191 181.039Z" fill="#002F23"/>
<path d="M282.524 192.726C287.349 187.901 287.349 180.078 282.524 175.253C277.698 170.427 269.875 170.427 265.05 175.253C260.225 180.078 260.225 187.901 265.05 192.726C269.875 197.551 277.698 197.551 282.524 192.726Z" fill="#02CCA1"/>
<path d="M273.786 196.58C266.843 196.58 261.195 190.931 261.195 183.989C261.195 177.046 266.843 171.397 273.786 171.397C280.728 171.397 286.377 177.046 286.377 183.989C286.377 190.931 280.728 196.58 273.786 196.58ZM273.786 171.87C267.104 171.87 261.667 177.306 261.667 183.989C261.667 190.671 267.104 196.107 273.786 196.107C280.468 196.107 285.905 190.671 285.905 183.989C285.905 177.306 280.468 171.87 273.786 171.87Z" fill="#002F23"/>
<path d="M273.786 192.181C278.31 192.181 281.978 188.513 281.978 183.989C281.978 179.464 278.31 175.796 273.786 175.796C269.261 175.796 265.593 179.464 265.593 183.989C265.593 188.513 269.261 192.181 273.786 192.181Z" fill="#7FFFD6"/>
<path d="M273.785 192.417C269.138 192.417 265.357 188.636 265.357 183.989C265.357 179.342 269.138 175.561 273.785 175.561C278.433 175.561 282.213 179.342 282.213 183.989C282.213 188.636 278.433 192.417 273.785 192.417ZM273.785 176.033C269.398 176.033 265.83 179.602 265.83 183.989C265.83 188.376 269.398 191.945 273.785 191.945C278.172 191.945 281.741 188.376 281.741 183.989C281.741 179.602 278.172 176.033 273.785 176.033Z" fill="#002F23"/>
<path d="M273.786 187.174C275.545 187.174 276.971 185.748 276.971 183.988C276.971 182.229 275.545 180.803 273.786 180.803C272.027 180.803 270.601 182.229 270.601 183.988C270.601 185.748 272.027 187.174 273.786 187.174Z" fill="#7FFFD6"/>
<path d="M273.786 187.409C271.899 187.409 270.364 185.874 270.364 183.988C270.364 182.102 271.899 180.567 273.786 180.567C275.673 180.567 277.208 182.102 277.208 183.988C277.208 185.874 275.673 187.409 273.786 187.409ZM273.786 181.039C272.16 181.039 270.837 182.361 270.837 183.987C270.837 185.613 272.16 186.936 273.786 186.936C275.412 186.936 276.734 185.613 276.734 183.987C276.734 182.361 275.412 181.039 273.786 181.039Z" fill="#002F23"/>
<path d="M253.397 165.491H203.932C200.481 165.491 197.045 164.961 193.708 163.912L191.187 163.121L196.73 160.261C203.332 156.855 210.456 155.097 217.658 155.097H224.295C233.96 155.097 243.438 158.263 251.678 164.244L253.396 165.492L253.397 165.491Z" fill="#7FFFD6"/>
<path d="M253.397 165.728H203.931C200.457 165.728 196.994 165.194 193.637 164.139L191.116 163.347C191.025 163.318 190.959 163.237 190.951 163.142C190.942 163.046 190.993 162.955 191.078 162.911L196.621 160.052C203.297 156.607 210.374 154.861 217.658 154.861H224.295C234.015 154.861 243.532 158.04 251.817 164.053L253.535 165.301C253.617 165.361 253.653 165.468 253.62 165.565C253.588 165.663 253.498 165.729 253.396 165.729L253.397 165.728ZM191.805 163.068L193.778 163.688C197.089 164.728 200.504 165.256 203.93 165.256H252.668L251.539 164.436C243.336 158.481 233.915 155.335 224.295 155.335H217.658C210.451 155.335 203.447 157.063 196.838 160.472L191.807 163.069L191.805 163.068Z" fill="#02CCA1"/>
<path d="M245.877 165.728H242.22C241.154 165.728 240.286 164.86 240.286 163.794C240.286 162.727 241.154 161.859 242.22 161.859H245.877C246.944 161.859 247.811 162.727 247.811 163.794C247.811 164.86 246.944 165.728 245.877 165.728ZM242.22 162.333C241.415 162.333 240.758 162.988 240.758 163.795C240.758 164.601 241.414 165.257 242.22 165.257H245.877C246.682 165.257 247.339 164.601 247.339 163.795C247.339 162.988 246.683 162.333 245.877 162.333H242.22Z" fill="#002F23"/>
<path d="M101.49 119.682H159.319C160.595 119.682 161.631 120.718 161.631 121.994V194.031C161.631 195.308 160.595 196.344 159.319 196.344H101.49C100.214 196.344 99.1779 195.308 99.1779 194.031V121.994C99.1779 120.718 100.214 119.682 101.49 119.682Z" fill="url(#paint5_linear_167_1707)"/>
<path d="M159.32 196.58H101.49C100.085 196.58 98.9409 195.436 98.9409 194.031V121.994C98.9409 120.589 100.085 119.445 101.49 119.445H159.32C160.725 119.445 161.869 120.588 161.869 121.994V194.031C161.869 195.436 160.726 196.58 159.32 196.58ZM101.49 119.918C100.345 119.918 99.4143 120.85 99.4143 121.994V194.031C99.4143 195.176 100.346 196.107 101.49 196.107H159.32C160.465 196.107 161.395 195.175 161.395 194.031V121.994C161.395 120.849 160.464 119.918 159.32 119.918H101.49Z" fill="#002F23"/>
<path d="M130.11 140.806C118.748 140.806 109.539 150.016 109.539 161.378C109.539 172.739 118.748 181.949 130.11 181.949C141.472 181.949 150.681 172.739 150.681 161.378C150.681 150.016 141.472 140.806 130.11 140.806ZM130.11 176.986C121.489 176.986 114.501 169.997 114.501 161.377C114.501 152.756 121.489 145.767 130.11 145.767C136.031 145.767 141.182 149.064 143.828 153.922C142.778 155.339 142.063 158.144 142.063 161.375C142.063 164.607 142.778 167.412 143.828 168.829C141.182 173.687 136.032 176.984 130.11 176.984V176.986Z" fill="#7FFFD6"/>
<path d="M130.11 182.186C118.637 182.186 109.302 172.852 109.302 161.378C109.302 149.904 118.636 140.57 130.11 140.57C141.584 140.57 150.918 149.904 150.918 161.378C150.918 172.852 141.584 182.186 130.11 182.186ZM130.11 141.043C118.897 141.043 109.775 150.165 109.775 161.378C109.775 172.591 118.897 181.713 130.11 181.713C141.322 181.713 150.444 172.591 150.444 161.378C150.444 150.165 141.322 141.043 130.11 141.043ZM130.11 177.224C121.372 177.224 114.265 170.115 114.265 161.379C114.265 152.643 121.373 145.534 130.11 145.534C135.918 145.534 141.254 148.706 144.034 153.812C144.078 153.892 144.072 153.992 144.017 154.066C142.957 155.497 142.299 158.299 142.299 161.379C142.299 164.459 142.958 167.261 144.017 168.692C144.072 168.766 144.079 168.865 144.034 168.946C141.254 174.053 135.918 177.225 130.11 177.225V177.224ZM130.11 146.006C121.633 146.006 114.737 152.903 114.737 161.379C114.737 169.855 121.633 176.752 130.11 176.752C135.696 176.752 140.832 173.727 143.548 168.848C142.483 167.308 141.826 164.47 141.826 161.379C141.826 158.288 142.483 155.449 143.548 153.91C140.831 149.031 135.695 146.007 130.11 146.007V146.006Z" fill="#002F23"/>
<path d="M154.43 191.542H147.064L146.307 196.343H155.186L154.43 191.542Z" fill="#7FFFD6"/>
<path d="M155.186 196.58H146.306C146.237 196.58 146.171 196.55 146.126 196.497C146.081 196.445 146.062 196.375 146.073 196.307L146.83 191.505C146.848 191.391 146.947 191.306 147.063 191.306H154.429C154.546 191.306 154.644 191.391 154.662 191.505L155.42 196.307C155.43 196.375 155.411 196.445 155.366 196.497C155.321 196.55 155.256 196.58 155.186 196.58ZM146.583 196.108H154.91L154.228 191.778H147.266L146.584 196.108H146.583Z" fill="#002F23"/>
<path d="M161.632 132.497H99.1542C99.0235 132.497 98.9175 132.391 98.9175 132.26C98.9175 132.129 99.0235 132.023 99.1542 132.023H161.632C161.763 132.023 161.869 132.129 161.869 132.26C161.869 132.391 161.763 132.497 161.632 132.497Z" fill="#002F23"/>
<path d="M149.422 128.945C147.701 128.945 146.3 127.544 146.3 125.823C146.3 124.102 147.701 122.701 149.422 122.701C151.144 122.701 152.544 124.102 152.544 125.823C152.544 127.544 151.144 128.945 149.422 128.945ZM149.422 123.174C147.961 123.174 146.773 124.362 146.773 125.823C146.773 127.284 147.961 128.473 149.422 128.473C150.883 128.473 152.072 127.284 152.072 125.823C152.072 124.362 150.883 123.174 149.422 123.174Z" fill="#002F23"/>
<path d="M137.953 122.494H123.746V126.193H137.953V122.494Z" fill="#002F23"/>
<path d="M119.01 132.448C118.879 132.448 118.773 132.342 118.773 132.212V119.682C118.773 119.551 118.879 119.445 119.01 119.445C119.14 119.445 119.246 119.551 119.246 119.682V132.212C119.246 132.342 119.14 132.448 119.01 132.448Z" fill="#002F23"/>
<path d="M87.8724 73.699L58.2271 77.8085L36.2762 77.7057C32.5458 91.0101 75.685 96.0472 75.685 96.0472L58.2603 117.907C56.5895 120.004 56.3496 122.909 57.6766 125.238C61.3363 131.66 69.0928 141.937 73.0685 147.088C74.0528 148.363 76.0771 147.923 76.4455 146.355L78.5362 137.441L102.91 96.2936C109.339 85.4397 100.372 71.966 87.8724 73.699Z" fill="#7FFFD6"/>
<path d="M74.5721 148.069C73.9156 148.069 73.2954 147.769 72.8799 147.232C68.6814 141.794 61.0963 131.718 57.4698 125.355C56.0892 122.934 56.3259 119.952 58.0738 117.76L75.2351 96.2305C73.4657 96.0056 66.3755 95.0449 58.77 93.2059C46.9929 90.3591 39.6541 86.8771 36.9583 82.8564C35.8477 81.2006 35.5413 79.4462 36.0469 77.6426C36.0758 77.5409 36.169 77.4702 36.2739 77.4702H36.275L58.2099 77.573L87.8391 73.4656C93.7137 72.6494 99.4041 75.2124 102.688 80.1499C105.97 85.0842 106.131 91.3166 103.112 96.4147L78.7567 137.531L76.6746 146.409C76.4828 147.225 75.8563 147.842 75.0369 148.018C74.8816 148.052 74.7263 148.069 74.5732 148.069H74.5721ZM36.4571 77.9436C36.0565 79.5469 36.3575 81.1106 37.3514 82.594C43.6362 91.9678 75.3915 95.7764 75.7117 95.8139C75.7974 95.8235 75.8702 95.8792 75.9023 95.9584C75.9345 96.0377 75.9216 96.1287 75.8681 96.1962L58.4433 118.056C56.8175 120.096 56.5969 122.87 57.8811 125.123C61.4937 131.46 69.0638 141.515 73.2547 146.944C73.6542 147.461 74.299 147.696 74.9363 147.558C75.5757 147.42 76.0651 146.938 76.214 146.302L78.3047 137.388C78.31 137.365 78.3197 137.342 78.3315 137.322L102.705 96.1748C105.632 91.2341 105.475 85.1945 102.295 80.4123C99.1128 75.6269 93.598 73.1443 87.9044 73.9336L58.2591 78.0432C58.2484 78.0453 58.242 78.0432 58.2259 78.0453L36.4571 77.9436Z" fill="#02CCA1"/>
<path d="M76.6306 137.115C76.5652 137.115 76.501 137.088 76.4538 137.037C70.4935 130.373 65.7885 122.784 62.4682 114.484C62.42 114.363 62.4789 114.225 62.6 114.176C62.7221 114.128 62.8592 114.187 62.9074 114.308C66.2072 122.557 70.8834 130.099 76.8062 136.721C76.893 136.818 76.8844 136.967 76.788 137.055C76.743 137.096 76.6863 137.115 76.6306 137.115Z" fill="#02CCA1"/>
<path d="M75.6839 112.998L67.5944 112.968C67.4637 112.968 67.3588 112.861 67.3588 112.732C67.3588 112.601 67.4648 112.496 67.5955 112.496L75.685 112.526C75.8157 112.526 75.9206 112.633 75.9206 112.763C75.9206 112.893 75.8146 112.998 75.6839 112.998Z" fill="#002F23"/>
<path d="M45.0744 87.442L68.2463 86.8583C80.3973 86.552 91.5296 93.6027 96.4511 104.711C104.526 122.935 117.124 149.682 126.042 160.635C127.09 161.923 126.029 163.827 124.382 163.612L99.1758 160.308C95.1048 159.775 91.5221 157.357 89.5043 153.783L66.327 112.728C66.327 112.728 30.4847 110.252 29.8132 110.209C29.8132 110.209 5.99759 108.63 13.0107 80.7331L43.4861 75.124L50.5849 76.4178L45.0734 87.4431L45.0744 87.442Z" fill="#7FFFD6"/>
<path d="M124.637 163.866C124.542 163.866 124.447 163.859 124.351 163.846L99.1448 160.542C95.0224 160.002 91.3412 157.519 89.2988 153.899L66.1836 112.954C63.8391 112.792 30.4409 110.484 29.7983 110.443C29.704 110.437 20.3528 109.738 15.0801 102.492C11.2415 97.2182 10.4682 89.8773 12.7816 80.6739C12.8041 80.5839 12.877 80.5153 12.968 80.4993L43.4433 74.8902C43.4712 74.8849 43.5001 74.8849 43.529 74.8902L50.6278 76.1841C50.7564 76.2076 50.841 76.3308 50.8185 76.4593C50.7949 76.5878 50.6728 76.6746 50.5432 76.6489L43.4862 75.3636L13.2026 80.9373C10.9694 89.9298 11.7288 97.0875 15.4614 102.216C20.6066 109.284 29.7372 109.968 29.8283 109.973C30.4923 110.015 65.9844 112.468 66.3432 112.492C66.4225 112.498 66.4931 112.543 66.5328 112.612L89.71 153.667C91.6807 157.158 95.2312 159.554 99.2069 160.074L124.413 163.378C125.207 163.481 125.762 163.03 126.017 162.573C126.272 162.116 126.365 161.405 125.86 160.784C117.116 150.044 104.924 124.415 96.2359 104.806C91.3337 93.7416 80.3492 86.7873 68.2529 87.0937L45.0809 87.6774C44.9428 87.6742 44.8421 87.5778 44.8389 87.4471C44.8357 87.3164 44.9385 87.2083 45.0692 87.205L68.2411 86.6213C80.5312 86.3139 91.6882 93.3742 96.6686 104.616C105.345 124.198 117.515 149.786 126.227 160.487C126.774 161.159 126.853 162.047 126.431 162.803C126.056 163.475 125.385 163.866 124.638 163.866H124.637Z" fill="#002F23"/>
<path d="M117.578 154.982C113.162 154.982 102.678 154.4 87.9777 149.871C87.8535 149.832 87.7828 149.701 87.8213 149.575C87.8599 149.45 87.9916 149.38 88.1169 149.419C107.709 155.455 119.743 154.453 119.861 154.441C119.992 154.43 120.107 154.526 120.118 154.655C120.13 154.786 120.035 154.9 119.904 154.912C119.874 154.915 119.074 154.982 117.578 154.982Z" fill="#002F23"/>
<path d="M16.0793 87.6514L20.5712 67.7665L6.95618 64.7194C6.95618 64.7194 10.2892 51.1429 16.1393 47.1083C23.1685 42.2608 44.827 45.0059 50.1522 48.3325C56.6823 52.4121 58.3157 65.3321 58.3157 65.3321L49.7442 65.5024C49.7442 65.5024 49.9466 76.0467 50.0719 78.4598L16.0793 87.6525V87.6514Z" fill="url(#paint6_linear_167_1707)"/>
<path d="M57.8838 65.3306C59.441 71.7525 60.3793 77.3851 60.3793 77.3851H50.0695L49.6764 65.3306H57.8827H57.8838Z" fill="#7FFFD6"/>
<path d="M60.3801 77.6221H50.0703C49.9397 77.6221 49.8336 77.516 49.8336 77.3854C49.8336 77.2547 49.9397 77.1487 50.0703 77.1487H60.0995C59.8907 75.9416 58.9985 70.9302 57.6543 65.3855C57.6233 65.2591 57.7015 65.1305 57.8278 65.1006C57.9542 65.0695 58.0828 65.1477 58.1127 65.2741C59.654 71.6307 60.6029 77.289 60.6125 77.3457C60.6243 77.4143 60.6051 77.4839 60.5601 77.5375C60.5151 77.591 60.4487 77.621 60.3801 77.621V77.6221Z" fill="#002F23"/>
<path d="M85.6702 78.4573H38.4117V77.0339C38.4117 75.7829 39.4271 74.7676 40.6781 74.7676H88.9926L88.6049 76.2081C88.2472 77.5351 87.0444 78.4562 85.6702 78.4562V78.4573Z" fill="url(#paint7_linear_167_1707)"/>
<path d="M87.0174 76.7877H58.5053C57.2875 76.7877 56.3932 75.6449 56.6866 74.4636L62.075 52.7344C62.2817 51.8989 63.0325 51.312 63.8936 51.312H92.4057C93.6235 51.312 94.5178 52.4548 94.2244 53.6362L88.836 75.3654C88.6293 76.2008 87.8785 76.7877 87.0174 76.7877Z" fill="#02CCA1"/>
<path d="M78.2798 59.7001C78.2815 59.1804 77.8616 58.7577 77.342 58.756C76.8223 58.7543 76.3996 59.1742 76.3979 59.6938C76.3962 60.2135 76.8161 60.6362 77.3357 60.6379C77.8554 60.6396 78.2781 60.2197 78.2798 59.7001Z" fill="#7FFFD6"/>
<path d="M22.5549 65.0585C20.5874 71.7365 18.4785 77.4633 18.4785 77.4633C18.4785 77.4633 28.6095 71.1313 35.7158 68.4955C42.8221 65.8597 48.0252 74.7686 48.0252 74.7686L39.7836 76.7875C37.4134 76.781 22.3782 92.5981 16.3814 92.491C10.3847 92.3829 1.49291 83.0937 7.15977 64.7865C12.7827 63.7893 22.5549 65.0585 22.5549 65.0585Z" fill="#7FFFD6"/>
<path d="M16.4423 92.7275C16.4208 92.7275 16.3984 92.7275 16.3769 92.7275C13.6415 92.6782 10.7379 90.8928 8.6087 87.9507C6.2899 84.745 2.98789 77.4652 6.93466 64.7177C6.97322 64.5935 7.10603 64.5238 7.23027 64.5624C7.35451 64.6009 7.4252 64.7338 7.38557 64.858C3.50091 77.4095 6.72367 84.5405 8.99106 87.6743C11.0025 90.4547 13.8354 92.2102 16.3844 92.2562C16.4037 92.2562 16.423 92.2562 16.4423 92.2562C20.0667 92.2562 27.2651 86.2166 32.5282 81.8008C36.4814 78.4837 38.782 76.5912 39.7513 76.5527L47.6502 74.6173C46.7066 73.1628 41.9394 66.441 35.797 68.718C28.7946 71.3153 18.7032 77.6012 18.6026 77.6644C18.5169 77.719 18.4066 77.7115 18.3284 77.6473C18.2502 77.583 18.2213 77.477 18.2555 77.3816C18.277 77.3249 20.3848 71.5852 22.3266 64.9919C22.363 64.8666 22.4958 64.7948 22.62 64.8323C22.7453 64.8687 22.8171 65.0004 22.7796 65.1258C21.2095 70.4563 19.5301 75.231 18.9292 76.9082C21.1838 75.533 29.5539 70.5291 35.6321 68.2746C42.8423 65.6002 48.1739 74.5584 48.2275 74.6494C48.265 74.7137 48.2703 74.7919 48.2414 74.8604C48.2125 74.929 48.1525 74.9804 48.0797 74.9975L39.838 77.0164C39.8198 77.0207 39.7941 77.0164 39.7813 77.0228H39.7802C38.9555 77.0228 35.9802 79.5184 32.8313 82.1606C27.2169 86.871 20.238 92.7264 16.4401 92.7264L16.4423 92.7275Z" fill="#002F23"/>
<path d="M41.6365 75.7444C41.539 75.7444 41.4469 75.6834 41.4137 75.5859C40.9596 74.2814 39.9335 73.1707 38.6686 72.6159C38.5487 72.5634 38.4951 72.4242 38.5476 72.3042C38.6001 72.1843 38.7393 72.1307 38.8593 72.1832C40.242 72.7905 41.3644 74.0051 41.8603 75.4317C41.9032 75.5548 41.8378 75.6898 41.7147 75.7326C41.6889 75.7412 41.6632 75.7455 41.6375 75.7455L41.6365 75.7444Z" fill="#002F23"/>
<path d="M44.2275 75.2252C44.1258 75.2252 44.0315 75.1588 44.0016 75.0571C43.5249 73.4601 42.3382 72.0839 40.8291 71.3738C40.7113 71.3181 40.6599 71.1778 40.7156 71.0589C40.7713 70.9411 40.9116 70.8897 41.0294 70.9453C42.6585 71.7111 43.9384 73.1967 44.4535 74.921C44.491 75.0464 44.4203 75.1781 44.295 75.2145C44.2725 75.2209 44.25 75.2241 44.2275 75.2241V75.2252Z" fill="#002F23"/>
<path d="M38.4119 78.4573V77.0339C38.4119 75.7829 39.4272 74.7676 40.6782 74.7676H50.0712L38.4119 78.4562V78.4573Z" fill="#00CC9C"/>
<path d="M33.2816 36.8403C31.6751 32.6911 30.3877 29.3623 31.7661 26.8903C32.8403 24.9646 34.2231 26.1095 38.8596 23.3752C42.6221 21.156 44.3487 18.865 46.9513 19.3898C47.8467 19.5698 48.4411 20.0025 48.5975 20.1214C51.2397 22.1317 50.3175 27.0028 50.2619 27.3477C50.0177 28.876 49.4457 30.2898 35.4001 40.6221C34.5754 40.1851 34.1438 39.0702 33.2816 36.8403Z" fill="#00CC9C"/>
<path d="M36.4335 35.5527L32.3357 45.9332C32.3357 45.9332 34.6331 48.9621 39.7848 49.6519C44.9365 50.3416 40.5527 46.0339 40.5527 46.0339L43.0407 38.9169L36.4335 35.5538V35.5527Z" fill="#7FFFD6"/>
<path d="M40.7774 49.9632C40.4764 49.9632 40.1347 49.9375 39.7535 49.8861C34.5643 49.191 32.2444 46.2028 32.148 46.0764C32.0977 46.0111 32.0859 45.9233 32.117 45.8472L36.2147 35.4667C36.2394 35.4046 36.2886 35.3564 36.3508 35.3328C36.4129 35.3093 36.4825 35.3125 36.5414 35.3436L43.1486 38.7077C43.2536 38.7612 43.3039 38.8844 43.2643 38.9969L40.8245 45.9747C41.3032 46.4663 42.9377 48.2528 42.4289 49.2938C42.2093 49.7437 41.6653 49.9654 40.7774 49.9654V49.9632ZM32.6075 45.8911C33.0584 46.4127 35.3579 48.8215 39.8166 49.4181C41.0419 49.583 41.8195 49.4631 42.0048 49.0839C42.3154 48.4488 41.1779 46.9793 40.3875 46.2028C40.3222 46.1386 40.2997 46.0422 40.3297 45.9565L42.7502 39.0344L36.5585 35.8823L32.6075 45.8911Z" fill="#002F23"/>
<path d="M48.1639 34.7164C48.0129 36.2941 47.5717 37.8749 46.657 39.1687C45.7423 40.4626 44.3103 41.4415 42.7316 41.5818C41.3628 41.7028 39.9812 41.1887 38.9059 40.333C37.8306 39.4772 37.0423 38.3023 36.4821 37.047C35.048 37.1402 33.6139 36.1495 33.193 34.7764C32.9498 33.9838 33.0505 33.0499 33.6075 32.4351C34.1644 31.8204 35.2162 31.6576 35.8406 32.2027C36.1962 32.5133 36.3761 32.9931 36.7445 33.2887C37.1558 33.6186 37.746 33.6604 38.2461 33.4965C38.7474 33.3337 39.1704 32.9921 39.5389 32.614C40.6967 31.4262 41.4014 29.8068 41.4807 28.1499C41.4732 28.3063 42.1908 28.7497 42.3161 28.8354C42.632 29.0528 42.9683 29.2424 43.3164 29.403C44.0051 29.719 44.7452 29.9214 45.4992 30.0007C45.8816 30.0403 46.2671 30.0499 46.6506 30.0253C46.9547 30.006 47.3885 29.8464 47.6841 29.9268C48.3021 30.0949 48.1672 31.2698 48.1918 31.7464C48.2443 32.7361 48.2582 33.73 48.1639 34.7175V34.7164Z" fill="#7FFFD6"/>
<path d="M42.3357 41.8344C41.1072 41.8344 39.8252 41.3663 38.7584 40.517C37.7774 39.7373 36.9623 38.6512 36.3325 37.2889C34.8417 37.3049 33.4075 36.2821 32.9673 34.8448C32.6771 33.898 32.8559 32.9126 33.4322 32.2753C34.1026 31.5342 35.3011 31.4164 35.9962 32.0236C36.189 32.1929 36.3304 32.3964 36.4675 32.5934C36.6024 32.7873 36.7288 32.9715 36.8938 33.1033C37.214 33.3603 37.7045 33.4246 38.1747 33.2714C38.5689 33.1429 38.9491 32.8815 39.3711 32.4488C40.486 31.305 41.1693 29.7338 41.2465 28.139C41.2529 28.0083 41.3664 27.9055 41.4939 27.9141C41.602 27.9194 41.6899 27.9965 41.7124 28.0972C41.7584 28.1561 41.9126 28.2889 42.3625 28.5824C42.4021 28.6081 42.4332 28.6295 42.4525 28.6424C42.7545 28.8502 43.079 29.0344 43.4175 29.1897C44.0836 29.496 44.7927 29.6899 45.5263 29.767C45.8969 29.8055 46.2718 29.8141 46.637 29.7905C46.7291 29.7852 46.8426 29.7627 46.9637 29.7391C47.2164 29.6899 47.5035 29.6342 47.7477 29.7006C48.4331 29.8869 48.4288 30.8252 48.4267 31.4464C48.4267 31.5577 48.4267 31.6563 48.4299 31.7355C48.4931 32.919 48.4845 33.8744 48.401 34.7419C48.2264 36.5648 47.7048 38.1007 46.8512 39.3078C45.8359 40.743 44.3043 41.6823 42.7534 41.8194C42.6152 41.8311 42.4771 41.8376 42.3368 41.8376L42.3357 41.8344ZM36.4814 36.8101C36.5746 36.8101 36.6592 36.8647 36.6967 36.9504C37.304 38.3117 38.0965 39.387 39.0519 40.1475C40.1465 41.0182 41.4799 41.4552 42.7095 41.346C44.1243 41.2207 45.5274 40.3553 46.4635 39.0325C47.2689 37.8929 47.7627 36.4331 47.9287 34.6948C48.009 33.8519 48.0176 32.919 47.9554 31.7591C47.9512 31.6723 47.9512 31.5642 47.9512 31.4421C47.9533 30.9944 47.9565 30.2457 47.6213 30.1547C47.482 30.1172 47.2539 30.1622 47.0515 30.2018C46.9155 30.2286 46.7869 30.2532 46.6648 30.2618C46.2718 30.2864 45.8712 30.2789 45.4738 30.2372C44.6898 30.1547 43.9305 29.9469 43.2172 29.6192C42.8541 29.4521 42.506 29.255 42.1815 29.0312L42.1012 28.9776C41.9276 28.8641 41.7852 28.7666 41.6706 28.682C41.4799 30.2082 40.7795 31.6777 39.7074 32.7787C39.2308 33.2682 38.7895 33.567 38.3193 33.7212C37.6992 33.9237 37.0394 33.8283 36.596 33.4728C36.3775 33.2982 36.2254 33.0765 36.0776 32.8633C35.9523 32.6823 35.8334 32.511 35.6846 32.3803C35.1844 31.9444 34.2783 32.0461 33.7824 32.5934C33.3229 33.1 33.1805 33.9301 33.4182 34.7066C33.806 35.9726 35.1469 36.8979 36.4653 36.8112C36.4707 36.8112 36.4761 36.8112 36.4803 36.8112L36.4814 36.8101Z" fill="#002F23"/>
<path d="M34.9708 33.9927C35.7073 34.1629 36.3111 34.8062 36.4331 35.5524L34.9708 33.9927Z" fill="#7FFFD6"/>
<path d="M36.4339 35.7891C36.3204 35.7891 36.2197 35.7066 36.2004 35.591C36.0933 34.9344 35.5653 34.3721 34.9173 34.2232C34.7899 34.1943 34.7106 34.0669 34.7406 33.9394C34.7706 33.812 34.897 33.7327 35.0244 33.7627C35.8545 33.9544 36.5303 34.6741 36.6674 35.5149C36.6888 35.6434 36.601 35.7655 36.4725 35.787C36.4596 35.7891 36.4468 35.7902 36.4339 35.7902V35.7891Z" fill="#002F23"/>
<path d="M113.958 30.8358C115.787 27.4589 119.19 25.0587 123.184 24.6227C123.147 24.2093 123.126 23.7927 123.126 23.3707C123.126 15.5585 129.459 9.22443 137.271 9.22443C139.382 9.22443 141.383 9.69033 143.182 10.5193C145.173 4.73678 150.657 0.580078 157.115 0.580078C163.999 0.580078 169.779 5.30121 171.398 11.6814C174.189 9.87883 177.514 8.83136 181.084 8.83136C190.958 8.83136 198.963 16.8363 198.963 26.7102C198.963 28.1304 198.797 29.511 198.483 30.8358H113.958Z" fill="url(#paint8_linear_167_1707)"/>
<path d="M195.319 25.3737C195.14 25.3737 194.986 25.2387 194.966 25.0566C194.201 17.7543 188.078 12.2481 180.724 12.2481C180.528 12.2481 180.369 12.0896 180.369 11.8936C180.369 11.6976 180.528 11.5391 180.724 11.5391C188.441 11.5391 194.867 17.3184 195.671 24.9827C195.692 25.1777 195.55 25.3522 195.355 25.3726C195.342 25.3737 195.331 25.3747 195.318 25.3747L195.319 25.3737Z" fill="#7FFFD6"/>
<defs>
<linearGradient id="paint0_linear_167_1707" x1="192.017" y1="109.402" x2="187.785" y2="169.206" gradientUnits="userSpaceOnUse">
<stop stop-color="#01785E"/>
<stop offset="1" stop-color="#02CCA1"/>
</linearGradient>
<linearGradient id="paint1_linear_167_1707" x1="43.3973" y1="179.371" x2="43.3973" y2="138.769" gradientUnits="userSpaceOnUse">
<stop stop-color="#01785E"/>
<stop offset="1" stop-color="#02CCA1"/>
</linearGradient>
<linearGradient id="paint2_linear_167_1707" x1="163.938" y1="55.2574" x2="159.679" y2="87.1609" gradientUnits="userSpaceOnUse">
<stop stop-color="#01785E"/>
<stop offset="1" stop-color="#02CCA1"/>
</linearGradient>
<linearGradient id="paint3_linear_167_1707" x1="260.561" y1="93.3601" x2="260.561" y2="6.48713" gradientUnits="userSpaceOnUse">
<stop stop-color="#02CCA1"/>
<stop offset="1" stop-color="#01A17F"/>
</linearGradient>
<linearGradient id="paint4_linear_167_1707" x1="232.228" y1="164.21" x2="232.228" y2="189.47" gradientUnits="userSpaceOnUse">
<stop stop-color="#02CCA1"/>
<stop offset="1" stop-color="#01A17F"/>
</linearGradient>
<linearGradient id="paint5_linear_167_1707" x1="130.405" y1="142.199" x2="130.405" y2="196.344" gradientUnits="userSpaceOnUse">
<stop stop-color="#01785E"/>
<stop offset="1" stop-color="#02CCA1"/>
</linearGradient>
<linearGradient id="paint6_linear_167_1707" x1="33.4863" y1="48.725" x2="29.1625" y2="87.2628" gradientUnits="userSpaceOnUse">
<stop stop-color="#01785E"/>
<stop offset="1" stop-color="#02CCA1"/>
</linearGradient>
<linearGradient id="paint7_linear_167_1707" x1="63.7022" y1="75.8513" x2="63.7022" y2="78.4573" gradientUnits="userSpaceOnUse">
<stop stop-color="#02CCA1"/>
<stop offset="1" stop-color="#01A17F"/>
</linearGradient>
<linearGradient id="paint8_linear_167_1707" x1="156.46" y1="9.46669" x2="156.46" y2="30.8358" gradientUnits="userSpaceOnUse">
<stop stop-color="#02CCA1"/>
<stop offset="1" stop-color="#01785E"/>
</linearGradient>
</defs>
</svg>
