<svg width="184" height="96" viewBox="0 0 184 96" fill="none" xmlns="http://www.w3.org/2000/svg">
<path d="M48.2335 73.7869L39.3002 79.1541V94.603H36.6397V79.1636L27.5764 73.8444L27.5705 70.7561L37.9619 76.8545L48.2341 70.6819L48.2335 73.7869Z" fill="#03F8C5"/>
<path d="M11.0272 73.4361L19.8798 78.7553L21.2086 76.5441L11.5542 70.7009H10.5863L0.863044 76.407L0.877287 78.3114L17.9731 87.9504L11.0966 91.8743L1.9378 86.6899L0.666016 88.9373L10.6029 94.5615L11.6278 94.5538L20.9949 88.9254V86.9628L4.3781 77.3381L11.0272 73.4361Z" fill="#03F8C5"/>
<path d="M172.99 73.5643L181.983 78.9684L183.333 76.7215L173.525 70.7857H172.542L162.664 76.5827L162.679 78.5173L180.046 88.3088L173.061 92.2951L163.756 87.0287L162.464 89.3112L172.558 95.025L173.6 95.0167L183.115 89.2993V87.3053L166.235 77.528L172.99 73.5643Z" fill="#03F8C5"/>
<path d="M128.045 87.2655L119.507 92.3972L111.136 87.4851V78.3565L119.129 73.6652L128.05 79.0259L129.39 76.7957L122.252 72.5068L119.673 70.9092H118.685L109.176 76.4895L108.534 76.8859V88.704L109.487 89.5343L119.06 95.1526L120.214 95.0742L120.303 94.9199L129.404 89.3711L128.045 87.2655Z" fill="#03F8C5"/>
<path d="M128.239 81.7576H111.806V84.4222H128.239V81.7576Z" fill="#03F8C5"/>
<path d="M102.145 79.5274L93.3245 74.2278V95.079H90.6225V74.1987L81.5313 79.5345L81.5367 76.3987L91.0504 70.8154L92.902 70.8219L102.145 76.3815V79.5274Z" fill="#03F8C5"/>
<path d="M147.865 89.2322L151.519 94.6885L153.615 93.2571L149.974 87.7925L147.865 89.2322Z" fill="#03F8C5"/>
<path d="M156.187 76.5559L149.821 72.7311L146.666 70.7816H145.685L136.353 76.258L135.727 76.6325V88.2388L136.662 89.053L145.912 94.4814L146.496 94.7918L146.852 94.5662L149.627 92.9372L148.335 90.7361L146.454 91.8399L138.279 87.0424V78.0871L146.12 73.4854L153.764 78.0782V87.5498L151.457 88.9041L152.749 91.1052L156.317 89.0115V76.6479L156.187 76.5559Z" fill="#03F8C5"/>
<path d="M75.1701 76.4361L65.8682 70.8534L64.883 70.851L63.8973 70.8534L54.596 76.4361V95.044H57.2963V77.9702L64.883 73.4118L72.4692 77.9702V95.044H75.1701V76.4361Z" fill="#03F8C5"/>
<path d="M88.6083 59.4851L85.4137 53.8888L88.6083 48.293H94.9975L98.1921 53.8888L94.9975 59.4851H88.6083Z" fill="url(#paint0_linear_167_452)"/>
<path d="M95.7625 45.6783L93.3329 41.4226L95.7625 37.1663H100.622L103.051 41.4226L100.622 45.6783H95.7625Z" fill="url(#paint1_linear_167_452)"/>
<path d="M83.2298 45.6783L80.8002 41.4226L83.2298 37.1663H88.0891L90.5187 41.4226L88.0891 45.6783H83.2298Z" fill="url(#paint2_linear_167_452)"/>
<path d="M102.743 34.3497L100.84 31.0169L102.743 27.6846H106.547L108.45 31.0169L106.547 34.3497H102.743Z" fill="url(#paint3_linear_167_452)"/>
<path d="M108.867 26.071L107.174 23.1049L108.867 20.1388H112.254L113.947 23.1049L112.254 26.071H108.867Z" fill="url(#paint4_linear_167_452)"/>
<path d="M115.763 19.1928L114.34 16.6997L115.763 14.2065H118.61L120.033 16.6997L118.61 19.1928H115.763Z" fill="url(#paint5_linear_167_452)"/>
<path d="M122.116 13.8095L120.912 11.701L122.116 9.5924H124.523L125.727 11.701L124.523 13.8095H122.116Z" fill="url(#paint6_linear_167_452)"/>
<path d="M128.761 9.11348L127.833 7.48799L128.761 5.86251H130.616L131.544 7.48799L130.616 9.11348H128.761Z" fill="url(#paint7_linear_167_452)"/>
<path d="M116.259 9.11348L115.331 7.48799L116.259 5.86251H118.115L119.043 7.48799L118.115 9.11348H116.259Z" fill="url(#paint8_linear_167_452)"/>
<path d="M103.515 9.11348L102.587 7.48799L103.515 5.86251H105.371L106.299 7.48799L105.371 9.11348H103.515Z" fill="url(#paint9_linear_167_452)"/>
<path d="M91.0136 9.11348L90.0855 7.48799L91.0136 5.86251H92.8694L93.797 7.48799L92.8694 9.11348H91.0136Z" fill="url(#paint10_linear_167_452)"/>
<path d="M78.4175 9.11348L77.4899 7.48799L78.4175 5.86251H80.2732L81.2014 7.48799L80.2732 9.11348H78.4175Z" fill="url(#paint11_linear_167_452)"/>
<path d="M65.9157 9.11348L64.9875 7.48799L65.9157 5.86251H67.7714L68.6996 7.48799L67.7714 9.11348H65.9157Z" fill="url(#paint12_linear_167_452)"/>
<path d="M53.2037 9.11348L52.2756 7.48799L53.2037 5.86251H55.0595L55.9871 7.48799L55.0595 9.11348H53.2037Z" fill="url(#paint13_linear_167_452)"/>
<path d="M47.1689 5.41504L46.3909 4.05187L47.1689 2.68928H48.7249L49.5036 4.05187L48.7249 5.41504H47.1689Z" fill="url(#paint14_linear_167_452)"/>
<path d="M59.5378 5.41504L58.7597 4.05187L59.5378 2.68928H61.0938L61.8718 4.05187L61.0938 5.41504H59.5378Z" fill="url(#paint15_linear_167_452)"/>
<path d="M72.3161 5.41504L71.5381 4.05187L72.3161 2.68928H73.8727L74.6508 4.05187L73.8727 5.41504H72.3161Z" fill="url(#paint16_linear_167_452)"/>
<path d="M84.939 5.41504L84.161 4.05187L84.939 2.68928H86.495L87.2731 4.05187L86.495 5.41504H84.939Z" fill="url(#paint17_linear_167_452)"/>
<path d="M97.4141 5.41504L96.6361 4.05187L97.4141 2.68928H98.9701L99.7482 4.05187L98.9701 5.41504H97.4141Z" fill="url(#paint18_linear_167_452)"/>
<path d="M110.08 5.41504L109.302 4.05187L110.08 2.68928H111.636L112.414 4.05187L111.636 5.41504H110.08Z" fill="url(#paint19_linear_167_452)"/>
<path d="M122.578 5.41504L121.8 4.05187L122.578 2.68928H124.134L124.912 4.05187L124.134 5.41504H122.578Z" fill="url(#paint20_linear_167_452)"/>
<path d="M135.243 5.41504L134.465 4.05187L135.243 2.68928H136.8L137.578 4.05187L136.8 5.41504H135.243Z" fill="url(#paint21_linear_167_452)"/>
<path d="M141.303 2.63053L140.648 1.48219L141.303 0.333252H142.615L143.271 1.48219L142.615 2.63053H141.303Z" fill="url(#paint22_linear_167_452)"/>
<path d="M129.033 2.68928L128.377 1.54035L129.033 0.39141H130.344L131 1.54035L130.344 2.68928H129.033Z" fill="url(#paint23_linear_167_452)"/>
<path d="M116.223 2.68928L115.567 1.54035L116.223 0.39141H117.534L118.19 1.54035L117.534 2.68928H116.223Z" fill="url(#paint24_linear_167_452)"/>
<path d="M103.787 2.68928L103.131 1.54035L103.787 0.39141H105.099L105.755 1.54035L105.099 2.68928H103.787Z" fill="url(#paint25_linear_167_452)"/>
<path d="M91.3436 2.68928L90.6878 1.54035L91.3436 0.39141H92.6551L93.3109 1.54035L92.6551 2.68928H91.3436Z" fill="url(#paint26_linear_167_452)"/>
<path d="M78.6317 2.68928L77.9759 1.54035L78.6317 0.39141H79.9432L80.599 1.54035L79.9432 2.68928H78.6317Z" fill="url(#paint27_linear_167_452)"/>
<path d="M65.9192 2.68928L65.2634 1.54035L65.9192 0.39141H67.2308L67.8865 1.54035L67.2308 2.68928H65.9192Z" fill="url(#paint28_linear_167_452)"/>
<path d="M53.4756 2.68928L52.8198 1.54035L53.4756 0.39141H54.7871L55.4429 1.54035L54.7871 2.68928H53.4756Z" fill="url(#paint29_linear_167_452)"/>
<path d="M40.9109 2.68928L40.2551 1.54035L40.9109 0.39141H42.2224L42.8782 1.54035L42.2224 2.68928H40.9109Z" fill="url(#paint30_linear_167_452)"/>
<path d="M109.654 13.8095L108.45 11.701L109.654 9.5924H112.061L113.265 11.701L112.061 13.8095H109.654Z" fill="url(#paint31_linear_167_452)"/>
<path d="M96.9886 13.8095L95.785 11.701L96.9886 9.5924H99.3956L100.6 11.701L99.3956 13.8095H96.9886Z" fill="url(#paint32_linear_167_452)"/>
<path d="M84.4559 13.8095L83.2518 11.701L84.4559 9.5924H86.863L88.0665 11.701L86.863 13.8095H84.4559Z" fill="url(#paint33_linear_167_452)"/>
<path d="M71.8906 13.8095L70.6871 11.701L71.8906 9.5924H74.2983L75.5018 11.701L74.2983 13.8095H71.8906Z" fill="url(#paint34_linear_167_452)"/>
<path d="M59.3259 13.8095L58.1223 11.701L59.3259 9.5924H61.7335L62.9371 11.701L61.7335 13.8095H59.3259Z" fill="url(#paint35_linear_167_452)"/>
<path d="M103.002 19.1928L101.579 16.6997L103.002 14.2065H105.849L107.272 16.6997L105.849 19.1928H103.002Z" fill="url(#paint36_linear_167_452)"/>
<path d="M90.5762 19.1928L89.1525 16.6997L90.5762 14.2065H93.4225L94.8462 16.6997L93.4225 19.1928H90.5762Z" fill="url(#paint37_linear_167_452)"/>
<path d="M77.8638 19.1928L76.4406 16.6997L77.8638 14.2065H80.7106L82.1343 16.6997L80.7106 19.1928H77.8638Z" fill="url(#paint38_linear_167_452)"/>
<path d="M65.4379 19.1928L64.0142 16.6997L65.4379 14.2065H68.2847L69.7079 16.6997L68.2847 19.1928H65.4379Z" fill="url(#paint39_linear_167_452)"/>
<path d="M83.9663 26.071L82.2726 23.1049L83.9663 20.1388H87.3526L89.0457 23.1049L87.3526 26.071H83.9663Z" fill="url(#paint40_linear_167_452)"/>
<path d="M96.499 26.071L94.8058 23.1049L96.499 20.1388H99.8852L101.579 23.1049L99.8852 26.071H96.499Z" fill="url(#paint41_linear_167_452)"/>
<path d="M71.401 26.071L69.7079 23.1049L71.401 20.1388H74.7879L76.481 23.1049L74.7879 26.071H71.401Z" fill="url(#paint42_linear_167_452)"/>
<path d="M90.0967 34.3497L88.1941 31.0169L90.0967 27.6846H93.902L95.8046 31.0169L93.902 34.3497H90.0967Z" fill="url(#paint43_linear_167_452)"/>
<path d="M77.63 34.3497L75.7273 31.0169L77.63 27.6846H81.4352L83.3378 31.0169L81.4352 34.3497H77.63Z" fill="url(#paint44_linear_167_452)"/>
<defs>
<linearGradient id="paint0_linear_167_452" x1="91.7629" y1="0.333252" x2="91.7629" y2="59.4851" gradientUnits="userSpaceOnUse">
<stop stop-color="#02CCA1"/>
<stop offset="1" stop-color="#03F8C5"/>
</linearGradient>
<linearGradient id="paint1_linear_167_452" x1="91.7629" y1="0.333252" x2="91.7629" y2="59.4851" gradientUnits="userSpaceOnUse">
<stop stop-color="#02CCA1"/>
<stop offset="1" stop-color="#03F8C5"/>
</linearGradient>
<linearGradient id="paint2_linear_167_452" x1="91.7629" y1="0.333252" x2="91.7629" y2="59.4851" gradientUnits="userSpaceOnUse">
<stop stop-color="#02CCA1"/>
<stop offset="1" stop-color="#03F8C5"/>
</linearGradient>
<linearGradient id="paint3_linear_167_452" x1="91.7629" y1="0.333252" x2="91.7629" y2="59.4851" gradientUnits="userSpaceOnUse">
<stop stop-color="#02CCA1"/>
<stop offset="1" stop-color="#03F8C5"/>
</linearGradient>
<linearGradient id="paint4_linear_167_452" x1="91.7629" y1="0.333252" x2="91.7629" y2="59.4851" gradientUnits="userSpaceOnUse">
<stop stop-color="#02CCA1"/>
<stop offset="1" stop-color="#03F8C5"/>
</linearGradient>
<linearGradient id="paint5_linear_167_452" x1="91.7629" y1="0.333252" x2="91.7629" y2="59.4851" gradientUnits="userSpaceOnUse">
<stop stop-color="#02CCA1"/>
<stop offset="1" stop-color="#03F8C5"/>
</linearGradient>
<linearGradient id="paint6_linear_167_452" x1="91.7629" y1="0.333252" x2="91.7629" y2="59.4851" gradientUnits="userSpaceOnUse">
<stop stop-color="#02CCA1"/>
<stop offset="1" stop-color="#03F8C5"/>
</linearGradient>
<linearGradient id="paint7_linear_167_452" x1="91.7629" y1="0.333252" x2="91.7629" y2="59.4851" gradientUnits="userSpaceOnUse">
<stop stop-color="#02CCA1"/>
<stop offset="1" stop-color="#03F8C5"/>
</linearGradient>
<linearGradient id="paint8_linear_167_452" x1="91.7629" y1="0.333252" x2="91.7629" y2="59.4851" gradientUnits="userSpaceOnUse">
<stop stop-color="#02CCA1"/>
<stop offset="1" stop-color="#03F8C5"/>
</linearGradient>
<linearGradient id="paint9_linear_167_452" x1="91.7629" y1="0.333252" x2="91.7629" y2="59.4851" gradientUnits="userSpaceOnUse">
<stop stop-color="#02CCA1"/>
<stop offset="1" stop-color="#03F8C5"/>
</linearGradient>
<linearGradient id="paint10_linear_167_452" x1="91.7629" y1="0.333252" x2="91.7629" y2="59.4851" gradientUnits="userSpaceOnUse">
<stop stop-color="#02CCA1"/>
<stop offset="1" stop-color="#03F8C5"/>
</linearGradient>
<linearGradient id="paint11_linear_167_452" x1="91.7629" y1="0.333252" x2="91.7629" y2="59.4851" gradientUnits="userSpaceOnUse">
<stop stop-color="#02CCA1"/>
<stop offset="1" stop-color="#03F8C5"/>
</linearGradient>
<linearGradient id="paint12_linear_167_452" x1="91.7629" y1="0.333252" x2="91.7629" y2="59.4851" gradientUnits="userSpaceOnUse">
<stop stop-color="#02CCA1"/>
<stop offset="1" stop-color="#03F8C5"/>
</linearGradient>
<linearGradient id="paint13_linear_167_452" x1="91.7629" y1="0.333252" x2="91.7629" y2="59.4851" gradientUnits="userSpaceOnUse">
<stop stop-color="#02CCA1"/>
<stop offset="1" stop-color="#03F8C5"/>
</linearGradient>
<linearGradient id="paint14_linear_167_452" x1="91.7629" y1="0.333252" x2="91.7629" y2="59.4851" gradientUnits="userSpaceOnUse">
<stop stop-color="#02CCA1"/>
<stop offset="1" stop-color="#03F8C5"/>
</linearGradient>
<linearGradient id="paint15_linear_167_452" x1="91.7629" y1="0.333252" x2="91.7629" y2="59.4851" gradientUnits="userSpaceOnUse">
<stop stop-color="#02CCA1"/>
<stop offset="1" stop-color="#03F8C5"/>
</linearGradient>
<linearGradient id="paint16_linear_167_452" x1="91.7629" y1="0.333252" x2="91.7629" y2="59.4851" gradientUnits="userSpaceOnUse">
<stop stop-color="#02CCA1"/>
<stop offset="1" stop-color="#03F8C5"/>
</linearGradient>
<linearGradient id="paint17_linear_167_452" x1="91.7629" y1="0.333252" x2="91.7629" y2="59.4851" gradientUnits="userSpaceOnUse">
<stop stop-color="#02CCA1"/>
<stop offset="1" stop-color="#03F8C5"/>
</linearGradient>
<linearGradient id="paint18_linear_167_452" x1="91.7629" y1="0.333252" x2="91.7629" y2="59.4851" gradientUnits="userSpaceOnUse">
<stop stop-color="#02CCA1"/>
<stop offset="1" stop-color="#03F8C5"/>
</linearGradient>
<linearGradient id="paint19_linear_167_452" x1="91.7629" y1="0.333252" x2="91.7629" y2="59.4851" gradientUnits="userSpaceOnUse">
<stop stop-color="#02CCA1"/>
<stop offset="1" stop-color="#03F8C5"/>
</linearGradient>
<linearGradient id="paint20_linear_167_452" x1="91.7629" y1="0.333252" x2="91.7629" y2="59.4851" gradientUnits="userSpaceOnUse">
<stop stop-color="#02CCA1"/>
<stop offset="1" stop-color="#03F8C5"/>
</linearGradient>
<linearGradient id="paint21_linear_167_452" x1="91.7629" y1="0.333252" x2="91.7629" y2="59.4851" gradientUnits="userSpaceOnUse">
<stop stop-color="#02CCA1"/>
<stop offset="1" stop-color="#03F8C5"/>
</linearGradient>
<linearGradient id="paint22_linear_167_452" x1="91.7629" y1="0.333252" x2="91.7629" y2="59.4851" gradientUnits="userSpaceOnUse">
<stop stop-color="#02CCA1"/>
<stop offset="1" stop-color="#03F8C5"/>
</linearGradient>
<linearGradient id="paint23_linear_167_452" x1="91.7629" y1="0.333252" x2="91.7629" y2="59.4851" gradientUnits="userSpaceOnUse">
<stop stop-color="#02CCA1"/>
<stop offset="1" stop-color="#03F8C5"/>
</linearGradient>
<linearGradient id="paint24_linear_167_452" x1="91.7629" y1="0.333252" x2="91.7629" y2="59.4851" gradientUnits="userSpaceOnUse">
<stop stop-color="#02CCA1"/>
<stop offset="1" stop-color="#03F8C5"/>
</linearGradient>
<linearGradient id="paint25_linear_167_452" x1="91.7629" y1="0.333252" x2="91.7629" y2="59.4851" gradientUnits="userSpaceOnUse">
<stop stop-color="#02CCA1"/>
<stop offset="1" stop-color="#03F8C5"/>
</linearGradient>
<linearGradient id="paint26_linear_167_452" x1="91.7629" y1="0.333252" x2="91.7629" y2="59.4851" gradientUnits="userSpaceOnUse">
<stop stop-color="#02CCA1"/>
<stop offset="1" stop-color="#03F8C5"/>
</linearGradient>
<linearGradient id="paint27_linear_167_452" x1="91.7629" y1="0.333252" x2="91.7629" y2="59.4851" gradientUnits="userSpaceOnUse">
<stop stop-color="#02CCA1"/>
<stop offset="1" stop-color="#03F8C5"/>
</linearGradient>
<linearGradient id="paint28_linear_167_452" x1="91.7629" y1="0.333252" x2="91.7629" y2="59.4851" gradientUnits="userSpaceOnUse">
<stop stop-color="#02CCA1"/>
<stop offset="1" stop-color="#03F8C5"/>
</linearGradient>
<linearGradient id="paint29_linear_167_452" x1="91.7629" y1="0.333252" x2="91.7629" y2="59.4851" gradientUnits="userSpaceOnUse">
<stop stop-color="#02CCA1"/>
<stop offset="1" stop-color="#03F8C5"/>
</linearGradient>
<linearGradient id="paint30_linear_167_452" x1="91.7629" y1="0.333252" x2="91.7629" y2="59.4851" gradientUnits="userSpaceOnUse">
<stop stop-color="#02CCA1"/>
<stop offset="1" stop-color="#03F8C5"/>
</linearGradient>
<linearGradient id="paint31_linear_167_452" x1="91.7629" y1="0.333252" x2="91.7629" y2="59.4851" gradientUnits="userSpaceOnUse">
<stop stop-color="#02CCA1"/>
<stop offset="1" stop-color="#03F8C5"/>
</linearGradient>
<linearGradient id="paint32_linear_167_452" x1="91.7629" y1="0.333252" x2="91.7629" y2="59.4851" gradientUnits="userSpaceOnUse">
<stop stop-color="#02CCA1"/>
<stop offset="1" stop-color="#03F8C5"/>
</linearGradient>
<linearGradient id="paint33_linear_167_452" x1="91.7629" y1="0.333252" x2="91.7629" y2="59.4851" gradientUnits="userSpaceOnUse">
<stop stop-color="#02CCA1"/>
<stop offset="1" stop-color="#03F8C5"/>
</linearGradient>
<linearGradient id="paint34_linear_167_452" x1="91.7629" y1="0.333252" x2="91.7629" y2="59.4851" gradientUnits="userSpaceOnUse">
<stop stop-color="#02CCA1"/>
<stop offset="1" stop-color="#03F8C5"/>
</linearGradient>
<linearGradient id="paint35_linear_167_452" x1="91.7629" y1="0.333252" x2="91.7629" y2="59.4851" gradientUnits="userSpaceOnUse">
<stop stop-color="#02CCA1"/>
<stop offset="1" stop-color="#03F8C5"/>
</linearGradient>
<linearGradient id="paint36_linear_167_452" x1="91.7629" y1="0.333252" x2="91.7629" y2="59.4851" gradientUnits="userSpaceOnUse">
<stop stop-color="#02CCA1"/>
<stop offset="1" stop-color="#03F8C5"/>
</linearGradient>
<linearGradient id="paint37_linear_167_452" x1="91.7629" y1="0.333252" x2="91.7629" y2="59.4851" gradientUnits="userSpaceOnUse">
<stop stop-color="#02CCA1"/>
<stop offset="1" stop-color="#03F8C5"/>
</linearGradient>
<linearGradient id="paint38_linear_167_452" x1="91.7629" y1="0.333252" x2="91.7629" y2="59.4851" gradientUnits="userSpaceOnUse">
<stop stop-color="#02CCA1"/>
<stop offset="1" stop-color="#03F8C5"/>
</linearGradient>
<linearGradient id="paint39_linear_167_452" x1="91.7629" y1="0.333252" x2="91.7629" y2="59.4851" gradientUnits="userSpaceOnUse">
<stop stop-color="#02CCA1"/>
<stop offset="1" stop-color="#03F8C5"/>
</linearGradient>
<linearGradient id="paint40_linear_167_452" x1="91.7629" y1="0.333252" x2="91.7629" y2="59.4851" gradientUnits="userSpaceOnUse">
<stop stop-color="#02CCA1"/>
<stop offset="1" stop-color="#03F8C5"/>
</linearGradient>
<linearGradient id="paint41_linear_167_452" x1="91.7629" y1="0.333252" x2="91.7629" y2="59.4851" gradientUnits="userSpaceOnUse">
<stop stop-color="#02CCA1"/>
<stop offset="1" stop-color="#03F8C5"/>
</linearGradient>
<linearGradient id="paint42_linear_167_452" x1="91.7629" y1="0.333252" x2="91.7629" y2="59.4851" gradientUnits="userSpaceOnUse">
<stop stop-color="#02CCA1"/>
<stop offset="1" stop-color="#03F8C5"/>
</linearGradient>
<linearGradient id="paint43_linear_167_452" x1="91.7629" y1="0.333252" x2="91.7629" y2="59.4851" gradientUnits="userSpaceOnUse">
<stop stop-color="#02CCA1"/>
<stop offset="1" stop-color="#03F8C5"/>
</linearGradient>
<linearGradient id="paint44_linear_167_452" x1="91.7629" y1="0.333252" x2="91.7629" y2="59.4851" gradientUnits="userSpaceOnUse">
<stop stop-color="#02CCA1"/>
<stop offset="1" stop-color="#03F8C5"/>
</linearGradient>
</defs>
</svg>
