<svg width="692" height="67" viewBox="0 0 692 67" fill="none" xmlns="http://www.w3.org/2000/svg">
<path d="M0.666504 33.3333C0.666504 14.9238 15.5903 0 33.9998 0H658C676.409 0 691.333 14.9238 691.333 33.3333C691.333 51.7428 676.409 66.6667 658 66.6667H33.9998C15.5903 66.6667 0.666504 51.7428 0.666504 33.3333Z" fill="#002F23"/>
<path d="M76.4638 40.4402H70.1705C67.6105 40.4402 66.3732 39.2028 66.3732 36.6428V29.0695C66.3732 26.5095 67.6105 25.2935 70.1705 25.2935H76.4638C79.0238 25.2935 80.2398 26.5095 80.2398 29.0695V36.6428C80.2398 39.2028 79.0238 40.4402 76.4638 40.4402ZM71.0665 37.5602H75.5465C76.5065 37.5602 76.9332 37.1335 76.9332 36.1735V29.5602C76.9332 28.6002 76.5065 28.1735 75.5465 28.1735H71.0665C70.1065 28.1735 69.6798 28.6002 69.6798 29.5602V36.1735C69.6798 37.1335 70.1065 37.5602 71.0665 37.5602ZM87.996 40.4402H86.716C84.3907 40.4402 83.3667 39.3948 83.3667 37.0695V29.6668C83.3667 29.3682 83.4947 29.2402 83.7933 29.2402H86.076C86.3747 29.2402 86.5027 29.3682 86.5027 29.6668V36.4295C86.5027 37.3682 86.8013 37.6668 87.74 37.6668H89.66C90.5987 37.6668 90.876 37.3682 90.876 36.4295V29.6668C90.876 29.3682 91.004 29.2402 91.3027 29.2402H93.6067C93.9053 29.2402 94.0333 29.3682 94.0333 29.6668V39.9068C94.0333 40.2055 93.9053 40.3335 93.6067 40.3335H91.3027C91.004 40.3335 90.876 40.2055 90.876 39.9068V38.9895H90.7267C90.3853 39.8855 89.3827 40.4402 87.996 40.4402ZM99.8498 40.3335H97.5672C97.2685 40.3335 97.1405 40.2055 97.1405 39.9068V29.6668C97.1405 29.3682 97.2685 29.2402 97.5672 29.2402H99.8498C100.149 29.2402 100.277 29.3682 100.277 29.6668V30.5628H100.447C100.767 29.6882 101.791 29.1335 103.157 29.1335H104.863C105.162 29.1335 105.29 29.2615 105.29 29.5602V31.6935C105.29 31.9922 105.162 32.1202 104.863 32.1202H101.514C100.575 32.1202 100.277 32.3975 100.277 33.3362V39.9068C100.277 40.2055 100.149 40.3335 99.8498 40.3335ZM120.984 40.4402H115.181C112.664 40.4402 111.597 39.3735 111.597 36.8562V36.0028C111.597 35.7042 111.725 35.5762 112.024 35.5762H114.541C114.84 35.5762 114.968 35.7042 114.968 36.0028V36.6002C114.968 37.5388 115.309 37.8802 116.248 37.8802H119.981C120.92 37.8802 121.261 37.5388 121.261 36.6002V35.4268C121.261 34.4882 120.92 34.1468 119.981 34.1468H115.267C112.771 34.1468 111.704 33.0802 111.704 30.5842V28.8562C111.704 26.3602 112.771 25.2935 115.267 25.2935H120.899C123.395 25.2935 124.461 26.3602 124.461 28.8562V29.7095C124.461 30.0082 124.333 30.1362 124.035 30.1362H121.539C121.24 30.1362 121.112 30.0082 121.112 29.7095V29.1335C121.112 28.1948 120.771 27.8535 119.832 27.8535H116.291C115.352 27.8535 115.011 28.1948 115.011 29.1335V30.3068C115.011 31.2455 115.352 31.5868 116.291 31.5868H120.984C123.501 31.5868 124.568 32.6535 124.568 35.1495V36.8562C124.568 39.3735 123.501 40.4402 120.984 40.4402ZM134.606 40.4402H130.296C127.971 40.4402 126.926 39.3948 126.926 37.0695V32.4828C126.926 30.1575 127.971 29.1335 130.296 29.1335H134.606C136.931 29.1335 137.976 30.1575 137.976 32.4828V37.0695C137.976 39.3948 136.931 40.4402 134.606 40.4402ZM131.299 37.8802H133.603C134.542 37.8802 134.819 37.5815 134.819 36.6428V32.9095C134.819 31.9708 134.542 31.6935 133.603 31.6935H131.299C130.36 31.6935 130.083 31.9708 130.083 32.9095V36.6428C130.083 37.5815 130.36 37.8802 131.299 37.8802ZM143.517 40.3335H141.234C140.935 40.3335 140.807 40.2055 140.807 39.9068V25.8268C140.807 25.5282 140.935 25.4002 141.234 25.4002H143.517C143.815 25.4002 143.943 25.5282 143.943 25.8268V39.9068C143.943 40.2055 143.815 40.3335 143.517 40.3335ZM151.559 40.4402H150.279C147.953 40.4402 146.929 39.3948 146.929 37.0695V29.6668C146.929 29.3682 147.057 29.2402 147.356 29.2402H149.639C149.937 29.2402 150.065 29.3682 150.065 29.6668V36.4295C150.065 37.3682 150.364 37.6668 151.303 37.6668H153.223C154.161 37.6668 154.439 37.3682 154.439 36.4295V29.6668C154.439 29.3682 154.567 29.2402 154.865 29.2402H157.169C157.468 29.2402 157.596 29.3682 157.596 29.6668V39.9068C157.596 40.2055 157.468 40.3335 157.169 40.3335H154.865C154.567 40.3335 154.439 40.2055 154.439 39.9068V38.9895H154.289C153.948 39.8855 152.945 40.4402 151.559 40.4402ZM167.316 31.6935H164.756V36.4295C164.756 37.3682 165.034 37.6668 165.972 37.6668H167.316C167.615 37.6668 167.743 37.7948 167.743 38.0935V39.9068C167.743 40.2055 167.615 40.3335 167.316 40.3335H164.97C162.644 40.3335 161.599 39.2882 161.599 36.9628V31.6935H159.786C159.487 31.6935 159.359 31.5655 159.359 31.2668V29.6668C159.359 29.3682 159.487 29.2402 159.786 29.2402H161.599V27.4695C161.599 27.1708 161.727 27.0428 162.026 27.0428H164.33C164.628 27.0428 164.756 27.1708 164.756 27.4695V29.2402H167.316C167.615 29.2402 167.743 29.3682 167.743 29.6668V31.2668C167.743 31.5655 167.615 31.6935 167.316 31.6935ZM172.999 27.8535H170.481C170.183 27.8535 170.055 27.7255 170.055 27.4268V25.6135C170.055 25.3148 170.183 25.1868 170.481 25.1868H172.999C173.297 25.1868 173.425 25.3148 173.425 25.6135V27.4268C173.425 27.7255 173.297 27.8535 172.999 27.8535ZM172.871 40.3335H170.588C170.289 40.3335 170.161 40.2055 170.161 39.9068V29.6668C170.161 29.3682 170.289 29.2402 170.588 29.2402H172.871C173.169 29.2402 173.297 29.3682 173.297 29.6668V39.9068C173.297 40.2055 173.169 40.3335 172.871 40.3335ZM183.814 40.4402H179.505C177.179 40.4402 176.134 39.3948 176.134 37.0695V32.4828C176.134 30.1575 177.179 29.1335 179.505 29.1335H183.814C186.139 29.1335 187.185 30.1575 187.185 32.4828V37.0695C187.185 39.3948 186.139 40.4402 183.814 40.4402ZM180.507 37.8802H182.811C183.75 37.8802 184.027 37.5815 184.027 36.6428V32.9095C184.027 31.9708 183.75 31.6935 182.811 31.6935H180.507C179.569 31.6935 179.291 31.9708 179.291 32.9095V36.6428C179.291 37.5815 179.569 37.8802 180.507 37.8802ZM192.725 40.3335H190.442C190.144 40.3335 190.016 40.2055 190.016 39.9068V29.6668C190.016 29.3682 190.144 29.2402 190.442 29.2402H192.725C193.024 29.2402 193.152 29.3682 193.152 29.6668V30.5628H193.322C193.472 30.0935 194.176 29.1335 196.032 29.1335H197.312C199.637 29.1335 200.682 30.1575 200.682 32.4828V39.9068C200.682 40.2055 200.554 40.3335 200.256 40.3335H197.952C197.653 40.3335 197.525 40.2055 197.525 39.9068V33.1228C197.525 32.1842 197.248 31.9068 196.309 31.9068H194.389C193.45 31.9068 193.152 32.1842 193.152 33.1228V39.9068C193.152 40.2055 193.024 40.3335 192.725 40.3335ZM210.851 40.4402H206.413C204.067 40.4402 203.171 39.5228 203.171 37.4535V37.0268C203.171 36.7282 203.299 36.6002 203.597 36.6002H205.923C206.243 36.6002 206.371 36.7282 206.371 37.0268V37.3255C206.371 37.9868 206.691 38.3068 207.437 38.3068H209.677C210.424 38.3068 210.68 38.0508 210.68 37.4108V36.6855C210.68 36.0882 210.424 35.8535 209.677 35.8535H206.264C204.195 35.8535 203.277 34.9575 203.277 33.0588V31.9068C203.277 30.0295 204.173 29.1335 206.264 29.1335H210.467C212.813 29.1335 213.731 30.0295 213.731 32.1202V32.4402C213.731 32.7388 213.603 32.8668 213.304 32.8668H210.957C210.659 32.8668 210.531 32.7388 210.531 32.4402V32.2482C210.531 31.5868 210.211 31.2668 209.464 31.2668H207.437C206.691 31.2668 206.435 31.5442 206.435 32.1842V32.8242C206.435 33.4642 206.691 33.7202 207.437 33.7202H210.893C212.963 33.7202 213.837 34.5948 213.837 36.4508V37.6668C213.837 39.5442 212.941 40.4402 210.851 40.4402Z" fill="#E4E9E7"/>
<g clip-path="url(#clip0_173_366)">
<path d="M414.141 12.0728H412.567L411.185 14.4594L412.761 14.4601L414.141 12.0728Z" fill="#03F8C5"/>
<path d="M405.521 27.4416L407.003 29.985L417.26 12.0728H415.684L406.97 27.217L404.611 23.1313L411.03 12.0728H409.41L403.029 23.1249L404.268 25.2707" fill="#03F8C5"/>
<path d="M426.236 19.1107L418.273 32.7747H416.693L419.808 27.4454L417.654 23.7143L416.931 25.0159L418.271 27.3373L415.153 32.7924L410.198 32.7812L422.188 12.0728H420.642L408.658 32.8737L409.411 34.177H422.173L424.911 29.4675L425.788 27.9376L428.553 23.1249L426.236 19.1105V19.1107ZM415.109 33.8986L415.534 32.9856H416.317L416.664 33.8986H415.109ZM421.356 32.7747H419.736L426.128 21.743L426.919 23.125L421.356 32.7747Z" fill="#03F8C5"/>
<path d="M423.041 46.9145H402.113L391.649 28.7905L402.113 10.6665H423.041L433.505 28.7905L423.041 46.9145H423.041ZM402.925 45.5085H422.229L431.881 28.7905L422.229 12.0725H402.925L393.273 28.7905L402.925 45.5085Z" fill="#03F8C5"/>
<path d="M404.111 39.8832L403.238 38.4542L404.437 37.7207L405.591 39.5786L404.111 39.8832Z" fill="#03F8C5"/>
<path d="M401.93 45.1923L401.139 43.8221L404.414 39.0386L405.591 39.5784L401.93 45.1923Z" fill="#03F8C5"/>
<path d="M406.933 41.5122L408.554 41.5065L408.506 40.0122H406.753L406.933 41.5122Z" fill="#03F8C5"/>
<path d="M403.073 45.7176L404.771 45.7105L407.727 41.0465L406.753 40.0122L403.073 45.7176Z" fill="#03F8C5"/>
<path d="M409.202 40.9684L409.202 40.9667L407.857 40.5598C407.897 40.4253 408.885 37.2575 411.686 36.507C413.881 35.9186 417.213 37.7332 420.116 40.4567L418.407 40.7501C417.016 39.4451 415.72 38.5547 414.555 38.1038C413.636 37.7482 412.796 37.6671 412.057 37.863C411.219 38.0852 410.49 38.6598 409.889 39.5709C409.413 40.2936 409.204 40.9616 409.202 40.9682L409.202 40.9684Z" fill="#03F8C5"/>
<path d="M412.739 44.6013C412.328 44.6013 411.929 44.5495 411.542 44.4458C408.741 43.6952 407.754 40.5275 407.713 40.393L409.059 39.9861L409.058 39.9844C409.06 39.991 409.269 40.659 409.745 41.3817C410.346 42.2928 411.075 42.8674 411.913 43.0896C412.652 43.2855 413.492 43.2045 414.411 42.8488C415.576 42.3979 416.872 41.5077 418.263 40.2025L420.115 40.4566C417.724 42.6998 414.659 44.6012 412.739 44.6012L412.739 44.6013Z" fill="#03F8C5"/>
<path d="M403.305 37.8257L403.307 37.8246L404.257 38.8608C404.361 38.7658 406.787 36.5022 406.248 33.6528C405.826 31.4194 402.746 29.2044 399.033 27.77L399.51 29.4368C401.289 30.1241 402.653 30.9058 403.565 31.7601C404.284 32.434 404.722 33.1561 404.865 33.9064C405.028 34.7577 404.827 35.6642 404.266 36.6007C403.822 37.3436 403.311 37.8212 403.305 37.8259V37.8257Z" fill="#03F8C5"/>
<path d="M398.498 36.2138C398.676 36.5841 398.896 36.9214 399.158 37.2251C401.049 39.4235 404.331 38.9395 404.47 38.9177L404.253 37.5286L404.255 37.5283C404.248 37.5293 403.556 37.6312 402.698 37.5151C401.616 37.369 400.782 36.961 400.219 36.3024C399.722 35.7221 399.43 34.9297 399.352 33.9472C399.253 32.7018 399.493 31.148 400.066 29.3285L399.034 27.77C398.049 30.8973 397.666 34.4841 398.498 36.2138Z" fill="#03F8C5"/>
<path d="M409.085 40.763L420.115 40.4565" stroke="#03F8C5" stroke-width="0.32234" stroke-miterlimit="10"/>
<path d="M412.285 38.9937H411.646L410.112 40.7629" stroke="#03F8C5" stroke-width="0.32234" stroke-miterlimit="10"/>
<path d="M414.601 38.9771H414.202L412.882 40.6097" stroke="#03F8C5" stroke-width="0.32234" stroke-miterlimit="10"/>
<path d="M416.134 39.5547H415.603L414.825 40.5948" stroke="#03F8C5" stroke-width="0.32234" stroke-miterlimit="10"/>
<path d="M409.643 40.7632L411.348 42.2929H411.731" stroke="#03F8C5" stroke-width="0.32234" stroke-miterlimit="10"/>
<path d="M411.368 40.6997L412.775 42.0434H413.584" stroke="#03F8C5" stroke-width="0.32234" stroke-miterlimit="10"/>
<path d="M414.095 40.6235L415.109 41.3711H415.763" stroke="#03F8C5" stroke-width="0.32234" stroke-miterlimit="10"/>
<path d="M403.431 37.4353L401.28 36.649L401.1 36.3105" stroke="#03F8C5" stroke-width="0.32234" stroke-miterlimit="10"/>
<path d="M403.789 38.1528L399.238 28.0996" stroke="#03F8C5" stroke-width="0.32234" stroke-miterlimit="10"/>
<path d="M403.979 34.502L404.259 35.0766L403.339 37.2299" stroke="#03F8C5" stroke-width="0.32234" stroke-miterlimit="10"/>
<path d="M402.981 32.4121L403.156 32.7704L402.266 34.6724" stroke="#03F8C5" stroke-width="0.32234" stroke-miterlimit="10"/>
<path d="M401.667 31.0312L401.899 31.5087L401.304 32.6631" stroke="#03F8C5" stroke-width="0.32234" stroke-miterlimit="10"/>
<path d="M402.803 35.9312L400.987 35.2338L400.641 34.502" stroke="#03F8C5" stroke-width="0.32234" stroke-miterlimit="10"/>
<path d="M401.722 33.587L400.606 33.0024L400.32 32.4141" stroke="#03F8C5" stroke-width="0.32234" stroke-miterlimit="10"/>
<path d="M401.557 31.0998C401.714 31.0998 401.84 30.973 401.84 30.8167C401.84 30.6604 401.714 30.5337 401.557 30.5337C401.401 30.5337 401.274 30.6604 401.274 30.8167C401.274 30.973 401.401 31.0998 401.557 31.0998Z" stroke="#03F8C5" stroke-width="0.32234" stroke-miterlimit="10"/>
<path d="M400.257 32.464C400.413 32.464 400.54 32.3373 400.54 32.181C400.54 32.0247 400.413 31.8979 400.257 31.8979C400.101 31.8979 399.974 32.0247 399.974 32.181C399.974 32.3373 400.101 32.464 400.257 32.464Z" stroke="#03F8C5" stroke-width="0.32234" stroke-miterlimit="10"/>
<path d="M402.872 32.464C403.028 32.464 403.155 32.3373 403.155 32.181C403.155 32.0247 403.028 31.8979 402.872 31.8979C402.716 31.8979 402.589 32.0247 402.589 32.181C402.589 32.3373 402.716 32.464 402.872 32.464Z" stroke="#03F8C5" stroke-width="0.32234" stroke-miterlimit="10"/>
<path d="M401.021 36.3654C401.177 36.3654 401.304 36.2387 401.304 36.0824C401.304 35.926 401.177 35.7993 401.021 35.7993C400.864 35.7993 400.738 35.926 400.738 36.0824C400.738 36.2387 400.864 36.3654 401.021 36.3654Z" stroke="#03F8C5" stroke-width="0.32234" stroke-miterlimit="10"/>
<path d="M403.876 34.5529C404.032 34.5529 404.159 34.4262 404.159 34.2699C404.159 34.1135 404.032 33.9868 403.876 33.9868C403.719 33.9868 403.593 34.1135 403.593 34.2699C403.593 34.4262 403.719 34.5529 403.876 34.5529Z" stroke="#03F8C5" stroke-width="0.32234" stroke-miterlimit="10"/>
<path d="M400.564 34.5529C400.72 34.5529 400.847 34.4262 400.847 34.2699C400.847 34.1135 400.72 33.9868 400.564 33.9868C400.407 33.9868 400.281 34.1135 400.281 34.2699C400.281 34.4262 400.407 34.5529 400.564 34.5529Z" stroke="#03F8C5" stroke-width="0.32234" stroke-miterlimit="10"/>
<path d="M416.05 41.654C416.206 41.654 416.333 41.5272 416.333 41.3709C416.333 41.2146 416.206 41.0879 416.05 41.0879C415.894 41.0879 415.767 41.2146 415.767 41.3709C415.767 41.5272 415.894 41.654 416.05 41.654Z" stroke="#03F8C5" stroke-width="0.32234" stroke-miterlimit="10"/>
<path d="M416.417 39.8381C416.573 39.8381 416.7 39.7113 416.7 39.555C416.7 39.3987 416.573 39.272 416.417 39.272C416.261 39.272 416.134 39.3987 416.134 39.555C416.134 39.7113 416.261 39.8381 416.417 39.8381Z" stroke="#03F8C5" stroke-width="0.32234" stroke-miterlimit="10"/>
<path d="M414.825 39.2531C414.982 39.2531 415.108 39.1264 415.108 38.9701C415.108 38.8137 414.982 38.687 414.825 38.687C414.669 38.687 414.542 38.8137 414.542 38.9701C414.542 39.1264 414.669 39.2531 414.825 39.2531Z" stroke="#03F8C5" stroke-width="0.32234" stroke-miterlimit="10"/>
<path d="M411.936 42.5627C412.092 42.5627 412.219 42.4359 412.219 42.2796C412.219 42.1233 412.092 41.9966 411.936 41.9966C411.78 41.9966 411.653 42.1233 411.653 42.2796C411.653 42.4359 411.78 42.5627 411.936 42.5627Z" stroke="#03F8C5" stroke-width="0.32234" stroke-miterlimit="10"/>
<path d="M412.562 39.2531C412.719 39.2531 412.845 39.1264 412.845 38.9701C412.845 38.8137 412.719 38.687 412.562 38.687C412.406 38.687 412.279 38.8137 412.279 38.9701C412.279 39.1264 412.406 39.2531 412.562 39.2531Z" stroke="#03F8C5" stroke-width="0.32234" stroke-miterlimit="10"/>
<path d="M413.868 42.3258C414.024 42.3258 414.151 42.1991 414.151 42.0428C414.151 41.8865 414.024 41.7598 413.868 41.7598C413.711 41.7598 413.585 41.8865 413.585 42.0428C413.585 42.1991 413.711 42.3258 413.868 42.3258Z" stroke="#03F8C5" stroke-width="0.32234" stroke-miterlimit="10"/>
<path d="M392.109 52.6484L393.26 54.1304L394.415 52.6484H394.7V55.8141H394.374V53.2013L393.265 54.6106L393.251 54.6063L392.141 53.1904V55.8141H391.815V52.6484H392.109Z" fill="#00D3A4"/>
<path d="M396.407 55.8141H396.059L397.361 52.6484H397.713L399.02 55.8141H398.659L398.36 55.074H396.708L396.407 55.8141H396.407ZM397.54 53.0451L397.531 53.0455L396.831 54.7708H398.237L397.54 53.0451H397.54Z" fill="#00D3A4"/>
<path d="M401.842 54.8287V52.6484H402.167V54.8198C402.167 55.1407 402.077 55.3965 401.895 55.5867C401.714 55.777 401.466 55.872 401.151 55.872C400.836 55.872 400.592 55.7814 400.411 55.6C400.229 55.4188 400.139 55.1735 400.139 54.8644L400.148 54.6682H400.478C400.472 54.7188 400.469 54.7841 400.469 54.8644C400.469 55.0754 400.528 55.2471 400.647 55.3793C400.766 55.5116 400.934 55.5777 401.151 55.5777C401.368 55.5777 401.541 55.5124 401.661 55.3816C401.782 55.2508 401.842 55.0666 401.842 54.8287Z" fill="#00D3A4"/>
<path d="M403.733 55.8141H403.385L404.687 52.6484H405.039L406.345 55.8141H405.984L405.685 55.074H404.033L403.732 55.8141H403.733ZM404.865 53.0451L404.857 53.0455L404.156 54.7708H405.563L404.866 53.0451H404.865Z" fill="#00D3A4"/>
<path d="M408.031 53.1735V55.8141H407.705V52.6484H408.045L409.894 55.3015V52.6484H410.22V55.8141H409.877L408.031 53.1735H408.031Z" fill="#00D3A4"/>
<path d="M413.341 53.2013C413.055 53.2013 412.833 53.2935 412.674 53.4777C412.515 53.662 412.436 53.9117 412.436 54.2267C412.436 54.5417 412.516 54.7996 412.677 54.9913C412.837 55.1831 413.058 55.2789 413.341 55.2789C413.852 55.2789 414.152 55.0679 414.242 54.6458H413.502V54.0617H414.87V55.8139H414.291V55.4305C414.086 55.7188 413.754 55.8629 413.296 55.8629C412.839 55.8629 412.478 55.7121 412.186 55.4104C411.895 55.1088 411.749 54.7143 411.749 54.2267C411.749 53.7391 411.899 53.3395 412.2 53.0363C412.5 52.7331 412.88 52.5815 413.341 52.5815C413.716 52.5815 414.039 52.6804 414.313 52.8781C414.586 53.0758 414.765 53.344 414.848 53.6829L414.179 53.8211C414.132 53.625 414.034 53.4726 413.885 53.3641C413.736 53.2556 413.555 53.2013 413.341 53.2013H413.341Z" fill="#00F9CA"/>
<path d="M419.03 55.8141H418.276L417.683 54.6147H417.059V55.8141H416.408V52.6484H417.844C418.18 52.6484 418.44 52.7392 418.624 52.9204C418.808 53.1018 418.901 53.3411 418.901 53.6382C418.901 53.8522 418.852 54.038 418.756 54.1955C418.659 54.3531 418.52 54.469 418.339 54.5433L419.03 55.8139L419.03 55.8141ZM418.147 53.917C418.215 53.8501 418.249 53.7572 418.249 53.6383C418.249 53.5194 418.215 53.4243 418.145 53.353C418.075 53.2817 417.975 53.2461 417.844 53.2461H417.059V54.0174H417.844C417.978 54.0174 418.078 53.984 418.147 53.9171V53.917Z" fill="#00F9CA"/>
<path d="M422.583 55.2166V55.8141H420.305V52.6484H422.583V53.2459H420.956V53.9103H422.516V54.5078H420.956V55.2167H422.583V55.2166Z" fill="#00F9CA"/>
<path d="M426.31 55.2166V55.8141H424.032V52.6484H426.31V53.2459H424.683V53.9103H426.243V54.5078H424.683V55.2167H426.31V55.2166Z" fill="#00F9CA"/>
<path d="M428.392 53.723V55.8141H427.759V52.6484H428.409L429.797 54.7481V52.6484H430.43V55.8141H429.774L428.392 53.723Z" fill="#00F9CA"/>
</g>
<g clip-path="url(#clip1_173_366)">
<path d="M547.225 33.6914L546.459 34.8652L549.842 37.0736L550.607 35.8998L547.225 33.6914Z" fill="#03F8C5"/>
<path d="M554.796 29.7339L554.03 30.9077L557.413 33.1161L558.179 31.9423L554.796 29.7339Z" fill="#03F8C5"/>
<path d="M536.726 18.9077H535.211L533.88 21.2072L535.398 21.2078L536.726 18.9077Z" fill="#03F8C5"/>
<path d="M528.426 33.715L529.852 36.1656L539.731 18.9077H538.214L529.821 33.4988L527.549 29.5622L533.731 18.9077H532.171L526.026 29.5561L527.219 31.6234" fill="#03F8C5"/>
<path d="M548.375 25.6885L540.706 38.8533H539.185L542.185 33.7188L540.11 30.1239L539.414 31.378L540.705 33.6145L537.701 38.8703L532.93 38.8596L544.476 18.9077H542.988L531.446 38.9486L532.171 40.2043H544.462L547.099 35.6669L547.944 34.1931L550.607 29.5561L548.375 25.6885H548.375ZM537.659 39.9362L538.069 39.0566H538.823L539.157 39.9362H537.659ZM543.676 38.8532H542.116L548.272 28.2245L549.034 29.5559L543.676 38.853V38.8532Z" fill="#03F8C5"/>
<path d="M549.413 48.8013H527.404L516.399 29.7338L527.404 10.6665H549.413L560.417 29.7338L549.413 48.8012V48.8013ZM528.213 47.3997H548.604L558.799 29.734L548.604 12.0682H528.213L518.017 29.7338L528.213 47.3995V47.3997Z" fill="#03F8C5"/>
<path d="M527.598 31.9257L524.484 33.647L525.161 34.8738L528.276 33.1526L527.598 31.9257Z" fill="#03F8C5"/>
<path d="M540.929 44.7679H529.732L525.857 38.0539L527.071 37.353L530.541 43.3662H540.929V44.7679Z" fill="#03F8C5"/>
<path d="M547.084 44.7672H543.463V43.3655H546.275L554.142 29.7344L550.994 24.2804L552.208 23.5796L555.76 29.7344L547.084 44.7672Z" fill="#03F8C5"/>
<path d="M549.272 21.2962L546.275 16.1033H545.237V14.7017H547.084L550.485 20.5954L549.272 21.2962Z" fill="#03F8C5"/>
<path d="M525.085 25.5569L523.872 24.856L529.732 14.7017H542.032V16.1033H530.541L525.085 25.5569Z" fill="#03F8C5"/>
<path d="M524.364 35.4664L521.056 29.7345L523.19 26.0386L524.403 26.7394L522.674 29.7345L525.578 34.7656L524.364 35.4664Z" fill="#03F8C5"/>
<path d="M529.53 43.7158L527.201 47.7505L528.415 48.4513L530.743 44.4166L529.53 43.7158Z" fill="#03F8C5"/>
<path d="M547.286 43.7157L546.073 44.4165L548.402 48.4512L549.615 47.7504L547.286 43.7157Z" fill="#03F8C5"/>
<path d="M551.092 15.1547L547.856 17.6172L548.704 18.7328L551.94 16.2702L551.092 15.1547Z" fill="#03F8C5"/>
<path d="M532.761 11.3672H531.359V15.4019H532.761V11.3672Z" fill="#03F8C5"/>
<path d="M514.571 52.4878L515.779 54.0438L516.991 52.4878H517.29V55.8115H516.948V53.0683L515.784 54.5479L515.77 54.5435L514.604 53.0568V55.8115H514.262V52.4878H514.571Z" fill="#00D3A4"/>
<path d="M519.083 55.8115H518.718L520.084 52.4878H520.454L521.825 55.8115H521.446L521.132 55.0345H519.398L519.082 55.8115H519.083ZM520.272 52.9043L520.262 52.9047L519.527 54.7162H521.003L520.272 52.9043H520.272Z" fill="#00D3A4"/>
<path d="M524.787 54.777V52.4878H525.128V54.7676C525.128 55.1046 525.033 55.3731 524.843 55.5728C524.652 55.7726 524.392 55.8724 524.061 55.8724C523.731 55.8724 523.475 55.7772 523.284 55.5868C523.094 55.3966 522.999 55.139 522.999 54.8144L523.008 54.6085H523.355C523.348 54.6616 523.345 54.7302 523.345 54.8144C523.345 55.036 523.408 55.2163 523.532 55.3551C523.657 55.4939 523.833 55.5634 524.061 55.5634C524.289 55.5634 524.471 55.4948 524.597 55.3575C524.724 55.2202 524.787 55.0268 524.787 54.777H524.787Z" fill="#00D3A4"/>
<path d="M526.771 55.8115H526.406L527.772 52.4878H528.142L529.513 55.8115H529.134L528.82 55.0345H527.086L526.77 55.8115H526.771ZM527.96 52.9043L527.95 52.9047L527.215 54.7162H528.691L527.96 52.9043H527.96Z" fill="#00D3A4"/>
<path d="M531.282 53.0391V55.8115H530.94V52.4878H531.297L533.238 55.2734V52.4878H533.58V55.8115H533.219L531.282 53.0391H531.282Z" fill="#00D3A4"/>
<path d="M537.519 52.4878V53.1291H536.607V55.8115H535.924V53.1291H535.011V52.4878H537.519H537.519Z" fill="#00F9CA"/>
<path d="M541.586 52.4878V55.8115H540.903V54.44H539.513V55.8115H538.83V52.4878H539.513V53.8125H540.903V52.4878H541.586Z" fill="#00F9CA"/>
<path d="M543.578 55.8115H542.863L544.061 52.4878H544.833L546.028 55.8115H545.348L545.146 55.2404H543.781L543.578 55.8115ZM544.47 53.3298L544.459 53.3304L543.999 54.6271H544.929L544.47 53.3298H544.47Z" fill="#00F9CA"/>
<path d="M548.554 55.8115H547.36V52.4878H548.554C549.106 52.4878 549.535 52.6408 549.843 52.9466C550.15 53.2524 550.304 53.6534 550.304 54.1497C550.304 54.6459 550.15 55.0469 549.843 55.3527C549.535 55.6585 549.106 55.8115 548.554 55.8115ZM549.323 54.9104C549.496 54.7279 549.583 54.4743 549.583 54.1497C549.583 53.825 549.496 53.5716 549.323 53.389C549.15 53.2065 548.887 53.1151 548.535 53.1151H548.043V55.1842H548.535C548.887 55.1842 549.15 55.093 549.323 54.9103V54.9104Z" fill="#00F9CA"/>
<path d="M554.178 55.1842V55.8115H551.787V52.4878H554.178V53.1151H552.47V53.8127H554.108V54.44H552.47V55.1844H554.178V55.1842Z" fill="#00F9CA"/>
<path d="M558.09 55.1842V55.8115H555.699V52.4878H558.09V53.1151H556.382V53.8127H558.02V54.44H556.382V55.1844H558.09V55.1842Z" fill="#00F9CA"/>
<path d="M560.804 55.8115H559.611V52.4878H560.804C561.356 52.4878 561.786 52.6408 562.093 52.9466C562.401 53.2524 562.554 53.6534 562.554 54.1497C562.554 54.6459 562.401 55.0469 562.093 55.3527C561.786 55.6585 561.356 55.8115 560.804 55.8115ZM561.574 54.9104C561.747 54.7279 561.834 54.4743 561.834 54.1497C561.834 53.825 561.747 53.5716 561.574 53.389C561.401 53.2065 561.138 53.1151 560.786 53.1151H560.294V55.1842H560.786C561.138 55.1842 561.401 55.093 561.574 54.9103V54.9104Z" fill="#00F9CA"/>
</g>
<g clip-path="url(#clip2_173_366)">
<path d="M241.843 48.2222L243.736 50.6588L245.637 48.2222H246.105V53.4259H245.57V49.1311L243.744 51.4474L243.722 51.4409L241.894 49.1134V53.4259H241.359V48.2222H241.843Z" fill="#00D3A4"/>
<path d="M248.914 53.4259H248.341L250.483 48.2222H251.062L253.212 53.4259H252.618L252.125 52.2089H249.407L248.913 53.4259H248.914ZM250.778 48.8745H250.763L249.611 51.7115H251.924L250.777 48.8745H250.778Z" fill="#00D3A4"/>
<path d="M257.857 51.8063V48.2227H258.393V51.7923C258.393 52.3195 258.243 52.7404 257.945 53.053C257.647 53.3657 257.238 53.5225 256.72 53.5225C256.201 53.5225 255.8 53.3731 255.501 53.0754C255.203 52.7777 255.054 52.3746 255.054 51.866L255.069 51.5431H255.612C255.601 51.6261 255.597 51.7335 255.597 51.866C255.597 52.2131 255.695 52.495 255.89 52.7124C256.085 52.9299 256.362 53.0381 256.719 53.0381C257.075 53.0381 257.36 52.9308 257.558 52.7152C257.756 52.5006 257.855 52.1973 257.855 51.8063H257.857Z" fill="#00D3A4"/>
<path d="M260.968 53.4259H260.395L262.537 48.2222H263.116L265.266 53.4259H264.672L264.179 52.2089H261.461L260.967 53.4259H260.968ZM262.832 48.8745H262.817L261.665 51.7115H263.98L262.832 48.8745Z" fill="#00D3A4"/>
<path d="M268.039 49.0854V53.4259H267.504V48.2222H268.063L271.106 52.5831V48.2222H271.641V53.4259H271.076L268.039 49.0854Z" fill="#00D3A4"/>
<path d="M277.752 48.2222H278.926L276.952 53.4259H275.852L273.878 48.2222H275.081L276.409 52.0036H276.424L277.751 48.2222H277.752Z" fill="#00F9CA"/>
<path d="M282.044 48.2222V53.4259H280.973V48.2222H282.044Z" fill="#00F9CA"/>
<path d="M286.388 52.5755C286.676 52.5755 286.901 52.5232 287.063 52.4178C287.225 52.3123 287.305 52.1649 287.305 51.9745C287.305 51.8373 287.254 51.7253 287.151 51.6376C287.048 51.5499 286.915 51.4827 286.75 51.437C286.586 51.3912 286.405 51.3408 286.21 51.2867C286.015 51.2326 285.817 51.1775 285.617 51.1215C285.417 51.0655 285.235 50.9853 285.071 50.8798C284.908 50.7744 284.774 50.6232 284.672 50.4253C284.569 50.2275 284.518 49.9914 284.518 49.7179C284.518 49.2635 284.688 48.8827 285.031 48.5747C285.373 48.2668 285.836 48.1128 286.418 48.1128C287 48.1128 287.47 48.2789 287.815 48.6111C288.16 48.9434 288.34 49.3559 288.354 49.8495H287.305C287.295 49.6153 287.211 49.4258 287.052 49.2812C286.893 49.1375 286.676 49.0647 286.403 49.0647C286.153 49.0647 285.952 49.1188 285.801 49.2261C285.65 49.3335 285.574 49.4706 285.574 49.6377C285.574 49.7758 285.626 49.8878 285.731 49.9737C285.836 50.0595 285.971 50.1258 286.136 50.1715C286.302 50.2172 286.484 50.2686 286.683 50.3236C286.882 50.3787 287.083 50.4347 287.285 50.4916C287.489 50.5485 287.673 50.6297 287.837 50.737C288.002 50.8444 288.135 51.0002 288.237 51.2046C288.339 51.409 288.39 51.6535 288.39 51.9372C288.39 52.4066 288.2 52.7883 287.821 53.0841C287.441 53.3799 286.944 53.5274 286.328 53.5274C285.98 53.5274 285.675 53.477 285.411 53.3771C285.146 53.2773 284.939 53.141 284.787 52.9702C284.635 52.7995 284.521 52.6138 284.446 52.4131C284.37 52.2125 284.327 52.0006 284.318 51.7757H285.374C285.389 52.0053 285.482 52.1957 285.653 52.3478C285.823 52.499 286.068 52.5746 286.386 52.5746L286.388 52.5755Z" fill="#00F9CA"/>
<path d="M291.809 48.2222V53.4259H290.738V48.2222H291.809Z" fill="#00F9CA"/>
<path d="M298.786 48.8817C299.294 49.395 299.549 50.0427 299.549 50.8238C299.549 51.6049 299.295 52.2526 298.786 52.7658C298.277 53.2791 297.629 53.5357 296.842 53.5357C296.054 53.5357 295.406 53.2791 294.898 52.7658C294.389 52.2526 294.135 51.6058 294.135 50.8238C294.135 50.0417 294.389 49.395 294.898 48.8817C295.406 48.3685 296.054 48.1118 296.842 48.1118C297.629 48.1118 298.278 48.3685 298.786 48.8817ZM297.979 52.0519C298.272 51.7421 298.419 51.3324 298.419 50.8247C298.419 50.317 298.272 49.9073 297.979 49.5975C297.685 49.2877 297.306 49.1318 296.842 49.1318C296.378 49.1318 295.998 49.2868 295.705 49.5975C295.412 49.9083 295.265 50.317 295.265 50.8247C295.265 51.3324 295.412 51.7421 295.705 52.0519C295.998 52.3627 296.378 52.5176 296.842 52.5176C297.306 52.5176 297.685 52.3627 297.979 52.0519Z" fill="#00F9CA"/>
<path d="M302.916 49.9888V53.4259H301.874V48.2222H302.944L305.227 51.6732V48.2222H306.268V53.4259H305.19L302.916 49.9888Z" fill="#00F9CA"/>
<path d="M272.101 16.4438H270.539L269.168 18.8105L270.732 18.8114L272.101 16.4438Z" fill="#03F8C5"/>
<path d="M263.547 31.6835L265.016 34.205L275.198 16.4438H273.634L264.985 31.4604L262.643 27.4093L269.014 16.4438H267.407L261.073 27.4027L262.303 29.5305" fill="#03F8C5"/>
<path d="M284.107 23.4225L276.203 36.9711H274.635L277.727 31.6872L275.589 27.9879L274.871 29.2785L276.201 31.5808L273.107 36.9898L268.189 36.9786L280.088 16.4438H278.555L266.66 37.0691L267.407 38.3617H280.074L282.792 33.6918L283.662 32.1753L286.407 27.4027L284.106 23.4225H284.107ZM273.064 38.0863L273.486 37.1811H274.263L274.608 38.0863H273.065H273.064ZM279.265 36.9721H277.657L284.002 26.0337L284.786 27.4037L279.265 36.9721Z" fill="#03F8C5"/>
<path d="M307.685 26.9724C305.401 25.0052 303.066 23.2134 300.747 21.6474C298.525 20.1468 296.258 18.8132 294.008 17.684C289.814 15.5777 285.526 14.1013 281.264 13.2959C278.633 12.7985 275.996 12.5503 273.361 12.5503C268.796 12.5503 264.239 13.2959 259.742 14.7826C256.96 15.7027 254.195 16.9113 251.524 18.3774C249.389 19.5486 247.308 20.8859 245.34 22.3501C241.981 24.8502 240.131 26.8371 240.055 26.9211L239.333 27.6518L240.055 28.3834C240.131 28.4665 241.981 30.4533 245.34 32.9544C247.308 34.4196 249.389 35.7559 251.524 36.9271C254.195 38.3923 256.96 39.6018 259.742 40.5219C264.239 42.0086 268.796 42.7542 273.361 42.7542C275.996 42.7542 278.634 42.506 281.264 42.0086C285.526 41.2032 289.814 39.7268 294.008 37.6205C296.257 36.4913 298.525 35.1577 300.747 33.6571C303.066 32.0912 305.4 30.2994 307.685 28.3321L308.347 27.6527L307.685 26.9733V26.9724ZM260.244 39.1893C254.126 37.1754 249.251 34.0855 246.237 31.8476C243.616 29.9009 241.911 28.2444 241.326 27.6518C241.906 27.0629 243.59 25.426 246.191 23.4905C249.201 21.2498 254.073 18.1553 260.189 16.133C261.851 15.5833 263.513 15.1372 265.174 14.7938L257.824 27.5118L265.358 40.5481C263.654 40.2037 261.948 39.7511 260.243 39.1902L260.244 39.1893ZM280.812 40.2961L280.545 40.7431C278.193 41.1603 275.835 41.3693 273.475 41.3693C271.404 41.3693 269.33 41.2088 267.254 40.8868L266.857 40.297L259.468 27.5118L266.857 14.7256L267.006 14.4559C271.59 13.7168 276.167 13.7635 280.725 14.5922L280.813 14.7256L288.202 27.5109L280.813 40.2961H280.812ZM282.414 40.367L289.845 27.5109L282.601 14.9786C290.578 16.8077 298.494 21.0371 306.29 27.6518C298.433 34.3188 290.455 38.5622 282.414 40.367Z" fill="#00F9CA"/>
<path d="M292.991 36.11C292.991 36.11 292.997 36.1119 292.997 36.1147V36.1645C292.997 36.1881 292.982 36.2078 292.934 36.2078C292.886 36.2078 292.872 36.1871 292.872 36.1645V36.0555C292.872 36.032 292.886 36.0122 292.934 36.0122C292.982 36.0122 292.997 36.0329 292.997 36.0555V36.0677C292.997 36.0677 292.996 36.0733 292.992 36.0733H292.976C292.976 36.0733 292.97 36.0714 292.97 36.0677V36.0602C292.97 36.0451 292.96 36.0357 292.934 36.0357C292.909 36.0357 292.9 36.0451 292.9 36.0602V36.1608C292.9 36.1758 292.909 36.1852 292.934 36.1852C292.96 36.1852 292.97 36.1758 292.97 36.1608V36.1335H292.936C292.936 36.1335 292.931 36.1326 292.931 36.1279V36.1147C292.931 36.1147 292.933 36.11 292.936 36.11H292.992H292.991Z" fill="black"/>
<path d="M293.139 36.1364C293.139 36.1364 293.137 36.1411 293.134 36.1411H293.057V36.1674C293.057 36.1787 293.062 36.1862 293.085 36.1862C293.107 36.1862 293.113 36.1787 293.113 36.1674V36.1646C293.113 36.1646 293.114 36.1589 293.119 36.1589H293.133C293.133 36.1589 293.139 36.1608 293.139 36.1646V36.1693C293.139 36.1928 293.124 36.2078 293.085 36.2078C293.045 36.2078 293.031 36.1928 293.031 36.1693V36.1025C293.031 36.079 293.045 36.064 293.086 36.064C293.126 36.064 293.139 36.0799 293.139 36.1025V36.1373L293.139 36.1364ZM293.057 36.1213H293.113V36.1035C293.113 36.0922 293.107 36.0847 293.085 36.0847C293.063 36.0847 293.057 36.0922 293.057 36.1035V36.1213Z" fill="black"/>
<path d="M293.171 36.103C293.171 36.0795 293.188 36.0645 293.227 36.0645C293.267 36.0645 293.284 36.0804 293.284 36.103V36.1698C293.284 36.1933 293.267 36.2083 293.227 36.2083C293.188 36.2083 293.171 36.1933 293.171 36.1698V36.103ZM293.257 36.1049C293.257 36.0927 293.249 36.0861 293.227 36.0861C293.205 36.0861 293.198 36.0927 293.198 36.1049V36.1679C293.198 36.1801 293.206 36.1867 293.227 36.1867C293.248 36.1867 293.257 36.1801 293.257 36.1679V36.1049Z" fill="black"/>
<path d="M293.317 36.1694V36.1022C293.317 36.0789 293.329 36.064 293.356 36.064C293.38 36.064 293.395 36.0742 293.403 36.0808V36.0714C293.403 36.0714 293.405 36.0658 293.409 36.0658H293.424C293.424 36.0658 293.429 36.0677 293.429 36.0714V36.2235C293.429 36.2469 293.413 36.2618 293.374 36.2618H293.336C293.336 36.2618 293.33 36.2609 293.33 36.2562V36.2441C293.33 36.2441 293.332 36.2385 293.336 36.2385H293.374C293.395 36.2385 293.403 36.2319 293.403 36.2198V36.1899C293.395 36.1965 293.38 36.2058 293.357 36.2058C293.33 36.2058 293.318 36.1909 293.318 36.1675L293.317 36.1694ZM293.344 36.1657C293.344 36.175 293.349 36.1834 293.365 36.1834C293.383 36.1834 293.397 36.1731 293.403 36.1694V36.1032C293.397 36.0985 293.383 36.0882 293.365 36.0882C293.349 36.0882 293.344 36.0966 293.344 36.106V36.1647V36.1657Z" fill="black"/>
<path d="M293.544 36.0692V36.0823C293.544 36.0823 293.542 36.088 293.538 36.088C293.517 36.0889 293.5 36.1002 293.494 36.1058V36.2008C293.494 36.2008 293.493 36.2064 293.489 36.2064H293.473C293.473 36.2064 293.468 36.2046 293.468 36.2008V36.072C293.468 36.072 293.469 36.0663 293.473 36.0663H293.488C293.488 36.0663 293.493 36.0682 293.494 36.072V36.0842C293.502 36.0767 293.518 36.0645 293.539 36.0645C293.543 36.0645 293.545 36.0663 293.545 36.0701L293.544 36.0692Z" fill="black"/>
<path d="M293.562 36.103C293.562 36.0795 293.579 36.0645 293.619 36.0645C293.659 36.0645 293.675 36.0804 293.675 36.103V36.1698C293.675 36.1933 293.659 36.2083 293.619 36.2083C293.579 36.2083 293.562 36.1933 293.562 36.1698V36.103ZM293.649 36.1049C293.649 36.0927 293.641 36.0861 293.619 36.0861C293.597 36.0861 293.59 36.0927 293.59 36.1049V36.1679C293.59 36.1801 293.598 36.1867 293.619 36.1867C293.64 36.1867 293.649 36.1801 293.649 36.1679V36.1049Z" fill="black"/>
<path d="M293.774 36.0671C293.774 36.0671 293.78 36.0689 293.78 36.0718V36.083C293.78 36.083 293.778 36.0887 293.774 36.0887H293.745V36.1649C293.745 36.178 293.752 36.1837 293.774 36.1837H293.779C293.779 36.1837 293.785 36.1855 293.785 36.1893V36.2015C293.785 36.2015 293.783 36.2072 293.779 36.2072H293.77C293.73 36.2072 293.718 36.1931 293.718 36.1686V36.0896H293.703C293.703 36.0896 293.697 36.0877 293.697 36.084V36.0736C293.697 36.0736 293.699 36.0689 293.703 36.068H293.717L293.719 36.0671V36.0388C293.719 36.0388 293.721 36.0332 293.725 36.0332H293.742C293.742 36.0332 293.746 36.0351 293.746 36.0388V36.0671H293.775H293.774Z" fill="black"/>
<path d="M293.915 36.1369C293.915 36.1369 293.913 36.1416 293.91 36.1416H293.833V36.1679C293.833 36.1792 293.838 36.1867 293.861 36.1867C293.884 36.1867 293.889 36.1792 293.889 36.1679V36.1651C293.889 36.1651 293.89 36.1594 293.895 36.1594H293.909C293.909 36.1594 293.915 36.1613 293.915 36.1651V36.1698C293.915 36.1933 293.901 36.2083 293.861 36.2083C293.821 36.2083 293.807 36.1933 293.807 36.1698V36.103C293.807 36.0795 293.821 36.0645 293.862 36.0645C293.902 36.0645 293.916 36.0804 293.916 36.103V36.1378L293.915 36.1369ZM293.833 36.1218H293.889V36.1039C293.889 36.0927 293.883 36.0851 293.861 36.0851C293.839 36.0851 293.833 36.0927 293.833 36.1039V36.1218Z" fill="black"/>
<path d="M294.022 36.0988C294.022 36.0885 294.012 36.0837 293.994 36.0837C293.976 36.0837 293.968 36.0885 293.968 36.0988V36.1035C293.968 36.111 293.975 36.1148 293.98 36.1167L294.023 36.1317C294.038 36.1373 294.048 36.1458 294.048 36.159V36.175C294.048 36.1928 294.033 36.2088 293.994 36.2088C293.956 36.2088 293.941 36.1928 293.941 36.175V36.1684C293.941 36.1684 293.942 36.1637 293.945 36.1637H293.96C293.96 36.1637 293.965 36.1656 293.965 36.1684V36.174C293.965 36.1844 293.976 36.1891 293.994 36.1891C294.013 36.1891 294.024 36.1844 294.024 36.174V36.1665C294.024 36.1599 294.018 36.1562 294.008 36.1533L293.966 36.1383C293.956 36.1345 293.944 36.1242 293.944 36.1101V36.0997C293.944 36.0819 293.958 36.0649 293.995 36.0649C294.033 36.0649 294.046 36.0819 294.046 36.0997V36.1063C294.046 36.1063 294.045 36.111 294.041 36.111H294.026C294.026 36.111 294.022 36.1091 294.022 36.1063V36.0997V36.0988Z" fill="black"/>
<path d="M294.165 36.0724C294.165 36.0724 294.167 36.0668 294.171 36.0668H294.186C294.186 36.0668 294.191 36.0686 294.191 36.0724V36.2571C294.191 36.2571 294.19 36.2627 294.186 36.2627H294.17C294.17 36.2627 294.165 36.2609 294.165 36.2571V36.1918C294.157 36.1983 294.142 36.2077 294.119 36.2077C294.092 36.2077 294.08 36.1927 294.08 36.1694V36.1022C294.08 36.0789 294.092 36.064 294.119 36.064C294.143 36.064 294.158 36.0742 294.166 36.0808V36.0724H294.165ZM294.105 36.1657C294.105 36.175 294.11 36.1834 294.126 36.1834C294.144 36.1834 294.158 36.1731 294.164 36.1694V36.1032C294.158 36.0985 294.144 36.0882 294.126 36.0882C294.11 36.0882 294.105 36.0966 294.105 36.106V36.1647V36.1657Z" fill="black"/>
<path d="M294.314 36.1924C294.307 36.199 294.293 36.2084 294.269 36.2084C294.243 36.2084 294.23 36.1934 294.23 36.1727V36.072C294.23 36.072 294.231 36.0664 294.234 36.0664H294.25C294.25 36.0664 294.256 36.0683 294.256 36.072V36.1661C294.256 36.1783 294.262 36.1849 294.277 36.1849C294.295 36.1849 294.308 36.1755 294.314 36.1708V36.072C294.314 36.072 294.314 36.0664 294.318 36.0664H294.335C294.335 36.0664 294.34 36.0683 294.34 36.072V36.2009C294.34 36.2009 294.338 36.2065 294.335 36.2065H294.32C294.32 36.2065 294.315 36.2046 294.314 36.2009V36.1924Z" fill="black"/>
<path d="M294.484 36.1369C294.484 36.1369 294.482 36.1416 294.479 36.1416H294.402V36.1679C294.402 36.1792 294.407 36.1867 294.43 36.1867C294.452 36.1867 294.458 36.1792 294.458 36.1679V36.1651C294.458 36.1651 294.459 36.1594 294.464 36.1594H294.478C294.478 36.1594 294.484 36.1613 294.484 36.1651V36.1698C294.484 36.1933 294.469 36.2083 294.43 36.2083C294.39 36.2083 294.376 36.1933 294.376 36.1698V36.103C294.376 36.0795 294.39 36.0645 294.431 36.0645C294.471 36.0645 294.484 36.0804 294.484 36.103V36.1378L294.484 36.1369ZM294.402 36.1218H294.458V36.1039C294.458 36.0927 294.452 36.0851 294.43 36.0851C294.408 36.0851 294.402 36.0927 294.402 36.1039V36.1218Z" fill="black"/>
</g>
<g clip-path="url(#clip3_173_366)">
<path d="M604.932 20.0317H603.669L602.56 21.9473L603.825 21.9479L604.932 20.0317Z" fill="#03F8C5"/>
<path d="M598.015 32.3671L599.204 34.4084L607.436 20.0317H606.172L599.177 32.1868L597.284 28.9074L602.436 20.0317H601.136L596.015 28.9024L597.009 30.6245" fill="#03F8C5"/>
<path d="M614.64 25.6803L608.249 36.6473H606.981L609.481 32.3699L607.752 29.3753L607.172 30.4199L608.248 32.2831L605.745 36.6615L601.768 36.6525L611.391 20.0317H610.15L600.532 36.7268L601.136 37.7729H611.379L613.576 33.993L614.281 32.7651L616.5 28.9023L614.64 25.6803ZM605.71 37.5493L606.051 36.8166H606.679L606.958 37.5493H605.71ZM610.724 36.6471H609.423L614.554 27.793L615.188 28.9021L610.724 36.6471Z" fill="#03F8C5"/>
<path opacity="0.74" d="M616.796 47.1701H595.72L585.183 28.9184L595.72 10.6665H616.796L627.333 28.9184L616.796 47.1702V47.1701ZM600.703 38.5396H611.813L617.368 28.9182L611.813 19.2968H600.703L595.148 28.9182L600.703 38.5396Z" fill="#F706BE"/>
<path d="M595.72 47.1711L585.183 28.9194L595.72 47.1711Z" fill="#03F8C5"/>
<path d="M616.796 10.6665H595.72C595.726 10.6672 607.019 12.1893 611.813 19.2969L617.368 28.9017L611.813 38.5231L616.796 47.1536L627.333 28.9017L616.796 10.6665Z" fill="url(#paint0_linear_173_366)"/>
<path d="M611.813 38.5401H600.703L595.148 28.9186C591.391 36.6214 595.715 47.1587 595.72 47.1703H616.796L627.333 28.9185C627.333 28.9185 620.367 37.9421 611.813 38.5399V38.5401Z" fill="url(#paint1_linear_173_366)"/>
<path d="M600.703 19.2969H611.813C607.019 12.1893 595.725 10.6672 595.72 10.6665L585.183 28.9184L595.72 47.1701C595.715 47.1582 591.391 36.6211 595.148 28.9184L600.703 19.2969Z" fill="url(#paint2_linear_173_366)"/>
<path d="M585.801 52.0796L587.151 53.8182L588.506 52.0796H588.84V55.7933H588.458V52.7282L587.156 54.3815L587.141 54.3765L585.838 52.7154V55.7933H585.456V52.0796H585.801Z" fill="#00D3A4"/>
<path d="M590.844 55.7933H590.436L591.963 52.0796H592.376L593.909 55.7933H593.485L593.134 54.9251H591.196L590.843 55.7933H590.844ZM592.173 52.5449L592.162 52.5454L591.341 54.5694H592.991L592.173 52.5449H592.173Z" fill="#00D3A4"/>
<path d="M597.219 54.6374V52.0796H597.601V54.6269C597.601 55.0034 597.495 55.3035 597.282 55.5266C597.069 55.7499 596.778 55.8613 596.409 55.8613C596.039 55.8613 595.753 55.755 595.54 55.5423C595.328 55.3297 595.221 55.0419 595.221 54.6792L595.232 54.4491H595.619C595.612 54.5084 595.608 54.5851 595.608 54.6792C595.608 54.9268 595.678 55.1282 595.818 55.2833C595.957 55.4385 596.154 55.5161 596.409 55.5161C596.663 55.5161 596.866 55.4395 597.008 55.286C597.149 55.1326 597.219 54.9165 597.219 54.6374Z" fill="#00D3A4"/>
<path d="M599.437 55.7933H599.029L600.557 52.0796H600.97L602.502 55.7933H602.079L601.728 54.9251H599.79L599.437 55.7933H599.437ZM600.766 52.5449L600.756 52.5454L599.934 54.5694H601.584L600.767 52.5449H600.766Z" fill="#00D3A4"/>
<path d="M604.479 52.6955V55.7933H604.097V52.0796H604.496L606.666 55.192V52.0796H607.048V55.7933H606.645L604.479 52.6955H604.479Z" fill="#00D3A4"/>
<path d="M609.694 55.7933H609.061V52.0796H611.488V52.6654H609.694V53.6174H611.399V54.2032H609.694V55.7933Z" fill="#00F9CA"/>
<path d="M615.484 55.2075V55.7933H613.131V52.0796H613.764V55.2074H615.484L615.484 55.2075Z" fill="#00F9CA"/>
<path d="M617.189 55.3194C616.83 54.9515 616.651 54.4903 616.651 53.9358C616.651 53.3814 616.83 52.9203 617.189 52.5523C617.548 52.1844 618.009 52.0005 618.57 52.0005C619.132 52.0005 619.592 52.1844 619.951 52.5523C620.31 52.9202 620.49 53.3814 620.49 53.9358C620.49 54.4903 620.31 54.9515 619.951 55.3194C619.592 55.6872 619.132 55.8712 618.57 55.8712C618.009 55.8712 617.549 55.6872 617.189 55.3194ZM617.671 52.9735C617.437 53.2176 617.32 53.5385 617.32 53.9358C617.32 54.3332 617.437 54.6543 617.671 54.8982C617.904 55.1423 618.204 55.2644 618.57 55.2644C618.937 55.2644 619.236 55.1424 619.47 54.8982C619.704 54.6541 619.82 54.3332 619.82 53.9358C619.82 53.5385 619.704 53.2176 619.47 52.9735C619.236 52.7294 618.937 52.6073 618.57 52.6073C618.204 52.6073 617.904 52.7294 617.671 52.9735Z" fill="#00F9CA"/>
<path d="M624.368 52.97L623.535 55.7933H622.87L621.714 52.0796H622.431L623.21 54.8988H623.221L624.047 52.0796H624.739L625.565 54.9H625.576L626.364 52.0796H627.06L625.904 55.7933H625.224L624.392 52.9741L624.368 52.97H624.368Z" fill="#00F9CA"/>
</g>
<path d="M456.765 51.8397L458.204 53.6933L459.649 51.8397H460.005V55.7987H459.598V52.531L458.21 54.2934L458.193 54.2879L456.804 52.517V55.7983H456.397V51.8394H456.765V51.8397Z" fill="#00D3A4"/>
<path d="M462.141 55.7988H461.706L463.334 51.8398H463.775L465.409 55.7988H464.957L464.583 54.8732H462.517L462.141 55.7988H462.141ZM463.558 52.3358H463.547L462.671 54.4939H464.43L463.558 52.3358H463.558Z" fill="#00D3A4"/>
<path d="M468.937 54.5664V51.8398H469.345V54.5555C469.345 54.957 469.231 55.2768 469.005 55.5146C468.778 55.7524 468.467 55.8714 468.073 55.8714C467.68 55.8714 467.374 55.7579 467.148 55.5314C466.921 55.3048 466.808 54.998 466.808 54.6112L466.819 54.366H467.232C467.224 54.4291 467.22 54.511 467.22 54.6112C467.22 54.8752 467.295 55.09 467.443 55.2553C467.592 55.4206 467.802 55.5033 468.073 55.5033C468.345 55.5033 468.561 55.4214 468.712 55.258C468.863 55.0947 468.938 54.8643 468.938 54.5668L468.937 54.5664Z" fill="#00D3A4"/>
<path d="M471.302 55.7988H470.867L472.495 51.8398H472.936L474.57 55.7988H474.118L473.744 54.8732H471.678L471.302 55.7988H471.302ZM472.719 52.3358H472.708L471.832 54.4939H473.591L472.719 52.3358H472.719Z" fill="#00D3A4"/>
<path d="M476.677 52.4964V55.7988H476.27V51.8398H476.695L479.008 55.1578V51.8398H479.415V55.7988H478.985L476.677 52.4964H476.677Z" fill="#00D3A4"/>
<path d="M482.236 51.8398V55.7988H481.562V51.8398H482.236Z" fill="#03F8C5"/>
<path d="M485.531 55.8658C485.085 55.8658 484.724 55.7188 484.447 55.4252C484.17 55.1316 484.031 54.7749 484.031 54.3546C484.031 53.9343 484.17 53.5767 484.447 53.2812C484.724 52.9857 485.085 52.8379 485.531 52.8379C485.977 52.8379 486.345 52.9857 486.622 53.2812C486.898 53.5767 487.037 53.9347 487.037 54.3546C487.037 54.7745 486.899 55.1316 486.622 55.4252C486.345 55.7188 485.981 55.8658 485.531 55.8658ZM484.695 54.3546C484.695 54.6298 484.774 54.8529 484.932 55.0236C485.09 55.1948 485.29 55.2802 485.531 55.2802C485.773 55.2802 485.978 55.1948 486.137 55.0236C486.294 54.8529 486.374 54.6298 486.374 54.3546C486.374 54.0793 486.294 53.8508 486.137 53.6801C485.979 53.5093 485.777 53.4235 485.531 53.4235C485.286 53.4235 485.09 53.5089 484.932 53.6801C484.774 53.8512 484.695 54.0758 484.695 54.3546Z" fill="#03F8C5"/>
<path d="M491.369 51.8398V52.4812H490.221V55.7988H489.546V52.4812H488.398V51.8398H491.37H491.369Z" fill="#03F8C5"/>
<path d="M472.977 22.8813H472.119L471.365 24.1832L472.225 24.1835L472.977 22.8813Z" fill="#03F8C5"/>
<path d="M468.276 31.2647L469.084 32.6519L474.679 22.8813H473.82L469.066 31.1424L467.779 28.9134L471.281 22.8813H470.397L466.917 28.9101L467.592 30.0804" fill="#03F8C5"/>
<path d="M479.575 26.7204L475.232 34.1736H474.37L476.069 31.2667L474.894 29.2316L474.5 29.9415L475.231 31.2077L473.53 34.1835L470.828 34.1774L477.368 22.8813H476.525L469.988 34.2279L470.398 34.9388H477.359L478.853 32.37L479.331 31.5354L480.84 28.9101L479.575 26.7204ZM473.506 34.787L473.738 34.2889H474.165L474.355 34.787H473.506H473.506ZM476.914 34.174H476.03L479.517 28.1565L479.948 28.9104L476.914 34.174Z" fill="#03F8C5"/>
<path d="M478.78 37.3122H469.078L464.227 28.9103L469.078 20.5083H478.78L483.631 28.9103L478.78 37.3122ZM469.455 36.6603H478.404L482.878 28.9103L478.404 21.1602H469.455L464.98 28.9103L469.455 36.6603Z" fill="#03F8C5"/>
<path d="M482.042 22.0633L480.839 19.9788L482.042 17.8945H484.449L485.652 19.9788L484.449 22.0633H482.042Z" fill="#03F8C5"/>
<path d="M463.595 22.0633L462.391 19.9788L463.595 17.8945H466.001L467.205 19.9788L466.001 22.0633H463.595Z" fill="#03F8C5"/>
<path d="M472.419 18.3623L471.216 16.2781L472.419 14.1938H474.826L476.029 16.2781L474.826 18.3623H472.419Z" fill="#03F8C5"/>
<path d="M482.879 34.4565L481.675 36.5408L482.879 38.625H485.285L486.489 36.5408L485.285 34.4565H482.879Z" fill="#03F8C5"/>
<path d="M462.744 34.4565L461.541 36.5408L462.744 38.625H465.151L466.354 36.5408L465.151 34.4565H462.744Z" fill="#03F8C5"/>
<path d="M472.419 39.1382L471.216 41.2224L472.419 43.307H474.826L476.029 41.2224L474.826 39.1382H472.419Z" fill="#03F8C5"/>
<path d="M485.788 30.0318L484.787 28.298L485.788 26.5645H487.79L488.791 28.298L487.79 30.0318H485.788Z" fill="#03F8C5"/>
<path d="M489.307 23.9092L488.531 22.566L489.307 21.2231H490.858L491.633 22.566L490.858 23.9092H489.307Z" fill="#03F8C5"/>
<path d="M489.307 36.1299L488.531 34.787L489.307 33.4438H490.858L491.633 34.787L490.858 36.1299H489.307Z" fill="#03F8C5"/>
<path d="M461.977 30.0318L462.979 28.298L461.977 26.5645H459.976L458.975 28.298L459.976 30.0318H461.977Z" fill="#03F8C5"/>
<path d="M458.459 23.9092L459.235 22.566L458.459 21.2231H456.908L456.133 22.566L456.908 23.9092H458.459Z" fill="#03F8C5"/>
<path d="M458.459 36.1299L459.235 34.787L458.459 33.4438H456.908L456.133 34.787L456.908 36.1299H458.459Z" fill="#03F8C5"/>
<path d="M478.751 13.8957L477.819 12.2811L478.751 10.6665H480.616L481.548 12.2811L480.616 13.8957H478.751Z" fill="#03F8C5"/>
<path d="M478.751 46.7824L477.819 45.1678L478.751 43.5532H480.616L481.548 45.1678L480.616 46.7824H478.751Z" fill="#03F8C5"/>
<path d="M466.273 13.8957L465.341 12.2811L466.273 10.6665H468.137L469.069 12.2811L468.137 13.8957H466.273Z" fill="#03F8C5"/>
<path d="M466.273 46.7824L465.341 45.1678L466.273 43.5532H468.137L469.069 45.1678L468.137 46.7824H466.273Z" fill="#03F8C5"/>
<path d="M468.181 22.0632L466.354 20.9355" stroke="#03F8C5" stroke-width="0.683816" stroke-miterlimit="10"/>
<path d="M482.266 35.5677L480.421 34.4712" stroke="#03F8C5" stroke-width="0.683816" stroke-miterlimit="10"/>
<path d="M473.622 20.5084L473.613 18.3618" stroke="#03F8C5" stroke-width="0.683816" stroke-miterlimit="10"/>
<path d="M479.684 22.0839L481.539 21.0054" stroke="#03F8C5" stroke-width="0.683816" stroke-miterlimit="10"/>
<path d="M465.852 35.6171L467.708 34.5386" stroke="#03F8C5" stroke-width="0.683816" stroke-miterlimit="10"/>
<g clip-path="url(#clip4_173_366)">
<path d="M362.008 25.9031L359.969 22.3702L362.008 18.8374H366.088L368.127 22.3702L366.088 25.9031H362.008Z" fill="#03F8C5"/>
<path d="M346.972 18.1583L344.809 14.4125L346.972 10.6665H351.297L353.46 14.4125L351.297 18.1583H346.972Z" fill="#03F8C5"/>
<path d="M366.461 13.6215L365.608 12.1441L366.461 10.6665H368.167L369.02 12.1441L368.167 13.6215H366.461Z" fill="#03F8C5"/>
<path d="M359.609 15.8636L358.118 13.2817L359.609 10.6997H362.591L364.081 13.2817L362.591 15.8636H359.609Z" fill="#03F8C5"/>
<path d="M347.535 22.1738H346.019L344.689 24.4723L346.206 24.4731L347.535 22.1738Z" fill="#03F8C5"/>
<path d="M349.022 22.1738L340.629 36.7595L338.357 32.8244L344.539 22.1738H342.979L336.833 32.8183L338.026 34.8848L339.234 36.9757L340.66 39.4253L350.539 22.1738H349.022Z" fill="#03F8C5"/>
<path d="M359.184 28.952L351.515 42.112H349.993L352.993 36.9794L350.919 33.3859L350.223 34.6395L351.513 36.8753L348.51 42.1292L343.738 42.1184L355.285 22.1738H353.797L342.255 42.2076L342.98 43.4629H355.271L357.908 38.9271L358.753 37.4536L361.417 32.8183L359.185 28.952H359.184ZM348.468 43.1947L348.878 42.3153H349.631L349.966 43.1947H348.468H348.468ZM354.485 42.1122H352.925L359.081 31.4873L359.843 32.8183L354.485 42.1122Z" fill="#03F8C5"/>
<path d="M364.007 26.8395L363.948 26.7369H361.719L359.206 22.2854L360.269 20.4204L360.268 20.4201L360.284 20.3923L359.368 18.8046L358.337 17.02H352.556L352.517 17.0866L352.513 17.0839L351.579 18.7062H346.64L345.7 17.1346L345.696 17.1367L345.629 17.0202H340.095L330.974 32.8184L340.095 48.6167H358.338L367.459 32.8184L364.007 26.8395ZM357.63 47.3912H340.803L332.389 32.8184L340.803 18.2456H344.937L345.848 19.7694L345.941 19.9317H352.392L353.284 18.2456H357.63L358.688 20.0778L358.86 20.3759L357.747 22.1933L361.024 28.0016L363.295 28.0574L366.043 32.8185L357.63 47.3913L357.63 47.3912Z" fill="#03F8C5"/>
<path d="M331.769 52.4279L332.999 54.011L334.233 52.4279H334.537V55.8095H334.189V53.0184L333.003 54.5238L332.989 54.5193L331.803 53.0065V55.8093H331.455V52.4277H331.769V52.4279Z" fill="#00D3A4"/>
<path d="M336.361 55.8098H335.989L337.38 52.4282H337.756L339.152 55.8098H338.766L338.446 55.0192H336.681L336.36 55.8098H336.361ZM337.571 52.8518L337.561 52.8523L336.813 54.6953H338.316L337.571 52.8518H337.571Z" fill="#00D3A4"/>
<path d="M342.166 54.7573V52.4282H342.514V54.7478C342.514 55.0907 342.417 55.3639 342.223 55.567C342.03 55.7703 341.765 55.8718 341.428 55.8718C341.092 55.8718 340.831 55.775 340.637 55.5813C340.444 55.3877 340.347 55.1257 340.347 54.7954L340.356 54.5859H340.709C340.703 54.6399 340.699 54.7097 340.699 54.7954C340.699 55.0209 340.763 55.2043 340.89 55.3455C341.017 55.4869 341.196 55.5575 341.428 55.5575C341.66 55.5575 341.845 55.4877 341.974 55.348C342.102 55.2082 342.166 55.0115 342.166 54.7573H342.166Z" fill="#00D3A4"/>
<path d="M344.186 55.8098H343.814L345.205 52.4282H345.581L346.977 55.8098H346.591L346.272 55.0192H344.507L344.186 55.8098H344.186ZM345.396 52.8518L345.387 52.8523L344.639 54.6953H346.141L345.396 52.8518H345.396Z" fill="#00D3A4"/>
<path d="M348.777 52.989V55.8098H348.43V52.4282H348.793L350.768 55.2624V52.4282H351.116V55.8098H350.749L348.778 52.989H348.777Z" fill="#00D3A4"/>
<path d="M354.121 55.8098H352.907V52.4282H354.121C354.683 52.4282 355.121 52.5839 355.434 52.895C355.746 53.2062 355.903 53.6142 355.903 54.1191C355.903 54.624 355.746 55.0319 355.434 55.3431C355.121 55.6543 354.683 55.8099 354.121 55.8099V55.8098ZM354.905 54.893C355.081 54.7073 355.169 54.4492 355.169 54.1189C355.169 53.7886 355.081 53.5307 354.905 53.3449C354.729 53.1592 354.461 53.0662 354.102 53.0662H353.602V55.1714H354.102C354.461 55.1714 354.729 55.0785 354.905 54.8927V54.893Z" fill="#00F9CA"/>
<path d="M357.669 55.8098H356.941L358.16 52.4282H358.946L360.162 55.8098H359.47L359.265 55.2287H357.875L357.669 55.8098ZM358.577 53.2848L358.565 53.2854L358.097 54.6047H359.044L358.576 53.2848H358.577Z" fill="#00F9CA"/>
<path d="M363.423 52.4282V53.0807H362.494V55.8098H361.799V53.0807H360.87V52.4282H363.423Z" fill="#00F9CA"/>
<path d="M364.803 55.8098H364.075L365.294 52.4282H366.08L367.296 55.8098H366.605L366.399 55.2287H365.009L364.803 55.8098ZM365.711 53.2848L365.699 53.2854L365.231 54.6047H366.178L365.71 53.2848H365.711Z" fill="#00F9CA"/>
</g>
<defs>
<linearGradient id="paint0_linear_173_366" x1="595.72" y1="28.91" x2="627.333" y2="28.91" gradientUnits="userSpaceOnUse">
<stop stop-color="#03F8C5"/>
<stop offset="0.29" stop-color="#02F5C3"/>
<stop offset="0.48" stop-color="#02ECBC"/>
<stop offset="0.65" stop-color="#02DDB2"/>
<stop offset="0.8" stop-color="#01C8A3"/>
<stop offset="0.93" stop-color="#00AD90"/>
<stop offset="1" stop-color="#009C84"/>
</linearGradient>
<linearGradient id="paint1_linear_173_366" x1="593.614" y1="38.0447" x2="627.333" y2="38.0447" gradientUnits="userSpaceOnUse">
<stop stop-color="#009C84"/>
<stop offset="0.01" stop-color="#00A288"/>
<stop offset="0.08" stop-color="#01BC9B"/>
<stop offset="0.17" stop-color="#01D2AA"/>
<stop offset="0.26" stop-color="#02E3B6"/>
<stop offset="0.38" stop-color="#02EFBE"/>
<stop offset="0.54" stop-color="#02F6C3"/>
<stop offset="1" stop-color="#03F8C5"/>
</linearGradient>
<linearGradient id="paint2_linear_173_366" x1="585.183" y1="28.9182" x2="611.813" y2="28.9182" gradientUnits="userSpaceOnUse">
<stop stop-color="#03F8C5"/>
<stop offset="0.35" stop-color="#02F5C3"/>
<stop offset="0.53" stop-color="#02EDBD"/>
<stop offset="0.68" stop-color="#02E0B4"/>
<stop offset="0.8" stop-color="#01CDA6"/>
<stop offset="0.91" stop-color="#00B495"/>
<stop offset="1" stop-color="#009C84"/>
</linearGradient>
<clipPath id="clip0_173_366">
<rect width="41.8556" height="45.2046" fill="white" transform="translate(391.649 10.6665)"/>
</clipPath>
<clipPath id="clip1_173_366">
<rect width="48.2918" height="45.2046" fill="white" transform="translate(514.262 10.6665)"/>
</clipPath>
<clipPath id="clip2_173_366">
<rect width="69.0124" height="40.9855" fill="white" transform="translate(239.333 12.5503)"/>
</clipPath>
<clipPath id="clip3_173_366">
<rect width="42.1508" height="45.2046" fill="white" transform="translate(585.183 10.6665)"/>
</clipPath>
<clipPath id="clip4_173_366">
<rect width="38.0461" height="45.2046" fill="white" transform="translate(330.974 10.6665)"/>
</clipPath>
</defs>
</svg>
