<svg width="43" height="43" viewBox="0 0 43 43" fill="none" xmlns="http://www.w3.org/2000/svg">
<path d="M3.88867 10.667L16.1785 17.6305C20.7093 20.1977 22.6236 20.1977 27.1544 17.6305L39.4442 10.667" stroke="#01785E" stroke-width="2" stroke-linejoin="round"/>
<path d="M3.91671 23.9571C4.03292 29.407 4.09104 32.1318 6.10193 34.1505C8.11281 36.169 10.9115 36.2392 16.5088 36.3798C19.9585 36.4666 23.3744 36.4666 26.8241 36.3798C32.4215 36.2392 35.2201 36.169 37.2311 34.1505C39.2419 32.1318 39.3 29.407 39.4161 23.9571C39.4536 22.2047 39.4536 20.4628 39.4161 18.7105C39.3 13.2606 39.2419 10.5357 37.2311 8.51717C35.2201 6.49862 32.4215 6.42831 26.8241 6.28767C23.3744 6.20099 19.9585 6.20099 16.5088 6.28765C10.9115 6.42828 8.11281 6.49859 6.10192 8.51715C4.09102 10.5357 4.03292 13.2606 3.91669 18.7105C3.87932 20.4628 3.87934 22.2047 3.91671 23.9571Z" stroke="#01785E" stroke-width="2" stroke-linejoin="round"/>
</svg>
