<svg width="43" height="43" viewBox="0 0 43 43" fill="none" xmlns="http://www.w3.org/2000/svg">
<path d="M18.2545 3.55566C10.058 5.21949 3.88867 12.4662 3.88867 21.1539C3.88867 31.0714 11.9285 39.1112 21.846 39.1112C30.5336 39.1112 37.7804 32.942 39.4442 24.7454" stroke="#01785E" stroke-width="2" stroke-linecap="round"/>
<path d="M33.9998 31.9992C34.6827 31.851 35.3147 31.6152 35.8887 31.2935M26.4443 30.827C27.5031 31.2908 28.5245 31.6344 29.4978 31.8602M19.6302 26.5729C20.3653 27.089 21.1509 27.7079 21.9159 28.2419M5.6665 24.577C6.23955 24.297 6.85817 23.9758 7.55539 23.7008M11.8017 23.1104C12.8006 23.2213 13.9207 23.5061 15.1908 24.0405" stroke="#01785E" stroke-width="2" stroke-linecap="round" stroke-linejoin="round"/>
<path d="M32.3333 13.3337C32.3333 11.8609 31.1394 10.667 29.6667 10.667C28.194 10.667 27 11.8609 27 13.3337C27 14.8064 28.194 16.0003 29.6667 16.0003C31.1394 16.0003 32.3333 14.8064 32.3333 13.3337Z" stroke="#01785E" stroke-width="2"/>
<path d="M31.4229 24.2138C30.9518 24.6469 30.322 24.889 29.6667 24.889C29.0114 24.889 28.3817 24.6469 27.9106 24.2138C23.5963 20.2234 17.8147 15.7657 20.6341 9.29398C22.1588 5.79476 25.8181 3.55566 29.6667 3.55566C33.5152 3.55566 37.1748 5.79476 38.6992 9.29398C41.5152 15.7575 35.7477 20.2371 31.4229 24.2138Z" stroke="#01785E" stroke-width="2"/>
</svg>
