<svg width="217" height="217" viewBox="0 0 217 217" fill="none" xmlns="http://www.w3.org/2000/svg">
<path d="M104.932 74.0986H101.546L98.5737 79.2325L101.963 79.2343L104.932 74.0986Z" fill="#03F8C5"/>
<path d="M86.3919 107.159L89.578 112.63L111.643 74.0986H108.254L89.5079 106.676L84.4334 97.8866L98.2404 74.0986H94.7569L81.0312 97.8732L83.6957 102.489" fill="#03F8C5"/>
<path d="M130.949 89.2386L113.82 118.632H110.422L117.122 107.168L112.488 99.1415L110.934 101.941L113.816 106.935L107.109 118.669L96.451 118.645L122.241 74.0996H118.916L93.1377 118.845L94.7564 121.648H122.209L128.099 111.518L129.986 108.227L135.935 97.8738L130.949 89.2386ZM107.014 121.049L107.929 119.085H109.613L110.359 121.049H107.014ZM120.452 118.631H116.968L130.718 94.9007L132.419 97.8733L120.452 118.631Z" fill="#03F8C5"/>
<path opacity="0.74" d="M136.727 146.834H80.2422L52 97.9174L80.2422 49H136.727L164.969 97.9174L136.727 146.835V146.834ZM93.5968 123.704H123.372L138.26 97.9169L123.372 72.1302H93.5968L78.7088 97.9169L93.5968 123.704Z" fill="#F706BE"/>
<path d="M80.2422 146.834L52 97.917L80.2422 146.834Z" fill="#03F8C5"/>
<path d="M136.727 49H80.2427C80.2565 49.0018 110.525 53.0814 123.373 72.1307L138.261 97.8727L123.373 123.659L136.728 146.79L164.97 97.8727L136.727 49Z" fill="url(#paint0_linear_273_222)"/>
<path d="M123.372 123.702H93.5967L78.7087 97.9155C68.6384 118.56 80.2292 146.801 80.2421 146.832H136.727L164.969 97.915C164.969 97.915 146.299 122.1 123.372 123.702V123.702Z" fill="url(#paint1_linear_273_222)"/>
<path d="M93.5968 72.1307H123.372C110.525 53.0814 80.2561 49.0018 80.2427 49L52 97.9174L80.2422 146.834C80.2293 146.803 68.6389 118.562 78.7088 97.9174L93.5968 72.1307Z" fill="url(#paint2_linear_273_222)"/>
<path d="M60.4616 160.014L63.6607 164.133L66.8716 160.014H67.6628V168.814H66.7579V161.551L63.6729 165.468L63.6362 165.456L60.5484 161.52V168.814H59.6436V160.014H60.4616Z" fill="#00D3A4"/>
<path d="M72.4097 168.814H71.4429L75.062 160.014H76.0411L79.6725 168.814H78.6685L77.8375 166.756H73.2447L72.4093 168.814H72.4097ZM75.5591 161.116L75.5346 161.118L73.5874 165.914H77.4975L75.5595 161.116H75.5591Z" fill="#00D3A4"/>
<path d="M87.5181 166.075V160.014H88.423V166.05C88.423 166.942 88.1708 167.653 87.667 168.182C87.1628 168.711 86.4727 168.975 85.597 168.975C84.7214 168.975 84.0435 168.723 83.5397 168.219C83.0356 167.715 82.7837 167.033 82.7837 166.174L82.8086 165.629H83.7257C83.7091 165.769 83.7008 165.951 83.7008 166.174C83.7008 166.76 83.8658 167.238 84.1967 167.605C84.5271 167.973 84.9938 168.157 85.597 168.157C86.2003 168.157 86.6816 167.975 87.0164 167.612C87.3511 167.248 87.5181 166.736 87.5181 166.075Z" fill="#00D3A4"/>
<path d="M92.7725 168.814H91.8057L95.4248 160.014H96.4039L100.035 168.814H99.0313L98.2003 166.756H93.6075L92.7721 168.814H92.7725ZM95.9219 161.116L95.8974 161.118L93.9502 165.914H97.8603L95.9223 161.116H95.9219Z" fill="#00D3A4"/>
<path d="M104.721 161.473V168.814H103.816V160.014H104.762L109.902 167.389V160.014H110.807V168.814H109.853L104.722 161.473H104.721Z" fill="#00D3A4"/>
<path d="M117.077 168.814H115.578V160.014H121.329V161.402H117.077V163.658H121.118V165.046H117.077V168.814Z" fill="#00F9CA"/>
<path d="M130.798 167.426V168.814H125.221V160.014H126.721V167.425H130.798L130.798 167.426Z" fill="#00F9CA"/>
<path d="M134.84 167.693C133.989 166.821 133.563 165.728 133.563 164.414C133.563 163.1 133.989 162.008 134.84 161.136C135.691 160.264 136.781 159.828 138.112 159.828C139.442 159.828 140.533 160.264 141.384 161.136C142.235 162.007 142.661 163.1 142.661 164.414C142.661 165.728 142.235 166.821 141.384 167.693C140.533 168.564 139.442 169 138.112 169C136.782 169 135.691 168.564 134.84 167.693ZM135.98 162.134C135.426 162.712 135.15 163.473 135.15 164.414C135.15 165.356 135.426 166.117 135.98 166.695C136.533 167.273 137.244 167.562 138.112 167.562C138.98 167.562 139.69 167.273 140.244 166.695C140.797 166.116 141.074 165.356 141.074 164.414C141.074 163.473 140.797 162.712 140.244 162.134C139.69 161.555 138.98 161.266 138.112 161.266C137.244 161.266 136.533 161.555 135.98 162.134Z" fill="#00F9CA"/>
<path d="M151.848 162.123L149.875 168.814H148.3L145.561 160.014H147.259L149.106 166.694H149.131L151.089 160.014H152.728L154.687 166.697H154.712L156.579 160.014H158.227L155.488 168.814H153.877L151.906 162.133L151.849 162.123H151.848Z" fill="#00F9CA"/>
<defs>
<linearGradient id="paint0_linear_273_222" x1="80.2427" y1="97.8951" x2="164.97" y2="97.8951" gradientUnits="userSpaceOnUse">
<stop stop-color="#03F8C5"/>
<stop offset="0.29" stop-color="#02F5C3"/>
<stop offset="0.48" stop-color="#02ECBC"/>
<stop offset="0.65" stop-color="#02DDB2"/>
<stop offset="0.8" stop-color="#01C8A3"/>
<stop offset="0.93" stop-color="#00AD90"/>
<stop offset="1" stop-color="#009C84"/>
</linearGradient>
<linearGradient id="paint1_linear_273_222" x1="74.5965" y1="122.375" x2="164.97" y2="122.375" gradientUnits="userSpaceOnUse">
<stop stop-color="#009C84"/>
<stop offset="0.01" stop-color="#00A288"/>
<stop offset="0.08" stop-color="#01BC9B"/>
<stop offset="0.17" stop-color="#01D2AA"/>
<stop offset="0.26" stop-color="#02E3B6"/>
<stop offset="0.38" stop-color="#02EFBE"/>
<stop offset="0.54" stop-color="#02F6C3"/>
<stop offset="1" stop-color="#03F8C5"/>
</linearGradient>
<linearGradient id="paint2_linear_273_222" x1="52" y1="97.9169" x2="123.372" y2="97.9169" gradientUnits="userSpaceOnUse">
<stop stop-color="#03F8C5"/>
<stop offset="0.35" stop-color="#02F5C3"/>
<stop offset="0.53" stop-color="#02EDBD"/>
<stop offset="0.68" stop-color="#02E0B4"/>
<stop offset="0.8" stop-color="#01CDA6"/>
<stop offset="0.91" stop-color="#00B495"/>
<stop offset="1" stop-color="#009C84"/>
</linearGradient>
</defs>
</svg>
