<svg width="217" height="217" viewBox="0 0 217 217" fill="none" xmlns="http://www.w3.org/2000/svg">
<path d="M130.49 108.068L128.525 111.079L137.203 116.745L139.168 113.733L130.49 108.068Z" fill="#03F8C5"/>
<path d="M149.915 97.9144L147.95 100.926L156.628 106.591L158.592 103.58L149.915 97.9144Z" fill="#03F8C5"/>
<path d="M103.557 70.1396H99.6683L96.2542 76.039L100.148 76.0405L103.557 70.1396Z" fill="#03F8C5"/>
<path d="M82.2621 108.128L85.9214 114.415L111.266 70.1396H107.373L85.8407 107.573L80.0121 97.4737L95.8712 70.1396H91.8705L76.1042 97.458L79.165 102.762" fill="#03F8C5"/>
<path d="M133.442 87.5367L113.767 121.311H109.863L117.559 108.138L112.236 98.9157L110.45 102.133L113.762 107.871L106.058 121.355L93.8157 121.327L123.439 70.1406H119.62L90.01 121.555L91.8693 124.777H123.402L130.167 113.136L132.335 109.355L139.168 97.4589L133.441 87.5367H133.442ZM105.949 124.089L107 121.832H108.934L109.792 124.089H105.949ZM121.385 121.311H117.383L133.177 94.0428L135.13 97.4586L121.385 121.31V121.311Z" fill="#03F8C5"/>
<path d="M136.103 146.835H79.6393L51.4075 97.9171L79.6393 49H136.103L164.335 97.9171L136.103 146.834V146.835ZM81.7147 143.239H134.027L160.184 97.9175L134.027 52.596H81.7147L55.5581 97.9171L81.7147 143.238V143.239Z" fill="#03F8C5"/>
<path d="M80.1382 103.539L72.1484 107.955L73.8867 111.103L81.8765 106.687L80.1382 103.539Z" fill="#03F8C5"/>
<path d="M114.338 136.485H85.6136L75.6726 119.26L78.7858 117.462L87.6889 132.889H114.338V136.485Z" fill="#03F8C5"/>
<path d="M130.129 136.485H120.839V132.889H128.054L148.236 97.9181L140.161 83.9259L143.274 82.1279L152.387 97.9181L130.129 136.485Z" fill="#03F8C5"/>
<path d="M135.743 76.2699L128.054 62.9475H125.39V59.3516H130.129L138.856 74.4719L135.743 76.2699Z" fill="#03F8C5"/>
<path d="M73.6913 87.2005L70.5781 85.4025L85.6132 59.3516H117.168V62.9475H87.6885L73.6913 87.2005Z" fill="#03F8C5"/>
<path d="M71.842 112.622L63.3552 97.9165L68.8278 88.4346L71.9406 90.2326L67.5059 97.9165L74.9551 110.824L71.842 112.622Z" fill="#03F8C5"/>
<path d="M85.0938 133.787L79.1199 144.138L82.2329 145.936L88.2068 135.585L85.0938 133.787Z" fill="#03F8C5"/>
<path d="M130.648 133.787L127.535 135.585L133.509 145.936L136.622 144.138L130.648 133.787Z" fill="#03F8C5"/>
<path d="M140.411 60.5154L132.109 66.833L134.285 69.695L142.587 63.3774L140.411 60.5154Z" fill="#03F8C5"/>
<path d="M93.3825 50.7979H89.7878V61.1489H93.3825V50.7979Z" fill="#03F8C5"/>
<path d="M44.171 159.77L47.512 164.073L50.866 159.77H51.724V169H50.775V161.382L47.538 165.49H47.486L44.262 161.382V169H43.313V159.77H44.171ZM56.4382 169H55.4242L59.2202 159.77H60.2472L64.0562 169H63.0032L62.1322 166.842H57.3222L56.4382 169ZM59.7402 160.927H59.7142L57.6602 165.958H61.7812L59.7402 160.927ZM72.0236 166.127V159.77H72.9726V166.101C72.9726 167.037 72.7083 167.782 72.1796 168.337C71.6509 168.892 70.9273 169.169 70.0086 169.169C69.0986 169.169 68.3793 168.905 67.8506 168.376C67.3219 167.847 67.0576 167.132 67.0576 166.231L67.0836 165.659H68.0456C68.0283 165.806 68.0196 165.997 68.0196 166.231C68.0196 166.846 68.1929 167.349 68.5396 167.739C68.8863 168.12 69.3759 168.311 70.0086 168.311C70.6499 168.311 71.1439 168.12 71.4906 167.739C71.8459 167.358 72.0236 166.82 72.0236 166.127ZM77.2667 169H76.2527L80.0487 159.77H81.0757L84.8847 169H83.8317L82.9607 166.842H78.1507L77.2667 169ZM80.5687 160.927H80.5427L78.4887 165.958H82.6097L80.5687 160.927ZM89.537 161.291V169H88.588V159.77H89.589L94.971 167.492V159.77H95.92V169H94.919L89.537 161.291Z" fill="#00D3A4"/>
<path d="M106.601 159.77V161.551H104.066V169H102.168V161.551H99.6332V159.77H106.601ZM110.105 169H108.116L111.587 159.77H113.589L117.06 169H115.019L114.46 167.414H110.664L110.105 169ZM112.575 162.11H112.549L111.275 165.711H113.849L112.575 162.11ZM128 159.77V169H126.102V165.191H122.241V169H120.343V159.77H122.241V163.449H126.102V159.77H128ZM135.609 169H132.294V159.77H135.609C137.143 159.77 138.334 160.195 139.184 161.044C140.042 161.893 140.471 163.007 140.471 164.385C140.471 165.763 140.042 166.877 139.184 167.726C138.334 168.575 137.143 169 135.609 169ZM137.741 166.504C138.226 165.993 138.469 165.286 138.469 164.385C138.469 163.484 138.226 162.782 137.741 162.279C137.264 161.768 136.536 161.512 135.557 161.512H134.192V167.258H135.557C136.536 167.258 137.264 167.007 137.741 166.504ZM150.976 167.258V169H144.333V159.77H150.976V161.512H146.231V163.449H150.781V165.191H146.231V167.258H150.976ZM161.581 167.258V169H154.938V159.77H161.581V161.512H156.836V163.449H161.386V165.191H156.836V167.258H161.581ZM168.857 169H165.542V159.77H168.857C170.391 159.77 171.583 160.195 172.432 161.044C173.29 161.893 173.719 163.007 173.719 164.385C173.719 165.763 173.29 166.877 172.432 167.726C171.583 168.575 170.391 169 168.857 169ZM170.989 166.504C171.474 165.993 171.717 165.286 171.717 164.385C171.717 163.484 171.474 162.782 170.989 162.279C170.512 161.768 169.784 161.512 168.805 161.512H167.44V167.258H168.805C169.784 167.258 170.512 167.007 170.989 166.504Z" fill="#03F8C5"/>
</svg>
