<svg width="217" height="217" viewBox="0 0 217 217" fill="none" xmlns="http://www.w3.org/2000/svg">
<path d="M112.705 51.793H108.456L104.727 58.2346L108.98 58.2365L112.705 51.793Z" fill="#03F8C5"/>
<path d="M89.4418 93.2738L93.4394 100.139L121.124 51.793H116.872L93.3512 92.6678L86.9843 81.6402L104.308 51.793H99.9373L82.7153 81.623L86.0586 87.4145" fill="#03F8C5"/>
<path d="M145.35 70.7895L123.858 107.669H119.594L128.001 93.2852L122.187 83.2147L120.236 86.7278L123.853 92.9935L115.438 107.717L102.065 107.687L134.424 51.7939H130.253L97.9077 107.936L99.9385 111.454H134.383L141.774 98.7428L144.142 94.6137L151.606 81.6239L145.35 70.7891V70.7895ZM115.319 110.703L116.466 108.238H118.579L119.516 110.703H115.319ZM132.18 107.669H127.808L145.061 77.8943L147.194 81.6243L132.18 107.669Z" fill="#03F8C5"/>
<path d="M136.727 145.834H80.2423L52 96.9172L80.2423 48H136.727L164.969 96.9172L136.727 145.834H136.727ZM82.4333 142.04H134.536L160.588 96.9172L134.536 51.7948H82.4333L56.3821 96.9172L82.4333 142.04Z" fill="#03F8C5"/>
<path d="M85.6359 126.854L83.2773 122.997L86.5148 121.018L89.6297 126.032L85.6359 126.854Z" fill="#03F8C5"/>
<path d="M79.7487 141.186L77.6133 137.488L86.4537 124.577L89.6298 126.034L79.7487 141.186Z" fill="#03F8C5"/>
<path d="M93.2525 131.255L97.6257 131.239L97.4962 127.206H92.7649L93.2525 131.255Z" fill="#03F8C5"/>
<path d="M82.8345 142.605L87.4151 142.586L95.3942 129.998L92.765 127.206L82.8345 142.605Z" fill="#03F8C5"/>
<path d="M99.3756 129.784L99.3772 129.78L95.7449 128.682C95.8545 128.319 98.5197 119.769 106.08 117.743C112.006 116.155 120.997 121.052 128.832 128.403L124.221 129.195C120.467 125.673 116.969 123.27 113.824 122.053C111.343 121.093 109.075 120.874 107.082 121.403C104.821 122.003 102.852 123.554 101.231 126.013C99.9445 127.963 99.3818 129.766 99.376 129.784L99.3756 129.784Z" fill="#03F8C5"/>
<path d="M108.924 139.589C107.814 139.589 106.737 139.449 105.692 139.169C98.1322 137.144 95.4671 128.594 95.3574 128.231L98.9897 127.133L98.9882 127.128C98.9936 127.146 99.5566 128.949 100.843 130.899C102.464 133.358 104.433 134.909 106.694 135.509C108.687 136.038 110.955 135.819 113.436 134.859C116.581 133.642 120.079 131.239 123.833 127.717L128.832 128.402C122.378 134.457 114.105 139.589 108.923 139.589L108.924 139.589Z" fill="#03F8C5"/>
<path d="M83.462 121.303L83.4655 121.3L86.0306 124.096C86.3101 123.84 92.8583 117.731 91.4047 110.04C90.2655 104.012 81.9529 98.0336 71.9312 94.1621L73.2176 98.6607C78.0197 100.516 81.7019 102.626 84.1624 104.931C86.1031 106.75 87.2841 108.699 87.672 110.724C88.112 113.022 87.5685 115.469 86.0559 117.996C84.8562 120.001 83.4758 121.291 83.462 121.303V121.303Z" fill="#03F8C5"/>
<path d="M70.4866 116.952C70.9676 117.951 71.561 118.862 72.2663 119.682C77.3705 125.615 86.2305 124.309 86.605 124.25L86.0193 120.501L86.0239 120.5C86.0051 120.503 84.1368 120.778 81.8212 120.464C78.9023 120.07 76.651 118.969 75.1297 117.191C73.7892 115.625 73.0023 113.486 72.7914 110.834C72.5243 107.473 73.1721 103.279 74.7176 98.3686L71.932 94.1621C69.2753 102.603 68.2396 112.284 70.4866 116.952Z" fill="#03F8C5"/>
<path d="M99.0601 129.23L128.832 128.402" stroke="#03F8C5" stroke-width="0.889261" stroke-miterlimit="10"/>
<path d="M107.696 124.455H105.971L101.832 129.23" stroke="#03F8C5" stroke-width="0.889261" stroke-miterlimit="10"/>
<path d="M113.947 124.41H112.871L109.306 128.817" stroke="#03F8C5" stroke-width="0.889261" stroke-miterlimit="10"/>
<path d="M118.086 125.971H116.653L114.554 128.778" stroke="#03F8C5" stroke-width="0.889261" stroke-miterlimit="10"/>
<path d="M100.567 129.23L105.167 133.359H106.202" stroke="#03F8C5" stroke-width="0.889261" stroke-miterlimit="10"/>
<path d="M105.221 129.06L109.018 132.686H111.203" stroke="#03F8C5" stroke-width="0.889261" stroke-miterlimit="10"/>
<path d="M112.582 128.854L115.318 130.871H117.084" stroke="#03F8C5" stroke-width="0.889261" stroke-miterlimit="10"/>
<path d="M83.8 120.248L77.9951 118.125L77.509 117.212" stroke="#03F8C5" stroke-width="0.889261" stroke-miterlimit="10"/>
<path d="M84.7656 122.186L72.4834 95.0518" stroke="#03F8C5" stroke-width="0.889261" stroke-miterlimit="10"/>
<path d="M85.2813 112.33L86.0361 113.881L83.553 119.693" stroke="#03F8C5" stroke-width="0.889261" stroke-miterlimit="10"/>
<path d="M82.5869 106.689L83.0577 107.657L80.655 112.79" stroke="#03F8C5" stroke-width="0.889261" stroke-miterlimit="10"/>
<path d="M79.0376 102.965L79.6647 104.254L78.0586 107.369" stroke="#03F8C5" stroke-width="0.889261" stroke-miterlimit="10"/>
<path d="M82.1052 116.188L77.2038 114.305L76.27 112.33" stroke="#03F8C5" stroke-width="0.889261" stroke-miterlimit="10"/>
<path d="M79.1873 109.861L76.1756 108.283L75.4028 106.695" stroke="#03F8C5" stroke-width="0.889261" stroke-miterlimit="10"/>
<path d="M78.742 103.15C79.1639 103.15 79.5059 102.808 79.5059 102.386C79.5059 101.964 79.1639 101.622 78.742 101.622C78.3201 101.622 77.978 101.964 77.978 102.386C77.978 102.808 78.3201 103.15 78.742 103.15Z" stroke="#03F8C5" stroke-width="0.889261" stroke-miterlimit="10"/>
<path d="M75.2334 106.83C75.6553 106.83 75.9973 106.488 75.9973 106.066C75.9973 105.644 75.6553 105.302 75.2334 105.302C74.8115 105.302 74.4695 105.644 74.4695 106.066C74.4695 106.488 74.8115 106.83 75.2334 106.83Z" stroke="#03F8C5" stroke-width="0.889261" stroke-miterlimit="10"/>
<path d="M82.2925 106.83C82.7144 106.83 83.0564 106.488 83.0564 106.066C83.0564 105.644 82.7144 105.302 82.2925 105.302C81.8706 105.302 81.5286 105.644 81.5286 106.066C81.5286 106.488 81.8706 106.83 82.2925 106.83Z" stroke="#03F8C5" stroke-width="0.889261" stroke-miterlimit="10"/>
<path d="M77.2947 117.36C77.7166 117.36 78.0586 117.018 78.0586 116.596C78.0586 116.174 77.7166 115.832 77.2947 115.832C76.8728 115.832 76.5308 116.174 76.5308 116.596C76.5308 117.018 76.8728 117.36 77.2947 117.36Z" stroke="#03F8C5" stroke-width="0.889261" stroke-miterlimit="10"/>
<path d="M84.999 112.471C85.4209 112.471 85.763 112.129 85.763 111.707C85.763 111.285 85.4209 110.943 84.999 110.943C84.5771 110.943 84.2351 111.285 84.2351 111.707C84.2351 112.129 84.5771 112.471 84.999 112.471Z" stroke="#03F8C5" stroke-width="0.889261" stroke-miterlimit="10"/>
<path d="M76.0613 112.471C76.4832 112.471 76.8252 112.129 76.8252 111.707C76.8252 111.285 76.4832 110.943 76.0613 110.943C75.6394 110.943 75.2974 111.285 75.2974 111.707C75.2974 112.129 75.6394 112.471 76.0613 112.471Z" stroke="#03F8C5" stroke-width="0.889261" stroke-miterlimit="10"/>
<path d="M117.858 131.636C118.28 131.636 118.622 131.294 118.622 130.872C118.622 130.45 118.28 130.108 117.858 130.108C117.436 130.108 117.094 130.45 117.094 130.872C117.094 131.294 117.436 131.636 117.858 131.636Z" stroke="#03F8C5" stroke-width="0.889261" stroke-miterlimit="10"/>
<path d="M118.85 126.734C119.272 126.734 119.614 126.392 119.614 125.97C119.614 125.548 119.272 125.206 118.85 125.206C118.428 125.206 118.086 125.548 118.086 125.97C118.086 126.392 118.428 126.734 118.85 126.734Z" stroke="#03F8C5" stroke-width="0.889261" stroke-miterlimit="10"/>
<path d="M114.554 125.155C114.976 125.155 115.318 124.813 115.318 124.391C115.318 123.969 114.976 123.627 114.554 123.627C114.132 123.627 113.79 123.969 113.79 124.391C113.79 124.813 114.132 125.155 114.554 125.155Z" stroke="#03F8C5" stroke-width="0.889261" stroke-miterlimit="10"/>
<path d="M106.755 134.088C107.177 134.088 107.519 133.746 107.519 133.324C107.519 132.903 107.177 132.561 106.755 132.561C106.333 132.561 105.991 132.903 105.991 133.324C105.991 133.746 106.333 134.088 106.755 134.088Z" stroke="#03F8C5" stroke-width="0.889261" stroke-miterlimit="10"/>
<path d="M108.445 125.155C108.867 125.155 109.209 124.813 109.209 124.391C109.209 123.969 108.867 123.627 108.445 123.627C108.023 123.627 107.681 123.969 107.681 124.391C107.681 124.813 108.023 125.155 108.445 125.155Z" stroke="#03F8C5" stroke-width="0.889261" stroke-miterlimit="10"/>
<path d="M111.968 133.449C112.39 133.449 112.732 133.107 112.732 132.685C112.732 132.263 112.39 131.921 111.968 131.921C111.546 131.921 111.204 132.263 111.204 132.685C111.204 133.107 111.546 133.449 111.968 133.449Z" stroke="#03F8C5" stroke-width="0.889261" stroke-miterlimit="10"/>
<path d="M55.8776 159.016L59.0852 163.146L62.3046 159.016H63.0979V167.839H62.1906V160.557L59.0974 164.485L59.0606 164.473L55.9647 160.526V167.839H55.0574V159.016H55.8776Z" fill="#00D3A4"/>
<path d="M67.8574 167.839H66.8879L70.5167 159.016H71.4984L75.1395 167.839H74.1328L73.2995 165.776H68.6946L67.857 167.839H67.8574ZM71.0151 160.121L70.9905 160.122L69.0382 164.931H72.9587L71.0155 160.121H71.0151Z" fill="#00D3A4"/>
<path d="M83.0049 165.093V159.016H83.9121V165.068C83.9121 165.962 83.6592 166.675 83.1541 167.205C82.6486 167.736 81.9566 168.001 81.0786 168.001C80.2006 168.001 79.521 167.748 79.0159 167.243C78.5104 166.737 78.2578 166.054 78.2578 165.192L78.2828 164.645H79.2023C79.1857 164.786 79.1774 164.968 79.1774 165.192C79.1774 165.78 79.3428 166.259 79.6746 166.627C80.0059 166.996 80.4742 167.18 81.0786 167.18C81.6831 167.18 82.1661 166.998 82.5017 166.634C82.8374 166.269 83.0049 165.756 83.0049 165.093Z" fill="#00D3A4"/>
<path d="M88.2753 167.839H87.3059L90.9347 159.016H91.9164L95.5574 167.839H94.5508L93.7175 165.776H89.1126L88.275 167.839H88.2753ZM91.4331 160.121L91.4085 160.122L89.4562 164.931H93.3767L91.4334 160.121H91.4331Z" fill="#00D3A4"/>
<path d="M100.254 160.479V167.839H99.3467V159.016H100.294L105.449 166.411V159.016H106.356V167.839H105.399L100.254 160.479H100.254Z" fill="#00D3A4"/>
<path d="M115.056 160.556C114.26 160.556 113.641 160.813 113.198 161.326C112.754 161.84 112.533 162.536 112.533 163.414C112.533 164.292 112.757 165.011 113.204 165.545C113.651 166.079 114.269 166.347 115.056 166.347C116.481 166.347 117.318 165.758 117.566 164.582H115.504V162.954H119.319V167.838H117.703V166.769C117.132 167.572 116.208 167.974 114.932 167.974C113.656 167.974 112.65 167.554 111.838 166.713C111.026 165.872 110.62 164.773 110.62 163.414C110.62 162.055 111.038 160.941 111.875 160.096C112.712 159.25 113.772 158.828 115.056 158.828C116.1 158.828 117.003 159.104 117.766 159.655C118.528 160.206 119.025 160.953 119.257 161.898L117.393 162.283C117.26 161.736 116.986 161.312 116.572 161.009C116.158 160.707 115.653 160.556 115.056 160.556H115.056Z" fill="#00F9CA"/>
<path d="M130.912 167.839H128.812L127.159 164.496H125.42V167.839H123.605V159.016H127.607C128.543 159.016 129.268 159.269 129.782 159.774C130.295 160.279 130.552 160.946 130.552 161.774C130.552 162.371 130.418 162.889 130.148 163.328C129.879 163.767 129.492 164.09 128.987 164.297L130.913 167.839L130.912 167.839ZM128.452 162.551C128.642 162.365 128.738 162.106 128.738 161.775C128.738 161.443 128.64 161.178 128.446 160.979C128.251 160.781 127.971 160.681 127.607 160.681H125.42V162.831H127.607C127.98 162.831 128.261 162.738 128.452 162.552V162.551Z" fill="#00F9CA"/>
<path d="M140.817 166.174V167.839H134.467V159.016H140.817V160.681H136.281V162.533H140.63V164.198H136.281V166.174H140.817V166.174Z" fill="#00F9CA"/>
<path d="M151.205 166.174V167.839H144.855V159.016H151.205V160.681H146.669V162.533H151.019V164.198H146.669V166.174H151.205V166.174Z" fill="#00F9CA"/>
<path d="M157.01 162.011V167.839H155.245V159.016H157.056L160.924 164.868V159.016H162.689V167.839H160.862L157.01 162.011Z" fill="#00F9CA"/>
</svg>
