<svg width="217" height="217" viewBox="0 0 217 217" fill="none" xmlns="http://www.w3.org/2000/svg">
<path d="M54.8717 160L58.0785 164.127L61.2979 160H62.0905V168.813H61.184V161.539L58.0911 165.462L58.0548 165.451L54.9587 161.509V168.813H54.0522V160H54.8717Z" fill="#00D3A4"/>
<path d="M66.8477 168.813H65.8779L69.5055 160H70.4863L74.1266 168.813H73.1204L72.2867 166.752H67.683L66.8461 168.813H66.8477ZM70.0054 161.105H69.9801L68.0279 165.909H71.9466L70.0038 161.105H70.0054Z" fill="#00D3A4"/>
<path d="M81.9937 166.071V160.002H82.9002V166.047C82.9002 166.94 82.6471 167.653 82.1424 168.182C81.6378 168.712 80.9449 168.977 80.0668 168.977C79.1888 168.977 78.5101 168.725 78.0039 168.22C77.4992 167.716 77.2461 167.033 77.2461 166.172L77.2714 165.625H78.1906C78.1732 165.766 78.1652 165.948 78.1652 166.172C78.1652 166.76 78.3314 167.237 78.662 167.606C78.9926 167.974 79.4609 168.157 80.0653 168.157C80.6696 168.157 81.1521 167.975 81.4875 167.61C81.8229 167.247 81.9906 166.733 81.9906 166.071H81.9937Z" fill="#00D3A4"/>
<path d="M87.2615 168.813H86.2917L89.9193 160H90.9002L94.5404 168.813H93.5342L92.7005 166.752H88.0968L87.2599 168.813H87.2615ZM90.4192 161.105H90.3939L88.4417 165.909H92.362L90.4192 161.105Z" fill="#00D3A4"/>
<path d="M99.2375 161.462V168.813H98.3311V160H99.2787L104.431 167.386V160H105.338V168.813H104.381L99.2375 161.462Z" fill="#00D3A4"/>
<path d="M115.687 160H117.676L114.333 168.813H112.469L109.126 160H111.164L113.412 166.404H113.437L115.686 160H115.687Z" fill="#00F9CA"/>
<path d="M122.955 160V168.813H121.141V160H122.955Z" fill="#00F9CA"/>
<path d="M130.312 167.374C130.801 167.374 131.182 167.286 131.455 167.107C131.729 166.929 131.865 166.679 131.865 166.356C131.865 166.124 131.778 165.934 131.604 165.786C131.43 165.637 131.204 165.523 130.925 165.446C130.647 165.369 130.342 165.283 130.011 165.192C129.68 165.1 129.345 165.007 129.006 164.912C128.668 164.817 128.359 164.681 128.083 164.503C127.806 164.324 127.58 164.068 127.405 163.733C127.231 163.398 127.144 162.998 127.144 162.535C127.144 161.765 127.434 161.12 128.015 160.599C128.594 160.077 129.377 159.816 130.362 159.816C131.348 159.816 132.145 160.098 132.729 160.66C133.313 161.223 133.618 161.922 133.642 162.758H131.865C131.848 162.361 131.705 162.04 131.436 161.795C131.168 161.552 130.801 161.428 130.337 161.428C129.915 161.428 129.574 161.52 129.318 161.702C129.062 161.884 128.934 162.116 128.934 162.399C128.934 162.633 129.022 162.822 129.2 162.968C129.377 163.113 129.606 163.225 129.886 163.303C130.166 163.38 130.475 163.467 130.812 163.561C131.149 163.654 131.489 163.749 131.832 163.845C132.177 163.941 132.489 164.079 132.767 164.261C133.045 164.442 133.272 164.706 133.444 165.053C133.617 165.399 133.702 165.813 133.702 166.293C133.702 167.088 133.381 167.735 132.738 168.236C132.096 168.737 131.255 168.986 130.21 168.986C129.622 168.986 129.105 168.901 128.657 168.732C128.209 168.563 127.858 168.332 127.6 168.043C127.344 167.754 127.151 167.439 127.023 167.099C126.895 166.759 126.822 166.401 126.806 166.02H128.595C128.62 166.409 128.777 166.731 129.067 166.989C129.356 167.245 129.771 167.373 130.308 167.373L130.312 167.374Z" fill="#00F9CA"/>
<path d="M139.493 160V168.813H137.678V160H139.493Z" fill="#00F9CA"/>
<path d="M151.309 161.118C152.169 161.988 152.601 163.084 152.601 164.407C152.601 165.73 152.171 166.827 151.309 167.696C150.447 168.566 149.35 169 148.017 169C146.683 169 145.585 168.566 144.724 167.696C143.862 166.827 143.432 165.732 143.432 164.407C143.432 163.083 143.862 161.988 144.724 161.118C145.585 160.249 146.683 159.814 148.017 159.814C149.35 159.814 150.448 160.249 151.309 161.118ZM149.942 166.487C150.439 165.962 150.687 165.269 150.687 164.409C150.687 163.549 150.439 162.855 149.942 162.331C149.445 161.806 148.803 161.542 148.017 161.542C147.23 161.542 146.588 161.804 146.091 162.331C145.595 162.857 145.346 163.549 145.346 164.409C145.346 165.269 145.595 165.962 146.091 166.487C146.588 167.014 147.23 167.276 148.017 167.276C148.803 167.276 149.445 167.014 149.942 166.487Z" fill="#00F9CA"/>
<path d="M158.303 162.992V168.813H156.539V160H158.351L162.217 165.845V160H163.981V168.813H162.155L158.303 162.992Z" fill="#00F9CA"/>
<path d="M103.599 61.0723H98.7561L94.5044 68.4101L99.3528 68.413L103.599 61.0723Z" fill="#03F8C5"/>
<path d="M77.0778 108.322L81.6336 116.14L113.2 61.0723H108.352L81.5352 107.631L74.2742 95.0703L94.0268 61.0723H89.0452L69.4084 95.0501L73.22 101.647" fill="#03F8C5"/>
<path d="M140.822 82.7095L116.316 124.717H111.453L121.04 108.334L114.41 96.8643L112.186 100.866L116.31 108.004L106.715 124.775L91.469 124.74L128.362 61.0723H123.606L86.7278 125.02L89.0448 129.028H128.318L136.744 114.549L139.443 109.847L147.952 95.0501L140.819 82.7095H140.822ZM106.582 128.174L107.891 125.368H110.301L111.369 128.174H106.585H106.582ZM125.807 124.72H120.823L140.494 90.8054L142.927 95.053L125.807 124.72Z" fill="#03F8C5"/>
<path d="M213.924 93.7154C206.842 87.616 199.604 82.0606 192.413 77.2054C185.526 72.5527 178.496 68.418 171.519 64.9169C158.515 58.3864 145.221 53.8089 132.008 51.3119C123.849 49.7697 115.673 49 107.503 49C93.3516 49 79.2206 51.3119 65.2779 55.9211C56.6528 58.7741 48.0798 62.5211 39.7993 67.0667C33.1784 70.698 26.7284 74.8443 20.626 79.3841C10.211 87.1357 4.47632 93.2959 4.23882 93.5563L2 95.8219L4.23882 98.0903C4.47632 98.3478 10.211 104.508 20.626 112.262C26.7284 116.805 33.1784 120.949 39.7993 124.58C48.0798 129.123 56.6528 132.873 65.2779 135.725C79.2206 140.335 93.3487 142.647 107.503 142.647C115.673 142.647 123.852 141.877 132.008 140.335C145.221 137.838 158.515 133.26 171.519 126.73C178.493 123.229 185.523 119.094 192.413 114.441C199.604 109.586 206.839 104.031 213.924 97.9312L215.977 95.8247L213.924 93.7183V93.7154ZM66.8361 131.594C47.8655 125.35 32.7498 115.769 23.4064 108.831C15.2794 102.795 9.99373 97.6592 8.18066 95.8219C9.97925 93.9961 15.1983 88.921 23.2645 82.9199C32.5963 75.9728 47.7004 66.3781 66.6652 60.108C71.8177 58.4037 76.9702 57.0207 82.1198 55.9559L59.3319 95.3878L82.6904 135.806C77.4075 134.739 72.1189 133.335 66.8332 131.596L66.8361 131.594ZM130.606 135.025L129.778 136.411C122.485 137.705 115.175 138.353 107.856 138.353C101.435 138.353 95.0053 137.855 88.5698 136.857L87.3389 135.028L64.4293 95.3878L87.3389 55.7446L87.7994 54.9084C102.014 52.6168 116.203 52.7615 130.337 55.3309L130.609 55.7446L153.519 95.3849L130.609 135.025H130.606ZM135.574 135.245L158.611 95.3849L136.153 56.5288C160.884 62.1999 185.427 75.3131 209.6 95.8219C185.239 116.493 160.502 129.649 135.574 135.245Z" fill="#00F9CA"/>
</svg>
