<svg width="217" height="217" viewBox="0 0 217 217" fill="none" xmlns="http://www.w3.org/2000/svg">
<path d="M68.7943 158.77L72.0892 163.014L75.3965 158.77H76.2115V167.835H75.2796V160.353L72.1017 164.388L72.0642 164.375L68.8836 160.321V167.834H67.9517V158.77H68.7943V158.77Z" fill="#00D3A4"/>
<path d="M81.1018 167.835H80.1064L83.8342 158.771H84.843L88.5832 167.835H87.5495L86.6935 165.715H81.9632L81.1027 167.835H81.1018ZM84.3457 159.906H84.3207L82.3149 164.847H86.3426L84.3466 159.906H84.3457Z" fill="#00D3A4"/>
<path d="M96.6634 165.013V158.771H97.5953V164.988C97.5953 165.907 97.3355 166.639 96.8169 167.184C96.2974 167.728 95.5868 168.001 94.6852 168.001C93.7836 168.001 93.0846 167.741 92.566 167.222C92.0465 166.704 91.7876 166.001 91.7876 165.116L91.8135 164.554H92.7579C92.741 164.699 92.732 164.886 92.732 165.116C92.732 165.72 92.9025 166.212 93.2426 166.59C93.5828 166.969 94.0639 167.158 94.6852 167.158C95.3065 167.158 95.8019 166.971 96.1474 166.597C96.492 166.223 96.6643 165.695 96.6643 165.014L96.6634 165.013Z" fill="#00D3A4"/>
<path d="M102.076 167.835H101.081L104.809 158.771H105.818L109.558 167.835H108.524L107.668 165.715H102.938L102.077 167.835H102.076ZM105.32 159.906H105.295L103.29 164.847H107.317L105.321 159.906H105.32Z" fill="#00D3A4"/>
<path d="M114.383 160.274V167.835H113.451V158.771H114.424L119.719 166.367V158.771H120.651V167.835H119.668L114.382 160.274H114.383Z" fill="#00D3A4"/>
<path d="M127.111 158.771V167.835H125.566V158.771H127.111Z" fill="#03F8C5"/>
<path d="M134.655 167.988C133.634 167.988 132.807 167.652 132.172 166.979C131.538 166.307 131.221 165.49 131.221 164.528C131.221 163.566 131.538 162.747 132.172 162.071C132.806 161.394 133.634 161.056 134.655 161.056C135.677 161.056 136.517 161.394 137.151 162.071C137.785 162.747 138.103 163.567 138.103 164.528C138.103 165.49 137.786 166.307 137.151 166.979C136.517 167.652 135.685 167.988 134.655 167.988ZM132.741 164.528C132.741 165.158 132.921 165.669 133.283 166.06C133.645 166.452 134.102 166.647 134.655 166.647C135.209 166.647 135.678 166.452 136.041 166.06C136.402 165.669 136.583 165.158 136.583 164.528C136.583 163.898 136.402 163.375 136.041 162.984C135.679 162.593 135.218 162.396 134.655 162.396C134.093 162.396 133.645 162.592 133.283 162.984C132.922 163.376 132.741 163.89 132.741 164.528Z" fill="#03F8C5"/>
<path d="M148.022 158.771V160.239H145.392V167.835H143.848V160.239H141.218V158.771H148.023H148.022Z" fill="#03F8C5"/>
<path d="M105.923 81.3018H103.582L101.527 84.8509L103.87 84.8519L105.923 81.3018Z" fill="#03F8C5"/>
<path d="M93.1052 104.157L95.3075 107.939L110.562 81.3018H108.219L95.2594 103.824L91.7509 97.747L101.296 81.3018H98.888L89.3989 97.7377L91.241 100.928" fill="#03F8C5"/>
<path d="M123.91 91.7682L112.068 112.088H109.719L114.351 104.163L111.147 98.6144L110.073 100.55L112.067 104.002L107.43 112.115L100.062 112.098L117.891 81.3018H115.593L97.771 112.236L98.8897 114.174H117.868L121.94 107.171L123.244 104.895L127.357 97.7377L123.91 91.7682ZM107.364 113.76L107.996 112.402H109.16L109.677 113.76H107.365H107.364ZM116.654 112.089H114.245L123.751 95.6832L124.927 97.7387L116.654 112.089Z" fill="#03F8C5"/>
<path d="M121.743 120.643H95.2933L82.0684 97.7372L95.2933 74.8311H121.743L134.968 97.7372L121.743 120.643ZM96.3196 118.866H120.718L132.916 97.7372L120.718 76.6084H96.3196L84.121 97.7372L96.3196 118.866Z" fill="#03F8C5"/>
<path d="M130.637 79.0704L127.357 73.3873L130.637 67.7051H137.199L140.479 73.3873L137.199 79.0704H130.637Z" fill="#03F8C5"/>
<path d="M80.3428 79.0704L77.0615 73.3873L80.3428 67.7051H86.9035L90.1848 73.3873L86.9035 79.0704H80.3428Z" fill="#03F8C5"/>
<path d="M104.401 68.9787L101.12 63.2965L104.401 57.6143H110.962L114.243 63.2965L110.962 68.9787H104.401Z" fill="#03F8C5"/>
<path d="M132.916 112.856L129.634 118.539L132.916 124.221H139.476L142.758 118.539L139.476 112.856H132.916Z" fill="#03F8C5"/>
<path d="M78.025 112.856L74.7446 118.539L78.025 124.221H84.5866L87.867 118.539L84.5866 112.856H78.025Z" fill="#03F8C5"/>
<path d="M104.401 125.622L101.12 131.304L104.401 136.987H110.962L114.243 131.304L110.962 125.622H104.401Z" fill="#03F8C5"/>
<path d="M140.85 100.794L138.121 96.0669L140.85 91.3408H146.308L149.037 96.0669L146.308 100.794H140.85Z" fill="#03F8C5"/>
<path d="M150.442 84.1031L148.328 80.4412L150.442 76.7803H154.67L156.784 80.4412L154.67 84.1031H150.442Z" fill="#03F8C5"/>
<path d="M150.442 117.42L148.329 113.759L150.442 110.097H154.67L156.785 113.759L154.67 117.42H150.442Z" fill="#03F8C5"/>
<path d="M75.9341 100.794L78.6639 96.0669L75.9341 91.3408H70.4764L67.7476 96.0669L70.4764 100.794H75.9341Z" fill="#03F8C5"/>
<path d="M66.3418 84.1031L68.4563 80.4412L66.3418 76.7803H62.1136L60 80.4412L62.1136 84.1031H66.3418Z" fill="#03F8C5"/>
<path d="M66.3418 117.42L68.4563 113.759L66.3418 110.097H62.1136L60 113.759L62.1136 117.42H66.3418Z" fill="#03F8C5"/>
<path d="M121.664 56.8037L119.123 52.4018L121.664 48H126.748L129.289 52.4018L126.748 56.8037H121.664Z" fill="#03F8C5"/>
<path d="M121.664 146.462L119.123 142.06L121.664 137.658H126.748L129.289 142.06L126.748 146.462H121.664Z" fill="#03F8C5"/>
<path d="M87.6434 56.8037L85.1021 52.4018L87.6434 48H92.726L95.2674 52.4018L92.726 56.8037H87.6434Z" fill="#03F8C5"/>
<path d="M87.6434 146.462L85.1021 142.06L87.6434 137.658H92.726L95.2674 142.06L92.726 146.462H87.6434Z" fill="#03F8C5"/>
<path d="M92.8468 79.0705L87.8667 75.9961" stroke="#03F8C5" stroke-width="1.88649" stroke-miterlimit="10"/>
<path d="M131.248 115.889L126.216 112.899" stroke="#03F8C5" stroke-width="1.88649" stroke-miterlimit="10"/>
<path d="M107.68 74.8297L107.655 68.9775" stroke="#03F8C5" stroke-width="1.88649" stroke-miterlimit="10"/>
<path d="M124.207 79.126L129.266 76.1855" stroke="#03F8C5" stroke-width="1.88649" stroke-miterlimit="10"/>
<path d="M86.4961 116.02L91.5566 113.08" stroke="#03F8C5" stroke-width="1.88649" stroke-miterlimit="10"/>
</svg>
