<svg width="217" height="217" viewBox="0 0 217 217" fill="none" xmlns="http://www.w3.org/2000/svg">
<path d="M139.008 88.2799L133.75 79.1722L139.008 70.0645H149.524L154.783 79.1722L149.524 88.2799H139.008Z" fill="#03F8C5"/>
<path d="M100.243 68.3141L94.6675 58.6573L100.243 49H111.394L116.969 58.6573L111.394 68.3141H100.243Z" fill="#03F8C5"/>
<path d="M150.486 56.6179L148.287 52.8092L150.486 49H154.885L157.084 52.8092L154.885 56.6179H150.486Z" fill="#03F8C5"/>
<path d="M132.823 62.3977L128.98 55.7415L132.823 49.085H140.509L144.352 55.7415L140.509 62.3977H132.823Z" fill="#03F8C5"/>
<path d="M101.695 78.6631H97.787L94.3564 84.5886L98.2689 84.5906L101.695 78.6631Z" fill="#03F8C5"/>
<path d="M105.529 78.6631L83.8917 116.265L78.0342 106.12L93.9714 78.6631H89.9506L74.1069 106.105L77.1831 111.432L80.2953 116.823L83.9727 123.138L109.441 78.6631H105.529Z" fill="#03F8C5"/>
<path d="M131.727 96.1374L111.955 130.064H108.032L115.766 116.832L110.417 107.568L108.623 110.8L111.951 116.564L104.209 130.108L91.9065 130.081L121.675 78.6631H117.838L88.0825 130.311L89.9509 133.547H121.638L128.436 121.853L130.615 118.055L137.482 106.105L131.727 96.1374H131.727ZM104.099 132.855L105.155 130.588H107.099L107.961 132.855H104.1H104.099ZM119.611 130.065H115.589L131.46 102.673L133.423 106.105L119.611 130.065Z" fill="#03F8C5"/>
<path d="M144.16 90.6917L144.007 90.4273H138.263L131.784 78.9513L134.524 74.1432L134.522 74.1424L134.563 74.0709L132.2 69.9778L129.544 65.377H114.638L114.539 65.5487L114.527 65.5416L112.119 69.7239H99.3887L96.9641 65.6723L96.9551 65.6777L96.7818 65.3773H82.5144L59 106.106L82.5148 146.834H129.544L153.059 106.106L144.16 90.6917ZM127.72 143.675H84.339L62.6484 106.106L84.339 68.5365H94.9964L97.347 72.4649L97.5856 72.8834H114.216L116.515 68.5365H127.72L130.447 73.2601L130.891 74.0286L128.022 78.7139L136.47 93.6877L142.324 93.8317L149.41 106.106L127.719 143.675L127.72 143.675Z" fill="#03F8C5"/>
<path d="M61.3661 159.829L64.64 164.045L67.9265 159.829H68.7363V168.835H67.8101V161.401L64.6525 165.411L64.615 165.399L61.4546 161.37V168.835H60.5288V159.828H61.3661V159.829Z" fill="#00D3A4"/>
<path d="M73.5941 168.835H72.6045L76.3088 159.828H77.3109L81.0277 168.835H80.0001L79.1495 166.729H74.4488L73.5937 168.835H73.5941ZM76.8175 160.956L76.7925 160.958L74.7995 165.866H78.8016L76.8179 160.956H76.8175Z" fill="#00D3A4"/>
<path d="M89.0582 166.032V159.828H89.9844V166.006C89.9844 166.919 89.7262 167.647 89.2106 168.188C88.6946 168.73 87.9882 169 87.0919 169C86.1957 169 85.5018 168.742 84.9862 168.226C84.4702 167.711 84.2124 167.013 84.2124 166.133L84.2379 165.575H85.1766C85.1596 165.719 85.1511 165.905 85.1511 166.133C85.1511 166.734 85.32 167.222 85.6586 167.598C85.9969 167.975 86.4745 168.163 87.0923 168.163C87.7102 168.163 88.2024 167.977 88.545 167.605C88.8877 167.233 89.0586 166.709 89.0586 166.032H89.0582Z" fill="#00D3A4"/>
<path d="M94.4374 168.835H93.4478L97.152 159.828H98.1542L101.871 168.835H100.843L99.9928 166.729H95.292L94.437 168.835H94.4374ZM97.6608 160.956L97.6357 160.958L95.6428 165.866H99.6449L97.6612 160.956H97.6608Z" fill="#00D3A4"/>
<path d="M106.666 161.322V168.835H105.74V159.828H106.707L111.969 167.377V159.828H112.895V168.835H111.918L106.666 161.322H106.666Z" fill="#00D3A4"/>
<path d="M120.9 168.835H117.666V159.828H120.9C122.397 159.828 123.562 160.243 124.395 161.072C125.228 161.9 125.645 162.987 125.645 164.332C125.645 165.677 125.228 166.763 124.395 167.592C123.562 168.421 122.397 168.835 120.9 168.835V168.835ZM122.987 166.393C123.457 165.898 123.691 165.211 123.691 164.331C123.691 163.452 123.456 162.765 122.987 162.27C122.517 161.775 121.805 161.527 120.849 161.527H119.517V167.134H120.849C121.805 167.134 122.517 166.887 122.987 166.392V166.393Z" fill="#00F9CA"/>
<path d="M130.348 168.835H128.41L131.657 159.828H133.751L136.989 168.835H135.146L134.598 167.287H130.898L130.348 168.835ZM132.765 162.11L132.736 162.111L131.488 165.625H134.01L132.765 162.11H132.765Z" fill="#00F9CA"/>
<path d="M145.675 159.828V161.566H143.201V168.835H141.349V161.566H138.875V159.828H145.675Z" fill="#00F9CA"/>
<path d="M149.352 168.835H147.414L150.66 159.828H152.754L155.993 168.835H154.15L153.602 167.287H149.901L149.352 168.835ZM151.769 162.11L151.739 162.111L150.491 165.625H153.013L151.768 162.11H151.769Z" fill="#00F9CA"/>
</svg>
